<?xml version="1.0" encoding="utf-8"?>
<svg xmlns="http://www.w3.org/2000/svg" xmlns:xlink="http://www.w3.org/1999/xlink" width="1200" height="1000" viewBox="0 0 4800 4000">
<defs>
  <clipPath id="clip790">
    <rect x="0" y="0" width="4800" height="4000"/>
  </clipPath>
</defs>
<path clip-path="url(#clip790)" d="M0 4000 L4800 4000 L4800 0 L0 0  Z" fill="#ffffff" fill-rule="evenodd" fill-opacity="1"/>
<defs>
  <clipPath id="clip791">
    <rect x="960" y="0" width="3361" height="3361"/>
  </clipPath>
</defs>
<path clip-path="url(#clip790)" d="M419.747 1636.93 L2211.02 1636.93 L2211.02 188.976 L419.747 188.976  Z" fill="#ffffff" fill-rule="evenodd" fill-opacity="1"/>
<defs>
  <clipPath id="clip792">
    <rect x="419" y="188" width="1792" height="1449"/>
  </clipPath>
</defs>
<polyline clip-path="url(#clip792)" style="stroke:#000000; stroke-linecap:round; stroke-linejoin:round; stroke-width:8; stroke-opacity:0.1; fill:none" points="467.057,1636.93 467.057,188.976 "/>
<polyline clip-path="url(#clip792)" style="stroke:#000000; stroke-linecap:round; stroke-linejoin:round; stroke-width:8; stroke-opacity:0.1; fill:none" points="805.711,1636.93 805.711,188.976 "/>
<polyline clip-path="url(#clip792)" style="stroke:#000000; stroke-linecap:round; stroke-linejoin:round; stroke-width:8; stroke-opacity:0.1; fill:none" points="1144.36,1636.93 1144.36,188.976 "/>
<polyline clip-path="url(#clip792)" style="stroke:#000000; stroke-linecap:round; stroke-linejoin:round; stroke-width:8; stroke-opacity:0.1; fill:none" points="1483.02,1636.93 1483.02,188.976 "/>
<polyline clip-path="url(#clip792)" style="stroke:#000000; stroke-linecap:round; stroke-linejoin:round; stroke-width:8; stroke-opacity:0.1; fill:none" points="1821.67,1636.93 1821.67,188.976 "/>
<polyline clip-path="url(#clip792)" style="stroke:#000000; stroke-linecap:round; stroke-linejoin:round; stroke-width:8; stroke-opacity:0.1; fill:none" points="2160.33,1636.93 2160.33,188.976 "/>
<polyline clip-path="url(#clip790)" style="stroke:#000000; stroke-linecap:round; stroke-linejoin:round; stroke-width:4; stroke-opacity:1; fill:none" points="419.747,1636.93 2211.02,1636.93 "/>
<polyline clip-path="url(#clip790)" style="stroke:#000000; stroke-linecap:round; stroke-linejoin:round; stroke-width:4; stroke-opacity:1; fill:none" points="467.057,1636.93 467.057,1618.03 "/>
<polyline clip-path="url(#clip790)" style="stroke:#000000; stroke-linecap:round; stroke-linejoin:round; stroke-width:4; stroke-opacity:1; fill:none" points="805.711,1636.93 805.711,1618.03 "/>
<polyline clip-path="url(#clip790)" style="stroke:#000000; stroke-linecap:round; stroke-linejoin:round; stroke-width:4; stroke-opacity:1; fill:none" points="1144.36,1636.93 1144.36,1618.03 "/>
<polyline clip-path="url(#clip790)" style="stroke:#000000; stroke-linecap:round; stroke-linejoin:round; stroke-width:4; stroke-opacity:1; fill:none" points="1483.02,1636.93 1483.02,1618.03 "/>
<polyline clip-path="url(#clip790)" style="stroke:#000000; stroke-linecap:round; stroke-linejoin:round; stroke-width:4; stroke-opacity:1; fill:none" points="1821.67,1636.93 1821.67,1618.03 "/>
<polyline clip-path="url(#clip790)" style="stroke:#000000; stroke-linecap:round; stroke-linejoin:round; stroke-width:4; stroke-opacity:1; fill:none" points="2160.33,1636.93 2160.33,1618.03 "/>
<path clip-path="url(#clip790)" d="M467.057 1687.05 Q463.446 1687.05 461.617 1690.61 Q459.812 1694.15 459.812 1701.28 Q459.812 1708.39 461.617 1711.95 Q463.446 1715.5 467.057 1715.5 Q470.691 1715.5 472.497 1711.95 Q474.325 1708.39 474.325 1701.28 Q474.325 1694.15 472.497 1690.61 Q470.691 1687.05 467.057 1687.05 M467.057 1683.34 Q472.867 1683.34 475.923 1687.95 Q479.001 1692.53 479.001 1701.28 Q479.001 1710.01 475.923 1714.62 Q472.867 1719.2 467.057 1719.2 Q461.247 1719.2 458.168 1714.62 Q455.113 1710.01 455.113 1701.28 Q455.113 1692.53 458.168 1687.95 Q461.247 1683.34 467.057 1683.34 Z" fill="#000000" fill-rule="nonzero" fill-opacity="1" /><path clip-path="url(#clip790)" d="M796.093 1714.59 L803.732 1714.59 L803.732 1688.23 L795.422 1689.89 L795.422 1685.63 L803.686 1683.97 L808.361 1683.97 L808.361 1714.59 L816 1714.59 L816 1718.53 L796.093 1718.53 L796.093 1714.59 Z" fill="#000000" fill-rule="nonzero" fill-opacity="1" /><path clip-path="url(#clip790)" d="M1139.02 1714.59 L1155.34 1714.59 L1155.34 1718.53 L1133.39 1718.53 L1133.39 1714.59 Q1136.05 1711.84 1140.64 1707.21 Q1145.24 1702.56 1146.43 1701.21 Q1148.67 1698.69 1149.55 1696.95 Q1150.45 1695.19 1150.45 1693.5 Q1150.45 1690.75 1148.51 1689.01 Q1146.59 1687.28 1143.49 1687.28 Q1141.29 1687.28 1138.83 1688.04 Q1136.4 1688.81 1133.62 1690.36 L1133.62 1685.63 Q1136.45 1684.5 1138.9 1683.92 Q1141.36 1683.34 1143.39 1683.34 Q1148.76 1683.34 1151.96 1686.03 Q1155.15 1688.71 1155.15 1693.2 Q1155.15 1695.33 1154.34 1697.25 Q1153.55 1699.15 1151.45 1701.75 Q1150.87 1702.42 1147.77 1705.63 Q1144.67 1708.83 1139.02 1714.59 Z" fill="#000000" fill-rule="nonzero" fill-opacity="1" /><path clip-path="url(#clip790)" d="M1487.27 1699.89 Q1490.62 1700.61 1492.5 1702.88 Q1494.4 1705.15 1494.4 1708.48 Q1494.4 1713.6 1490.88 1716.4 Q1487.36 1719.2 1480.88 1719.2 Q1478.7 1719.2 1476.39 1718.76 Q1474.1 1718.34 1471.64 1717.49 L1471.64 1712.97 Q1473.59 1714.11 1475.9 1714.68 Q1478.22 1715.26 1480.74 1715.26 Q1485.14 1715.26 1487.43 1713.53 Q1489.74 1711.79 1489.74 1708.48 Q1489.74 1705.43 1487.59 1703.71 Q1485.46 1701.98 1481.64 1701.98 L1477.61 1701.98 L1477.61 1698.13 L1481.83 1698.13 Q1485.28 1698.13 1487.1 1696.77 Q1488.93 1695.38 1488.93 1692.79 Q1488.93 1690.12 1487.04 1688.71 Q1485.16 1687.28 1481.64 1687.28 Q1479.72 1687.28 1477.52 1687.69 Q1475.32 1688.11 1472.68 1688.99 L1472.68 1684.82 Q1475.35 1684.08 1477.66 1683.71 Q1480 1683.34 1482.06 1683.34 Q1487.38 1683.34 1490.48 1685.77 Q1493.59 1688.18 1493.59 1692.3 Q1493.59 1695.17 1491.94 1697.16 Q1490.3 1699.13 1487.27 1699.89 Z" fill="#000000" fill-rule="nonzero" fill-opacity="1" /><path clip-path="url(#clip790)" d="M1824.68 1688.04 L1812.88 1706.49 L1824.68 1706.49 L1824.68 1688.04 M1823.46 1683.97 L1829.34 1683.97 L1829.34 1706.49 L1834.27 1706.49 L1834.27 1710.38 L1829.34 1710.38 L1829.34 1718.53 L1824.68 1718.53 L1824.68 1710.38 L1809.08 1710.38 L1809.08 1705.87 L1823.46 1683.97 Z" fill="#000000" fill-rule="nonzero" fill-opacity="1" /><path clip-path="url(#clip790)" d="M2150.6 1683.97 L2168.96 1683.97 L2168.96 1687.9 L2154.89 1687.9 L2154.89 1696.37 Q2155.91 1696.03 2156.92 1695.87 Q2157.94 1695.68 2158.96 1695.68 Q2164.75 1695.68 2168.13 1698.85 Q2171.51 1702.02 2171.51 1707.44 Q2171.51 1713.02 2168.04 1716.12 Q2164.56 1719.2 2158.24 1719.2 Q2156.07 1719.2 2153.8 1718.83 Q2151.55 1718.46 2149.15 1717.72 L2149.15 1713.02 Q2151.23 1714.15 2153.45 1714.71 Q2155.67 1715.26 2158.15 1715.26 Q2162.16 1715.26 2164.49 1713.16 Q2166.83 1711.05 2166.83 1707.44 Q2166.83 1703.83 2164.49 1701.72 Q2162.16 1699.62 2158.15 1699.62 Q2156.28 1699.62 2154.4 1700.03 Q2152.55 1700.45 2150.6 1701.33 L2150.6 1683.97 Z" fill="#000000" fill-rule="nonzero" fill-opacity="1" /><path clip-path="url(#clip790)" d="M1314.45 1772.02 L1314.45 1782.14 L1326.51 1782.14 L1326.51 1786.7 L1314.45 1786.7 L1314.45 1806.05 Q1314.45 1810.41 1315.62 1811.65 Q1316.83 1812.89 1320.49 1812.89 L1326.51 1812.89 L1326.51 1817.79 L1320.49 1817.79 Q1313.71 1817.79 1311.14 1815.28 Q1308.56 1812.73 1308.56 1806.05 L1308.56 1786.7 L1304.26 1786.7 L1304.26 1782.14 L1308.56 1782.14 L1308.56 1772.02 L1314.45 1772.02 Z" fill="#000000" fill-rule="nonzero" fill-opacity="1" /><polyline clip-path="url(#clip792)" style="stroke:#000000; stroke-linecap:round; stroke-linejoin:round; stroke-width:8; stroke-opacity:0.1; fill:none" points="419.747,1599.45 2211.02,1599.45 "/>
<polyline clip-path="url(#clip792)" style="stroke:#000000; stroke-linecap:round; stroke-linejoin:round; stroke-width:8; stroke-opacity:0.1; fill:none" points="419.747,1140.3 2211.02,1140.3 "/>
<polyline clip-path="url(#clip792)" style="stroke:#000000; stroke-linecap:round; stroke-linejoin:round; stroke-width:8; stroke-opacity:0.1; fill:none" points="419.747,681.144 2211.02,681.144 "/>
<polyline clip-path="url(#clip792)" style="stroke:#000000; stroke-linecap:round; stroke-linejoin:round; stroke-width:8; stroke-opacity:0.1; fill:none" points="419.747,221.991 2211.02,221.991 "/>
<polyline clip-path="url(#clip790)" style="stroke:#000000; stroke-linecap:round; stroke-linejoin:round; stroke-width:4; stroke-opacity:1; fill:none" points="419.747,1636.93 419.747,188.976 "/>
<polyline clip-path="url(#clip790)" style="stroke:#000000; stroke-linecap:round; stroke-linejoin:round; stroke-width:4; stroke-opacity:1; fill:none" points="419.747,1599.45 438.645,1599.45 "/>
<polyline clip-path="url(#clip790)" style="stroke:#000000; stroke-linecap:round; stroke-linejoin:round; stroke-width:4; stroke-opacity:1; fill:none" points="419.747,1140.3 438.645,1140.3 "/>
<polyline clip-path="url(#clip790)" style="stroke:#000000; stroke-linecap:round; stroke-linejoin:round; stroke-width:4; stroke-opacity:1; fill:none" points="419.747,681.144 438.645,681.144 "/>
<polyline clip-path="url(#clip790)" style="stroke:#000000; stroke-linecap:round; stroke-linejoin:round; stroke-width:4; stroke-opacity:1; fill:none" points="419.747,221.991 438.645,221.991 "/>
<path clip-path="url(#clip790)" d="M255.872 1599.9 L285.548 1599.9 L285.548 1603.83 L255.872 1603.83 L255.872 1599.9 Z" fill="#000000" fill-rule="nonzero" fill-opacity="1" /><path clip-path="url(#clip790)" d="M296.451 1612.79 L304.09 1612.79 L304.09 1586.43 L295.78 1588.09 L295.78 1583.84 L304.043 1582.17 L308.719 1582.17 L308.719 1612.79 L316.358 1612.79 L316.358 1616.73 L296.451 1616.73 L296.451 1612.79 Z" fill="#000000" fill-rule="nonzero" fill-opacity="1" /><path clip-path="url(#clip790)" d="M335.803 1585.25 Q332.191 1585.25 330.363 1588.81 Q328.557 1592.35 328.557 1599.48 Q328.557 1606.59 330.363 1610.15 Q332.191 1613.7 335.803 1613.7 Q339.437 1613.7 341.242 1610.15 Q343.071 1606.59 343.071 1599.48 Q343.071 1592.35 341.242 1588.81 Q339.437 1585.25 335.803 1585.25 M335.803 1581.54 Q341.613 1581.54 344.668 1586.15 Q347.747 1590.73 347.747 1599.48 Q347.747 1608.21 344.668 1612.82 Q341.613 1617.4 335.803 1617.4 Q329.992 1617.4 326.914 1612.82 Q323.858 1608.21 323.858 1599.48 Q323.858 1590.73 326.914 1586.15 Q329.992 1581.54 335.803 1581.54 Z" fill="#000000" fill-rule="nonzero" fill-opacity="1" /><path clip-path="url(#clip790)" d="M335.803 1126.09 Q332.191 1126.09 330.363 1129.66 Q328.557 1133.2 328.557 1140.33 Q328.557 1147.44 330.363 1151 Q332.191 1154.54 335.803 1154.54 Q339.437 1154.54 341.242 1151 Q343.071 1147.44 343.071 1140.33 Q343.071 1133.2 341.242 1129.66 Q339.437 1126.09 335.803 1126.09 M335.803 1122.39 Q341.613 1122.39 344.668 1127 Q347.747 1131.58 347.747 1140.33 Q347.747 1149.06 344.668 1153.66 Q341.613 1158.25 335.803 1158.25 Q329.992 1158.25 326.914 1153.66 Q323.858 1149.06 323.858 1140.33 Q323.858 1131.58 326.914 1127 Q329.992 1122.39 335.803 1122.39 Z" fill="#000000" fill-rule="nonzero" fill-opacity="1" /><path clip-path="url(#clip790)" d="M296.451 694.488 L304.09 694.488 L304.09 668.123 L295.78 669.789 L295.78 665.53 L304.043 663.864 L308.719 663.864 L308.719 694.488 L316.358 694.488 L316.358 698.424 L296.451 698.424 L296.451 694.488 Z" fill="#000000" fill-rule="nonzero" fill-opacity="1" /><path clip-path="url(#clip790)" d="M335.803 666.942 Q332.191 666.942 330.363 670.507 Q328.557 674.049 328.557 681.178 Q328.557 688.285 330.363 691.85 Q332.191 695.391 335.803 695.391 Q339.437 695.391 341.242 691.85 Q343.071 688.285 343.071 681.178 Q343.071 674.049 341.242 670.507 Q339.437 666.942 335.803 666.942 M335.803 663.239 Q341.613 663.239 344.668 667.845 Q347.747 672.428 347.747 681.178 Q347.747 689.905 344.668 694.512 Q341.613 699.095 335.803 699.095 Q329.992 699.095 326.914 694.512 Q323.858 689.905 323.858 681.178 Q323.858 672.428 326.914 667.845 Q329.992 663.239 335.803 663.239 Z" fill="#000000" fill-rule="nonzero" fill-opacity="1" /><path clip-path="url(#clip790)" d="M299.669 235.336 L315.988 235.336 L315.988 239.271 L294.044 239.271 L294.044 235.336 Q296.706 232.581 301.289 227.952 Q305.895 223.299 307.076 221.956 Q309.321 219.433 310.201 217.697 Q311.104 215.938 311.104 214.248 Q311.104 211.494 309.159 209.757 Q307.238 208.021 304.136 208.021 Q301.937 208.021 299.483 208.785 Q297.053 209.549 294.275 211.1 L294.275 206.378 Q297.099 205.244 299.553 204.665 Q302.006 204.086 304.043 204.086 Q309.414 204.086 312.608 206.771 Q315.803 209.457 315.803 213.947 Q315.803 216.077 314.992 217.998 Q314.205 219.896 312.099 222.489 Q311.52 223.16 308.418 226.378 Q305.317 229.572 299.669 235.336 Z" fill="#000000" fill-rule="nonzero" fill-opacity="1" /><path clip-path="url(#clip790)" d="M335.803 207.79 Q332.191 207.79 330.363 211.355 Q328.557 214.896 328.557 222.026 Q328.557 229.132 330.363 232.697 Q332.191 236.239 335.803 236.239 Q339.437 236.239 341.242 232.697 Q343.071 229.132 343.071 222.026 Q343.071 214.896 341.242 211.355 Q339.437 207.79 335.803 207.79 M335.803 204.086 Q341.613 204.086 344.668 208.693 Q347.747 213.276 347.747 222.026 Q347.747 230.753 344.668 235.359 Q341.613 239.942 335.803 239.942 Q329.992 239.942 326.914 235.359 Q323.858 230.753 323.858 222.026 Q323.858 213.276 326.914 208.693 Q329.992 204.086 335.803 204.086 Z" fill="#000000" fill-rule="nonzero" fill-opacity="1" /><path clip-path="url(#clip790)" d="M133.968 896.337 L151.315 909.228 L169.616 895.669 L169.616 902.576 L155.612 912.952 L169.616 923.328 L169.616 930.235 L150.965 916.389 L133.968 929.057 L133.968 922.15 L146.668 912.697 L133.968 903.244 L133.968 896.337 Z" fill="#000000" fill-rule="nonzero" fill-opacity="1" /><polyline clip-path="url(#clip792)" style="stroke:#0000ff; stroke-linecap:round; stroke-linejoin:round; stroke-width:4; stroke-opacity:1; fill:none" points="470.443,1098.15 473.83,1100.45 477.217,1101.48 480.603,1101.41 483.99,1100.36 487.376,1098.39 490.763,1095.56 494.149,1091.87 497.536,1087.33 500.922,1081.92 504.309,1075.57 507.695,1068.24 511.082,1059.84 514.468,1050.27 517.855,1039.42 521.242,1027.15 524.628,1013.31 528.015,997.737 531.401,980.241 534.788,960.623 538.174,938.661 541.561,914.129 544.947,886.797 548.334,856.444 551.72,822.843 555.107,785.82 558.494,745.279 561.88,701.224 565.267,653.787 568.653,603.261 572.04,550.27 575.426,495.792 578.813,441.13 582.199,388.067 585.586,338.818 588.972,295.803 592.359,261.636 595.745,238.994 599.132,229.956 602.519,235.827 605.905,257.024 609.292,293.068 612.678,342.45 616.065,402.661 619.451,470.977 622.838,544.559 626.224,620.534 629.611,696.561 632.997,770.754 636.384,841.679 639.77,908.349 643.157,970.178 646.544,1026.93 649.93,1078.56 653.317,1125.15 656.703,1166.96 660.09,1204.31 663.476,1237.57 666.863,1267.11 670.249,1293.29 673.636,1316.5 677.022,1337.1 680.409,1355.39 683.796,1371.66 687.182,1386.17 690.569,1399.17 693.955,1410.92 697.342,1421.6 700.728,1431.38 704.115,1440.39 707.501,1448.77 710.888,1456.63 714.274,1464.08 717.661,1471.19 721.047,1478.02 724.434,1484.63 727.821,1491.04 731.207,1497.28 734.594,1503.39 737.98,1509.38 741.367,1515.24 744.753,1520.98 748.14,1526.56 751.526,1531.97 754.913,1537.19 758.299,1542.19 761.686,1546.95 765.072,1551.43 768.459,1555.59 771.846,1559.4 775.232,1562.82 778.619,1565.81 782.005,1568.35 785.392,1570.4 788.778,1571.94 792.165,1572.97 795.551,1573.46 798.938,1573.41 802.324,1572.82 805.711,1571.7 809.097,1570.06 812.484,1567.93 815.871,1565.33 819.257,1562.29 822.644,1558.86 826.03,1555.09 829.417,1551.03 832.803,1546.73 836.19,1542.24 839.576,1537.61 842.963,1532.91 846.349,1528.18 849.736,1523.47 853.123,1518.84 856.509,1514.33 859.896,1509.99 863.282,1505.88 866.669,1502.03 870.055,1498.46 873.442,1495.21 876.828,1492.3 880.215,1489.76 883.601,1487.59 886.988,1485.83 890.374,1484.48 893.761,1483.54 897.148,1483.03 900.534,1482.93 903.921,1483.25 907.307,1483.97 910.694,1485.11 914.08,1486.66 917.467,1488.61 920.853,1490.95 924.24,1493.65 927.626,1496.7 931.013,1500.07 934.399,1503.73 937.786,1507.64 941.173,1511.76 944.559,1516.08 947.946,1520.55 951.332,1525.15 954.719,1529.82 958.105,1534.53 961.492,1539.24 964.878,1543.88 968.265,1548.43 971.651,1552.81 975.038,1556.99 978.425,1560.89 981.811,1564.48 985.198,1567.71 988.584,1570.54 991.971,1572.92 995.357,1574.81 998.744,1576.2 1002.13,1577.06 1005.52,1577.37 1008.9,1577.12 1012.29,1576.31 1015.68,1574.95 1019.06,1573.05 1022.45,1570.64 1025.84,1567.73 1029.22,1564.37 1032.61,1560.62 1036,1556.51 1039.38,1552.1 1042.77,1547.43 1046.16,1542.58 1049.54,1537.59 1052.93,1532.51 1056.31,1527.42 1059.7,1522.38 1063.09,1517.44 1066.47,1512.65 1069.86,1508.06 1073.25,1503.7 1076.63,1499.62 1080.02,1495.86 1083.41,1492.43 1086.79,1489.37 1090.18,1486.7 1093.57,1484.44 1096.95,1482.62 1100.34,1481.23 1103.73,1480.3 1107.11,1479.81 1110.5,1479.75 1113.89,1480.14 1117.27,1480.98 1120.66,1482.25 1124.05,1483.96 1127.43,1486.08 1130.82,1488.61 1134.21,1491.52 1137.59,1494.78 1140.98,1498.38 1144.36,1502.26 1147.75,1506.41 1151.14,1510.79 1154.52,1515.38 1157.91,1520.13 1161.3,1525.02 1164.68,1530 1168.07,1535.03 1171.46,1540.05 1174.84,1545.02 1178.23,1549.88 1181.62,1554.58 1185,1559.04 1188.39,1563.2 1191.78,1567.01 1195.16,1570.44 1198.55,1573.43 1201.94,1575.94 1205.32,1577.93 1208.71,1579.38 1212.1,1580.26 1215.48,1580.54 1218.87,1580.24 1222.26,1579.33 1225.64,1577.83 1229.03,1575.76 1232.42,1573.13 1235.8,1569.97 1239.19,1566.33 1242.57,1562.27 1245.96,1557.83 1249.35,1553.07 1252.73,1548.06 1256.12,1542.85 1259.51,1537.5 1262.89,1532.07 1266.28,1526.62 1269.67,1521.23 1273.05,1515.95 1276.44,1510.85 1279.83,1505.97 1283.21,1501.35 1286.6,1497.03 1289.99,1493.05 1293.37,1489.44 1296.76,1486.22 1300.15,1483.43 1303.53,1481.07 1306.92,1479.17 1310.31,1477.73 1313.69,1476.77 1317.08,1476.3 1320.47,1476.28 1323.85,1476.73 1327.24,1477.63 1330.62,1479 1334.01,1480.82 1337.4,1483.09 1340.78,1485.79 1344.17,1488.9 1347.56,1492.4 1350.94,1496.25 1354.33,1500.42 1357.72,1504.87 1361.1,1509.56 1364.49,1514.46 1367.88,1519.54 1371.26,1524.75 1374.65,1530.06 1378.04,1535.41 1381.42,1540.76 1384.81,1546.04 1388.2,1551.22 1391.58,1556.22 1394.97,1560.98 1398.36,1565.45 1401.74,1569.55 1405.13,1573.22 1408.52,1576.42 1411.9,1579.09 1415.29,1581.21 1418.67,1582.73 1422.06,1583.65 1425.45,1583.94 1428.83,1583.6 1432.22,1582.61 1435.61,1581 1438.99,1578.77 1442.38,1575.95 1445.77,1572.55 1449.15,1568.63 1452.54,1564.25 1455.93,1559.46 1459.31,1554.33 1462.7,1548.94 1466.09,1543.34 1469.47,1537.61 1472.86,1531.8 1476.25,1525.98 1479.63,1520.21 1483.02,1514.57 1486.41,1509.11 1489.79,1503.9 1493.18,1498.99 1496.57,1494.4 1499.95,1490.18 1503.34,1486.36 1506.72,1482.96 1510.11,1480 1513.5,1477.52 1516.88,1475.51 1520.27,1474.01 1523.66,1473 1527.04,1472.5 1530.43,1472.51 1533.82,1472.99 1537.2,1473.95 1540.59,1475.38 1543.98,1477.29 1547.36,1479.67 1550.75,1482.51 1554.14,1485.79 1557.52,1489.49 1560.91,1493.58 1564.3,1498.03 1567.68,1502.79 1571.07,1507.83 1574.46,1513.08 1577.84,1518.5 1581.23,1524.07 1584.62,1529.74 1588,1535.47 1591.39,1541.18 1594.77,1546.83 1598.16,1552.36 1601.55,1557.7 1604.93,1562.8 1608.32,1567.59 1611.71,1572.01 1615.09,1575.99 1618.48,1579.46 1621.87,1582.36 1625.25,1584.66 1628.64,1586.32 1632.03,1587.31 1635.41,1587.63 1638.8,1587.27 1642.19,1586.23 1645.57,1584.51 1648.96,1582.14 1652.35,1579.13 1655.73,1575.52 1659.12,1571.34 1662.51,1566.64 1665.89,1561.49 1669.28,1555.98 1672.67,1550.18 1676.05,1544.16 1679.44,1538.01 1682.82,1531.78 1686.21,1525.55 1689.6,1519.38 1692.98,1513.35 1696.37,1507.51 1699.76,1501.93 1703.14,1496.68 1706.53,1491.79 1709.92,1487.29 1713.3,1483.21 1716.69,1479.59 1720.08,1476.44 1723.46,1473.79 1726.85,1471.66 1730.24,1470.04 1733.62,1468.96 1737.01,1468.41 1740.4,1468.4 1743.78,1468.91 1747.17,1469.91 1750.56,1471.4 1753.94,1473.38 1757.33,1475.86 1760.72,1478.82 1764.1,1482.26 1767.49,1486.14 1770.87,1490.45 1774.26,1495.15 1777.65,1500.2 1781.03,1505.56 1784.42,1511.17 1787.81,1516.97 1791.19,1522.9 1794.58,1528.95 1797.97,1535.07 1801.35,1541.19 1804.74,1547.25 1808.13,1553.19 1811.51,1558.93 1814.9,1564.43 1818.29,1569.6 1821.67,1574.38 1825.06,1578.71 1828.45,1582.51 1831.83,1585.71 1835.22,1588.25 1838.61,1590.1 1841.99,1591.24 1845.38,1591.64 1848.77,1591.31 1852.15,1590.25 1855.54,1588.46 1858.93,1585.96 1862.31,1582.78 1865.7,1578.94 1869.08,1574.5 1872.47,1569.49 1875.86,1563.98 1879.24,1558.07 1882.63,1551.85 1886.02,1545.4 1889.4,1538.79 1892.79,1532.11 1896.18,1525.43 1899.56,1518.82 1902.95,1512.35 1906.34,1506.09 1909.72,1500.11 1913.11,1494.48 1916.5,1489.23 1919.88,1484.41 1923.27,1480.04 1926.66,1476.15 1930.04,1472.77 1933.43,1469.91 1936.82,1467.6 1940.2,1465.84 1943.59,1464.65 1946.98,1464.01 1950.36,1463.95 1953.75,1464.43 1957.13,1465.44 1960.52,1466.96 1963.91,1469 1967.29,1471.57 1970.68,1474.65 1974.07,1478.24 1977.45,1482.3 1980.84,1486.82 1984.23,1491.77 1987.61,1497.09 1991,1502.74 1994.39,1508.68 1997.77,1514.83 2001.16,1521.14 2004.55,1527.58 2007.93,1534.11 2011.32,1540.66 2014.71,1547.16 2018.09,1553.55 2021.48,1559.75 2024.87,1565.7 2028.25,1571.33 2031.64,1576.55 2035.03,1581.3 2038.41,1585.49 2041.8,1589.05 2045.18,1591.9 2048.57,1594.02 2051.96,1595.38 2055.34,1595.95 2058.73,1595.73 2062.12,1594.71 2065.5,1592.91 2068.89,1590.33 2072.28,1587.02 2075.66,1582.98 2079.05,1578.28 2082.44,1572.96 2085.82,1567.09 2089.21,1560.78 2092.6,1554.13 2095.98,1547.22 2099.37,1540.14 2102.76,1532.97 2106.14,1525.79 2109.53,1518.68 2112.92,1511.73 2116.3,1505 2119.69,1498.57 2123.08,1492.51 2126.46,1486.86 2129.85,1481.65 2133.23,1476.93 2136.62,1472.71 2140.01,1469.03 2143.39,1465.91 2146.78,1463.37 2150.17,1461.41 2153.55,1460.05 2156.94,1459.28 2160.33,1459.11 "/>
<path clip-path="url(#clip790)" d="M2819.75 1636.93 L4611.02 1636.93 L4611.02 188.976 L2819.75 188.976  Z" fill="#ffffff" fill-rule="evenodd" fill-opacity="1"/>
<defs>
  <clipPath id="clip793">
    <rect x="2819" y="188" width="1792" height="1449"/>
  </clipPath>
</defs>
<polyline clip-path="url(#clip793)" style="stroke:#000000; stroke-linecap:round; stroke-linejoin:round; stroke-width:8; stroke-opacity:0.1; fill:none" points="2867.06,1636.93 2867.06,188.976 "/>
<polyline clip-path="url(#clip793)" style="stroke:#000000; stroke-linecap:round; stroke-linejoin:round; stroke-width:8; stroke-opacity:0.1; fill:none" points="3205.71,1636.93 3205.71,188.976 "/>
<polyline clip-path="url(#clip793)" style="stroke:#000000; stroke-linecap:round; stroke-linejoin:round; stroke-width:8; stroke-opacity:0.1; fill:none" points="3544.36,1636.93 3544.36,188.976 "/>
<polyline clip-path="url(#clip793)" style="stroke:#000000; stroke-linecap:round; stroke-linejoin:round; stroke-width:8; stroke-opacity:0.1; fill:none" points="3883.02,1636.93 3883.02,188.976 "/>
<polyline clip-path="url(#clip793)" style="stroke:#000000; stroke-linecap:round; stroke-linejoin:round; stroke-width:8; stroke-opacity:0.1; fill:none" points="4221.67,1636.93 4221.67,188.976 "/>
<polyline clip-path="url(#clip793)" style="stroke:#000000; stroke-linecap:round; stroke-linejoin:round; stroke-width:8; stroke-opacity:0.1; fill:none" points="4560.33,1636.93 4560.33,188.976 "/>
<polyline clip-path="url(#clip790)" style="stroke:#000000; stroke-linecap:round; stroke-linejoin:round; stroke-width:4; stroke-opacity:1; fill:none" points="2819.75,1636.93 4611.02,1636.93 "/>
<polyline clip-path="url(#clip790)" style="stroke:#000000; stroke-linecap:round; stroke-linejoin:round; stroke-width:4; stroke-opacity:1; fill:none" points="2867.06,1636.93 2867.06,1618.03 "/>
<polyline clip-path="url(#clip790)" style="stroke:#000000; stroke-linecap:round; stroke-linejoin:round; stroke-width:4; stroke-opacity:1; fill:none" points="3205.71,1636.93 3205.71,1618.03 "/>
<polyline clip-path="url(#clip790)" style="stroke:#000000; stroke-linecap:round; stroke-linejoin:round; stroke-width:4; stroke-opacity:1; fill:none" points="3544.36,1636.93 3544.36,1618.03 "/>
<polyline clip-path="url(#clip790)" style="stroke:#000000; stroke-linecap:round; stroke-linejoin:round; stroke-width:4; stroke-opacity:1; fill:none" points="3883.02,1636.93 3883.02,1618.03 "/>
<polyline clip-path="url(#clip790)" style="stroke:#000000; stroke-linecap:round; stroke-linejoin:round; stroke-width:4; stroke-opacity:1; fill:none" points="4221.67,1636.93 4221.67,1618.03 "/>
<polyline clip-path="url(#clip790)" style="stroke:#000000; stroke-linecap:round; stroke-linejoin:round; stroke-width:4; stroke-opacity:1; fill:none" points="4560.33,1636.93 4560.33,1618.03 "/>
<path clip-path="url(#clip790)" d="M2867.06 1687.05 Q2863.45 1687.05 2861.62 1690.61 Q2859.81 1694.15 2859.81 1701.28 Q2859.81 1708.39 2861.62 1711.95 Q2863.45 1715.5 2867.06 1715.5 Q2870.69 1715.5 2872.5 1711.95 Q2874.33 1708.39 2874.33 1701.28 Q2874.33 1694.15 2872.5 1690.61 Q2870.69 1687.05 2867.06 1687.05 M2867.06 1683.34 Q2872.87 1683.34 2875.92 1687.95 Q2879 1692.53 2879 1701.28 Q2879 1710.01 2875.92 1714.62 Q2872.87 1719.2 2867.06 1719.2 Q2861.25 1719.2 2858.17 1714.62 Q2855.11 1710.01 2855.11 1701.28 Q2855.11 1692.53 2858.17 1687.95 Q2861.25 1683.34 2867.06 1683.34 Z" fill="#000000" fill-rule="nonzero" fill-opacity="1" /><path clip-path="url(#clip790)" d="M3196.09 1714.59 L3203.73 1714.59 L3203.73 1688.23 L3195.42 1689.89 L3195.42 1685.63 L3203.69 1683.97 L3208.36 1683.97 L3208.36 1714.59 L3216 1714.59 L3216 1718.53 L3196.09 1718.53 L3196.09 1714.59 Z" fill="#000000" fill-rule="nonzero" fill-opacity="1" /><path clip-path="url(#clip790)" d="M3539.02 1714.59 L3555.34 1714.59 L3555.34 1718.53 L3533.39 1718.53 L3533.39 1714.59 Q3536.05 1711.84 3540.64 1707.21 Q3545.24 1702.56 3546.43 1701.21 Q3548.67 1698.69 3549.55 1696.95 Q3550.45 1695.19 3550.45 1693.5 Q3550.45 1690.75 3548.51 1689.01 Q3546.59 1687.28 3543.49 1687.28 Q3541.29 1687.28 3538.83 1688.04 Q3536.4 1688.81 3533.62 1690.36 L3533.62 1685.63 Q3536.45 1684.5 3538.9 1683.92 Q3541.36 1683.34 3543.39 1683.34 Q3548.76 1683.34 3551.96 1686.03 Q3555.15 1688.71 3555.15 1693.2 Q3555.15 1695.33 3554.34 1697.25 Q3553.55 1699.15 3551.45 1701.75 Q3550.87 1702.42 3547.77 1705.63 Q3544.67 1708.83 3539.02 1714.59 Z" fill="#000000" fill-rule="nonzero" fill-opacity="1" /><path clip-path="url(#clip790)" d="M3887.27 1699.89 Q3890.62 1700.61 3892.5 1702.88 Q3894.4 1705.15 3894.4 1708.48 Q3894.4 1713.6 3890.88 1716.4 Q3887.36 1719.2 3880.88 1719.2 Q3878.7 1719.2 3876.39 1718.76 Q3874.1 1718.34 3871.64 1717.49 L3871.64 1712.97 Q3873.59 1714.11 3875.9 1714.68 Q3878.22 1715.26 3880.74 1715.26 Q3885.14 1715.26 3887.43 1713.53 Q3889.74 1711.79 3889.74 1708.48 Q3889.74 1705.43 3887.59 1703.71 Q3885.46 1701.98 3881.64 1701.98 L3877.61 1701.98 L3877.61 1698.13 L3881.83 1698.13 Q3885.28 1698.13 3887.1 1696.77 Q3888.93 1695.38 3888.93 1692.79 Q3888.93 1690.12 3887.04 1688.71 Q3885.16 1687.28 3881.64 1687.28 Q3879.72 1687.28 3877.52 1687.69 Q3875.32 1688.11 3872.68 1688.99 L3872.68 1684.82 Q3875.35 1684.08 3877.66 1683.71 Q3880 1683.34 3882.06 1683.34 Q3887.38 1683.34 3890.48 1685.77 Q3893.59 1688.18 3893.59 1692.3 Q3893.59 1695.17 3891.94 1697.16 Q3890.3 1699.13 3887.27 1699.89 Z" fill="#000000" fill-rule="nonzero" fill-opacity="1" /><path clip-path="url(#clip790)" d="M4224.68 1688.04 L4212.88 1706.49 L4224.68 1706.49 L4224.68 1688.04 M4223.46 1683.97 L4229.34 1683.97 L4229.34 1706.49 L4234.27 1706.49 L4234.27 1710.38 L4229.34 1710.38 L4229.34 1718.53 L4224.68 1718.53 L4224.68 1710.38 L4209.08 1710.38 L4209.08 1705.87 L4223.46 1683.97 Z" fill="#000000" fill-rule="nonzero" fill-opacity="1" /><path clip-path="url(#clip790)" d="M4550.6 1683.97 L4568.96 1683.97 L4568.96 1687.9 L4554.89 1687.9 L4554.89 1696.37 Q4555.91 1696.03 4556.92 1695.87 Q4557.94 1695.68 4558.96 1695.68 Q4564.75 1695.68 4568.13 1698.85 Q4571.51 1702.02 4571.51 1707.44 Q4571.51 1713.02 4568.04 1716.12 Q4564.56 1719.2 4558.24 1719.2 Q4556.07 1719.2 4553.8 1718.83 Q4551.55 1718.46 4549.15 1717.72 L4549.15 1713.02 Q4551.23 1714.15 4553.45 1714.71 Q4555.67 1715.26 4558.15 1715.26 Q4562.16 1715.26 4564.49 1713.16 Q4566.83 1711.05 4566.83 1707.44 Q4566.83 1703.83 4564.49 1701.72 Q4562.16 1699.62 4558.15 1699.62 Q4556.28 1699.62 4554.4 1700.03 Q4552.55 1700.45 4550.6 1701.33 L4550.6 1683.97 Z" fill="#000000" fill-rule="nonzero" fill-opacity="1" /><path clip-path="url(#clip790)" d="M3714.45 1772.02 L3714.45 1782.14 L3726.51 1782.14 L3726.51 1786.7 L3714.45 1786.7 L3714.45 1806.05 Q3714.45 1810.41 3715.62 1811.65 Q3716.83 1812.89 3720.49 1812.89 L3726.51 1812.89 L3726.51 1817.79 L3720.49 1817.79 Q3713.71 1817.79 3711.14 1815.28 Q3708.56 1812.73 3708.56 1806.05 L3708.56 1786.7 L3704.26 1786.7 L3704.26 1782.14 L3708.56 1782.14 L3708.56 1772.02 L3714.45 1772.02 Z" fill="#000000" fill-rule="nonzero" fill-opacity="1" /><polyline clip-path="url(#clip793)" style="stroke:#000000; stroke-linecap:round; stroke-linejoin:round; stroke-width:8; stroke-opacity:0.1; fill:none" points="2819.75,1574.98 4611.02,1574.98 "/>
<polyline clip-path="url(#clip793)" style="stroke:#000000; stroke-linecap:round; stroke-linejoin:round; stroke-width:8; stroke-opacity:0.1; fill:none" points="2819.75,1217.45 4611.02,1217.45 "/>
<polyline clip-path="url(#clip793)" style="stroke:#000000; stroke-linecap:round; stroke-linejoin:round; stroke-width:8; stroke-opacity:0.1; fill:none" points="2819.75,859.922 4611.02,859.922 "/>
<polyline clip-path="url(#clip793)" style="stroke:#000000; stroke-linecap:round; stroke-linejoin:round; stroke-width:8; stroke-opacity:0.1; fill:none" points="2819.75,502.39 4611.02,502.39 "/>
<polyline clip-path="url(#clip790)" style="stroke:#000000; stroke-linecap:round; stroke-linejoin:round; stroke-width:4; stroke-opacity:1; fill:none" points="2819.75,1636.93 2819.75,188.976 "/>
<polyline clip-path="url(#clip790)" style="stroke:#000000; stroke-linecap:round; stroke-linejoin:round; stroke-width:4; stroke-opacity:1; fill:none" points="2819.75,1574.98 2838.64,1574.98 "/>
<polyline clip-path="url(#clip790)" style="stroke:#000000; stroke-linecap:round; stroke-linejoin:round; stroke-width:4; stroke-opacity:1; fill:none" points="2819.75,1217.45 2838.64,1217.45 "/>
<polyline clip-path="url(#clip790)" style="stroke:#000000; stroke-linecap:round; stroke-linejoin:round; stroke-width:4; stroke-opacity:1; fill:none" points="2819.75,859.922 2838.64,859.922 "/>
<polyline clip-path="url(#clip790)" style="stroke:#000000; stroke-linecap:round; stroke-linejoin:round; stroke-width:4; stroke-opacity:1; fill:none" points="2819.75,502.39 2838.64,502.39 "/>
<path clip-path="url(#clip790)" d="M2655.87 1575.44 L2685.55 1575.44 L2685.55 1579.37 L2655.87 1579.37 L2655.87 1575.44 Z" fill="#000000" fill-rule="nonzero" fill-opacity="1" /><path clip-path="url(#clip790)" d="M2696.45 1588.33 L2704.09 1588.33 L2704.09 1561.96 L2695.78 1563.63 L2695.78 1559.37 L2704.04 1557.7 L2708.72 1557.7 L2708.72 1588.33 L2716.36 1588.33 L2716.36 1592.26 L2696.45 1592.26 L2696.45 1588.33 Z" fill="#000000" fill-rule="nonzero" fill-opacity="1" /><path clip-path="url(#clip790)" d="M2735.8 1560.78 Q2732.19 1560.78 2730.36 1564.35 Q2728.56 1567.89 2728.56 1575.02 Q2728.56 1582.13 2730.36 1585.69 Q2732.19 1589.23 2735.8 1589.23 Q2739.44 1589.23 2741.24 1585.69 Q2743.07 1582.13 2743.07 1575.02 Q2743.07 1567.89 2741.24 1564.35 Q2739.44 1560.78 2735.8 1560.78 M2735.8 1557.08 Q2741.61 1557.08 2744.67 1561.69 Q2747.75 1566.27 2747.75 1575.02 Q2747.75 1583.75 2744.67 1588.35 Q2741.61 1592.94 2735.8 1592.94 Q2729.99 1592.94 2726.91 1588.35 Q2723.86 1583.75 2723.86 1575.02 Q2723.86 1566.27 2726.91 1561.69 Q2729.99 1557.08 2735.8 1557.08 Z" fill="#000000" fill-rule="nonzero" fill-opacity="1" /><path clip-path="url(#clip790)" d="M2735.8 1203.25 Q2732.19 1203.25 2730.36 1206.82 Q2728.56 1210.36 2728.56 1217.49 Q2728.56 1224.59 2730.36 1228.16 Q2732.19 1231.7 2735.8 1231.7 Q2739.44 1231.7 2741.24 1228.16 Q2743.07 1224.59 2743.07 1217.49 Q2743.07 1210.36 2741.24 1206.82 Q2739.44 1203.25 2735.8 1203.25 M2735.8 1199.55 Q2741.61 1199.55 2744.67 1204.15 Q2747.75 1208.74 2747.75 1217.49 Q2747.75 1226.21 2744.67 1230.82 Q2741.61 1235.4 2735.8 1235.4 Q2729.99 1235.4 2726.91 1230.82 Q2723.86 1226.21 2723.86 1217.49 Q2723.86 1208.74 2726.91 1204.15 Q2729.99 1199.55 2735.8 1199.55 Z" fill="#000000" fill-rule="nonzero" fill-opacity="1" /><path clip-path="url(#clip790)" d="M2696.45 873.266 L2704.09 873.266 L2704.09 846.901 L2695.78 848.567 L2695.78 844.308 L2704.04 842.642 L2708.72 842.642 L2708.72 873.266 L2716.36 873.266 L2716.36 877.202 L2696.45 877.202 L2696.45 873.266 Z" fill="#000000" fill-rule="nonzero" fill-opacity="1" /><path clip-path="url(#clip790)" d="M2735.8 845.72 Q2732.19 845.72 2730.36 849.285 Q2728.56 852.827 2728.56 859.956 Q2728.56 867.063 2730.36 870.627 Q2732.19 874.169 2735.8 874.169 Q2739.44 874.169 2741.24 870.627 Q2743.07 867.063 2743.07 859.956 Q2743.07 852.827 2741.24 849.285 Q2739.44 845.72 2735.8 845.72 M2735.8 842.017 Q2741.61 842.017 2744.67 846.623 Q2747.75 851.206 2747.75 859.956 Q2747.75 868.683 2744.67 873.29 Q2741.61 877.873 2735.8 877.873 Q2729.99 877.873 2726.91 873.29 Q2723.86 868.683 2723.86 859.956 Q2723.86 851.206 2726.91 846.623 Q2729.99 842.017 2735.8 842.017 Z" fill="#000000" fill-rule="nonzero" fill-opacity="1" /><path clip-path="url(#clip790)" d="M2699.67 515.735 L2715.99 515.735 L2715.99 519.67 L2694.04 519.67 L2694.04 515.735 Q2696.71 512.98 2701.29 508.351 Q2705.9 503.698 2707.08 502.355 Q2709.32 499.832 2710.2 498.096 Q2711.1 496.337 2711.1 494.647 Q2711.1 491.893 2709.16 490.156 Q2707.24 488.42 2704.14 488.42 Q2701.94 488.42 2699.48 489.184 Q2697.05 489.948 2694.28 491.499 L2694.28 486.777 Q2697.1 485.643 2699.55 485.064 Q2702.01 484.485 2704.04 484.485 Q2709.41 484.485 2712.61 487.17 Q2715.8 489.856 2715.8 494.346 Q2715.8 496.476 2714.99 498.397 Q2714.21 500.295 2712.1 502.888 Q2711.52 503.559 2708.42 506.777 Q2705.32 509.971 2699.67 515.735 Z" fill="#000000" fill-rule="nonzero" fill-opacity="1" /><path clip-path="url(#clip790)" d="M2735.8 488.189 Q2732.19 488.189 2730.36 491.754 Q2728.56 495.295 2728.56 502.425 Q2728.56 509.531 2730.36 513.096 Q2732.19 516.638 2735.8 516.638 Q2739.44 516.638 2741.24 513.096 Q2743.07 509.531 2743.07 502.425 Q2743.07 495.295 2741.24 491.754 Q2739.44 488.189 2735.8 488.189 M2735.8 484.485 Q2741.61 484.485 2744.67 489.092 Q2747.75 493.675 2747.75 502.425 Q2747.75 511.152 2744.67 515.758 Q2741.61 520.341 2735.8 520.341 Q2729.99 520.341 2726.91 515.758 Q2723.86 511.152 2723.86 502.425 Q2723.86 493.675 2726.91 489.092 Q2729.99 484.485 2735.8 484.485 Z" fill="#000000" fill-rule="nonzero" fill-opacity="1" /><path clip-path="url(#clip790)" d="M2572.93 911.265 Q2579.29 913.748 2581.23 916.103 Q2583.18 918.458 2583.18 922.405 L2583.18 927.084 L2578.27 927.084 L2578.27 923.646 Q2578.27 921.227 2577.13 919.891 Q2575.98 918.554 2571.72 916.931 L2569.04 915.88 L2533.97 930.299 L2533.97 924.092 L2561.85 912.952 L2533.97 901.812 L2533.97 895.605 L2572.93 911.265 Z" fill="#000000" fill-rule="nonzero" fill-opacity="1" /><polyline clip-path="url(#clip793)" style="stroke:#ff0000; stroke-linecap:round; stroke-linejoin:round; stroke-width:4; stroke-opacity:1; fill:none" points="2870.44,1207.93 2873.83,1199.16 2877.22,1190.83 2880.6,1182.69 2883.99,1174.51 2887.38,1166.08 2890.76,1157.23 2894.15,1147.76 2897.54,1137.5 2900.92,1126.27 2904.31,1113.91 2907.7,1100.21 2911.08,1084.97 2914.47,1068 2917.86,1049.06 2921.24,1027.91 2924.63,1004.29 2928.01,977.947 2931.4,948.59 2934.79,915.944 2938.17,879.732 2941.56,839.721 2944.95,795.725 2948.33,747.651 2951.72,695.509 2955.11,639.564 2958.49,580.39 2961.88,518.893 2965.27,456.51 2968.65,395.36 2972.04,338.28 2975.43,288.826 2978.81,251.077 2982.2,229.956 2985.59,230.45 2988.97,256.14 2992.36,309.177 2995.75,389.805 2999.13,494.696 3002.52,618.53 3005.91,754.29 3009.29,893.253 3012.68,1026.42 3016.06,1147.55 3019.45,1252.41 3022.84,1338.96 3026.22,1407.28 3029.61,1458.94 3033,1496.23 3036.38,1521.65 3039.77,1537.82 3043.16,1546.98 3046.54,1550.98 3049.93,1551.38 3053.32,1549.4 3056.7,1545.96 3060.09,1541.72 3063.48,1537.16 3066.86,1532.66 3070.25,1528.46 3073.64,1524.73 3077.02,1521.56 3080.41,1519.01 3083.8,1517.11 3087.18,1515.87 3090.57,1515.27 3093.96,1515.3 3097.34,1515.91 3100.73,1517.05 3104.11,1518.7 3107.5,1520.8 3110.89,1523.29 3114.27,1526.14 3117.66,1529.27 3121.05,1532.64 3124.43,1536.18 3127.82,1539.85 3131.21,1543.59 3134.59,1547.32 3137.98,1550.99 3141.37,1554.55 3144.75,1557.92 3148.14,1561.05 3151.53,1563.89 3154.91,1566.38 3158.3,1568.47 3161.69,1570.11 3165.07,1571.25 3168.46,1571.88 3171.85,1571.95 3175.23,1571.45 3178.62,1570.36 3182.01,1568.69 3185.39,1566.43 3188.78,1563.62 3192.16,1560.28 3195.55,1556.46 3198.94,1552.2 3202.32,1547.55 3205.71,1542.59 3209.1,1537.37 3212.48,1531.96 3215.87,1526.44 3219.26,1520.86 3222.64,1515.32 3226.03,1509.89 3229.42,1504.62 3232.8,1499.58 3236.19,1494.82 3239.58,1490.39 3242.96,1486.32 3246.35,1482.65 3249.74,1479.41 3253.12,1476.62 3256.51,1474.3 3259.9,1472.45 3263.28,1471.08 3266.67,1470.19 3270.06,1469.76 3273.44,1469.8 3276.83,1470.29 3280.21,1471.23 3283.6,1472.6 3286.99,1474.37 3290.37,1476.55 3293.76,1479.1 3297.15,1481.99 3300.53,1485.21 3303.92,1488.74 3307.31,1492.55 3310.69,1496.62 3314.08,1500.92 3317.47,1505.43 3320.85,1510.1 3324.24,1514.91 3327.63,1519.81 3331.01,1524.78 3334.4,1529.76 3337.79,1534.72 3341.17,1539.6 3344.56,1544.37 3347.95,1548.98 3351.33,1553.35 3354.72,1557.45 3358.11,1561.21 3361.49,1564.59 3364.88,1567.54 3368.26,1570.01 3371.65,1571.96 3375.04,1573.35 3378.42,1574.15 3381.81,1574.31 3385.2,1573.85 3388.58,1572.75 3391.97,1571.01 3395.36,1568.65 3398.74,1565.68 3402.13,1562.14 3405.52,1558.07 3408.9,1553.52 3412.29,1548.54 3415.68,1543.2 3419.06,1537.58 3422.45,1531.77 3425.84,1525.85 3429.22,1519.91 3432.61,1514.02 3436,1508.25 3439.38,1502.66 3442.77,1497.32 3446.16,1492.27 3449.54,1487.58 3452.93,1483.28 3456.31,1479.42 3459.7,1476.04 3463.09,1473.16 3466.47,1470.76 3469.86,1468.86 3473.25,1467.48 3476.63,1466.6 3480.02,1466.22 3483.41,1466.35 3486.79,1466.97 3490.18,1468.07 3493.57,1469.61 3496.95,1471.59 3500.34,1473.96 3503.73,1476.71 3507.11,1479.8 3510.5,1483.25 3513.89,1487.01 3517.27,1491.08 3520.66,1495.41 3524.05,1499.99 3527.43,1504.77 3530.82,1509.74 3534.21,1514.84 3537.59,1520.05 3540.98,1525.32 3544.36,1530.61 3547.75,1535.89 3551.14,1541.09 3554.52,1546.17 3557.91,1551.06 3561.3,1555.7 3564.68,1560.05 3568.07,1564.05 3571.46,1567.64 3574.84,1570.78 3578.23,1573.4 3581.62,1575.48 3585,1576.95 3588.39,1577.78 3591.78,1577.93 3595.16,1577.39 3598.55,1576.17 3601.94,1574.27 3605.32,1571.69 3608.71,1568.47 3612.1,1564.64 3615.48,1560.24 3618.87,1555.32 3622.26,1549.95 3625.64,1544.19 3629.03,1538.14 3632.42,1531.88 3635.8,1525.52 3639.19,1519.14 3642.57,1512.83 3645.96,1506.66 3649.35,1500.7 3652.73,1495.01 3656.12,1489.66 3659.51,1484.69 3662.89,1480.15 3666.28,1476.08 3669.67,1472.52 3673.05,1469.51 3676.44,1467.03 3679.83,1465.09 3683.21,1463.68 3686.6,1462.82 3689.99,1462.48 3693.37,1462.67 3696.76,1463.38 3700.15,1464.58 3703.53,1466.27 3706.92,1468.41 3710.31,1470.97 3713.69,1473.94 3717.08,1477.26 3720.47,1480.93 3723.85,1484.93 3727.24,1489.24 3730.62,1493.84 3734.01,1498.7 3737.4,1503.78 3740.78,1509.05 3744.17,1514.47 3747.56,1520.01 3750.94,1525.62 3754.33,1531.25 3757.72,1536.85 3761.1,1542.39 3764.49,1547.81 3767.88,1553.04 3771.26,1558.03 3774.65,1562.7 3778.04,1566.99 3781.42,1570.85 3784.81,1574.21 3788.2,1577.03 3791.58,1579.25 3794.97,1580.83 3798.36,1581.73 3801.74,1581.9 3805.13,1581.32 3808.52,1579.98 3811.9,1577.91 3815.29,1575.12 3818.67,1571.64 3822.06,1567.51 3825.45,1562.77 3828.83,1557.48 3832.22,1551.71 3835.61,1545.53 3838.99,1539.02 3842.38,1532.29 3845.77,1525.42 3849.15,1518.55 3852.54,1511.75 3855.93,1505.13 3859.31,1498.75 3862.7,1492.68 3866.09,1486.98 3869.47,1481.72 3872.86,1476.92 3876.25,1472.64 3879.63,1468.9 3883.02,1465.73 3886.41,1463.13 3889.79,1461.12 3893.18,1459.69 3896.57,1458.81 3899.95,1458.5 3903.34,1458.73 3906.72,1459.5 3910.11,1460.78 3913.5,1462.57 3916.88,1464.83 3920.27,1467.55 3923.66,1470.7 3927.04,1474.24 3930.43,1478.14 3933.82,1482.38 3937.2,1486.95 3940.59,1491.82 3943.98,1496.95 3947.36,1502.33 3950.75,1507.92 3954.14,1513.67 3957.52,1519.55 3960.91,1525.51 3964.3,1531.51 3967.68,1537.49 3971.07,1543.4 3974.46,1549.19 3977.84,1554.79 3981.23,1560.16 3984.62,1565.2 3988,1569.86 3991.39,1574.06 3994.77,1577.72 3998.16,1580.8 4001.55,1583.23 4004.93,1584.98 4008.32,1585.99 4011.71,1586.24 4015.09,1585.68 4018.48,1584.29 4021.87,1582.07 4025.25,1579.08 4028.64,1575.34 4032.03,1570.91 4035.41,1565.81 4038.8,1560.14 4042.19,1553.94 4045.57,1547.3 4048.96,1540.31 4052.35,1533.07 4055.73,1525.68 4059.12,1518.26 4062.51,1510.93 4065.89,1503.81 4069.28,1496.95 4072.67,1490.44 4076.05,1484.35 4079.44,1478.73 4082.82,1473.62 4086.21,1469.07 4089.6,1465.12 4092.98,1461.76 4096.37,1459.03 4099.76,1456.92 4103.14,1455.42 4106.53,1454.51 4109.92,1454.19 4113.3,1454.45 4116.69,1455.26 4120.08,1456.62 4123.46,1458.5 4126.85,1460.88 4130.24,1463.74 4133.62,1467.05 4137.01,1470.78 4140.4,1474.89 4143.78,1479.37 4147.17,1484.18 4150.56,1489.31 4153.94,1494.74 4157.33,1500.42 4160.72,1506.32 4164.1,1512.41 4167.49,1518.65 4170.87,1524.98 4174.26,1531.37 4177.65,1537.75 4181.03,1544.07 4184.42,1550.27 4187.81,1556.29 4191.19,1562.06 4194.58,1567.53 4197.97,1572.6 4201.35,1577.19 4204.74,1581.23 4208.13,1584.64 4211.51,1587.37 4214.9,1589.35 4218.29,1590.55 4221.67,1590.92 4225.06,1590.43 4228.45,1589.05 4231.83,1586.76 4235.22,1583.61 4238.61,1579.65 4241.99,1574.92 4245.38,1569.48 4248.77,1563.4 4252.15,1556.75 4255.54,1549.63 4258.93,1542.12 4262.31,1534.33 4265.7,1526.37 4269.08,1518.37 4272.47,1510.46 4275.86,1502.78 4279.24,1495.4 4282.63,1488.39 4286.02,1481.84 4289.4,1475.81 4292.79,1470.33 4296.18,1465.46 4299.56,1461.23 4302.95,1457.64 4306.34,1454.73 4309.72,1452.47 4313.11,1450.86 4316.5,1449.89 4319.88,1449.54 4323.27,1449.79 4326.66,1450.63 4330.04,1452.04 4333.43,1454 4336.82,1456.48 4340.2,1459.46 4343.59,1462.92 4346.98,1466.81 4350.36,1471.12 4353.75,1475.81 4357.13,1480.86 4360.52,1486.25 4363.91,1491.95 4367.29,1497.93 4370.68,1504.16 4374.07,1510.59 4377.45,1517.2 4380.84,1523.92 4384.23,1530.71 4387.61,1537.51 4391,1544.27 4394.39,1550.92 4397.77,1557.41 4401.16,1563.65 4404.55,1569.59 4407.93,1575.13 4411.32,1580.18 4414.71,1584.66 4418.09,1588.48 4421.48,1591.58 4424.87,1593.89 4428.25,1595.36 4431.64,1595.95 4435.03,1595.6 4438.41,1594.3 4441.8,1592 4445.18,1588.77 4448.57,1584.64 4451.96,1579.67 4455.34,1573.92 4458.73,1567.45 4462.12,1560.35 4465.5,1552.72 4468.89,1544.66 4472.28,1536.28 4475.66,1527.71 4479.05,1519.08 4482.44,1510.55 4485.82,1502.25 4489.21,1494.27 4492.6,1486.7 4495.98,1479.62 4499.37,1473.09 4502.76,1467.17 4506.14,1461.91 4509.53,1457.32 4512.92,1453.44 4516.3,1450.27 4519.69,1447.81 4523.08,1446.03 4526.46,1444.94 4529.85,1444.5 4533.23,1444.7 4536.62,1445.53 4540.01,1446.95 4543.39,1448.96 4546.78,1451.52 4550.17,1454.6 4553.55,1458.18 4556.94,1462.21 4560.33,1466.68 "/>
<path clip-path="url(#clip790)" d="M419.747 3636.93 L2211.02 3636.93 L2211.02 2188.98 L419.747 2188.98  Z" fill="#ffffff" fill-rule="evenodd" fill-opacity="1"/>
<defs>
  <clipPath id="clip794">
    <rect x="419" y="2188" width="1792" height="1449"/>
  </clipPath>
</defs>
<polyline clip-path="url(#clip794)" style="stroke:#000000; stroke-linecap:round; stroke-linejoin:round; stroke-width:8; stroke-opacity:0.1; fill:none" points="467.057,3636.93 467.057,2188.98 "/>
<polyline clip-path="url(#clip794)" style="stroke:#000000; stroke-linecap:round; stroke-linejoin:round; stroke-width:8; stroke-opacity:0.1; fill:none" points="805.711,3636.93 805.711,2188.98 "/>
<polyline clip-path="url(#clip794)" style="stroke:#000000; stroke-linecap:round; stroke-linejoin:round; stroke-width:8; stroke-opacity:0.1; fill:none" points="1144.36,3636.93 1144.36,2188.98 "/>
<polyline clip-path="url(#clip794)" style="stroke:#000000; stroke-linecap:round; stroke-linejoin:round; stroke-width:8; stroke-opacity:0.1; fill:none" points="1483.02,3636.93 1483.02,2188.98 "/>
<polyline clip-path="url(#clip794)" style="stroke:#000000; stroke-linecap:round; stroke-linejoin:round; stroke-width:8; stroke-opacity:0.1; fill:none" points="1821.67,3636.93 1821.67,2188.98 "/>
<polyline clip-path="url(#clip794)" style="stroke:#000000; stroke-linecap:round; stroke-linejoin:round; stroke-width:8; stroke-opacity:0.1; fill:none" points="2160.33,3636.93 2160.33,2188.98 "/>
<polyline clip-path="url(#clip790)" style="stroke:#000000; stroke-linecap:round; stroke-linejoin:round; stroke-width:4; stroke-opacity:1; fill:none" points="419.747,3636.93 2211.02,3636.93 "/>
<polyline clip-path="url(#clip790)" style="stroke:#000000; stroke-linecap:round; stroke-linejoin:round; stroke-width:4; stroke-opacity:1; fill:none" points="467.057,3636.93 467.057,3618.03 "/>
<polyline clip-path="url(#clip790)" style="stroke:#000000; stroke-linecap:round; stroke-linejoin:round; stroke-width:4; stroke-opacity:1; fill:none" points="805.711,3636.93 805.711,3618.03 "/>
<polyline clip-path="url(#clip790)" style="stroke:#000000; stroke-linecap:round; stroke-linejoin:round; stroke-width:4; stroke-opacity:1; fill:none" points="1144.36,3636.93 1144.36,3618.03 "/>
<polyline clip-path="url(#clip790)" style="stroke:#000000; stroke-linecap:round; stroke-linejoin:round; stroke-width:4; stroke-opacity:1; fill:none" points="1483.02,3636.93 1483.02,3618.03 "/>
<polyline clip-path="url(#clip790)" style="stroke:#000000; stroke-linecap:round; stroke-linejoin:round; stroke-width:4; stroke-opacity:1; fill:none" points="1821.67,3636.93 1821.67,3618.03 "/>
<polyline clip-path="url(#clip790)" style="stroke:#000000; stroke-linecap:round; stroke-linejoin:round; stroke-width:4; stroke-opacity:1; fill:none" points="2160.33,3636.93 2160.33,3618.03 "/>
<path clip-path="url(#clip790)" d="M467.057 3687.05 Q463.446 3687.05 461.617 3690.61 Q459.812 3694.15 459.812 3701.28 Q459.812 3708.39 461.617 3711.95 Q463.446 3715.5 467.057 3715.5 Q470.691 3715.5 472.497 3711.95 Q474.325 3708.39 474.325 3701.28 Q474.325 3694.15 472.497 3690.61 Q470.691 3687.05 467.057 3687.05 M467.057 3683.34 Q472.867 3683.34 475.923 3687.95 Q479.001 3692.53 479.001 3701.28 Q479.001 3710.01 475.923 3714.62 Q472.867 3719.2 467.057 3719.2 Q461.247 3719.2 458.168 3714.62 Q455.113 3710.01 455.113 3701.28 Q455.113 3692.53 458.168 3687.95 Q461.247 3683.34 467.057 3683.34 Z" fill="#000000" fill-rule="nonzero" fill-opacity="1" /><path clip-path="url(#clip790)" d="M796.093 3714.59 L803.732 3714.59 L803.732 3688.23 L795.422 3689.89 L795.422 3685.63 L803.686 3683.97 L808.361 3683.97 L808.361 3714.59 L816 3714.59 L816 3718.53 L796.093 3718.53 L796.093 3714.59 Z" fill="#000000" fill-rule="nonzero" fill-opacity="1" /><path clip-path="url(#clip790)" d="M1139.02 3714.59 L1155.34 3714.59 L1155.34 3718.53 L1133.39 3718.53 L1133.39 3714.59 Q1136.05 3711.84 1140.64 3707.21 Q1145.24 3702.56 1146.43 3701.21 Q1148.67 3698.69 1149.55 3696.95 Q1150.45 3695.19 1150.45 3693.5 Q1150.45 3690.75 1148.51 3689.01 Q1146.59 3687.28 1143.49 3687.28 Q1141.29 3687.28 1138.83 3688.04 Q1136.4 3688.81 1133.62 3690.36 L1133.62 3685.63 Q1136.45 3684.5 1138.9 3683.92 Q1141.36 3683.34 1143.39 3683.34 Q1148.76 3683.34 1151.96 3686.03 Q1155.15 3688.71 1155.15 3693.2 Q1155.15 3695.33 1154.34 3697.25 Q1153.55 3699.15 1151.45 3701.75 Q1150.87 3702.42 1147.77 3705.63 Q1144.67 3708.83 1139.02 3714.59 Z" fill="#000000" fill-rule="nonzero" fill-opacity="1" /><path clip-path="url(#clip790)" d="M1487.27 3699.89 Q1490.62 3700.61 1492.5 3702.88 Q1494.4 3705.15 1494.4 3708.48 Q1494.4 3713.6 1490.88 3716.4 Q1487.36 3719.2 1480.88 3719.2 Q1478.7 3719.2 1476.39 3718.76 Q1474.1 3718.34 1471.64 3717.49 L1471.64 3712.97 Q1473.59 3714.11 1475.9 3714.68 Q1478.22 3715.26 1480.74 3715.26 Q1485.14 3715.26 1487.43 3713.53 Q1489.74 3711.79 1489.74 3708.48 Q1489.74 3705.43 1487.59 3703.71 Q1485.46 3701.98 1481.64 3701.98 L1477.61 3701.98 L1477.61 3698.13 L1481.83 3698.13 Q1485.28 3698.13 1487.1 3696.77 Q1488.93 3695.38 1488.93 3692.79 Q1488.93 3690.12 1487.04 3688.71 Q1485.16 3687.28 1481.64 3687.28 Q1479.72 3687.28 1477.52 3687.69 Q1475.32 3688.11 1472.68 3688.99 L1472.68 3684.82 Q1475.35 3684.08 1477.66 3683.71 Q1480 3683.34 1482.06 3683.34 Q1487.38 3683.34 1490.48 3685.77 Q1493.59 3688.18 1493.59 3692.3 Q1493.59 3695.17 1491.94 3697.16 Q1490.3 3699.13 1487.27 3699.89 Z" fill="#000000" fill-rule="nonzero" fill-opacity="1" /><path clip-path="url(#clip790)" d="M1824.68 3688.04 L1812.88 3706.49 L1824.68 3706.49 L1824.68 3688.04 M1823.46 3683.97 L1829.34 3683.97 L1829.34 3706.49 L1834.27 3706.49 L1834.27 3710.38 L1829.34 3710.38 L1829.34 3718.53 L1824.68 3718.53 L1824.68 3710.38 L1809.08 3710.38 L1809.08 3705.87 L1823.46 3683.97 Z" fill="#000000" fill-rule="nonzero" fill-opacity="1" /><path clip-path="url(#clip790)" d="M2150.6 3683.97 L2168.96 3683.97 L2168.96 3687.9 L2154.89 3687.9 L2154.89 3696.37 Q2155.91 3696.03 2156.92 3695.87 Q2157.94 3695.68 2158.96 3695.68 Q2164.75 3695.68 2168.13 3698.85 Q2171.51 3702.02 2171.51 3707.44 Q2171.51 3713.02 2168.04 3716.12 Q2164.56 3719.2 2158.24 3719.2 Q2156.07 3719.2 2153.8 3718.83 Q2151.55 3718.46 2149.15 3717.72 L2149.15 3713.02 Q2151.23 3714.15 2153.45 3714.71 Q2155.67 3715.26 2158.15 3715.26 Q2162.16 3715.26 2164.49 3713.16 Q2166.83 3711.05 2166.83 3707.44 Q2166.83 3703.83 2164.49 3701.72 Q2162.16 3699.62 2158.15 3699.62 Q2156.28 3699.62 2154.4 3700.03 Q2152.55 3700.45 2150.6 3701.33 L2150.6 3683.97 Z" fill="#000000" fill-rule="nonzero" fill-opacity="1" /><path clip-path="url(#clip790)" d="M1314.45 3772.02 L1314.45 3782.14 L1326.51 3782.14 L1326.51 3786.7 L1314.45 3786.7 L1314.45 3806.05 Q1314.45 3810.41 1315.62 3811.65 Q1316.83 3812.89 1320.49 3812.89 L1326.51 3812.89 L1326.51 3817.79 L1320.49 3817.79 Q1313.71 3817.79 1311.14 3815.28 Q1308.56 3812.73 1308.56 3806.05 L1308.56 3786.7 L1304.26 3786.7 L1304.26 3782.14 L1308.56 3782.14 L1308.56 3772.02 L1314.45 3772.02 Z" fill="#000000" fill-rule="nonzero" fill-opacity="1" /><polyline clip-path="url(#clip794)" style="stroke:#000000; stroke-linecap:round; stroke-linejoin:round; stroke-width:8; stroke-opacity:0.1; fill:none" points="419.747,3595.98 2211.02,3595.98 "/>
<polyline clip-path="url(#clip794)" style="stroke:#000000; stroke-linecap:round; stroke-linejoin:round; stroke-width:8; stroke-opacity:0.1; fill:none" points="419.747,3313.21 2211.02,3313.21 "/>
<polyline clip-path="url(#clip794)" style="stroke:#000000; stroke-linecap:round; stroke-linejoin:round; stroke-width:8; stroke-opacity:0.1; fill:none" points="419.747,3030.44 2211.02,3030.44 "/>
<polyline clip-path="url(#clip794)" style="stroke:#000000; stroke-linecap:round; stroke-linejoin:round; stroke-width:8; stroke-opacity:0.1; fill:none" points="419.747,2747.67 2211.02,2747.67 "/>
<polyline clip-path="url(#clip794)" style="stroke:#000000; stroke-linecap:round; stroke-linejoin:round; stroke-width:8; stroke-opacity:0.1; fill:none" points="419.747,2464.9 2211.02,2464.9 "/>
<polyline clip-path="url(#clip790)" style="stroke:#000000; stroke-linecap:round; stroke-linejoin:round; stroke-width:4; stroke-opacity:1; fill:none" points="419.747,3636.93 419.747,2188.98 "/>
<polyline clip-path="url(#clip790)" style="stroke:#000000; stroke-linecap:round; stroke-linejoin:round; stroke-width:4; stroke-opacity:1; fill:none" points="419.747,3595.98 438.645,3595.98 "/>
<polyline clip-path="url(#clip790)" style="stroke:#000000; stroke-linecap:round; stroke-linejoin:round; stroke-width:4; stroke-opacity:1; fill:none" points="419.747,3313.21 438.645,3313.21 "/>
<polyline clip-path="url(#clip790)" style="stroke:#000000; stroke-linecap:round; stroke-linejoin:round; stroke-width:4; stroke-opacity:1; fill:none" points="419.747,3030.44 438.645,3030.44 "/>
<polyline clip-path="url(#clip790)" style="stroke:#000000; stroke-linecap:round; stroke-linejoin:round; stroke-width:4; stroke-opacity:1; fill:none" points="419.747,2747.67 438.645,2747.67 "/>
<polyline clip-path="url(#clip790)" style="stroke:#000000; stroke-linecap:round; stroke-linejoin:round; stroke-width:4; stroke-opacity:1; fill:none" points="419.747,2464.9 438.645,2464.9 "/>
<path clip-path="url(#clip790)" d="M335.803 3581.78 Q332.191 3581.78 330.363 3585.35 Q328.557 3588.89 328.557 3596.02 Q328.557 3603.12 330.363 3606.69 Q332.191 3610.23 335.803 3610.23 Q339.437 3610.23 341.242 3606.69 Q343.071 3603.12 343.071 3596.02 Q343.071 3588.89 341.242 3585.35 Q339.437 3581.78 335.803 3581.78 M335.803 3578.08 Q341.613 3578.08 344.668 3582.69 Q347.747 3587.27 347.747 3596.02 Q347.747 3604.75 344.668 3609.35 Q341.613 3613.93 335.803 3613.93 Q329.992 3613.93 326.914 3609.35 Q323.858 3604.75 323.858 3596.02 Q323.858 3587.27 326.914 3582.69 Q329.992 3578.08 335.803 3578.08 Z" fill="#000000" fill-rule="nonzero" fill-opacity="1" /><path clip-path="url(#clip790)" d="M296.451 3326.56 L304.09 3326.56 L304.09 3300.19 L295.78 3301.86 L295.78 3297.6 L304.043 3295.93 L308.719 3295.93 L308.719 3326.56 L316.358 3326.56 L316.358 3330.49 L296.451 3330.49 L296.451 3326.56 Z" fill="#000000" fill-rule="nonzero" fill-opacity="1" /><path clip-path="url(#clip790)" d="M335.803 3299.01 Q332.191 3299.01 330.363 3302.57 Q328.557 3306.12 328.557 3313.25 Q328.557 3320.35 330.363 3323.92 Q332.191 3327.46 335.803 3327.46 Q339.437 3327.46 341.242 3323.92 Q343.071 3320.35 343.071 3313.25 Q343.071 3306.12 341.242 3302.57 Q339.437 3299.01 335.803 3299.01 M335.803 3295.31 Q341.613 3295.31 344.668 3299.91 Q347.747 3304.5 347.747 3313.25 Q347.747 3321.97 344.668 3326.58 Q341.613 3331.16 335.803 3331.16 Q329.992 3331.16 326.914 3326.58 Q323.858 3321.97 323.858 3313.25 Q323.858 3304.5 326.914 3299.91 Q329.992 3295.31 335.803 3295.31 Z" fill="#000000" fill-rule="nonzero" fill-opacity="1" /><path clip-path="url(#clip790)" d="M299.669 3043.78 L315.988 3043.78 L315.988 3047.72 L294.044 3047.72 L294.044 3043.78 Q296.706 3041.03 301.289 3036.4 Q305.895 3031.75 307.076 3030.4 Q309.321 3027.88 310.201 3026.15 Q311.104 3024.39 311.104 3022.7 Q311.104 3019.94 309.159 3018.21 Q307.238 3016.47 304.136 3016.47 Q301.937 3016.47 299.483 3017.23 Q297.053 3018 294.275 3019.55 L294.275 3014.83 Q297.099 3013.69 299.553 3013.11 Q302.006 3012.53 304.043 3012.53 Q309.414 3012.53 312.608 3015.22 Q315.803 3017.9 315.803 3022.4 Q315.803 3024.53 314.992 3026.45 Q314.205 3028.34 312.099 3030.94 Q311.52 3031.61 308.418 3034.83 Q305.317 3038.02 299.669 3043.78 Z" fill="#000000" fill-rule="nonzero" fill-opacity="1" /><path clip-path="url(#clip790)" d="M335.803 3016.24 Q332.191 3016.24 330.363 3019.8 Q328.557 3023.34 328.557 3030.47 Q328.557 3037.58 330.363 3041.15 Q332.191 3044.69 335.803 3044.69 Q339.437 3044.69 341.242 3041.15 Q343.071 3037.58 343.071 3030.47 Q343.071 3023.34 341.242 3019.8 Q339.437 3016.24 335.803 3016.24 M335.803 3012.53 Q341.613 3012.53 344.668 3017.14 Q347.747 3021.72 347.747 3030.47 Q347.747 3039.2 344.668 3043.81 Q341.613 3048.39 335.803 3048.39 Q329.992 3048.39 326.914 3043.81 Q323.858 3039.2 323.858 3030.47 Q323.858 3021.72 326.914 3017.14 Q329.992 3012.53 335.803 3012.53 Z" fill="#000000" fill-rule="nonzero" fill-opacity="1" /><path clip-path="url(#clip790)" d="M309.807 2746.31 Q313.164 2747.03 315.039 2749.3 Q316.937 2751.57 316.937 2754.9 Q316.937 2760.02 313.418 2762.82 Q309.9 2765.62 303.418 2765.62 Q301.243 2765.62 298.928 2765.18 Q296.636 2764.76 294.182 2763.91 L294.182 2759.39 Q296.127 2760.53 298.442 2761.1 Q300.756 2761.68 303.28 2761.68 Q307.678 2761.68 309.969 2759.95 Q312.284 2758.21 312.284 2754.9 Q312.284 2751.85 310.131 2750.13 Q308.002 2748.4 304.182 2748.4 L300.155 2748.4 L300.155 2744.55 L304.368 2744.55 Q307.817 2744.55 309.645 2743.19 Q311.474 2741.8 311.474 2739.21 Q311.474 2736.54 309.576 2735.13 Q307.701 2733.7 304.182 2733.7 Q302.261 2733.7 300.062 2734.11 Q297.863 2734.53 295.224 2735.41 L295.224 2731.24 Q297.886 2730.5 300.201 2730.13 Q302.539 2729.76 304.599 2729.76 Q309.923 2729.76 313.025 2732.19 Q316.127 2734.6 316.127 2738.72 Q316.127 2741.59 314.483 2743.58 Q312.84 2745.55 309.807 2746.31 Z" fill="#000000" fill-rule="nonzero" fill-opacity="1" /><path clip-path="url(#clip790)" d="M335.803 2733.47 Q332.191 2733.47 330.363 2737.03 Q328.557 2740.57 328.557 2747.7 Q328.557 2754.81 330.363 2758.37 Q332.191 2761.91 335.803 2761.91 Q339.437 2761.91 341.242 2758.37 Q343.071 2754.81 343.071 2747.7 Q343.071 2740.57 341.242 2737.03 Q339.437 2733.47 335.803 2733.47 M335.803 2729.76 Q341.613 2729.76 344.668 2734.37 Q347.747 2738.95 347.747 2747.7 Q347.747 2756.43 344.668 2761.04 Q341.613 2765.62 335.803 2765.62 Q329.992 2765.62 326.914 2761.04 Q323.858 2756.43 323.858 2747.7 Q323.858 2738.95 326.914 2734.37 Q329.992 2729.76 335.803 2729.76 Z" fill="#000000" fill-rule="nonzero" fill-opacity="1" /><path clip-path="url(#clip790)" d="M308.488 2451.69 L296.682 2470.14 L308.488 2470.14 L308.488 2451.69 M307.261 2447.62 L313.141 2447.62 L313.141 2470.14 L318.071 2470.14 L318.071 2474.03 L313.141 2474.03 L313.141 2482.18 L308.488 2482.18 L308.488 2474.03 L292.886 2474.03 L292.886 2469.51 L307.261 2447.62 Z" fill="#000000" fill-rule="nonzero" fill-opacity="1" /><path clip-path="url(#clip790)" d="M335.803 2450.69 Q332.191 2450.69 330.363 2454.26 Q328.557 2457.8 328.557 2464.93 Q328.557 2472.04 330.363 2475.6 Q332.191 2479.14 335.803 2479.14 Q339.437 2479.14 341.242 2475.6 Q343.071 2472.04 343.071 2464.93 Q343.071 2457.8 341.242 2454.26 Q339.437 2450.69 335.803 2450.69 M335.803 2446.99 Q341.613 2446.99 344.668 2451.6 Q347.747 2456.18 347.747 2464.93 Q347.747 2473.66 344.668 2478.26 Q341.613 2482.85 335.803 2482.85 Q329.992 2482.85 326.914 2478.26 Q323.858 2473.66 323.858 2464.93 Q323.858 2456.18 326.914 2451.6 Q329.992 2446.99 335.803 2446.99 Z" fill="#000000" fill-rule="nonzero" fill-opacity="1" /><path clip-path="url(#clip790)" d="M170.982 2926.46 L170.982 2898.65 L176.329 2898.65 L201.951 2920.67 L201.951 2898.65 L206.63 2898.65 L206.63 2927.26 L201.283 2927.26 L175.661 2905.23 L175.661 2926.46 L170.982 2926.46 Z" fill="#000000" fill-rule="nonzero" fill-opacity="1" /><polyline clip-path="url(#clip794)" style="stroke:#008000; stroke-linecap:round; stroke-linejoin:round; stroke-width:4; stroke-opacity:1; fill:none" points="470.443,3595.95 473.83,3595.85 477.217,3595.71 480.603,3595.51 483.99,3595.26 487.376,3594.95 490.763,3594.57 494.149,3594.09 497.536,3593.5 500.922,3592.76 504.309,3591.82 507.695,3590.65 511.082,3589.17 514.468,3587.31 517.855,3584.96 521.242,3582 524.628,3578.26 528.015,3573.55 531.401,3567.6 534.788,3560.12 538.174,3550.71 541.561,3538.9 544.947,3524.11 548.334,3505.65 551.72,3482.69 555.107,3454.27 558.494,3419.3 561.88,3376.62 565.267,3324.99 568.653,3263.17 572.04,3190.3 575.426,3106.02 578.813,3010.57 582.199,2905.34 585.586,2792.97 588.972,2677.43 592.359,2564.13 595.745,2459.61 599.132,2370.04 602.519,2300.16 605.905,2253.02 609.292,2230.01 612.678,2229.96 616.065,2248.87 619.451,2282.36 622.838,2325.7 626.224,2374.01 629.611,2423.87 632.997,2472.74 636.384,2518.85 639.77,2561.24 643.157,2599.51 646.544,2633.69 649.93,2663.98 653.317,2690.66 656.703,2714.12 660.09,2734.79 663.476,2753.02 666.863,2769.14 670.249,2783.44 673.636,2796.16 677.022,2807.51 680.409,2817.65 683.796,2826.72 687.182,2834.82 690.569,2842.06 693.955,2848.49 697.342,2854.17 700.728,2859.14 704.115,2863.44 707.501,2867.07 710.888,2870.08 714.274,2872.46 717.661,2874.24 721.047,2875.42 724.434,2876.01 727.821,2876.01 731.207,2875.45 734.594,2874.33 737.98,2872.67 741.367,2870.5 744.753,2867.84 748.14,2864.7 751.526,2861.13 754.913,2857.16 758.299,2852.84 761.686,2848.21 765.072,2843.33 768.459,2838.26 771.846,2833.06 775.232,2827.8 778.619,2822.54 782.005,2817.35 785.392,2812.29 788.778,2807.45 792.165,2802.88 795.551,2798.65 798.938,2794.83 802.324,2791.45 805.711,2788.56 809.097,2786.2 812.484,2784.39 815.871,2783.15 819.257,2782.5 822.644,2782.43 826.03,2782.93 829.417,2783.99 832.803,2785.59 836.19,2787.68 839.576,2790.25 842.963,2793.26 846.349,2796.67 849.736,2800.45 853.123,2804.54 856.509,2808.89 859.896,2813.45 863.282,2818.17 866.669,2822.99 870.055,2827.89 873.442,2832.81 876.828,2837.72 880.215,2842.58 883.601,2847.34 886.988,2851.97 890.374,2856.42 893.761,2860.67 897.148,2864.69 900.534,2868.43 903.921,2871.89 907.307,2875.01 910.694,2877.77 914.08,2880.15 917.467,2882.12 920.853,2883.65 924.24,2884.74 927.626,2885.36 931.013,2885.49 934.399,2885.14 937.786,2884.3 941.173,2882.95 944.559,2881.11 947.946,2878.78 951.332,2875.96 954.719,2872.68 958.105,2868.95 961.492,2864.79 964.878,2860.25 968.265,2855.36 971.651,2850.18 975.038,2844.75 978.425,2839.15 981.811,2833.45 985.198,2827.72 988.584,2822.02 991.971,2816.43 995.357,2811.01 998.744,2805.83 1002.13,2800.94 1005.52,2796.42 1008.9,2792.31 1012.29,2788.67 1015.68,2785.56 1019.06,2783.04 1022.45,2781.14 1025.84,2779.88 1029.22,2779.24 1032.61,2779.22 1036,2779.81 1039.38,2781.01 1042.77,2782.79 1046.16,2785.12 1049.54,2787.97 1052.93,2791.28 1056.31,2795.01 1059.7,2799.09 1063.09,2803.47 1066.47,2808.12 1069.86,2812.99 1073.25,2818.02 1076.63,2823.17 1080.02,2828.38 1083.41,2833.62 1086.79,2838.84 1090.18,2843.99 1093.57,2849.03 1096.95,2853.93 1100.34,2858.64 1103.73,2863.12 1107.11,2867.35 1110.5,2871.3 1113.89,2874.92 1117.27,2878.2 1120.66,2881.09 1124.05,2883.57 1127.43,2885.62 1130.82,2887.21 1134.21,2888.32 1137.59,2888.95 1140.98,2889.07 1144.36,2888.66 1147.75,2887.75 1151.14,2886.31 1154.52,2884.34 1157.91,2881.84 1161.3,2878.83 1164.68,2875.3 1168.07,2871.29 1171.46,2866.83 1174.84,2861.95 1178.23,2856.7 1181.62,2851.14 1185,2845.32 1188.39,2839.31 1191.78,2833.2 1195.16,2827.06 1198.55,2820.97 1201.94,2814.99 1205.32,2809.21 1208.71,2803.68 1212.1,2798.48 1215.48,2793.66 1218.87,2789.29 1222.26,2785.44 1225.64,2782.15 1229.03,2779.48 1232.42,2777.5 1235.8,2776.21 1239.19,2775.6 1242.57,2775.65 1245.96,2776.35 1249.35,2777.71 1252.73,2779.68 1256.12,2782.23 1259.51,2785.34 1262.89,2788.94 1266.28,2792.99 1269.67,2797.41 1273.05,2802.15 1276.44,2807.13 1279.83,2812.35 1283.21,2817.73 1286.6,2823.22 1289.99,2828.78 1293.37,2834.36 1296.76,2839.9 1300.15,2845.36 1303.53,2850.71 1306.92,2855.89 1310.31,2860.87 1313.69,2865.61 1317.08,2870.08 1320.47,2874.25 1323.85,2878.08 1327.24,2881.55 1330.62,2884.61 1334.01,2887.23 1337.4,2889.4 1340.78,2891.08 1344.17,2892.26 1347.56,2892.92 1350.94,2893.04 1354.33,2892.61 1357.72,2891.61 1361.1,2890.06 1364.49,2887.95 1367.88,2885.29 1371.26,2882.07 1374.65,2878.32 1378.04,2874.06 1381.42,2869.3 1384.81,2864.1 1388.2,2858.49 1391.58,2852.53 1394.97,2846.29 1398.36,2839.83 1401.74,2833.25 1405.13,2826.62 1408.52,2820.05 1411.9,2813.63 1415.29,2807.42 1418.67,2801.51 1422.06,2795.96 1425.45,2790.84 1428.83,2786.21 1432.22,2782.13 1435.61,2778.65 1438.99,2775.82 1442.38,2773.68 1445.77,2772.29 1449.15,2771.67 1452.54,2771.79 1455.93,2772.61 1459.31,2774.1 1462.7,2776.25 1466.09,2779.02 1469.47,2782.37 1472.86,2786.24 1476.25,2790.59 1479.63,2795.35 1483.02,2800.46 1486.41,2805.84 1489.79,2811.42 1493.18,2817.16 1496.57,2823.02 1499.95,2828.94 1503.34,2834.87 1506.72,2840.76 1510.11,2846.57 1513.5,2852.24 1516.88,2857.74 1520.27,2863.02 1523.66,2868.05 1527.04,2872.8 1530.43,2877.22 1533.82,2881.29 1537.2,2884.98 1540.59,2888.25 1543.98,2891.07 1547.36,2893.4 1550.75,2895.22 1554.14,2896.51 1557.52,2897.24 1560.91,2897.4 1564.3,2896.98 1567.68,2895.96 1571.07,2894.33 1574.46,2892.11 1577.84,2889.28 1581.23,2885.87 1584.62,2881.9 1588,2877.37 1591.39,2872.33 1594.77,2866.8 1598.16,2860.83 1601.55,2854.47 1604.93,2847.8 1608.32,2840.89 1611.71,2833.81 1615.09,2826.67 1618.48,2819.56 1621.87,2812.61 1625.25,2805.9 1628.64,2799.51 1632.03,2793.53 1635.41,2788.03 1638.8,2783.06 1642.19,2778.7 1645.57,2774.98 1648.96,2771.96 1652.35,2769.68 1655.73,2768.18 1659.12,2767.47 1662.51,2767.59 1665.89,2768.5 1669.28,2770.14 1672.67,2772.47 1676.05,2775.45 1679.44,2779.04 1682.82,2783.19 1686.21,2787.84 1689.6,2792.93 1692.98,2798.39 1696.37,2804.15 1699.76,2810.13 1703.14,2816.26 1706.53,2822.5 1709.92,2828.8 1713.3,2835.11 1716.69,2841.38 1720.08,2847.56 1723.46,2853.59 1726.85,2859.44 1730.24,2865.06 1733.62,2870.42 1737.01,2875.47 1740.4,2880.18 1743.78,2884.53 1747.17,2888.48 1750.56,2891.99 1753.94,2895.04 1757.33,2897.57 1760.72,2899.58 1764.1,2901.01 1767.49,2901.86 1770.87,2902.11 1774.26,2901.74 1777.65,2900.73 1781.03,2899.08 1784.42,2896.79 1787.81,2893.86 1791.19,2890.28 1794.58,2886.1 1797.97,2881.33 1801.35,2875.99 1804.74,2870.13 1808.13,2863.79 1811.51,2857.02 1814.9,2849.9 1818.29,2842.5 1821.67,2834.91 1825.06,2827.23 1828.45,2819.56 1831.83,2812.03 1835.22,2804.76 1838.61,2797.83 1841.99,2791.34 1845.38,2785.37 1848.77,2779.98 1852.15,2775.24 1855.54,2771.21 1858.93,2767.93 1862.31,2765.44 1865.7,2763.79 1869.08,2762.99 1872.47,2763.06 1875.86,2764.01 1879.24,2765.75 1882.63,2768.24 1886.02,2771.43 1889.4,2775.26 1892.79,2779.69 1896.18,2784.65 1899.56,2790.07 1902.95,2795.89 1906.34,2802.03 1909.72,2808.41 1913.11,2814.94 1916.5,2821.59 1919.88,2828.3 1923.27,2835.01 1926.66,2841.69 1930.04,2848.26 1933.43,2854.69 1936.82,2860.92 1940.2,2866.92 1943.59,2872.64 1946.98,2878.04 1950.36,2883.09 1953.75,2887.75 1957.13,2892.01 1960.52,2895.81 1963.91,2899.12 1967.29,2901.91 1970.68,2904.13 1974.07,2905.77 1977.45,2906.79 1980.84,2907.17 1984.23,2906.9 1987.61,2905.96 1991,2904.34 1994.39,2902.03 1997.77,2899.04 2001.16,2895.35 2004.55,2891.01 2007.93,2886.02 2011.32,2880.42 2014.71,2874.24 2018.09,2867.53 2021.48,2860.34 2024.87,2852.75 2028.25,2844.84 2031.64,2836.7 2035.03,2828.44 2038.41,2820.17 2041.8,2812.03 2045.18,2804.15 2048.57,2796.63 2051.96,2789.56 2055.34,2783.03 2058.73,2777.13 2062.12,2771.91 2065.5,2767.45 2068.89,2763.79 2072.28,2761 2075.66,2759.1 2079.05,2758.13 2082.44,2758.12 2085.82,2759.06 2089.21,2760.85 2092.6,2763.45 2095.98,2766.81 2099.37,2770.86 2102.76,2775.56 2106.14,2780.83 2109.53,2786.6 2112.92,2792.79 2116.3,2799.32 2119.69,2806.09 2123.08,2813.03 2126.46,2820.11 2129.85,2827.25 2133.23,2834.4 2136.62,2841.51 2140.01,2848.52 2143.39,2855.37 2146.78,2862.03 2150.17,2868.44 2153.55,2874.56 2156.94,2880.37 2160.33,2885.81 "/>
</svg>
