<?xml version="1.0" encoding="utf-8"?>
<svg xmlns="http://www.w3.org/2000/svg" xmlns:xlink="http://www.w3.org/1999/xlink" width="700" height="500" viewBox="0 0 2800 2000">
<defs>
  <clipPath id="clip810">
    <rect x="0" y="0" width="2800" height="2000"/>
  </clipPath>
</defs>
<path clip-path="url(#clip810)" d="M0 2000 L2800 2000 L2800 0 L0 0  Z" fill="#ffffff" fill-rule="evenodd" fill-opacity="1"/>
<defs>
  <clipPath id="clip811">
    <rect x="560" y="0" width="1961" height="1961"/>
  </clipPath>
</defs>
<path clip-path="url(#clip810)" d="M197.936 1879.98 L1307.27 1879.98 L1307.27 127.792 L197.936 127.792  Z" fill="#ffffff" fill-rule="evenodd" fill-opacity="1"/>
<defs>
  <clipPath id="clip812">
    <rect x="197" y="127" width="1110" height="1753"/>
  </clipPath>
</defs>
<polyline clip-path="url(#clip812)" style="stroke:#000000; stroke-linecap:round; stroke-linejoin:round; stroke-width:8; stroke-opacity:0.1; fill:none" points="229.332,1879.98 229.332,127.792 "/>
<polyline clip-path="url(#clip812)" style="stroke:#000000; stroke-linecap:round; stroke-linejoin:round; stroke-width:8; stroke-opacity:0.1; fill:none" points="395.895,1879.98 395.895,127.792 "/>
<polyline clip-path="url(#clip812)" style="stroke:#000000; stroke-linecap:round; stroke-linejoin:round; stroke-width:8; stroke-opacity:0.1; fill:none" points="562.457,1879.98 562.457,127.792 "/>
<polyline clip-path="url(#clip812)" style="stroke:#000000; stroke-linecap:round; stroke-linejoin:round; stroke-width:8; stroke-opacity:0.1; fill:none" points="729.019,1879.98 729.019,127.792 "/>
<polyline clip-path="url(#clip812)" style="stroke:#000000; stroke-linecap:round; stroke-linejoin:round; stroke-width:8; stroke-opacity:0.1; fill:none" points="895.581,1879.98 895.581,127.792 "/>
<polyline clip-path="url(#clip812)" style="stroke:#000000; stroke-linecap:round; stroke-linejoin:round; stroke-width:8; stroke-opacity:0.1; fill:none" points="1062.14,1879.98 1062.14,127.792 "/>
<polyline clip-path="url(#clip812)" style="stroke:#000000; stroke-linecap:round; stroke-linejoin:round; stroke-width:8; stroke-opacity:0.1; fill:none" points="1228.71,1879.98 1228.71,127.792 "/>
<polyline clip-path="url(#clip810)" style="stroke:#000000; stroke-linecap:round; stroke-linejoin:round; stroke-width:4; stroke-opacity:1; fill:none" points="197.936,1879.98 1307.27,1879.98 "/>
<polyline clip-path="url(#clip810)" style="stroke:#000000; stroke-linecap:round; stroke-linejoin:round; stroke-width:4; stroke-opacity:1; fill:none" points="229.332,1879.98 229.332,1861.08 "/>
<polyline clip-path="url(#clip810)" style="stroke:#000000; stroke-linecap:round; stroke-linejoin:round; stroke-width:4; stroke-opacity:1; fill:none" points="395.895,1879.98 395.895,1861.08 "/>
<polyline clip-path="url(#clip810)" style="stroke:#000000; stroke-linecap:round; stroke-linejoin:round; stroke-width:4; stroke-opacity:1; fill:none" points="562.457,1879.98 562.457,1861.08 "/>
<polyline clip-path="url(#clip810)" style="stroke:#000000; stroke-linecap:round; stroke-linejoin:round; stroke-width:4; stroke-opacity:1; fill:none" points="729.019,1879.98 729.019,1861.08 "/>
<polyline clip-path="url(#clip810)" style="stroke:#000000; stroke-linecap:round; stroke-linejoin:round; stroke-width:4; stroke-opacity:1; fill:none" points="895.581,1879.98 895.581,1861.08 "/>
<polyline clip-path="url(#clip810)" style="stroke:#000000; stroke-linecap:round; stroke-linejoin:round; stroke-width:4; stroke-opacity:1; fill:none" points="1062.14,1879.98 1062.14,1861.08 "/>
<polyline clip-path="url(#clip810)" style="stroke:#000000; stroke-linecap:round; stroke-linejoin:round; stroke-width:4; stroke-opacity:1; fill:none" points="1228.71,1879.98 1228.71,1861.08 "/>
<path clip-path="url(#clip810)" d="M229.332 1914.1 Q225.721 1914.1 223.892 1917.66 Q222.087 1921.2 222.087 1928.33 Q222.087 1935.44 223.892 1939.01 Q225.721 1942.55 229.332 1942.55 Q232.966 1942.55 234.772 1939.01 Q236.601 1935.44 236.601 1928.33 Q236.601 1921.2 234.772 1917.66 Q232.966 1914.1 229.332 1914.1 M229.332 1910.39 Q235.142 1910.39 238.198 1915 Q241.277 1919.58 241.277 1928.33 Q241.277 1937.06 238.198 1941.67 Q235.142 1946.25 229.332 1946.25 Q223.522 1946.25 220.443 1941.67 Q217.388 1937.06 217.388 1928.33 Q217.388 1919.58 220.443 1915 Q223.522 1910.39 229.332 1910.39 Z" fill="#000000" fill-rule="nonzero" fill-opacity="1" /><path clip-path="url(#clip810)" d="M386.277 1941.64 L393.915 1941.64 L393.915 1915.28 L385.605 1916.95 L385.605 1912.69 L393.869 1911.02 L398.545 1911.02 L398.545 1941.64 L406.184 1941.64 L406.184 1945.58 L386.277 1945.58 L386.277 1941.64 Z" fill="#000000" fill-rule="nonzero" fill-opacity="1" /><path clip-path="url(#clip810)" d="M557.11 1941.64 L573.429 1941.64 L573.429 1945.58 L551.485 1945.58 L551.485 1941.64 Q554.147 1938.89 558.73 1934.26 Q563.336 1929.61 564.517 1928.26 Q566.762 1925.74 567.642 1924.01 Q568.545 1922.25 568.545 1920.56 Q568.545 1917.8 566.6 1916.07 Q564.679 1914.33 561.577 1914.33 Q559.378 1914.33 556.924 1915.09 Q554.494 1915.86 551.716 1917.41 L551.716 1912.69 Q554.54 1911.55 556.994 1910.97 Q559.448 1910.39 561.485 1910.39 Q566.855 1910.39 570.049 1913.08 Q573.244 1915.76 573.244 1920.26 Q573.244 1922.38 572.434 1924.31 Q571.647 1926.2 569.54 1928.8 Q568.961 1929.47 565.86 1932.69 Q562.758 1935.88 557.11 1941.64 Z" fill="#000000" fill-rule="nonzero" fill-opacity="1" /><path clip-path="url(#clip810)" d="M733.267 1926.95 Q736.623 1927.66 738.498 1929.93 Q740.396 1932.2 740.396 1935.53 Q740.396 1940.65 736.878 1943.45 Q733.359 1946.25 726.878 1946.25 Q724.702 1946.25 722.387 1945.81 Q720.095 1945.39 717.642 1944.54 L717.642 1940.02 Q719.586 1941.16 721.901 1941.74 Q724.216 1942.32 726.739 1942.32 Q731.137 1942.32 733.429 1940.58 Q735.744 1938.84 735.744 1935.53 Q735.744 1932.48 733.591 1930.76 Q731.461 1929.03 727.642 1929.03 L723.614 1929.03 L723.614 1925.19 L727.827 1925.19 Q731.276 1925.19 733.105 1923.82 Q734.933 1922.43 734.933 1919.84 Q734.933 1917.18 733.035 1915.76 Q731.16 1914.33 727.642 1914.33 Q725.72 1914.33 723.521 1914.75 Q721.322 1915.16 718.683 1916.04 L718.683 1911.88 Q721.345 1911.14 723.66 1910.76 Q725.998 1910.39 728.058 1910.39 Q733.382 1910.39 736.484 1912.82 Q739.586 1915.23 739.586 1919.35 Q739.586 1922.22 737.943 1924.21 Q736.299 1926.18 733.267 1926.95 Z" fill="#000000" fill-rule="nonzero" fill-opacity="1" /><path clip-path="url(#clip810)" d="M898.591 1915.09 L886.785 1933.54 L898.591 1933.54 L898.591 1915.09 M897.364 1911.02 L903.243 1911.02 L903.243 1933.54 L908.174 1933.54 L908.174 1937.43 L903.243 1937.43 L903.243 1945.58 L898.591 1945.58 L898.591 1937.43 L882.989 1937.43 L882.989 1932.92 L897.364 1911.02 Z" fill="#000000" fill-rule="nonzero" fill-opacity="1" /><path clip-path="url(#clip810)" d="M1052.42 1911.02 L1070.78 1911.02 L1070.78 1914.95 L1056.7 1914.95 L1056.7 1923.43 Q1057.72 1923.08 1058.74 1922.92 Q1059.76 1922.73 1060.78 1922.73 Q1066.56 1922.73 1069.94 1925.9 Q1073.32 1929.07 1073.32 1934.49 Q1073.32 1940.07 1069.85 1943.17 Q1066.38 1946.25 1060.06 1946.25 Q1057.88 1946.25 1055.62 1945.88 Q1053.37 1945.51 1050.96 1944.77 L1050.96 1940.07 Q1053.05 1941.2 1055.27 1941.76 Q1057.49 1942.32 1059.97 1942.32 Q1063.97 1942.32 1066.31 1940.21 Q1068.65 1938.1 1068.65 1934.49 Q1068.65 1930.88 1066.31 1928.77 Q1063.97 1926.67 1059.97 1926.67 Q1058.09 1926.67 1056.22 1927.08 Q1054.37 1927.5 1052.42 1928.38 L1052.42 1911.02 Z" fill="#000000" fill-rule="nonzero" fill-opacity="1" /><path clip-path="url(#clip810)" d="M1229.11 1926.44 Q1225.96 1926.44 1224.11 1928.59 Q1222.28 1930.74 1222.28 1934.49 Q1222.28 1938.22 1224.11 1940.39 Q1225.96 1942.55 1229.11 1942.55 Q1232.26 1942.55 1234.09 1940.39 Q1235.94 1938.22 1235.94 1934.49 Q1235.94 1930.74 1234.09 1928.59 Q1232.26 1926.44 1229.11 1926.44 M1238.39 1911.78 L1238.39 1916.04 Q1236.63 1915.21 1234.83 1914.77 Q1233.05 1914.33 1231.29 1914.33 Q1226.66 1914.33 1224.2 1917.45 Q1221.77 1920.58 1221.43 1926.9 Q1222.79 1924.88 1224.85 1923.82 Q1226.91 1922.73 1229.39 1922.73 Q1234.6 1922.73 1237.61 1925.9 Q1240.64 1929.05 1240.64 1934.49 Q1240.64 1939.82 1237.49 1943.03 Q1234.34 1946.25 1229.11 1946.25 Q1223.12 1946.25 1219.94 1941.67 Q1216.77 1937.06 1216.77 1928.33 Q1216.77 1920.14 1220.66 1915.28 Q1224.55 1910.39 1231.1 1910.39 Q1232.86 1910.39 1234.64 1910.74 Q1236.45 1911.09 1238.39 1911.78 Z" fill="#000000" fill-rule="nonzero" fill-opacity="1" /><polyline clip-path="url(#clip812)" style="stroke:#000000; stroke-linecap:round; stroke-linejoin:round; stroke-width:8; stroke-opacity:0.1; fill:none" points="197.936,1830.33 1307.27,1830.33 "/>
<polyline clip-path="url(#clip812)" style="stroke:#000000; stroke-linecap:round; stroke-linejoin:round; stroke-width:8; stroke-opacity:0.1; fill:none" points="197.936,1417.1 1307.27,1417.1 "/>
<polyline clip-path="url(#clip812)" style="stroke:#000000; stroke-linecap:round; stroke-linejoin:round; stroke-width:8; stroke-opacity:0.1; fill:none" points="197.936,1003.88 1307.27,1003.88 "/>
<polyline clip-path="url(#clip812)" style="stroke:#000000; stroke-linecap:round; stroke-linejoin:round; stroke-width:8; stroke-opacity:0.1; fill:none" points="197.936,590.661 1307.27,590.661 "/>
<polyline clip-path="url(#clip812)" style="stroke:#000000; stroke-linecap:round; stroke-linejoin:round; stroke-width:8; stroke-opacity:0.1; fill:none" points="197.936,177.44 1307.27,177.44 "/>
<polyline clip-path="url(#clip810)" style="stroke:#000000; stroke-linecap:round; stroke-linejoin:round; stroke-width:4; stroke-opacity:1; fill:none" points="197.936,1879.98 197.936,127.792 "/>
<polyline clip-path="url(#clip810)" style="stroke:#000000; stroke-linecap:round; stroke-linejoin:round; stroke-width:4; stroke-opacity:1; fill:none" points="197.936,1830.33 216.834,1830.33 "/>
<polyline clip-path="url(#clip810)" style="stroke:#000000; stroke-linecap:round; stroke-linejoin:round; stroke-width:4; stroke-opacity:1; fill:none" points="197.936,1417.1 216.834,1417.1 "/>
<polyline clip-path="url(#clip810)" style="stroke:#000000; stroke-linecap:round; stroke-linejoin:round; stroke-width:4; stroke-opacity:1; fill:none" points="197.936,1003.88 216.834,1003.88 "/>
<polyline clip-path="url(#clip810)" style="stroke:#000000; stroke-linecap:round; stroke-linejoin:round; stroke-width:4; stroke-opacity:1; fill:none" points="197.936,590.661 216.834,590.661 "/>
<polyline clip-path="url(#clip810)" style="stroke:#000000; stroke-linecap:round; stroke-linejoin:round; stroke-width:4; stroke-opacity:1; fill:none" points="197.936,177.44 216.834,177.44 "/>
<path clip-path="url(#clip810)" d="M48.9921 1830.78 L78.6679 1830.78 L78.6679 1834.71 L48.9921 1834.71 L48.9921 1830.78 Z" fill="#000000" fill-rule="nonzero" fill-opacity="1" /><path clip-path="url(#clip810)" d="M89.5706 1843.67 L97.2095 1843.67 L97.2095 1817.31 L88.8993 1818.97 L88.8993 1814.71 L97.1632 1813.05 L101.839 1813.05 L101.839 1843.67 L109.478 1843.67 L109.478 1847.61 L89.5706 1847.61 L89.5706 1843.67 Z" fill="#000000" fill-rule="nonzero" fill-opacity="1" /><path clip-path="url(#clip810)" d="M118.922 1841.73 L123.807 1841.73 L123.807 1847.61 L118.922 1847.61 L118.922 1841.73 Z" fill="#000000" fill-rule="nonzero" fill-opacity="1" /><path clip-path="url(#clip810)" d="M143.992 1816.12 Q140.381 1816.12 138.552 1819.69 Q136.746 1823.23 136.746 1830.36 Q136.746 1837.47 138.552 1841.03 Q140.381 1844.57 143.992 1844.57 Q147.626 1844.57 149.431 1841.03 Q151.26 1837.47 151.26 1830.36 Q151.26 1823.23 149.431 1819.69 Q147.626 1816.12 143.992 1816.12 M143.992 1812.42 Q149.802 1812.42 152.857 1817.03 Q155.936 1821.61 155.936 1830.36 Q155.936 1839.09 152.857 1843.69 Q149.802 1848.28 143.992 1848.28 Q138.181 1848.28 135.103 1843.69 Q132.047 1839.09 132.047 1830.36 Q132.047 1821.61 135.103 1817.03 Q138.181 1812.42 143.992 1812.42 Z" fill="#000000" fill-rule="nonzero" fill-opacity="1" /><path clip-path="url(#clip810)" d="M49.9875 1417.56 L79.6633 1417.56 L79.6633 1421.49 L49.9875 1421.49 L49.9875 1417.56 Z" fill="#000000" fill-rule="nonzero" fill-opacity="1" /><path clip-path="url(#clip810)" d="M99.7557 1402.9 Q96.1447 1402.9 94.316 1406.47 Q92.5104 1410.01 92.5104 1417.14 Q92.5104 1424.25 94.316 1427.81 Q96.1447 1431.35 99.7557 1431.35 Q103.39 1431.35 105.196 1427.81 Q107.024 1424.25 107.024 1417.14 Q107.024 1410.01 105.196 1406.47 Q103.39 1402.9 99.7557 1402.9 M99.7557 1399.2 Q105.566 1399.2 108.621 1403.81 Q111.7 1408.39 111.7 1417.14 Q111.7 1425.87 108.621 1430.47 Q105.566 1435.06 99.7557 1435.06 Q93.9456 1435.06 90.8669 1430.47 Q87.8114 1425.87 87.8114 1417.14 Q87.8114 1408.39 90.8669 1403.81 Q93.9456 1399.2 99.7557 1399.2 Z" fill="#000000" fill-rule="nonzero" fill-opacity="1" /><path clip-path="url(#clip810)" d="M119.918 1428.5 L124.802 1428.5 L124.802 1434.38 L119.918 1434.38 L119.918 1428.5 Z" fill="#000000" fill-rule="nonzero" fill-opacity="1" /><path clip-path="url(#clip810)" d="M135.033 1399.82 L153.39 1399.82 L153.39 1403.76 L139.316 1403.76 L139.316 1412.23 Q140.334 1411.88 141.353 1411.72 Q142.371 1411.54 143.39 1411.54 Q149.177 1411.54 152.556 1414.71 Q155.936 1417.88 155.936 1423.3 Q155.936 1428.88 152.464 1431.98 Q148.992 1435.06 142.672 1435.06 Q140.496 1435.06 138.228 1434.69 Q135.982 1434.31 133.575 1433.57 L133.575 1428.88 Q135.658 1430.01 137.881 1430.56 Q140.103 1431.12 142.58 1431.12 Q146.584 1431.12 148.922 1429.01 Q151.26 1426.91 151.26 1423.3 Q151.26 1419.69 148.922 1417.58 Q146.584 1415.47 142.58 1415.47 Q140.705 1415.47 138.83 1415.89 Q136.978 1416.31 135.033 1417.19 L135.033 1399.82 Z" fill="#000000" fill-rule="nonzero" fill-opacity="1" /><path clip-path="url(#clip810)" d="M98.7604 989.681 Q95.1493 989.681 93.3206 993.246 Q91.515 996.788 91.515 1003.92 Q91.515 1011.02 93.3206 1014.59 Q95.1493 1018.13 98.7604 1018.13 Q102.395 1018.13 104.2 1014.59 Q106.029 1011.02 106.029 1003.92 Q106.029 996.788 104.2 993.246 Q102.395 989.681 98.7604 989.681 M98.7604 985.978 Q104.571 985.978 107.626 990.584 Q110.705 995.168 110.705 1003.92 Q110.705 1012.64 107.626 1017.25 Q104.571 1021.83 98.7604 1021.83 Q92.9502 1021.83 89.8715 1017.25 Q86.816 1012.64 86.816 1003.92 Q86.816 995.168 89.8715 990.584 Q92.9502 985.978 98.7604 985.978 Z" fill="#000000" fill-rule="nonzero" fill-opacity="1" /><path clip-path="url(#clip810)" d="M118.922 1015.28 L123.807 1015.28 L123.807 1021.16 L118.922 1021.16 L118.922 1015.28 Z" fill="#000000" fill-rule="nonzero" fill-opacity="1" /><path clip-path="url(#clip810)" d="M143.992 989.681 Q140.381 989.681 138.552 993.246 Q136.746 996.788 136.746 1003.92 Q136.746 1011.02 138.552 1014.59 Q140.381 1018.13 143.992 1018.13 Q147.626 1018.13 149.431 1014.59 Q151.26 1011.02 151.26 1003.92 Q151.26 996.788 149.431 993.246 Q147.626 989.681 143.992 989.681 M143.992 985.978 Q149.802 985.978 152.857 990.584 Q155.936 995.168 155.936 1003.92 Q155.936 1012.64 152.857 1017.25 Q149.802 1021.83 143.992 1021.83 Q138.181 1021.83 135.103 1017.25 Q132.047 1012.64 132.047 1003.92 Q132.047 995.168 135.103 990.584 Q138.181 985.978 143.992 985.978 Z" fill="#000000" fill-rule="nonzero" fill-opacity="1" /><path clip-path="url(#clip810)" d="M99.7557 576.46 Q96.1447 576.46 94.316 580.025 Q92.5104 583.566 92.5104 590.696 Q92.5104 597.802 94.316 601.367 Q96.1447 604.909 99.7557 604.909 Q103.39 604.909 105.196 601.367 Q107.024 597.802 107.024 590.696 Q107.024 583.566 105.196 580.025 Q103.39 576.46 99.7557 576.46 M99.7557 572.756 Q105.566 572.756 108.621 577.363 Q111.7 581.946 111.7 590.696 Q111.7 599.423 108.621 604.029 Q105.566 608.612 99.7557 608.612 Q93.9456 608.612 90.8669 604.029 Q87.8114 599.423 87.8114 590.696 Q87.8114 581.946 90.8669 577.363 Q93.9456 572.756 99.7557 572.756 Z" fill="#000000" fill-rule="nonzero" fill-opacity="1" /><path clip-path="url(#clip810)" d="M119.918 602.062 L124.802 602.062 L124.802 607.941 L119.918 607.941 L119.918 602.062 Z" fill="#000000" fill-rule="nonzero" fill-opacity="1" /><path clip-path="url(#clip810)" d="M135.033 573.381 L153.39 573.381 L153.39 577.316 L139.316 577.316 L139.316 585.789 Q140.334 585.441 141.353 585.279 Q142.371 585.094 143.39 585.094 Q149.177 585.094 152.556 588.265 Q155.936 591.437 155.936 596.853 Q155.936 602.432 152.464 605.534 Q148.992 608.612 142.672 608.612 Q140.496 608.612 138.228 608.242 Q135.982 607.872 133.575 607.131 L133.575 602.432 Q135.658 603.566 137.881 604.122 Q140.103 604.677 142.58 604.677 Q146.584 604.677 148.922 602.571 Q151.26 600.464 151.26 596.853 Q151.26 593.242 148.922 591.136 Q146.584 589.029 142.58 589.029 Q140.705 589.029 138.83 589.446 Q136.978 589.863 135.033 590.742 L135.033 573.381 Z" fill="#000000" fill-rule="nonzero" fill-opacity="1" /><path clip-path="url(#clip810)" d="M89.5706 190.784 L97.2095 190.784 L97.2095 164.419 L88.8993 166.085 L88.8993 161.826 L97.1632 160.16 L101.839 160.16 L101.839 190.784 L109.478 190.784 L109.478 194.72 L89.5706 194.72 L89.5706 190.784 Z" fill="#000000" fill-rule="nonzero" fill-opacity="1" /><path clip-path="url(#clip810)" d="M118.922 188.84 L123.807 188.84 L123.807 194.72 L118.922 194.72 L118.922 188.84 Z" fill="#000000" fill-rule="nonzero" fill-opacity="1" /><path clip-path="url(#clip810)" d="M143.992 163.238 Q140.381 163.238 138.552 166.803 Q136.746 170.345 136.746 177.474 Q136.746 184.581 138.552 188.146 Q140.381 191.687 143.992 191.687 Q147.626 191.687 149.431 188.146 Q151.26 184.581 151.26 177.474 Q151.26 170.345 149.431 166.803 Q147.626 163.238 143.992 163.238 M143.992 159.535 Q149.802 159.535 152.857 164.141 Q155.936 168.724 155.936 177.474 Q155.936 186.201 152.857 190.808 Q149.802 195.391 143.992 195.391 Q138.181 195.391 135.103 190.808 Q132.047 186.201 132.047 177.474 Q132.047 168.724 135.103 164.141 Q138.181 159.535 143.992 159.535 Z" fill="#000000" fill-rule="nonzero" fill-opacity="1" /><path clip-path="url(#clip810)" d="M273.3 14.0809 L273.3 22.0612 Q268.641 19.8332 264.51 18.7395 Q260.378 17.6457 256.529 17.6457 Q249.845 17.6457 246.199 20.2383 Q242.594 22.8309 242.594 27.611 Q242.594 31.6214 244.984 33.6873 Q247.415 35.7128 254.139 36.9686 L259.081 37.9813 Q268.236 39.7232 272.571 44.1387 Q276.946 48.5136 276.946 55.8863 Q276.946 64.6767 271.032 69.2137 Q265.158 73.7508 253.775 73.7508 Q249.481 73.7508 244.62 72.7785 Q239.799 71.8063 234.614 69.9024 L234.614 61.4765 Q239.597 64.2716 244.377 65.6895 Q249.157 67.1073 253.775 67.1073 Q260.783 67.1073 264.591 64.3527 Q268.398 61.598 268.398 56.4939 Q268.398 52.0379 265.644 49.5264 Q262.93 47.0148 256.691 45.759 L251.709 44.7868 Q242.554 42.9639 238.462 39.075 Q234.371 35.1862 234.371 28.2591 Q234.371 20.2383 240.002 15.6203 Q245.673 11.0023 255.598 11.0023 Q259.851 11.0023 264.267 11.7719 Q268.682 12.5416 273.3 14.0809 Z" fill="#000000" fill-rule="nonzero" fill-opacity="1" /><path clip-path="url(#clip810)" d="M310.001 49.7694 Q300.968 49.7694 297.484 51.8354 Q294 53.9013 294 58.8839 Q294 62.8538 296.593 65.2034 Q299.226 67.5124 303.722 67.5124 Q309.92 67.5124 313.647 63.1374 Q317.414 58.7219 317.414 51.4303 L317.414 49.7694 L310.001 49.7694 M324.868 46.6907 L324.868 72.576 L317.414 72.576 L317.414 65.6895 Q314.862 69.8214 311.054 71.8063 Q307.247 73.7508 301.737 73.7508 Q294.77 73.7508 290.638 69.8619 Q286.546 65.9325 286.546 59.3701 Q286.546 51.7138 291.651 47.825 Q296.795 43.9361 306.963 43.9361 L317.414 43.9361 L317.414 43.2069 Q317.414 38.0623 314.012 35.2672 Q310.649 32.4315 304.533 32.4315 Q300.644 32.4315 296.957 33.3632 Q293.271 34.295 289.868 36.1584 L289.868 29.2718 Q293.96 27.692 297.808 26.9223 Q301.656 26.1121 305.302 26.1121 Q315.146 26.1121 320.007 31.2163 Q324.868 36.3204 324.868 46.6907 Z" fill="#000000" fill-rule="nonzero" fill-opacity="1" /><path clip-path="url(#clip810)" d="M375.545 35.9153 Q378.34 30.8922 382.229 28.5022 Q386.118 26.1121 391.384 26.1121 Q398.473 26.1121 402.321 31.0947 Q406.17 36.0368 406.17 45.1919 L406.17 72.576 L398.676 72.576 L398.676 45.4349 Q398.676 38.913 396.367 35.7533 Q394.057 32.5936 389.318 32.5936 Q383.525 32.5936 380.163 36.4419 Q376.801 40.2903 376.801 46.9338 L376.801 72.576 L369.306 72.576 L369.306 45.4349 Q369.306 38.8725 366.997 35.7533 Q364.688 32.5936 359.868 32.5936 Q354.156 32.5936 350.794 36.4824 Q347.432 40.3308 347.432 46.9338 L347.432 72.576 L339.937 72.576 L339.937 27.2059 L347.432 27.2059 L347.432 34.2544 Q349.984 30.082 353.548 28.0971 Q357.113 26.1121 362.015 26.1121 Q366.957 26.1121 370.4 28.6237 Q373.884 31.1352 375.545 35.9153 Z" fill="#000000" fill-rule="nonzero" fill-opacity="1" /><path clip-path="url(#clip810)" d="M428.247 65.7705 L428.247 89.8329 L420.753 89.8329 L420.753 27.2059 L428.247 27.2059 L428.247 34.0924 Q430.597 30.0415 434.161 28.0971 Q437.767 26.1121 442.749 26.1121 Q451.013 26.1121 456.158 32.6746 Q461.343 39.2371 461.343 49.9314 Q461.343 60.6258 456.158 67.1883 Q451.013 73.7508 442.749 73.7508 Q437.767 73.7508 434.161 71.8063 Q430.597 69.8214 428.247 65.7705 M453.606 49.9314 Q453.606 41.7081 450.203 37.0496 Q446.841 32.3505 440.926 32.3505 Q435.012 32.3505 431.609 37.0496 Q428.247 41.7081 428.247 49.9314 Q428.247 58.1548 431.609 62.8538 Q435.012 67.5124 440.926 67.5124 Q446.841 67.5124 450.203 62.8538 Q453.606 58.1548 453.606 49.9314 Z" fill="#000000" fill-rule="nonzero" fill-opacity="1" /><path clip-path="url(#clip810)" d="M473.698 9.54393 L481.152 9.54393 L481.152 72.576 L473.698 72.576 L473.698 9.54393 Z" fill="#000000" fill-rule="nonzero" fill-opacity="1" /><path clip-path="url(#clip810)" d="M496.748 27.2059 L504.202 27.2059 L504.202 72.576 L496.748 72.576 L496.748 27.2059 M496.748 9.54393 L504.202 9.54393 L504.202 18.9825 L496.748 18.9825 L496.748 9.54393 Z" fill="#000000" fill-rule="nonzero" fill-opacity="1" /><path clip-path="url(#clip810)" d="M557.511 45.1919 L557.511 72.576 L550.058 72.576 L550.058 45.4349 Q550.058 38.994 547.546 35.7938 Q545.035 32.5936 540.012 32.5936 Q533.976 32.5936 530.492 36.4419 Q527.008 40.2903 527.008 46.9338 L527.008 72.576 L519.514 72.576 L519.514 27.2059 L527.008 27.2059 L527.008 34.2544 Q529.682 30.163 533.287 28.1376 Q536.933 26.1121 541.672 26.1121 Q549.491 26.1121 553.501 30.9732 Q557.511 35.7938 557.511 45.1919 Z" fill="#000000" fill-rule="nonzero" fill-opacity="1" /><path clip-path="url(#clip810)" d="M602.233 49.3643 Q602.233 41.2625 598.871 36.8065 Q595.549 32.3505 589.514 32.3505 Q583.518 32.3505 580.156 36.8065 Q576.834 41.2625 576.834 49.3643 Q576.834 57.4256 580.156 61.8816 Q583.518 66.3376 589.514 66.3376 Q595.549 66.3376 598.871 61.8816 Q602.233 57.4256 602.233 49.3643 M609.687 66.9452 Q609.687 78.5308 604.542 84.1616 Q599.398 89.8329 588.784 89.8329 Q584.855 89.8329 581.371 89.2252 Q577.888 88.6581 574.606 87.4428 L574.606 80.1917 Q577.888 81.9741 581.088 82.8248 Q584.288 83.6755 587.61 83.6755 Q594.942 83.6755 598.588 79.8271 Q602.233 76.0193 602.233 68.282 L602.233 64.5957 Q599.924 68.6061 596.319 70.5911 Q592.714 72.576 587.691 72.576 Q579.346 72.576 574.242 66.2161 Q569.138 59.8562 569.138 49.3643 Q569.138 38.832 574.242 32.472 Q579.346 26.1121 587.691 26.1121 Q592.714 26.1121 596.319 28.0971 Q599.924 30.082 602.233 34.0924 L602.233 27.2059 L609.687 27.2059 L609.687 66.9452 Z" fill="#000000" fill-rule="nonzero" fill-opacity="1" /><path clip-path="url(#clip810)" d="M689.125 45.1919 L689.125 72.576 L681.672 72.576 L681.672 45.4349 Q681.672 38.994 679.16 35.7938 Q676.649 32.5936 671.625 32.5936 Q665.59 32.5936 662.106 36.4419 Q658.622 40.2903 658.622 46.9338 L658.622 72.576 L651.128 72.576 L651.128 27.2059 L658.622 27.2059 L658.622 34.2544 Q661.296 30.163 664.901 28.1376 Q668.547 26.1121 673.286 26.1121 Q681.105 26.1121 685.115 30.9732 Q689.125 35.7938 689.125 45.1919 Z" fill="#000000" fill-rule="nonzero" fill-opacity="1" /><path clip-path="url(#clip810)" d="M742.8 48.0275 L742.8 51.6733 L708.529 51.6733 Q709.015 59.3701 713.147 63.421 Q717.32 67.4314 724.733 67.4314 Q729.027 67.4314 733.037 66.3781 Q737.088 65.3249 741.058 63.2184 L741.058 70.267 Q737.048 71.9684 732.835 72.8596 Q728.622 73.7508 724.287 73.7508 Q713.431 73.7508 707.071 67.4314 Q700.751 61.1119 700.751 50.3365 Q700.751 39.1965 706.747 32.6746 Q712.783 26.1121 722.991 26.1121 Q732.146 26.1121 737.453 32.0264 Q742.8 37.9003 742.8 48.0275 M735.346 45.84 Q735.265 39.7232 731.903 36.0774 Q728.581 32.4315 723.072 32.4315 Q716.834 32.4315 713.066 35.9558 Q709.339 39.4801 708.772 45.8805 L735.346 45.84 Z" fill="#000000" fill-rule="nonzero" fill-opacity="1" /><path clip-path="url(#clip810)" d="M754.264 54.671 L754.264 27.2059 L761.718 27.2059 L761.718 54.3874 Q761.718 60.8284 764.229 64.0691 Q766.741 67.2693 771.764 67.2693 Q777.8 67.2693 781.283 63.421 Q784.808 59.5726 784.808 52.9291 L784.808 27.2059 L792.261 27.2059 L792.261 72.576 L784.808 72.576 L784.808 65.6084 Q782.094 69.7404 778.488 71.7658 Q774.924 73.7508 770.184 73.7508 Q762.366 73.7508 758.315 68.8897 Q754.264 64.0286 754.264 54.671 M773.02 26.1121 L773.02 26.1121 Z" fill="#000000" fill-rule="nonzero" fill-opacity="1" /><path clip-path="url(#clip810)" d="M833.905 34.1734 Q832.649 33.4443 831.15 33.1202 Q829.692 32.7556 827.909 32.7556 Q821.59 32.7556 818.187 36.8875 Q814.825 40.9789 814.825 48.6757 L814.825 72.576 L807.331 72.576 L807.331 27.2059 L814.825 27.2059 L814.825 34.2544 Q817.174 30.1225 820.942 28.1376 Q824.709 26.1121 830.097 26.1121 Q830.866 26.1121 831.798 26.2337 Q832.73 26.3147 833.864 26.5172 L833.905 34.1734 Z" fill="#000000" fill-rule="nonzero" fill-opacity="1" /><path clip-path="url(#clip810)" d="M862.342 49.7694 Q853.308 49.7694 849.825 51.8354 Q846.341 53.9013 846.341 58.8839 Q846.341 62.8538 848.934 65.2034 Q851.567 67.5124 856.063 67.5124 Q862.261 67.5124 865.988 63.1374 Q869.755 58.7219 869.755 51.4303 L869.755 49.7694 L862.342 49.7694 M877.209 46.6907 L877.209 72.576 L869.755 72.576 L869.755 65.6895 Q867.203 69.8214 863.395 71.8063 Q859.587 73.7508 854.078 73.7508 Q847.111 73.7508 842.979 69.8619 Q838.887 65.9325 838.887 59.3701 Q838.887 51.7138 843.991 47.825 Q849.136 43.9361 859.304 43.9361 L869.755 43.9361 L869.755 43.2069 Q869.755 38.0623 866.352 35.2672 Q862.99 32.4315 856.873 32.4315 Q852.984 32.4315 849.298 33.3632 Q845.612 34.295 842.209 36.1584 L842.209 29.2718 Q846.3 27.692 850.149 26.9223 Q853.997 26.1121 857.643 26.1121 Q867.487 26.1121 872.348 31.2163 Q877.209 36.3204 877.209 46.6907 Z" fill="#000000" fill-rule="nonzero" fill-opacity="1" /><path clip-path="url(#clip810)" d="M892.562 9.54393 L900.015 9.54393 L900.015 72.576 L892.562 72.576 L892.562 9.54393 Z" fill="#000000" fill-rule="nonzero" fill-opacity="1" /><path clip-path="url(#clip810)" d="M979.697 45.1919 L979.697 72.576 L972.243 72.576 L972.243 45.4349 Q972.243 38.994 969.731 35.7938 Q967.22 32.5936 962.197 32.5936 Q956.161 32.5936 952.677 36.4419 Q949.193 40.2903 949.193 46.9338 L949.193 72.576 L941.699 72.576 L941.699 27.2059 L949.193 27.2059 L949.193 34.2544 Q951.867 30.163 955.472 28.1376 Q959.118 26.1121 963.858 26.1121 Q971.676 26.1121 975.686 30.9732 Q979.697 35.7938 979.697 45.1919 Z" fill="#000000" fill-rule="nonzero" fill-opacity="1" /><path clip-path="url(#clip810)" d="M1033.37 48.0275 L1033.37 51.6733 L999.101 51.6733 Q999.587 59.3701 1003.72 63.421 Q1007.89 67.4314 1015.3 67.4314 Q1019.6 67.4314 1023.61 66.3781 Q1027.66 65.3249 1031.63 63.2184 L1031.63 70.267 Q1027.62 71.9684 1023.41 72.8596 Q1019.19 73.7508 1014.86 73.7508 Q1004 73.7508 997.642 67.4314 Q991.323 61.1119 991.323 50.3365 Q991.323 39.1965 997.318 32.6746 Q1003.35 26.1121 1013.56 26.1121 Q1022.72 26.1121 1028.02 32.0264 Q1033.37 37.9003 1033.37 48.0275 M1025.92 45.84 Q1025.84 39.7232 1022.47 36.0774 Q1019.15 32.4315 1013.64 32.4315 Q1007.4 32.4315 1003.64 35.9558 Q999.911 39.4801 999.344 45.8805 L1025.92 45.84 Z" fill="#000000" fill-rule="nonzero" fill-opacity="1" /><path clip-path="url(#clip810)" d="M1052.98 14.324 L1052.98 27.2059 L1068.33 27.2059 L1068.33 32.9987 L1052.98 32.9987 L1052.98 57.6282 Q1052.98 63.1779 1054.48 64.7578 Q1056.02 66.3376 1060.67 66.3376 L1068.33 66.3376 L1068.33 72.576 L1060.67 72.576 Q1052.05 72.576 1048.76 69.3758 Q1045.48 66.1351 1045.48 57.6282 L1045.48 32.9987 L1040.01 32.9987 L1040.01 27.2059 L1045.48 27.2059 L1045.48 14.324 L1052.98 14.324 Z" fill="#000000" fill-rule="nonzero" fill-opacity="1" /><path clip-path="url(#clip810)" d="M1073.8 27.2059 L1081.25 27.2059 L1090.57 62.6108 L1099.85 27.2059 L1108.64 27.2059 L1117.95 62.6108 L1127.23 27.2059 L1134.68 27.2059 L1122.82 72.576 L1114.02 72.576 L1104.26 35.3887 L1094.46 72.576 L1085.67 72.576 L1073.8 27.2059 Z" fill="#000000" fill-rule="nonzero" fill-opacity="1" /><path clip-path="url(#clip810)" d="M1163.57 32.4315 Q1157.57 32.4315 1154.09 37.1306 Q1150.6 41.7891 1150.6 49.9314 Q1150.6 58.0738 1154.05 62.7728 Q1157.53 67.4314 1163.57 67.4314 Q1169.52 67.4314 1173.01 62.7323 Q1176.49 58.0333 1176.49 49.9314 Q1176.49 41.8701 1173.01 37.1711 Q1169.52 32.4315 1163.57 32.4315 M1163.57 26.1121 Q1173.29 26.1121 1178.84 32.4315 Q1184.39 38.7509 1184.39 49.9314 Q1184.39 61.0714 1178.84 67.4314 Q1173.29 73.7508 1163.57 73.7508 Q1153.8 73.7508 1148.25 67.4314 Q1142.75 61.0714 1142.75 49.9314 Q1142.75 38.7509 1148.25 32.4315 Q1153.8 26.1121 1163.57 26.1121 Z" fill="#000000" fill-rule="nonzero" fill-opacity="1" /><path clip-path="url(#clip810)" d="M1223.03 34.1734 Q1221.78 33.4443 1220.28 33.1202 Q1218.82 32.7556 1217.04 32.7556 Q1210.72 32.7556 1207.32 36.8875 Q1203.95 40.9789 1203.95 48.6757 L1203.95 72.576 L1196.46 72.576 L1196.46 27.2059 L1203.95 27.2059 L1203.95 34.2544 Q1206.3 30.1225 1210.07 28.1376 Q1213.84 26.1121 1219.23 26.1121 Q1220 26.1121 1220.93 26.2337 Q1221.86 26.3147 1222.99 26.5172 L1223.03 34.1734 Z" fill="#000000" fill-rule="nonzero" fill-opacity="1" /><path clip-path="url(#clip810)" d="M1230.57 9.54393 L1238.06 9.54393 L1238.06 46.7717 L1260.3 27.2059 L1269.82 27.2059 L1245.76 48.4326 L1270.84 72.576 L1261.11 72.576 L1238.06 50.4176 L1238.06 72.576 L1230.57 72.576 L1230.57 9.54393 Z" fill="#000000" fill-rule="nonzero" fill-opacity="1" /><polyline clip-path="url(#clip812)" style="stroke:#009af9; stroke-linecap:round; stroke-linejoin:round; stroke-width:4; stroke-opacity:1; fill:none" points="229.332,1003.88 239.903,951.467 250.474,899.261 261.046,847.477 271.617,796.323 282.188,746.005 292.759,696.725 303.33,648.682 313.901,602.069 324.472,557.074 335.044,513.878 345.615,472.655 356.186,433.572 366.757,396.784 377.328,362.442 387.899,330.682 398.47,301.633 409.041,275.412 419.613,252.124 430.184,231.863 440.755,214.71 451.326,200.736 461.897,189.995 472.468,182.532 483.039,178.376 493.61,177.544 504.182,180.039 514.753,185.852 525.324,194.958 535.895,207.322 546.466,222.893 557.037,241.609 567.608,263.395 578.179,288.162 588.751,315.811 599.322,346.231 609.893,379.299 620.464,414.882 631.035,452.836 641.606,493.009 652.177,535.24 662.748,579.358 673.32,625.185 683.891,672.536 694.462,721.223 705.033,771.047 715.604,821.809 726.175,873.304 736.746,925.324 747.317,977.661 757.889,1030.1 768.46,1082.44 779.031,1134.46 789.602,1185.96 800.173,1236.72 810.744,1286.54 821.315,1335.23 831.886,1382.58 842.458,1428.41 853.029,1472.53 863.6,1514.76 874.171,1554.93 884.742,1592.88 895.313,1628.47 905.884,1661.53 916.455,1691.95 927.027,1719.6 937.598,1744.37 948.169,1766.16 958.74,1784.87 969.311,1800.44 979.882,1812.81 990.453,1821.91 1001.02,1827.73 1011.6,1830.22 1022.17,1829.39 1032.74,1825.23 1043.31,1817.77 1053.88,1807.03 1064.45,1793.06 1075.02,1775.9 1085.59,1755.64 1096.16,1732.35 1106.74,1706.13 1117.31,1677.08 1127.88,1645.32 1138.45,1610.98 1149.02,1574.19 1159.59,1535.11 1170.16,1493.89 1180.73,1450.69 1191.3,1405.7 1201.88,1359.08 1212.45,1311.04 1223.02,1261.76 1233.59,1211.44 1244.16,1160.29 1254.73,1108.5 1265.3,1056.3 1275.87,1003.88 "/>
<circle clip-path="url(#clip812)" cx="229.332" cy="1004.26" r="7.2" fill="#e26f46" fill-rule="evenodd" fill-opacity="1" stroke="#000000" stroke-opacity="1" stroke-width="4"/>
<circle clip-path="url(#clip812)" cx="239.903" cy="951.507" r="7.2" fill="#e26f46" fill-rule="evenodd" fill-opacity="1" stroke="#000000" stroke-opacity="1" stroke-width="4"/>
<circle clip-path="url(#clip812)" cx="250.474" cy="899.114" r="7.2" fill="#e26f46" fill-rule="evenodd" fill-opacity="1" stroke="#000000" stroke-opacity="1" stroke-width="4"/>
<circle clip-path="url(#clip812)" cx="261.046" cy="847.249" r="7.2" fill="#e26f46" fill-rule="evenodd" fill-opacity="1" stroke="#000000" stroke-opacity="1" stroke-width="4"/>
<circle clip-path="url(#clip812)" cx="271.617" cy="796.087" r="7.2" fill="#e26f46" fill-rule="evenodd" fill-opacity="1" stroke="#000000" stroke-opacity="1" stroke-width="4"/>
<circle clip-path="url(#clip812)" cx="282.188" cy="745.807" r="7.2" fill="#e26f46" fill-rule="evenodd" fill-opacity="1" stroke="#000000" stroke-opacity="1" stroke-width="4"/>
<circle clip-path="url(#clip812)" cx="292.759" cy="696.592" r="7.2" fill="#e26f46" fill-rule="evenodd" fill-opacity="1" stroke="#000000" stroke-opacity="1" stroke-width="4"/>
<circle clip-path="url(#clip812)" cx="303.33" cy="648.623" r="7.2" fill="#e26f46" fill-rule="evenodd" fill-opacity="1" stroke="#000000" stroke-opacity="1" stroke-width="4"/>
<circle clip-path="url(#clip812)" cx="313.901" cy="602.084" r="7.2" fill="#e26f46" fill-rule="evenodd" fill-opacity="1" stroke="#000000" stroke-opacity="1" stroke-width="4"/>
<circle clip-path="url(#clip812)" cx="324.472" cy="557.154" r="7.2" fill="#e26f46" fill-rule="evenodd" fill-opacity="1" stroke="#000000" stroke-opacity="1" stroke-width="4"/>
<circle clip-path="url(#clip812)" cx="335.044" cy="514.01" r="7.2" fill="#e26f46" fill-rule="evenodd" fill-opacity="1" stroke="#000000" stroke-opacity="1" stroke-width="4"/>
<circle clip-path="url(#clip812)" cx="345.615" cy="472.823" r="7.2" fill="#e26f46" fill-rule="evenodd" fill-opacity="1" stroke="#000000" stroke-opacity="1" stroke-width="4"/>
<circle clip-path="url(#clip812)" cx="356.186" cy="433.759" r="7.2" fill="#e26f46" fill-rule="evenodd" fill-opacity="1" stroke="#000000" stroke-opacity="1" stroke-width="4"/>
<circle clip-path="url(#clip812)" cx="366.757" cy="396.975" r="7.2" fill="#e26f46" fill-rule="evenodd" fill-opacity="1" stroke="#000000" stroke-opacity="1" stroke-width="4"/>
<circle clip-path="url(#clip812)" cx="377.328" cy="362.622" r="7.2" fill="#e26f46" fill-rule="evenodd" fill-opacity="1" stroke="#000000" stroke-opacity="1" stroke-width="4"/>
<circle clip-path="url(#clip812)" cx="387.899" cy="330.84" r="7.2" fill="#e26f46" fill-rule="evenodd" fill-opacity="1" stroke="#000000" stroke-opacity="1" stroke-width="4"/>
<circle clip-path="url(#clip812)" cx="398.47" cy="301.759" r="7.2" fill="#e26f46" fill-rule="evenodd" fill-opacity="1" stroke="#000000" stroke-opacity="1" stroke-width="4"/>
<circle clip-path="url(#clip812)" cx="409.041" cy="275.499" r="7.2" fill="#e26f46" fill-rule="evenodd" fill-opacity="1" stroke="#000000" stroke-opacity="1" stroke-width="4"/>
<circle clip-path="url(#clip812)" cx="419.613" cy="252.169" r="7.2" fill="#e26f46" fill-rule="evenodd" fill-opacity="1" stroke="#000000" stroke-opacity="1" stroke-width="4"/>
<circle clip-path="url(#clip812)" cx="430.184" cy="231.866" r="7.2" fill="#e26f46" fill-rule="evenodd" fill-opacity="1" stroke="#000000" stroke-opacity="1" stroke-width="4"/>
<circle clip-path="url(#clip812)" cx="440.755" cy="214.673" r="7.2" fill="#e26f46" fill-rule="evenodd" fill-opacity="1" stroke="#000000" stroke-opacity="1" stroke-width="4"/>
<circle clip-path="url(#clip812)" cx="451.326" cy="200.661" r="7.2" fill="#e26f46" fill-rule="evenodd" fill-opacity="1" stroke="#000000" stroke-opacity="1" stroke-width="4"/>
<circle clip-path="url(#clip812)" cx="461.897" cy="189.888" r="7.2" fill="#e26f46" fill-rule="evenodd" fill-opacity="1" stroke="#000000" stroke-opacity="1" stroke-width="4"/>
<circle clip-path="url(#clip812)" cx="472.468" cy="182.399" r="7.2" fill="#e26f46" fill-rule="evenodd" fill-opacity="1" stroke="#000000" stroke-opacity="1" stroke-width="4"/>
<circle clip-path="url(#clip812)" cx="483.039" cy="178.225" r="7.2" fill="#e26f46" fill-rule="evenodd" fill-opacity="1" stroke="#000000" stroke-opacity="1" stroke-width="4"/>
<circle clip-path="url(#clip812)" cx="493.61" cy="177.382" r="7.2" fill="#e26f46" fill-rule="evenodd" fill-opacity="1" stroke="#000000" stroke-opacity="1" stroke-width="4"/>
<circle clip-path="url(#clip812)" cx="504.182" cy="179.876" r="7.2" fill="#e26f46" fill-rule="evenodd" fill-opacity="1" stroke="#000000" stroke-opacity="1" stroke-width="4"/>
<circle clip-path="url(#clip812)" cx="514.753" cy="185.693" r="7.2" fill="#e26f46" fill-rule="evenodd" fill-opacity="1" stroke="#000000" stroke-opacity="1" stroke-width="4"/>
<circle clip-path="url(#clip812)" cx="525.324" cy="194.813" r="7.2" fill="#e26f46" fill-rule="evenodd" fill-opacity="1" stroke="#000000" stroke-opacity="1" stroke-width="4"/>
<circle clip-path="url(#clip812)" cx="535.895" cy="207.196" r="7.2" fill="#e26f46" fill-rule="evenodd" fill-opacity="1" stroke="#000000" stroke-opacity="1" stroke-width="4"/>
<circle clip-path="url(#clip812)" cx="546.466" cy="222.792" r="7.2" fill="#e26f46" fill-rule="evenodd" fill-opacity="1" stroke="#000000" stroke-opacity="1" stroke-width="4"/>
<circle clip-path="url(#clip812)" cx="557.037" cy="241.536" r="7.2" fill="#e26f46" fill-rule="evenodd" fill-opacity="1" stroke="#000000" stroke-opacity="1" stroke-width="4"/>
<circle clip-path="url(#clip812)" cx="567.608" cy="263.351" r="7.2" fill="#e26f46" fill-rule="evenodd" fill-opacity="1" stroke="#000000" stroke-opacity="1" stroke-width="4"/>
<circle clip-path="url(#clip812)" cx="578.179" cy="288.151" r="7.2" fill="#e26f46" fill-rule="evenodd" fill-opacity="1" stroke="#000000" stroke-opacity="1" stroke-width="4"/>
<circle clip-path="url(#clip812)" cx="588.751" cy="315.833" r="7.2" fill="#e26f46" fill-rule="evenodd" fill-opacity="1" stroke="#000000" stroke-opacity="1" stroke-width="4"/>
<circle clip-path="url(#clip812)" cx="599.322" cy="346.284" r="7.2" fill="#e26f46" fill-rule="evenodd" fill-opacity="1" stroke="#000000" stroke-opacity="1" stroke-width="4"/>
<circle clip-path="url(#clip812)" cx="609.893" cy="379.381" r="7.2" fill="#e26f46" fill-rule="evenodd" fill-opacity="1" stroke="#000000" stroke-opacity="1" stroke-width="4"/>
<circle clip-path="url(#clip812)" cx="620.464" cy="414.99" r="7.2" fill="#e26f46" fill-rule="evenodd" fill-opacity="1" stroke="#000000" stroke-opacity="1" stroke-width="4"/>
<circle clip-path="url(#clip812)" cx="631.035" cy="452.965" r="7.2" fill="#e26f46" fill-rule="evenodd" fill-opacity="1" stroke="#000000" stroke-opacity="1" stroke-width="4"/>
<circle clip-path="url(#clip812)" cx="641.606" cy="493.155" r="7.2" fill="#e26f46" fill-rule="evenodd" fill-opacity="1" stroke="#000000" stroke-opacity="1" stroke-width="4"/>
<circle clip-path="url(#clip812)" cx="652.177" cy="535.397" r="7.2" fill="#e26f46" fill-rule="evenodd" fill-opacity="1" stroke="#000000" stroke-opacity="1" stroke-width="4"/>
<circle clip-path="url(#clip812)" cx="662.748" cy="579.52" r="7.2" fill="#e26f46" fill-rule="evenodd" fill-opacity="1" stroke="#000000" stroke-opacity="1" stroke-width="4"/>
<circle clip-path="url(#clip812)" cx="673.32" cy="625.345" r="7.2" fill="#e26f46" fill-rule="evenodd" fill-opacity="1" stroke="#000000" stroke-opacity="1" stroke-width="4"/>
<circle clip-path="url(#clip812)" cx="683.891" cy="672.691" r="7.2" fill="#e26f46" fill-rule="evenodd" fill-opacity="1" stroke="#000000" stroke-opacity="1" stroke-width="4"/>
<circle clip-path="url(#clip812)" cx="694.462" cy="721.364" r="7.2" fill="#e26f46" fill-rule="evenodd" fill-opacity="1" stroke="#000000" stroke-opacity="1" stroke-width="4"/>
<circle clip-path="url(#clip812)" cx="705.033" cy="771.172" r="7.2" fill="#e26f46" fill-rule="evenodd" fill-opacity="1" stroke="#000000" stroke-opacity="1" stroke-width="4"/>
<circle clip-path="url(#clip812)" cx="715.604" cy="821.912" r="7.2" fill="#e26f46" fill-rule="evenodd" fill-opacity="1" stroke="#000000" stroke-opacity="1" stroke-width="4"/>
<circle clip-path="url(#clip812)" cx="726.175" cy="873.382" r="7.2" fill="#e26f46" fill-rule="evenodd" fill-opacity="1" stroke="#000000" stroke-opacity="1" stroke-width="4"/>
<circle clip-path="url(#clip812)" cx="736.746" cy="925.374" r="7.2" fill="#e26f46" fill-rule="evenodd" fill-opacity="1" stroke="#000000" stroke-opacity="1" stroke-width="4"/>
<circle clip-path="url(#clip812)" cx="747.317" cy="977.682" r="7.2" fill="#e26f46" fill-rule="evenodd" fill-opacity="1" stroke="#000000" stroke-opacity="1" stroke-width="4"/>
<circle clip-path="url(#clip812)" cx="757.889" cy="1030.09" r="7.2" fill="#e26f46" fill-rule="evenodd" fill-opacity="1" stroke="#000000" stroke-opacity="1" stroke-width="4"/>
<circle clip-path="url(#clip812)" cx="768.46" cy="1082.4" r="7.2" fill="#e26f46" fill-rule="evenodd" fill-opacity="1" stroke="#000000" stroke-opacity="1" stroke-width="4"/>
<circle clip-path="url(#clip812)" cx="779.031" cy="1134.39" r="7.2" fill="#e26f46" fill-rule="evenodd" fill-opacity="1" stroke="#000000" stroke-opacity="1" stroke-width="4"/>
<circle clip-path="url(#clip812)" cx="789.602" cy="1185.86" r="7.2" fill="#e26f46" fill-rule="evenodd" fill-opacity="1" stroke="#000000" stroke-opacity="1" stroke-width="4"/>
<circle clip-path="url(#clip812)" cx="800.173" cy="1236.6" r="7.2" fill="#e26f46" fill-rule="evenodd" fill-opacity="1" stroke="#000000" stroke-opacity="1" stroke-width="4"/>
<circle clip-path="url(#clip812)" cx="810.744" cy="1286.41" r="7.2" fill="#e26f46" fill-rule="evenodd" fill-opacity="1" stroke="#000000" stroke-opacity="1" stroke-width="4"/>
<circle clip-path="url(#clip812)" cx="821.315" cy="1335.08" r="7.2" fill="#e26f46" fill-rule="evenodd" fill-opacity="1" stroke="#000000" stroke-opacity="1" stroke-width="4"/>
<circle clip-path="url(#clip812)" cx="831.886" cy="1382.43" r="7.2" fill="#e26f46" fill-rule="evenodd" fill-opacity="1" stroke="#000000" stroke-opacity="1" stroke-width="4"/>
<circle clip-path="url(#clip812)" cx="842.458" cy="1428.25" r="7.2" fill="#e26f46" fill-rule="evenodd" fill-opacity="1" stroke="#000000" stroke-opacity="1" stroke-width="4"/>
<circle clip-path="url(#clip812)" cx="853.029" cy="1472.38" r="7.2" fill="#e26f46" fill-rule="evenodd" fill-opacity="1" stroke="#000000" stroke-opacity="1" stroke-width="4"/>
<circle clip-path="url(#clip812)" cx="863.6" cy="1514.62" r="7.2" fill="#e26f46" fill-rule="evenodd" fill-opacity="1" stroke="#000000" stroke-opacity="1" stroke-width="4"/>
<circle clip-path="url(#clip812)" cx="874.171" cy="1554.81" r="7.2" fill="#e26f46" fill-rule="evenodd" fill-opacity="1" stroke="#000000" stroke-opacity="1" stroke-width="4"/>
<circle clip-path="url(#clip812)" cx="884.742" cy="1592.78" r="7.2" fill="#e26f46" fill-rule="evenodd" fill-opacity="1" stroke="#000000" stroke-opacity="1" stroke-width="4"/>
<circle clip-path="url(#clip812)" cx="895.313" cy="1628.39" r="7.2" fill="#e26f46" fill-rule="evenodd" fill-opacity="1" stroke="#000000" stroke-opacity="1" stroke-width="4"/>
<circle clip-path="url(#clip812)" cx="905.884" cy="1661.49" r="7.2" fill="#e26f46" fill-rule="evenodd" fill-opacity="1" stroke="#000000" stroke-opacity="1" stroke-width="4"/>
<circle clip-path="url(#clip812)" cx="916.455" cy="1691.94" r="7.2" fill="#e26f46" fill-rule="evenodd" fill-opacity="1" stroke="#000000" stroke-opacity="1" stroke-width="4"/>
<circle clip-path="url(#clip812)" cx="927.027" cy="1719.62" r="7.2" fill="#e26f46" fill-rule="evenodd" fill-opacity="1" stroke="#000000" stroke-opacity="1" stroke-width="4"/>
<circle clip-path="url(#clip812)" cx="937.598" cy="1744.42" r="7.2" fill="#e26f46" fill-rule="evenodd" fill-opacity="1" stroke="#000000" stroke-opacity="1" stroke-width="4"/>
<circle clip-path="url(#clip812)" cx="948.169" cy="1766.23" r="7.2" fill="#e26f46" fill-rule="evenodd" fill-opacity="1" stroke="#000000" stroke-opacity="1" stroke-width="4"/>
<circle clip-path="url(#clip812)" cx="958.74" cy="1784.98" r="7.2" fill="#e26f46" fill-rule="evenodd" fill-opacity="1" stroke="#000000" stroke-opacity="1" stroke-width="4"/>
<circle clip-path="url(#clip812)" cx="969.311" cy="1800.57" r="7.2" fill="#e26f46" fill-rule="evenodd" fill-opacity="1" stroke="#000000" stroke-opacity="1" stroke-width="4"/>
<circle clip-path="url(#clip812)" cx="979.882" cy="1812.96" r="7.2" fill="#e26f46" fill-rule="evenodd" fill-opacity="1" stroke="#000000" stroke-opacity="1" stroke-width="4"/>
<circle clip-path="url(#clip812)" cx="990.453" cy="1822.08" r="7.2" fill="#e26f46" fill-rule="evenodd" fill-opacity="1" stroke="#000000" stroke-opacity="1" stroke-width="4"/>
<circle clip-path="url(#clip812)" cx="1001.02" cy="1827.9" r="7.2" fill="#e26f46" fill-rule="evenodd" fill-opacity="1" stroke="#000000" stroke-opacity="1" stroke-width="4"/>
<circle clip-path="url(#clip812)" cx="1011.6" cy="1830.39" r="7.2" fill="#e26f46" fill-rule="evenodd" fill-opacity="1" stroke="#000000" stroke-opacity="1" stroke-width="4"/>
<circle clip-path="url(#clip812)" cx="1022.17" cy="1829.55" r="7.2" fill="#e26f46" fill-rule="evenodd" fill-opacity="1" stroke="#000000" stroke-opacity="1" stroke-width="4"/>
<circle clip-path="url(#clip812)" cx="1032.74" cy="1825.37" r="7.2" fill="#e26f46" fill-rule="evenodd" fill-opacity="1" stroke="#000000" stroke-opacity="1" stroke-width="4"/>
<circle clip-path="url(#clip812)" cx="1043.31" cy="1817.89" r="7.2" fill="#e26f46" fill-rule="evenodd" fill-opacity="1" stroke="#000000" stroke-opacity="1" stroke-width="4"/>
<circle clip-path="url(#clip812)" cx="1053.88" cy="1807.11" r="7.2" fill="#e26f46" fill-rule="evenodd" fill-opacity="1" stroke="#000000" stroke-opacity="1" stroke-width="4"/>
<circle clip-path="url(#clip812)" cx="1064.45" cy="1793.1" r="7.2" fill="#e26f46" fill-rule="evenodd" fill-opacity="1" stroke="#000000" stroke-opacity="1" stroke-width="4"/>
<circle clip-path="url(#clip812)" cx="1075.02" cy="1775.91" r="7.2" fill="#e26f46" fill-rule="evenodd" fill-opacity="1" stroke="#000000" stroke-opacity="1" stroke-width="4"/>
<circle clip-path="url(#clip812)" cx="1085.59" cy="1755.61" r="7.2" fill="#e26f46" fill-rule="evenodd" fill-opacity="1" stroke="#000000" stroke-opacity="1" stroke-width="4"/>
<circle clip-path="url(#clip812)" cx="1096.16" cy="1732.28" r="7.2" fill="#e26f46" fill-rule="evenodd" fill-opacity="1" stroke="#000000" stroke-opacity="1" stroke-width="4"/>
<circle clip-path="url(#clip812)" cx="1106.74" cy="1706.02" r="7.2" fill="#e26f46" fill-rule="evenodd" fill-opacity="1" stroke="#000000" stroke-opacity="1" stroke-width="4"/>
<circle clip-path="url(#clip812)" cx="1117.31" cy="1676.94" r="7.2" fill="#e26f46" fill-rule="evenodd" fill-opacity="1" stroke="#000000" stroke-opacity="1" stroke-width="4"/>
<circle clip-path="url(#clip812)" cx="1127.88" cy="1645.16" r="7.2" fill="#e26f46" fill-rule="evenodd" fill-opacity="1" stroke="#000000" stroke-opacity="1" stroke-width="4"/>
<circle clip-path="url(#clip812)" cx="1138.45" cy="1610.8" r="7.2" fill="#e26f46" fill-rule="evenodd" fill-opacity="1" stroke="#000000" stroke-opacity="1" stroke-width="4"/>
<circle clip-path="url(#clip812)" cx="1149.02" cy="1574.02" r="7.2" fill="#e26f46" fill-rule="evenodd" fill-opacity="1" stroke="#000000" stroke-opacity="1" stroke-width="4"/>
<circle clip-path="url(#clip812)" cx="1159.59" cy="1534.95" r="7.2" fill="#e26f46" fill-rule="evenodd" fill-opacity="1" stroke="#000000" stroke-opacity="1" stroke-width="4"/>
<circle clip-path="url(#clip812)" cx="1170.16" cy="1493.76" r="7.2" fill="#e26f46" fill-rule="evenodd" fill-opacity="1" stroke="#000000" stroke-opacity="1" stroke-width="4"/>
<circle clip-path="url(#clip812)" cx="1180.73" cy="1450.62" r="7.2" fill="#e26f46" fill-rule="evenodd" fill-opacity="1" stroke="#000000" stroke-opacity="1" stroke-width="4"/>
<circle clip-path="url(#clip812)" cx="1191.3" cy="1405.69" r="7.2" fill="#e26f46" fill-rule="evenodd" fill-opacity="1" stroke="#000000" stroke-opacity="1" stroke-width="4"/>
<circle clip-path="url(#clip812)" cx="1201.88" cy="1359.15" r="7.2" fill="#e26f46" fill-rule="evenodd" fill-opacity="1" stroke="#000000" stroke-opacity="1" stroke-width="4"/>
<circle clip-path="url(#clip812)" cx="1212.45" cy="1311.18" r="7.2" fill="#e26f46" fill-rule="evenodd" fill-opacity="1" stroke="#000000" stroke-opacity="1" stroke-width="4"/>
<circle clip-path="url(#clip812)" cx="1223.02" cy="1261.96" r="7.2" fill="#e26f46" fill-rule="evenodd" fill-opacity="1" stroke="#000000" stroke-opacity="1" stroke-width="4"/>
<circle clip-path="url(#clip812)" cx="1233.59" cy="1211.68" r="7.2" fill="#e26f46" fill-rule="evenodd" fill-opacity="1" stroke="#000000" stroke-opacity="1" stroke-width="4"/>
<circle clip-path="url(#clip812)" cx="1244.16" cy="1160.52" r="7.2" fill="#e26f46" fill-rule="evenodd" fill-opacity="1" stroke="#000000" stroke-opacity="1" stroke-width="4"/>
<circle clip-path="url(#clip812)" cx="1254.73" cy="1108.66" r="7.2" fill="#e26f46" fill-rule="evenodd" fill-opacity="1" stroke="#000000" stroke-opacity="1" stroke-width="4"/>
<circle clip-path="url(#clip812)" cx="1265.3" cy="1056.27" r="7.2" fill="#e26f46" fill-rule="evenodd" fill-opacity="1" stroke="#000000" stroke-opacity="1" stroke-width="4"/>
<circle clip-path="url(#clip812)" cx="1275.87" cy="1003.52" r="7.2" fill="#e26f46" fill-rule="evenodd" fill-opacity="1" stroke="#000000" stroke-opacity="1" stroke-width="4"/>
<path clip-path="url(#clip810)" d="M595.658 341.718 L1270.29 341.718 L1270.29 186.198 L595.658 186.198  Z" fill="#ffffff" fill-rule="evenodd" fill-opacity="1"/>
<polyline clip-path="url(#clip810)" style="stroke:#000000; stroke-linecap:round; stroke-linejoin:round; stroke-width:4; stroke-opacity:1; fill:none" points="595.658,341.718 1270.29,341.718 1270.29,186.198 595.658,186.198 595.658,341.718 "/>
<polyline clip-path="url(#clip810)" style="stroke:#009af9; stroke-linecap:round; stroke-linejoin:round; stroke-width:4; stroke-opacity:1; fill:none" points="607.984,238.038 681.94,238.038 "/>
<path clip-path="url(#clip810)" d="M719.821 250.388 L719.821 241.105 L712.182 241.105 L712.182 237.263 L724.451 237.263 L724.451 252.101 Q721.742 254.022 718.478 255.017 Q715.215 255.99 711.511 255.99 Q703.409 255.99 698.826 251.267 Q694.266 246.522 694.266 238.073 Q694.266 229.601 698.826 224.879 Q703.409 220.133 711.511 220.133 Q714.891 220.133 717.923 220.967 Q720.978 221.8 723.548 223.42 L723.548 228.397 Q720.955 226.198 718.039 225.087 Q715.122 223.976 711.904 223.976 Q705.562 223.976 702.367 227.518 Q699.196 231.059 699.196 238.073 Q699.196 245.064 702.367 248.605 Q705.562 252.147 711.904 252.147 Q714.381 252.147 716.326 251.73 Q718.27 251.291 719.821 250.388 Z" fill="#000000" fill-rule="nonzero" fill-opacity="1" /><path clip-path="url(#clip810)" d="M747.83 233.374 Q747.113 232.957 746.256 232.772 Q745.423 232.564 744.404 232.564 Q740.793 232.564 738.849 234.925 Q736.927 237.263 736.927 241.661 L736.927 255.318 L732.645 255.318 L732.645 229.393 L736.927 229.393 L736.927 233.42 Q738.27 231.059 740.423 229.925 Q742.576 228.768 745.654 228.768 Q746.094 228.768 746.626 228.837 Q747.159 228.883 747.807 228.999 L747.83 233.374 Z" fill="#000000" fill-rule="nonzero" fill-opacity="1" /><path clip-path="url(#clip810)" d="M761.302 232.379 Q757.876 232.379 755.886 235.064 Q753.895 237.726 753.895 242.379 Q753.895 247.031 755.863 249.717 Q757.853 252.379 761.302 252.379 Q764.705 252.379 766.696 249.693 Q768.687 247.008 768.687 242.379 Q768.687 237.772 766.696 235.087 Q764.705 232.379 761.302 232.379 M761.302 228.768 Q766.858 228.768 770.029 232.379 Q773.2 235.99 773.2 242.379 Q773.2 248.744 770.029 252.379 Q766.858 255.99 761.302 255.99 Q755.724 255.99 752.552 252.379 Q749.404 248.744 749.404 242.379 Q749.404 235.99 752.552 232.379 Q755.724 228.768 761.302 228.768 Z" fill="#000000" fill-rule="nonzero" fill-opacity="1" /><path clip-path="url(#clip810)" d="M779.821 245.087 L779.821 229.393 L784.08 229.393 L784.08 244.925 Q784.08 248.605 785.515 250.457 Q786.95 252.286 789.821 252.286 Q793.27 252.286 795.26 250.087 Q797.274 247.888 797.274 244.092 L797.274 229.393 L801.534 229.393 L801.534 255.318 L797.274 255.318 L797.274 251.337 Q795.723 253.698 793.663 254.855 Q791.626 255.99 788.918 255.99 Q784.45 255.99 782.136 253.212 Q779.821 250.434 779.821 245.087 M790.538 228.768 L790.538 228.768 Z" fill="#000000" fill-rule="nonzero" fill-opacity="1" /><path clip-path="url(#clip810)" d="M831.857 239.67 L831.857 255.318 L827.598 255.318 L827.598 239.809 Q827.598 236.129 826.163 234.3 Q824.728 232.471 821.858 232.471 Q818.408 232.471 816.418 234.67 Q814.427 236.869 814.427 240.666 L814.427 255.318 L810.145 255.318 L810.145 229.393 L814.427 229.393 L814.427 233.42 Q815.955 231.082 818.015 229.925 Q820.098 228.768 822.807 228.768 Q827.274 228.768 829.566 231.545 Q831.857 234.3 831.857 239.67 Z" fill="#000000" fill-rule="nonzero" fill-opacity="1" /><path clip-path="url(#clip810)" d="M857.413 233.328 L857.413 219.3 L861.672 219.3 L861.672 255.318 L857.413 255.318 L857.413 251.429 Q856.07 253.744 854.01 254.879 Q851.973 255.99 849.103 255.99 Q844.404 255.99 841.441 252.24 Q838.501 248.49 838.501 242.379 Q838.501 236.268 841.441 232.518 Q844.404 228.768 849.103 228.768 Q851.973 228.768 854.01 229.902 Q856.07 231.013 857.413 233.328 M842.899 242.379 Q842.899 247.078 844.82 249.763 Q846.765 252.425 850.144 252.425 Q853.524 252.425 855.468 249.763 Q857.413 247.078 857.413 242.379 Q857.413 237.68 855.468 235.018 Q853.524 232.332 850.144 232.332 Q846.765 232.332 844.82 235.018 Q842.899 237.68 842.899 242.379 Z" fill="#000000" fill-rule="nonzero" fill-opacity="1" /><path clip-path="url(#clip810)" d="M889.728 222.032 L889.728 229.393 L898.501 229.393 L898.501 232.703 L889.728 232.703 L889.728 246.777 Q889.728 249.948 890.584 250.851 Q891.464 251.754 894.126 251.754 L898.501 251.754 L898.501 255.318 L894.126 255.318 Q889.195 255.318 887.32 253.49 Q885.445 251.638 885.445 246.777 L885.445 232.703 L882.32 232.703 L882.32 229.393 L885.445 229.393 L885.445 222.032 L889.728 222.032 Z" fill="#000000" fill-rule="nonzero" fill-opacity="1" /><path clip-path="url(#clip810)" d="M919.126 233.374 Q918.408 232.957 917.551 232.772 Q916.718 232.564 915.7 232.564 Q912.089 232.564 910.144 234.925 Q908.223 237.263 908.223 241.661 L908.223 255.318 L903.94 255.318 L903.94 229.393 L908.223 229.393 L908.223 233.42 Q909.565 231.059 911.718 229.925 Q913.871 228.768 916.95 228.768 Q917.389 228.768 917.922 228.837 Q918.454 228.883 919.102 228.999 L919.126 233.374 Z" fill="#000000" fill-rule="nonzero" fill-opacity="1" /><path clip-path="url(#clip810)" d="M923.153 245.087 L923.153 229.393 L927.413 229.393 L927.413 244.925 Q927.413 248.605 928.848 250.457 Q930.283 252.286 933.153 252.286 Q936.602 252.286 938.593 250.087 Q940.607 247.888 940.607 244.092 L940.607 229.393 L944.866 229.393 L944.866 255.318 L940.607 255.318 L940.607 251.337 Q939.056 253.698 936.996 254.855 Q934.959 255.99 932.25 255.99 Q927.783 255.99 925.468 253.212 Q923.153 250.434 923.153 245.087 M933.871 228.768 L933.871 228.768 Z" fill="#000000" fill-rule="nonzero" fill-opacity="1" /><path clip-path="url(#clip810)" d="M957.852 222.032 L957.852 229.393 L966.625 229.393 L966.625 232.703 L957.852 232.703 L957.852 246.777 Q957.852 249.948 958.709 250.851 Q959.588 251.754 962.25 251.754 L966.625 251.754 L966.625 255.318 L962.25 255.318 Q957.32 255.318 955.445 253.49 Q953.57 251.638 953.57 246.777 L953.57 232.703 L950.445 232.703 L950.445 229.393 L953.57 229.393 L953.57 222.032 L957.852 222.032 Z" fill="#000000" fill-rule="nonzero" fill-opacity="1" /><path clip-path="url(#clip810)" d="M993.778 239.67 L993.778 255.318 L989.519 255.318 L989.519 239.809 Q989.519 236.129 988.083 234.3 Q986.648 232.471 983.778 232.471 Q980.329 232.471 978.338 234.67 Q976.347 236.869 976.347 240.666 L976.347 255.318 L972.065 255.318 L972.065 219.3 L976.347 219.3 L976.347 233.42 Q977.875 231.082 979.935 229.925 Q982.019 228.768 984.727 228.768 Q989.195 228.768 991.486 231.545 Q993.778 234.3 993.778 239.67 Z" fill="#000000" fill-rule="nonzero" fill-opacity="1" /><circle clip-path="url(#clip810)" cx="644.962" cy="289.878" r="18.432" fill="#e26f46" fill-rule="evenodd" fill-opacity="1" stroke="#000000" stroke-opacity="1" stroke-width="10.24"/>
<path clip-path="url(#clip810)" d="M698.942 276.441 L698.942 289.427 L704.821 289.427 Q708.085 289.427 709.867 287.737 Q711.65 286.047 711.65 282.922 Q711.65 279.821 709.867 278.131 Q708.085 276.441 704.821 276.441 L698.942 276.441 M694.266 272.598 L704.821 272.598 Q710.631 272.598 713.594 275.237 Q716.58 277.853 716.58 282.922 Q716.58 288.038 713.594 290.654 Q710.631 293.27 704.821 293.27 L698.942 293.27 L698.942 307.158 L694.266 307.158 L694.266 272.598 Z" fill="#000000" fill-rule="nonzero" fill-opacity="1" /><path clip-path="url(#clip810)" d="M736.858 285.214 Q736.14 284.797 735.284 284.612 Q734.451 284.404 733.432 284.404 Q729.821 284.404 727.877 286.765 Q725.955 289.103 725.955 293.501 L725.955 307.158 L721.673 307.158 L721.673 281.233 L725.955 281.233 L725.955 285.26 Q727.298 282.899 729.451 281.765 Q731.603 280.608 734.682 280.608 Q735.122 280.608 735.654 280.677 Q736.187 280.723 736.835 280.839 L736.858 285.214 Z" fill="#000000" fill-rule="nonzero" fill-opacity="1" /><path clip-path="url(#clip810)" d="M762.46 293.131 L762.46 295.214 L742.876 295.214 Q743.154 299.612 745.515 301.927 Q747.9 304.219 752.136 304.219 Q754.589 304.219 756.881 303.617 Q759.196 303.015 761.464 301.811 L761.464 305.839 Q759.173 306.811 756.765 307.32 Q754.358 307.83 751.881 307.83 Q745.677 307.83 742.043 304.219 Q738.432 300.607 738.432 294.45 Q738.432 288.084 741.858 284.358 Q745.307 280.608 751.14 280.608 Q756.372 280.608 759.404 283.987 Q762.46 287.344 762.46 293.131 M758.2 291.881 Q758.154 288.385 756.233 286.302 Q754.335 284.219 751.187 284.219 Q747.622 284.219 745.469 286.233 Q743.339 288.246 743.015 291.904 L758.2 291.881 Z" fill="#000000" fill-rule="nonzero" fill-opacity="1" /><path clip-path="url(#clip810)" d="M786.51 285.168 L786.51 271.14 L790.77 271.14 L790.77 307.158 L786.51 307.158 L786.51 303.269 Q785.168 305.584 783.108 306.719 Q781.071 307.83 778.2 307.83 Q773.501 307.83 770.538 304.08 Q767.599 300.33 767.599 294.219 Q767.599 288.108 770.538 284.358 Q773.501 280.608 778.2 280.608 Q781.071 280.608 783.108 281.742 Q785.168 282.853 786.51 285.168 M771.997 294.219 Q771.997 298.918 773.918 301.603 Q775.862 304.265 779.242 304.265 Q782.622 304.265 784.566 301.603 Q786.51 298.918 786.51 294.219 Q786.51 289.52 784.566 286.858 Q782.622 284.172 779.242 284.172 Q775.862 284.172 773.918 286.858 Q771.997 289.52 771.997 294.219 Z" fill="#000000" fill-rule="nonzero" fill-opacity="1" /><path clip-path="url(#clip810)" d="M799.543 281.233 L803.802 281.233 L803.802 307.158 L799.543 307.158 L799.543 281.233 M799.543 271.14 L803.802 271.14 L803.802 276.534 L799.543 276.534 L799.543 271.14 Z" fill="#000000" fill-rule="nonzero" fill-opacity="1" /><path clip-path="url(#clip810)" d="M831.371 282.228 L831.371 286.209 Q829.566 285.214 827.737 284.728 Q825.932 284.219 824.08 284.219 Q819.936 284.219 817.645 286.858 Q815.353 289.473 815.353 294.219 Q815.353 298.964 817.645 301.603 Q819.936 304.219 824.08 304.219 Q825.932 304.219 827.737 303.732 Q829.566 303.223 831.371 302.228 L831.371 306.163 Q829.589 306.996 827.668 307.413 Q825.77 307.83 823.617 307.83 Q817.76 307.83 814.311 304.149 Q810.862 300.469 810.862 294.219 Q810.862 287.876 814.334 284.242 Q817.83 280.608 823.895 280.608 Q825.862 280.608 827.737 281.024 Q829.612 281.418 831.371 282.228 Z" fill="#000000" fill-rule="nonzero" fill-opacity="1" /><path clip-path="url(#clip810)" d="M842.992 273.872 L842.992 281.233 L851.765 281.233 L851.765 284.543 L842.992 284.543 L842.992 298.617 Q842.992 301.788 843.848 302.691 Q844.728 303.594 847.39 303.594 L851.765 303.594 L851.765 307.158 L847.39 307.158 Q842.459 307.158 840.584 305.33 Q838.709 303.478 838.709 298.617 L838.709 284.543 L835.584 284.543 L835.584 281.233 L838.709 281.233 L838.709 273.872 L842.992 273.872 Z" fill="#000000" fill-rule="nonzero" fill-opacity="1" /><path clip-path="url(#clip810)" d="M857.367 281.233 L861.626 281.233 L861.626 307.158 L857.367 307.158 L857.367 281.233 M857.367 271.14 L861.626 271.14 L861.626 276.534 L857.367 276.534 L857.367 271.14 Z" fill="#000000" fill-rule="nonzero" fill-opacity="1" /><path clip-path="url(#clip810)" d="M880.584 284.219 Q877.158 284.219 875.167 286.904 Q873.177 289.566 873.177 294.219 Q873.177 298.871 875.144 301.557 Q877.135 304.219 880.584 304.219 Q883.987 304.219 885.978 301.533 Q887.968 298.848 887.968 294.219 Q887.968 289.612 885.978 286.927 Q883.987 284.219 880.584 284.219 M880.584 280.608 Q886.14 280.608 889.311 284.219 Q892.482 287.83 892.482 294.219 Q892.482 300.584 889.311 304.219 Q886.14 307.83 880.584 307.83 Q875.005 307.83 871.834 304.219 Q868.686 300.584 868.686 294.219 Q868.686 287.83 871.834 284.219 Q875.005 280.608 880.584 280.608 Z" fill="#000000" fill-rule="nonzero" fill-opacity="1" /><path clip-path="url(#clip810)" d="M921.093 291.51 L921.093 307.158 L916.834 307.158 L916.834 291.649 Q916.834 287.969 915.399 286.14 Q913.964 284.311 911.093 284.311 Q907.644 284.311 905.653 286.51 Q903.663 288.709 903.663 292.506 L903.663 307.158 L899.38 307.158 L899.38 281.233 L903.663 281.233 L903.663 285.26 Q905.19 282.922 907.251 281.765 Q909.334 280.608 912.042 280.608 Q916.51 280.608 918.801 283.385 Q921.093 286.14 921.093 291.51 Z" fill="#000000" fill-rule="nonzero" fill-opacity="1" /><path clip-path="url(#clip810)" d="M957.783 271.14 L957.783 274.682 L953.709 274.682 Q951.417 274.682 950.514 275.608 Q949.635 276.534 949.635 278.941 L949.635 281.233 L956.648 281.233 L956.648 284.543 L949.635 284.543 L949.635 307.158 L945.352 307.158 L945.352 284.543 L941.278 284.543 L941.278 281.233 L945.352 281.233 L945.352 279.427 Q945.352 275.098 947.366 273.131 Q949.38 271.14 953.755 271.14 L957.783 271.14 Z" fill="#000000" fill-rule="nonzero" fill-opacity="1" /><path clip-path="url(#clip810)" d="M976.371 285.214 Q975.653 284.797 974.797 284.612 Q973.963 284.404 972.945 284.404 Q969.334 284.404 967.389 286.765 Q965.468 289.103 965.468 293.501 L965.468 307.158 L961.185 307.158 L961.185 281.233 L965.468 281.233 L965.468 285.26 Q966.81 282.899 968.963 281.765 Q971.116 280.608 974.195 280.608 Q974.634 280.608 975.167 280.677 Q975.699 280.723 976.347 280.839 L976.371 285.214 Z" fill="#000000" fill-rule="nonzero" fill-opacity="1" /><path clip-path="url(#clip810)" d="M989.843 284.219 Q986.417 284.219 984.426 286.904 Q982.435 289.566 982.435 294.219 Q982.435 298.871 984.403 301.557 Q986.394 304.219 989.843 304.219 Q993.245 304.219 995.236 301.533 Q997.227 298.848 997.227 294.219 Q997.227 289.612 995.236 286.927 Q993.245 284.219 989.843 284.219 M989.843 280.608 Q995.398 280.608 998.57 284.219 Q1001.74 287.83 1001.74 294.219 Q1001.74 300.584 998.57 304.219 Q995.398 307.83 989.843 307.83 Q984.264 307.83 981.093 304.219 Q977.945 300.584 977.945 294.219 Q977.945 287.83 981.093 284.219 Q984.264 280.608 989.843 280.608 Z" fill="#000000" fill-rule="nonzero" fill-opacity="1" /><path clip-path="url(#clip810)" d="M1028.99 286.209 Q1030.58 283.339 1032.81 281.973 Q1035.03 280.608 1038.04 280.608 Q1042.09 280.608 1044.29 283.455 Q1046.49 286.279 1046.49 291.51 L1046.49 307.158 L1042.2 307.158 L1042.2 291.649 Q1042.2 287.922 1040.88 286.117 Q1039.56 284.311 1036.86 284.311 Q1033.55 284.311 1031.62 286.51 Q1029.7 288.709 1029.7 292.506 L1029.7 307.158 L1025.42 307.158 L1025.42 291.649 Q1025.42 287.899 1024.1 286.117 Q1022.78 284.311 1020.03 284.311 Q1016.76 284.311 1014.84 286.533 Q1012.92 288.733 1012.92 292.506 L1012.92 307.158 L1008.64 307.158 L1008.64 281.233 L1012.92 281.233 L1012.92 285.26 Q1014.38 282.876 1016.42 281.742 Q1018.45 280.608 1021.25 280.608 Q1024.08 280.608 1026.05 282.043 Q1028.04 283.478 1028.99 286.209 Z" fill="#000000" fill-rule="nonzero" fill-opacity="1" /><path clip-path="url(#clip810)" d="M1091.6 291.51 L1091.6 307.158 L1087.34 307.158 L1087.34 291.649 Q1087.34 287.969 1085.91 286.14 Q1084.47 284.311 1081.6 284.311 Q1078.15 284.311 1076.16 286.51 Q1074.17 288.709 1074.17 292.506 L1074.17 307.158 L1069.89 307.158 L1069.89 281.233 L1074.17 281.233 L1074.17 285.26 Q1075.7 282.922 1077.76 281.765 Q1079.84 280.608 1082.55 280.608 Q1087.02 280.608 1089.31 283.385 Q1091.6 286.14 1091.6 291.51 Z" fill="#000000" fill-rule="nonzero" fill-opacity="1" /><path clip-path="url(#clip810)" d="M1122.27 293.131 L1122.27 295.214 L1102.69 295.214 Q1102.97 299.612 1105.33 301.927 Q1107.71 304.219 1111.95 304.219 Q1114.4 304.219 1116.69 303.617 Q1119.01 303.015 1121.28 301.811 L1121.28 305.839 Q1118.99 306.811 1116.58 307.32 Q1114.17 307.83 1111.69 307.83 Q1105.49 307.83 1101.86 304.219 Q1098.24 300.607 1098.24 294.45 Q1098.24 288.084 1101.67 284.358 Q1105.12 280.608 1110.95 280.608 Q1116.18 280.608 1119.22 283.987 Q1122.27 287.344 1122.27 293.131 M1118.01 291.881 Q1117.97 288.385 1116.05 286.302 Q1114.15 284.219 1111 284.219 Q1107.43 284.219 1105.28 286.233 Q1103.15 288.246 1102.83 291.904 L1118.01 291.881 Z" fill="#000000" fill-rule="nonzero" fill-opacity="1" /><path clip-path="url(#clip810)" d="M1133.48 273.872 L1133.48 281.233 L1142.25 281.233 L1142.25 284.543 L1133.48 284.543 L1133.48 298.617 Q1133.48 301.788 1134.33 302.691 Q1135.21 303.594 1137.87 303.594 L1142.25 303.594 L1142.25 307.158 L1137.87 307.158 Q1132.94 307.158 1131.07 305.33 Q1129.19 303.478 1129.19 298.617 L1129.19 284.543 L1126.07 284.543 L1126.07 281.233 L1129.19 281.233 L1129.19 273.872 L1133.48 273.872 Z" fill="#000000" fill-rule="nonzero" fill-opacity="1" /><path clip-path="url(#clip810)" d="M1145.37 281.233 L1149.63 281.233 L1154.96 301.464 L1160.26 281.233 L1165.28 281.233 L1170.61 301.464 L1175.91 281.233 L1180.17 281.233 L1173.38 307.158 L1168.36 307.158 L1162.78 285.908 L1157.18 307.158 L1152.16 307.158 L1145.37 281.233 Z" fill="#000000" fill-rule="nonzero" fill-opacity="1" /><path clip-path="url(#clip810)" d="M1196.67 284.219 Q1193.24 284.219 1191.25 286.904 Q1189.26 289.566 1189.26 294.219 Q1189.26 298.871 1191.23 301.557 Q1193.22 304.219 1196.67 304.219 Q1200.07 304.219 1202.06 301.533 Q1204.05 298.848 1204.05 294.219 Q1204.05 289.612 1202.06 286.927 Q1200.07 284.219 1196.67 284.219 M1196.67 280.608 Q1202.23 280.608 1205.4 284.219 Q1208.57 287.83 1208.57 294.219 Q1208.57 300.584 1205.4 304.219 Q1202.23 307.83 1196.67 307.83 Q1191.09 307.83 1187.92 304.219 Q1184.77 300.584 1184.77 294.219 Q1184.77 287.83 1187.92 284.219 Q1191.09 280.608 1196.67 280.608 Z" fill="#000000" fill-rule="nonzero" fill-opacity="1" /><path clip-path="url(#clip810)" d="M1230.65 285.214 Q1229.93 284.797 1229.08 284.612 Q1228.24 284.404 1227.23 284.404 Q1223.61 284.404 1221.67 286.765 Q1219.75 289.103 1219.75 293.501 L1219.75 307.158 L1215.47 307.158 L1215.47 281.233 L1219.75 281.233 L1219.75 285.26 Q1221.09 282.899 1223.24 281.765 Q1225.4 280.608 1228.48 280.608 Q1228.92 280.608 1229.45 280.677 Q1229.98 280.723 1230.63 280.839 L1230.65 285.214 Z" fill="#000000" fill-rule="nonzero" fill-opacity="1" /><path clip-path="url(#clip810)" d="M1234.96 271.14 L1239.24 271.14 L1239.24 292.413 L1251.95 281.233 L1257.39 281.233 L1243.64 293.362 L1257.97 307.158 L1252.41 307.158 L1239.24 294.496 L1239.24 307.158 L1234.96 307.158 L1234.96 271.14 Z" fill="#000000" fill-rule="nonzero" fill-opacity="1" /><path clip-path="url(#clip810)" d="M1643.42 1879.98 L2752.76 1879.98 L2752.76 127.792 L1643.42 127.792  Z" fill="#ffffff" fill-rule="evenodd" fill-opacity="1"/>
<defs>
  <clipPath id="clip813">
    <rect x="1643" y="127" width="1110" height="1753"/>
  </clipPath>
</defs>
<polyline clip-path="url(#clip813)" style="stroke:#000000; stroke-linecap:round; stroke-linejoin:round; stroke-width:8; stroke-opacity:0.1; fill:none" points="1664.25,1879.98 1664.25,127.792 "/>
<polyline clip-path="url(#clip813)" style="stroke:#000000; stroke-linecap:round; stroke-linejoin:round; stroke-width:8; stroke-opacity:0.1; fill:none" points="1928.53,1879.98 1928.53,127.792 "/>
<polyline clip-path="url(#clip813)" style="stroke:#000000; stroke-linecap:round; stroke-linejoin:round; stroke-width:8; stroke-opacity:0.1; fill:none" points="2192.8,1879.98 2192.8,127.792 "/>
<polyline clip-path="url(#clip813)" style="stroke:#000000; stroke-linecap:round; stroke-linejoin:round; stroke-width:8; stroke-opacity:0.1; fill:none" points="2457.08,1879.98 2457.08,127.792 "/>
<polyline clip-path="url(#clip813)" style="stroke:#000000; stroke-linecap:round; stroke-linejoin:round; stroke-width:8; stroke-opacity:0.1; fill:none" points="2721.36,1879.98 2721.36,127.792 "/>
<polyline clip-path="url(#clip810)" style="stroke:#000000; stroke-linecap:round; stroke-linejoin:round; stroke-width:4; stroke-opacity:1; fill:none" points="1643.42,1879.98 2752.76,1879.98 "/>
<polyline clip-path="url(#clip810)" style="stroke:#000000; stroke-linecap:round; stroke-linejoin:round; stroke-width:4; stroke-opacity:1; fill:none" points="1664.25,1879.98 1664.25,1861.08 "/>
<polyline clip-path="url(#clip810)" style="stroke:#000000; stroke-linecap:round; stroke-linejoin:round; stroke-width:4; stroke-opacity:1; fill:none" points="1928.53,1879.98 1928.53,1861.08 "/>
<polyline clip-path="url(#clip810)" style="stroke:#000000; stroke-linecap:round; stroke-linejoin:round; stroke-width:4; stroke-opacity:1; fill:none" points="2192.8,1879.98 2192.8,1861.08 "/>
<polyline clip-path="url(#clip810)" style="stroke:#000000; stroke-linecap:round; stroke-linejoin:round; stroke-width:4; stroke-opacity:1; fill:none" points="2457.08,1879.98 2457.08,1861.08 "/>
<polyline clip-path="url(#clip810)" style="stroke:#000000; stroke-linecap:round; stroke-linejoin:round; stroke-width:4; stroke-opacity:1; fill:none" points="2721.36,1879.98 2721.36,1861.08 "/>
<path clip-path="url(#clip810)" d="M1664.25 1914.1 Q1660.64 1914.1 1658.81 1917.66 Q1657 1921.2 1657 1928.33 Q1657 1935.44 1658.81 1939.01 Q1660.64 1942.55 1664.25 1942.55 Q1667.88 1942.55 1669.69 1939.01 Q1671.52 1935.44 1671.52 1928.33 Q1671.52 1921.2 1669.69 1917.66 Q1667.88 1914.1 1664.25 1914.1 M1664.25 1910.39 Q1670.06 1910.39 1673.11 1915 Q1676.19 1919.58 1676.19 1928.33 Q1676.19 1937.06 1673.11 1941.67 Q1670.06 1946.25 1664.25 1946.25 Q1658.44 1946.25 1655.36 1941.67 Q1652.3 1937.06 1652.3 1928.33 Q1652.3 1919.58 1655.36 1915 Q1658.44 1910.39 1664.25 1910.39 Z" fill="#000000" fill-rule="nonzero" fill-opacity="1" /><path clip-path="url(#clip810)" d="M1907.8 1941.64 L1924.12 1941.64 L1924.12 1945.58 L1902.17 1945.58 L1902.17 1941.64 Q1904.83 1938.89 1909.42 1934.26 Q1914.02 1929.61 1915.2 1928.26 Q1917.45 1925.74 1918.33 1924.01 Q1919.23 1922.25 1919.23 1920.56 Q1919.23 1917.8 1917.29 1916.07 Q1915.37 1914.33 1912.26 1914.33 Q1910.06 1914.33 1907.61 1915.09 Q1905.18 1915.86 1902.4 1917.41 L1902.4 1912.69 Q1905.23 1911.55 1907.68 1910.97 Q1910.13 1910.39 1912.17 1910.39 Q1917.54 1910.39 1920.74 1913.08 Q1923.93 1915.76 1923.93 1920.26 Q1923.93 1922.38 1923.12 1924.31 Q1922.33 1926.2 1920.23 1928.8 Q1919.65 1929.47 1916.55 1932.69 Q1913.44 1935.88 1907.8 1941.64 Z" fill="#000000" fill-rule="nonzero" fill-opacity="1" /><path clip-path="url(#clip810)" d="M1933.98 1911.02 L1952.33 1911.02 L1952.33 1914.95 L1938.26 1914.95 L1938.26 1923.43 Q1939.28 1923.08 1940.3 1922.92 Q1941.31 1922.73 1942.33 1922.73 Q1948.12 1922.73 1951.5 1925.9 Q1954.88 1929.07 1954.88 1934.49 Q1954.88 1940.07 1951.41 1943.17 Q1947.93 1946.25 1941.62 1946.25 Q1939.44 1946.25 1937.17 1945.88 Q1934.93 1945.51 1932.52 1944.77 L1932.52 1940.07 Q1934.6 1941.2 1936.82 1941.76 Q1939.05 1942.32 1941.52 1942.32 Q1945.53 1942.32 1947.87 1940.21 Q1950.2 1938.1 1950.2 1934.49 Q1950.2 1930.88 1947.87 1928.77 Q1945.53 1926.67 1941.52 1926.67 Q1939.65 1926.67 1937.77 1927.08 Q1935.92 1927.5 1933.98 1928.38 L1933.98 1911.02 Z" fill="#000000" fill-rule="nonzero" fill-opacity="1" /><path clip-path="url(#clip810)" d="M2167.5 1911.02 L2185.86 1911.02 L2185.86 1914.95 L2171.78 1914.95 L2171.78 1923.43 Q2172.8 1923.08 2173.82 1922.92 Q2174.84 1922.73 2175.86 1922.73 Q2181.65 1922.73 2185.03 1925.9 Q2188.41 1929.07 2188.41 1934.49 Q2188.41 1940.07 2184.93 1943.17 Q2181.46 1946.25 2175.14 1946.25 Q2172.97 1946.25 2170.7 1945.88 Q2168.45 1945.51 2166.04 1944.77 L2166.04 1940.07 Q2168.13 1941.2 2170.35 1941.76 Q2172.57 1942.32 2175.05 1942.32 Q2179.05 1942.32 2181.39 1940.21 Q2183.73 1938.1 2183.73 1934.49 Q2183.73 1930.88 2181.39 1928.77 Q2179.05 1926.67 2175.05 1926.67 Q2173.17 1926.67 2171.3 1927.08 Q2169.45 1927.5 2167.5 1928.38 L2167.5 1911.02 Z" fill="#000000" fill-rule="nonzero" fill-opacity="1" /><path clip-path="url(#clip810)" d="M2207.62 1914.1 Q2204.01 1914.1 2202.18 1917.66 Q2200.37 1921.2 2200.37 1928.33 Q2200.37 1935.44 2202.18 1939.01 Q2204.01 1942.55 2207.62 1942.55 Q2211.25 1942.55 2213.06 1939.01 Q2214.89 1935.44 2214.89 1928.33 Q2214.89 1921.2 2213.06 1917.66 Q2211.25 1914.1 2207.62 1914.1 M2207.62 1910.39 Q2213.43 1910.39 2216.48 1915 Q2219.56 1919.58 2219.56 1928.33 Q2219.56 1937.06 2216.48 1941.67 Q2213.43 1946.25 2207.62 1946.25 Q2201.81 1946.25 2198.73 1941.67 Q2195.67 1937.06 2195.67 1928.33 Q2195.67 1919.58 2198.73 1915 Q2201.81 1910.39 2207.62 1910.39 Z" fill="#000000" fill-rule="nonzero" fill-opacity="1" /><path clip-path="url(#clip810)" d="M2430.94 1911.02 L2453.16 1911.02 L2453.16 1913.01 L2440.61 1945.58 L2435.73 1945.58 L2447.53 1914.95 L2430.94 1914.95 L2430.94 1911.02 Z" fill="#000000" fill-rule="nonzero" fill-opacity="1" /><path clip-path="url(#clip810)" d="M2462.32 1911.02 L2480.68 1911.02 L2480.68 1914.95 L2466.61 1914.95 L2466.61 1923.43 Q2467.63 1923.08 2468.64 1922.92 Q2469.66 1922.73 2470.68 1922.73 Q2476.47 1922.73 2479.85 1925.9 Q2483.23 1929.07 2483.23 1934.49 Q2483.23 1940.07 2479.75 1943.17 Q2476.28 1946.25 2469.96 1946.25 Q2467.79 1946.25 2465.52 1945.88 Q2463.27 1945.51 2460.87 1944.77 L2460.87 1940.07 Q2462.95 1941.2 2465.17 1941.76 Q2467.39 1942.32 2469.87 1942.32 Q2473.88 1942.32 2476.21 1940.21 Q2478.55 1938.1 2478.55 1934.49 Q2478.55 1930.88 2476.21 1928.77 Q2473.88 1926.67 2469.87 1926.67 Q2468 1926.67 2466.12 1927.08 Q2464.27 1927.5 2462.32 1928.38 L2462.32 1911.02 Z" fill="#000000" fill-rule="nonzero" fill-opacity="1" /><path clip-path="url(#clip810)" d="M2680.97 1941.64 L2688.61 1941.64 L2688.61 1915.28 L2680.3 1916.95 L2680.3 1912.69 L2688.56 1911.02 L2693.23 1911.02 L2693.23 1941.64 L2700.87 1941.64 L2700.87 1945.58 L2680.97 1945.58 L2680.97 1941.64 Z" fill="#000000" fill-rule="nonzero" fill-opacity="1" /><path clip-path="url(#clip810)" d="M2720.32 1914.1 Q2716.71 1914.1 2714.88 1917.66 Q2713.07 1921.2 2713.07 1928.33 Q2713.07 1935.44 2714.88 1939.01 Q2716.71 1942.55 2720.32 1942.55 Q2723.95 1942.55 2725.76 1939.01 Q2727.59 1935.44 2727.59 1928.33 Q2727.59 1921.2 2725.76 1917.66 Q2723.95 1914.1 2720.32 1914.1 M2720.32 1910.39 Q2726.13 1910.39 2729.18 1915 Q2732.26 1919.58 2732.26 1928.33 Q2732.26 1937.06 2729.18 1941.67 Q2726.13 1946.25 2720.32 1946.25 Q2714.51 1946.25 2711.43 1941.67 Q2708.37 1937.06 2708.37 1928.33 Q2708.37 1919.58 2711.43 1915 Q2714.51 1910.39 2720.32 1910.39 Z" fill="#000000" fill-rule="nonzero" fill-opacity="1" /><path clip-path="url(#clip810)" d="M2750.48 1914.1 Q2746.87 1914.1 2745.04 1917.66 Q2743.23 1921.2 2743.23 1928.33 Q2743.23 1935.44 2745.04 1939.01 Q2746.87 1942.55 2750.48 1942.55 Q2754.11 1942.55 2755.92 1939.01 Q2757.75 1935.44 2757.75 1928.33 Q2757.75 1921.2 2755.92 1917.66 Q2754.11 1914.1 2750.48 1914.1 M2750.48 1910.39 Q2756.29 1910.39 2759.35 1915 Q2762.42 1919.58 2762.42 1928.33 Q2762.42 1937.06 2759.35 1941.67 Q2756.29 1946.25 2750.48 1946.25 Q2744.67 1946.25 2741.59 1941.67 Q2738.54 1937.06 2738.54 1928.33 Q2738.54 1919.58 2741.59 1915 Q2744.67 1910.39 2750.48 1910.39 Z" fill="#000000" fill-rule="nonzero" fill-opacity="1" /><polyline clip-path="url(#clip813)" style="stroke:#000000; stroke-linecap:round; stroke-linejoin:round; stroke-width:8; stroke-opacity:0.1; fill:none" points="1643.42,1764.28 2752.76,1764.28 "/>
<polyline clip-path="url(#clip813)" style="stroke:#000000; stroke-linecap:round; stroke-linejoin:round; stroke-width:8; stroke-opacity:0.1; fill:none" points="1643.42,1393.42 2752.76,1393.42 "/>
<polyline clip-path="url(#clip813)" style="stroke:#000000; stroke-linecap:round; stroke-linejoin:round; stroke-width:8; stroke-opacity:0.1; fill:none" points="1643.42,1022.56 2752.76,1022.56 "/>
<polyline clip-path="url(#clip813)" style="stroke:#000000; stroke-linecap:round; stroke-linejoin:round; stroke-width:8; stroke-opacity:0.1; fill:none" points="1643.42,651.697 2752.76,651.697 "/>
<polyline clip-path="url(#clip813)" style="stroke:#000000; stroke-linecap:round; stroke-linejoin:round; stroke-width:8; stroke-opacity:0.1; fill:none" points="1643.42,280.836 2752.76,280.836 "/>
<polyline clip-path="url(#clip810)" style="stroke:#000000; stroke-linecap:round; stroke-linejoin:round; stroke-width:4; stroke-opacity:1; fill:none" points="1643.42,1879.98 1643.42,127.792 "/>
<polyline clip-path="url(#clip810)" style="stroke:#000000; stroke-linecap:round; stroke-linejoin:round; stroke-width:4; stroke-opacity:1; fill:none" points="1643.42,1764.28 1662.32,1764.28 "/>
<polyline clip-path="url(#clip810)" style="stroke:#000000; stroke-linecap:round; stroke-linejoin:round; stroke-width:4; stroke-opacity:1; fill:none" points="1643.42,1393.42 1662.32,1393.42 "/>
<polyline clip-path="url(#clip810)" style="stroke:#000000; stroke-linecap:round; stroke-linejoin:round; stroke-width:4; stroke-opacity:1; fill:none" points="1643.42,1022.56 1662.32,1022.56 "/>
<polyline clip-path="url(#clip810)" style="stroke:#000000; stroke-linecap:round; stroke-linejoin:round; stroke-width:4; stroke-opacity:1; fill:none" points="1643.42,651.697 1662.32,651.697 "/>
<polyline clip-path="url(#clip810)" style="stroke:#000000; stroke-linecap:round; stroke-linejoin:round; stroke-width:4; stroke-opacity:1; fill:none" points="1643.42,280.836 1662.32,280.836 "/>
<path clip-path="url(#clip810)" d="M1403.51 1764.73 L1433.18 1764.73 L1433.18 1768.67 L1403.51 1768.67 L1403.51 1764.73 Z" fill="#000000" fill-rule="nonzero" fill-opacity="1" /><path clip-path="url(#clip810)" d="M1453.27 1750.08 Q1449.66 1750.08 1447.83 1753.64 Q1446.03 1757.18 1446.03 1764.31 Q1446.03 1771.42 1447.83 1774.99 Q1449.66 1778.53 1453.27 1778.53 Q1456.91 1778.53 1458.71 1774.99 Q1460.54 1771.42 1460.54 1764.31 Q1460.54 1757.18 1458.71 1753.64 Q1456.91 1750.08 1453.27 1750.08 M1453.27 1746.37 Q1459.08 1746.37 1462.14 1750.98 Q1465.22 1755.56 1465.22 1764.31 Q1465.22 1773.04 1462.14 1777.65 Q1459.08 1782.23 1453.27 1782.23 Q1447.46 1782.23 1444.39 1777.65 Q1441.33 1773.04 1441.33 1764.31 Q1441.33 1755.56 1444.39 1750.98 Q1447.46 1746.37 1453.27 1746.37 Z" fill="#000000" fill-rule="nonzero" fill-opacity="1" /><path clip-path="url(#clip810)" d="M1473.44 1775.68 L1478.32 1775.68 L1478.32 1781.56 L1473.44 1781.56 L1473.44 1775.68 Z" fill="#000000" fill-rule="nonzero" fill-opacity="1" /><path clip-path="url(#clip810)" d="M1498.51 1750.08 Q1494.89 1750.08 1493.07 1753.64 Q1491.26 1757.18 1491.26 1764.31 Q1491.26 1771.42 1493.07 1774.99 Q1494.89 1778.53 1498.51 1778.53 Q1502.14 1778.53 1503.95 1774.99 Q1505.77 1771.42 1505.77 1764.31 Q1505.77 1757.18 1503.95 1753.64 Q1502.14 1750.08 1498.51 1750.08 M1498.51 1746.37 Q1504.32 1746.37 1507.37 1750.98 Q1510.45 1755.56 1510.45 1764.31 Q1510.45 1773.04 1507.37 1777.65 Q1504.32 1782.23 1498.51 1782.23 Q1492.7 1782.23 1489.62 1777.65 Q1486.56 1773.04 1486.56 1764.31 Q1486.56 1755.56 1489.62 1750.98 Q1492.7 1746.37 1498.51 1746.37 Z" fill="#000000" fill-rule="nonzero" fill-opacity="1" /><path clip-path="url(#clip810)" d="M1528.67 1750.08 Q1525.06 1750.08 1523.23 1753.64 Q1521.42 1757.18 1521.42 1764.31 Q1521.42 1771.42 1523.23 1774.99 Q1525.06 1778.53 1528.67 1778.53 Q1532.3 1778.53 1534.11 1774.99 Q1535.94 1771.42 1535.94 1764.31 Q1535.94 1757.18 1534.11 1753.64 Q1532.3 1750.08 1528.67 1750.08 M1528.67 1746.37 Q1534.48 1746.37 1537.53 1750.98 Q1540.61 1755.56 1540.61 1764.31 Q1540.61 1773.04 1537.53 1777.65 Q1534.48 1782.23 1528.67 1782.23 Q1522.86 1782.23 1519.78 1777.65 Q1516.72 1773.04 1516.72 1764.31 Q1516.72 1755.56 1519.78 1750.98 Q1522.86 1746.37 1528.67 1746.37 Z" fill="#000000" fill-rule="nonzero" fill-opacity="1" /><path clip-path="url(#clip810)" d="M1558.83 1750.08 Q1555.22 1750.08 1553.39 1753.64 Q1551.58 1757.18 1551.58 1764.31 Q1551.58 1771.42 1553.39 1774.99 Q1555.22 1778.53 1558.83 1778.53 Q1562.46 1778.53 1564.27 1774.99 Q1566.1 1771.42 1566.1 1764.31 Q1566.1 1757.18 1564.27 1753.64 Q1562.46 1750.08 1558.83 1750.08 M1558.83 1746.37 Q1564.64 1746.37 1567.7 1750.98 Q1570.77 1755.56 1570.77 1764.31 Q1570.77 1773.04 1567.7 1777.65 Q1564.64 1782.23 1558.83 1782.23 Q1553.02 1782.23 1549.94 1777.65 Q1546.89 1773.04 1546.89 1764.31 Q1546.89 1755.56 1549.94 1750.98 Q1553.02 1746.37 1558.83 1746.37 Z" fill="#000000" fill-rule="nonzero" fill-opacity="1" /><path clip-path="url(#clip810)" d="M1591.84 1751.07 L1580.03 1769.52 L1591.84 1769.52 L1591.84 1751.07 M1590.61 1747 L1596.49 1747 L1596.49 1769.52 L1601.42 1769.52 L1601.42 1773.41 L1596.49 1773.41 L1596.49 1781.56 L1591.84 1781.56 L1591.84 1773.41 L1576.24 1773.41 L1576.24 1768.9 L1590.61 1747 Z" fill="#000000" fill-rule="nonzero" fill-opacity="1" /><path clip-path="url(#clip810)" d="M1405.59 1393.87 L1435.27 1393.87 L1435.27 1397.81 L1405.59 1397.81 L1405.59 1393.87 Z" fill="#000000" fill-rule="nonzero" fill-opacity="1" /><path clip-path="url(#clip810)" d="M1455.36 1379.22 Q1451.75 1379.22 1449.92 1382.78 Q1448.11 1386.32 1448.11 1393.45 Q1448.11 1400.56 1449.92 1404.12 Q1451.75 1407.67 1455.36 1407.67 Q1458.99 1407.67 1460.8 1404.12 Q1462.63 1400.56 1462.63 1393.45 Q1462.63 1386.32 1460.8 1382.78 Q1458.99 1379.22 1455.36 1379.22 M1455.36 1375.51 Q1461.17 1375.51 1464.22 1380.12 Q1467.3 1384.7 1467.3 1393.45 Q1467.3 1402.18 1464.22 1406.79 Q1461.17 1411.37 1455.36 1411.37 Q1449.55 1411.37 1446.47 1406.79 Q1443.41 1402.18 1443.41 1393.45 Q1443.41 1384.7 1446.47 1380.12 Q1449.55 1375.51 1455.36 1375.51 Z" fill="#000000" fill-rule="nonzero" fill-opacity="1" /><path clip-path="url(#clip810)" d="M1475.52 1404.82 L1480.4 1404.82 L1480.4 1410.7 L1475.52 1410.7 L1475.52 1404.82 Z" fill="#000000" fill-rule="nonzero" fill-opacity="1" /><path clip-path="url(#clip810)" d="M1500.59 1379.22 Q1496.98 1379.22 1495.15 1382.78 Q1493.34 1386.32 1493.34 1393.45 Q1493.34 1400.56 1495.15 1404.12 Q1496.98 1407.67 1500.59 1407.67 Q1504.22 1407.67 1506.03 1404.12 Q1507.86 1400.56 1507.86 1393.45 Q1507.86 1386.32 1506.03 1382.78 Q1504.22 1379.22 1500.59 1379.22 M1500.59 1375.51 Q1506.4 1375.51 1509.45 1380.12 Q1512.53 1384.7 1512.53 1393.45 Q1512.53 1402.18 1509.45 1406.79 Q1506.4 1411.37 1500.59 1411.37 Q1494.78 1411.37 1491.7 1406.79 Q1488.64 1402.18 1488.64 1393.45 Q1488.64 1384.7 1491.7 1380.12 Q1494.78 1375.51 1500.59 1375.51 Z" fill="#000000" fill-rule="nonzero" fill-opacity="1" /><path clip-path="url(#clip810)" d="M1530.75 1379.22 Q1527.14 1379.22 1525.31 1382.78 Q1523.51 1386.32 1523.51 1393.45 Q1523.51 1400.56 1525.31 1404.12 Q1527.14 1407.67 1530.75 1407.67 Q1534.39 1407.67 1536.19 1404.12 Q1538.02 1400.56 1538.02 1393.45 Q1538.02 1386.32 1536.19 1382.78 Q1534.39 1379.22 1530.75 1379.22 M1530.75 1375.51 Q1536.56 1375.51 1539.62 1380.12 Q1542.7 1384.7 1542.7 1393.45 Q1542.7 1402.18 1539.62 1406.79 Q1536.56 1411.37 1530.75 1411.37 Q1524.94 1411.37 1521.86 1406.79 Q1518.81 1402.18 1518.81 1393.45 Q1518.81 1384.7 1521.86 1380.12 Q1524.94 1375.51 1530.75 1375.51 Z" fill="#000000" fill-rule="nonzero" fill-opacity="1" /><path clip-path="url(#clip810)" d="M1560.91 1379.22 Q1557.3 1379.22 1555.47 1382.78 Q1553.67 1386.32 1553.67 1393.45 Q1553.67 1400.56 1555.47 1404.12 Q1557.3 1407.67 1560.91 1407.67 Q1564.55 1407.67 1566.35 1404.12 Q1568.18 1400.56 1568.18 1393.45 Q1568.18 1386.32 1566.35 1382.78 Q1564.55 1379.22 1560.91 1379.22 M1560.91 1375.51 Q1566.72 1375.51 1569.78 1380.12 Q1572.86 1384.7 1572.86 1393.45 Q1572.86 1402.18 1569.78 1406.79 Q1566.72 1411.37 1560.91 1411.37 Q1555.1 1411.37 1552.02 1406.79 Q1548.97 1402.18 1548.97 1393.45 Q1548.97 1384.7 1552.02 1380.12 Q1555.1 1375.51 1560.91 1375.51 Z" fill="#000000" fill-rule="nonzero" fill-opacity="1" /><path clip-path="url(#clip810)" d="M1585.1 1406.76 L1601.42 1406.76 L1601.42 1410.7 L1579.48 1410.7 L1579.48 1406.76 Q1582.14 1404.01 1586.72 1399.38 Q1591.33 1394.73 1592.51 1393.38 Q1594.76 1390.86 1595.63 1389.12 Q1596.54 1387.37 1596.54 1385.68 Q1596.54 1382.92 1594.59 1381.18 Q1592.67 1379.45 1589.57 1379.45 Q1587.37 1379.45 1584.92 1380.21 Q1582.49 1380.98 1579.71 1382.53 L1579.71 1377.81 Q1582.53 1376.67 1584.99 1376.09 Q1587.44 1375.51 1589.48 1375.51 Q1594.85 1375.51 1598.04 1378.2 Q1601.24 1380.88 1601.24 1385.37 Q1601.24 1387.5 1600.43 1389.43 Q1599.64 1391.32 1597.53 1393.92 Q1596.95 1394.59 1593.85 1397.81 Q1590.75 1401 1585.1 1406.76 Z" fill="#000000" fill-rule="nonzero" fill-opacity="1" /><path clip-path="url(#clip810)" d="M1453.76 1008.36 Q1450.15 1008.36 1448.32 1011.92 Q1446.52 1015.46 1446.52 1022.59 Q1446.52 1029.7 1448.32 1033.26 Q1450.15 1036.81 1453.76 1036.81 Q1457.39 1036.81 1459.2 1033.26 Q1461.03 1029.7 1461.03 1022.59 Q1461.03 1015.46 1459.2 1011.92 Q1457.39 1008.36 1453.76 1008.36 M1453.76 1004.65 Q1459.57 1004.65 1462.63 1009.26 Q1465.7 1013.84 1465.7 1022.59 Q1465.7 1031.32 1462.63 1035.93 Q1459.57 1040.51 1453.76 1040.51 Q1447.95 1040.51 1444.87 1035.93 Q1441.82 1031.32 1441.82 1022.59 Q1441.82 1013.84 1444.87 1009.26 Q1447.95 1004.65 1453.76 1004.65 Z" fill="#000000" fill-rule="nonzero" fill-opacity="1" /><path clip-path="url(#clip810)" d="M1473.92 1033.96 L1478.81 1033.96 L1478.81 1039.84 L1473.92 1039.84 L1473.92 1033.96 Z" fill="#000000" fill-rule="nonzero" fill-opacity="1" /><path clip-path="url(#clip810)" d="M1498.99 1008.36 Q1495.38 1008.36 1493.55 1011.92 Q1491.75 1015.46 1491.75 1022.59 Q1491.75 1029.7 1493.55 1033.26 Q1495.38 1036.81 1498.99 1036.81 Q1502.63 1036.81 1504.43 1033.26 Q1506.26 1029.7 1506.26 1022.59 Q1506.26 1015.46 1504.43 1011.92 Q1502.63 1008.36 1498.99 1008.36 M1498.99 1004.65 Q1504.8 1004.65 1507.86 1009.26 Q1510.94 1013.84 1510.94 1022.59 Q1510.94 1031.32 1507.86 1035.93 Q1504.8 1040.51 1498.99 1040.51 Q1493.18 1040.51 1490.1 1035.93 Q1487.05 1031.32 1487.05 1022.59 Q1487.05 1013.84 1490.1 1009.26 Q1493.18 1004.65 1498.99 1004.65 Z" fill="#000000" fill-rule="nonzero" fill-opacity="1" /><path clip-path="url(#clip810)" d="M1529.15 1008.36 Q1525.54 1008.36 1523.71 1011.92 Q1521.91 1015.46 1521.91 1022.59 Q1521.91 1029.7 1523.71 1033.26 Q1525.54 1036.81 1529.15 1036.81 Q1532.79 1036.81 1534.59 1033.26 Q1536.42 1029.7 1536.42 1022.59 Q1536.42 1015.46 1534.59 1011.92 Q1532.79 1008.36 1529.15 1008.36 M1529.15 1004.65 Q1534.96 1004.65 1538.02 1009.26 Q1541.1 1013.84 1541.1 1022.59 Q1541.1 1031.32 1538.02 1035.93 Q1534.96 1040.51 1529.15 1040.51 Q1523.34 1040.51 1520.26 1035.93 Q1517.21 1031.32 1517.21 1022.59 Q1517.21 1013.84 1520.26 1009.26 Q1523.34 1004.65 1529.15 1004.65 Z" fill="#000000" fill-rule="nonzero" fill-opacity="1" /><path clip-path="url(#clip810)" d="M1559.32 1008.36 Q1555.7 1008.36 1553.88 1011.92 Q1552.07 1015.46 1552.07 1022.59 Q1552.07 1029.7 1553.88 1033.26 Q1555.7 1036.81 1559.32 1036.81 Q1562.95 1036.81 1564.76 1033.26 Q1566.58 1029.7 1566.58 1022.59 Q1566.58 1015.46 1564.76 1011.92 Q1562.95 1008.36 1559.32 1008.36 M1559.32 1004.65 Q1565.13 1004.65 1568.18 1009.26 Q1571.26 1013.84 1571.26 1022.59 Q1571.26 1031.32 1568.18 1035.93 Q1565.13 1040.51 1559.32 1040.51 Q1553.51 1040.51 1550.43 1035.93 Q1547.37 1031.32 1547.37 1022.59 Q1547.37 1013.84 1550.43 1009.26 Q1553.51 1004.65 1559.32 1004.65 Z" fill="#000000" fill-rule="nonzero" fill-opacity="1" /><path clip-path="url(#clip810)" d="M1589.48 1008.36 Q1585.87 1008.36 1584.04 1011.92 Q1582.23 1015.46 1582.23 1022.59 Q1582.23 1029.7 1584.04 1033.26 Q1585.87 1036.81 1589.48 1036.81 Q1593.11 1036.81 1594.92 1033.26 Q1596.75 1029.7 1596.75 1022.59 Q1596.75 1015.46 1594.92 1011.92 Q1593.11 1008.36 1589.48 1008.36 M1589.48 1004.65 Q1595.29 1004.65 1598.34 1009.26 Q1601.42 1013.84 1601.42 1022.59 Q1601.42 1031.32 1598.34 1035.93 Q1595.29 1040.51 1589.48 1040.51 Q1583.67 1040.51 1580.59 1035.93 Q1577.53 1031.32 1577.53 1022.59 Q1577.53 1013.84 1580.59 1009.26 Q1583.67 1004.65 1589.48 1004.65 Z" fill="#000000" fill-rule="nonzero" fill-opacity="1" /><path clip-path="url(#clip810)" d="M1455.36 637.495 Q1451.75 637.495 1449.92 641.06 Q1448.11 644.602 1448.11 651.731 Q1448.11 658.838 1449.92 662.403 Q1451.75 665.944 1455.36 665.944 Q1458.99 665.944 1460.8 662.403 Q1462.63 658.838 1462.63 651.731 Q1462.63 644.602 1460.8 641.06 Q1458.99 637.495 1455.36 637.495 M1455.36 633.792 Q1461.17 633.792 1464.22 638.398 Q1467.3 642.982 1467.3 651.731 Q1467.3 660.458 1464.22 665.065 Q1461.17 669.648 1455.36 669.648 Q1449.55 669.648 1446.47 665.065 Q1443.41 660.458 1443.41 651.731 Q1443.41 642.982 1446.47 638.398 Q1449.55 633.792 1455.36 633.792 Z" fill="#000000" fill-rule="nonzero" fill-opacity="1" /><path clip-path="url(#clip810)" d="M1475.52 663.097 L1480.4 663.097 L1480.4 668.977 L1475.52 668.977 L1475.52 663.097 Z" fill="#000000" fill-rule="nonzero" fill-opacity="1" /><path clip-path="url(#clip810)" d="M1500.59 637.495 Q1496.98 637.495 1495.15 641.06 Q1493.34 644.602 1493.34 651.731 Q1493.34 658.838 1495.15 662.403 Q1496.98 665.944 1500.59 665.944 Q1504.22 665.944 1506.03 662.403 Q1507.86 658.838 1507.86 651.731 Q1507.86 644.602 1506.03 641.06 Q1504.22 637.495 1500.59 637.495 M1500.59 633.792 Q1506.4 633.792 1509.45 638.398 Q1512.53 642.982 1512.53 651.731 Q1512.53 660.458 1509.45 665.065 Q1506.4 669.648 1500.59 669.648 Q1494.78 669.648 1491.7 665.065 Q1488.64 660.458 1488.64 651.731 Q1488.64 642.982 1491.7 638.398 Q1494.78 633.792 1500.59 633.792 Z" fill="#000000" fill-rule="nonzero" fill-opacity="1" /><path clip-path="url(#clip810)" d="M1530.75 637.495 Q1527.14 637.495 1525.31 641.06 Q1523.51 644.602 1523.51 651.731 Q1523.51 658.838 1525.31 662.403 Q1527.14 665.944 1530.75 665.944 Q1534.39 665.944 1536.19 662.403 Q1538.02 658.838 1538.02 651.731 Q1538.02 644.602 1536.19 641.06 Q1534.39 637.495 1530.75 637.495 M1530.75 633.792 Q1536.56 633.792 1539.62 638.398 Q1542.7 642.982 1542.7 651.731 Q1542.7 660.458 1539.62 665.065 Q1536.56 669.648 1530.75 669.648 Q1524.94 669.648 1521.86 665.065 Q1518.81 660.458 1518.81 651.731 Q1518.81 642.982 1521.86 638.398 Q1524.94 633.792 1530.75 633.792 Z" fill="#000000" fill-rule="nonzero" fill-opacity="1" /><path clip-path="url(#clip810)" d="M1560.91 637.495 Q1557.3 637.495 1555.47 641.06 Q1553.67 644.602 1553.67 651.731 Q1553.67 658.838 1555.47 662.403 Q1557.3 665.944 1560.91 665.944 Q1564.55 665.944 1566.35 662.403 Q1568.18 658.838 1568.18 651.731 Q1568.18 644.602 1566.35 641.06 Q1564.55 637.495 1560.91 637.495 M1560.91 633.792 Q1566.72 633.792 1569.78 638.398 Q1572.86 642.982 1572.86 651.731 Q1572.86 660.458 1569.78 665.065 Q1566.72 669.648 1560.91 669.648 Q1555.1 669.648 1552.02 665.065 Q1548.97 660.458 1548.97 651.731 Q1548.97 642.982 1552.02 638.398 Q1555.1 633.792 1560.91 633.792 Z" fill="#000000" fill-rule="nonzero" fill-opacity="1" /><path clip-path="url(#clip810)" d="M1585.1 665.042 L1601.42 665.042 L1601.42 668.977 L1579.48 668.977 L1579.48 665.042 Q1582.14 662.287 1586.72 657.657 Q1591.33 653.005 1592.51 651.662 Q1594.76 649.139 1595.63 647.403 Q1596.54 645.644 1596.54 643.954 Q1596.54 641.199 1594.59 639.463 Q1592.67 637.727 1589.57 637.727 Q1587.37 637.727 1584.92 638.491 Q1582.49 639.255 1579.71 640.806 L1579.71 636.083 Q1582.53 634.949 1584.99 634.37 Q1587.44 633.792 1589.48 633.792 Q1594.85 633.792 1598.04 636.477 Q1601.24 639.162 1601.24 643.653 Q1601.24 645.782 1600.43 647.704 Q1599.64 649.602 1597.53 652.194 Q1596.95 652.866 1593.85 656.083 Q1590.75 659.278 1585.1 665.042 Z" fill="#000000" fill-rule="nonzero" fill-opacity="1" /><path clip-path="url(#clip810)" d="M1453.27 266.634 Q1449.66 266.634 1447.83 270.199 Q1446.03 273.741 1446.03 280.871 Q1446.03 287.977 1447.83 291.542 Q1449.66 295.083 1453.27 295.083 Q1456.91 295.083 1458.71 291.542 Q1460.54 287.977 1460.54 280.871 Q1460.54 273.741 1458.71 270.199 Q1456.91 266.634 1453.27 266.634 M1453.27 262.931 Q1459.08 262.931 1462.14 267.537 Q1465.22 272.121 1465.22 280.871 Q1465.22 289.597 1462.14 294.204 Q1459.08 298.787 1453.27 298.787 Q1447.46 298.787 1444.39 294.204 Q1441.33 289.597 1441.33 280.871 Q1441.33 272.121 1444.39 267.537 Q1447.46 262.931 1453.27 262.931 Z" fill="#000000" fill-rule="nonzero" fill-opacity="1" /><path clip-path="url(#clip810)" d="M1473.44 292.236 L1478.32 292.236 L1478.32 298.116 L1473.44 298.116 L1473.44 292.236 Z" fill="#000000" fill-rule="nonzero" fill-opacity="1" /><path clip-path="url(#clip810)" d="M1498.51 266.634 Q1494.89 266.634 1493.07 270.199 Q1491.26 273.741 1491.26 280.871 Q1491.26 287.977 1493.07 291.542 Q1494.89 295.083 1498.51 295.083 Q1502.14 295.083 1503.95 291.542 Q1505.77 287.977 1505.77 280.871 Q1505.77 273.741 1503.95 270.199 Q1502.14 266.634 1498.51 266.634 M1498.51 262.931 Q1504.32 262.931 1507.37 267.537 Q1510.45 272.121 1510.45 280.871 Q1510.45 289.597 1507.37 294.204 Q1504.32 298.787 1498.51 298.787 Q1492.7 298.787 1489.62 294.204 Q1486.56 289.597 1486.56 280.871 Q1486.56 272.121 1489.62 267.537 Q1492.7 262.931 1498.51 262.931 Z" fill="#000000" fill-rule="nonzero" fill-opacity="1" /><path clip-path="url(#clip810)" d="M1528.67 266.634 Q1525.06 266.634 1523.23 270.199 Q1521.42 273.741 1521.42 280.871 Q1521.42 287.977 1523.23 291.542 Q1525.06 295.083 1528.67 295.083 Q1532.3 295.083 1534.11 291.542 Q1535.94 287.977 1535.94 280.871 Q1535.94 273.741 1534.11 270.199 Q1532.3 266.634 1528.67 266.634 M1528.67 262.931 Q1534.48 262.931 1537.53 267.537 Q1540.61 272.121 1540.61 280.871 Q1540.61 289.597 1537.53 294.204 Q1534.48 298.787 1528.67 298.787 Q1522.86 298.787 1519.78 294.204 Q1516.72 289.597 1516.72 280.871 Q1516.72 272.121 1519.78 267.537 Q1522.86 262.931 1528.67 262.931 Z" fill="#000000" fill-rule="nonzero" fill-opacity="1" /><path clip-path="url(#clip810)" d="M1558.83 266.634 Q1555.22 266.634 1553.39 270.199 Q1551.58 273.741 1551.58 280.871 Q1551.58 287.977 1553.39 291.542 Q1555.22 295.083 1558.83 295.083 Q1562.46 295.083 1564.27 291.542 Q1566.1 287.977 1566.1 280.871 Q1566.1 273.741 1564.27 270.199 Q1562.46 266.634 1558.83 266.634 M1558.83 262.931 Q1564.64 262.931 1567.7 267.537 Q1570.77 272.121 1570.77 280.871 Q1570.77 289.597 1567.7 294.204 Q1564.64 298.787 1558.83 298.787 Q1553.02 298.787 1549.94 294.204 Q1546.89 289.597 1546.89 280.871 Q1546.89 272.121 1549.94 267.537 Q1553.02 262.931 1558.83 262.931 Z" fill="#000000" fill-rule="nonzero" fill-opacity="1" /><path clip-path="url(#clip810)" d="M1591.84 267.63 L1580.03 286.079 L1591.84 286.079 L1591.84 267.63 M1590.61 263.556 L1596.49 263.556 L1596.49 286.079 L1601.42 286.079 L1601.42 289.968 L1596.49 289.968 L1596.49 298.116 L1591.84 298.116 L1591.84 289.968 L1576.24 289.968 L1576.24 285.454 L1590.61 263.556 Z" fill="#000000" fill-rule="nonzero" fill-opacity="1" /><path clip-path="url(#clip810)" d="M2101.05 12.096 L2139.29 12.096 L2139.29 18.9825 L2109.23 18.9825 L2109.23 36.8875 L2138.03 36.8875 L2138.03 43.7741 L2109.23 43.7741 L2109.23 65.6895 L2140.02 65.6895 L2140.02 72.576 L2101.05 72.576 L2101.05 12.096 Z" fill="#000000" fill-rule="nonzero" fill-opacity="1" /><path clip-path="url(#clip810)" d="M2179.43 34.1734 Q2178.18 33.4443 2176.68 33.1202 Q2175.22 32.7556 2173.44 32.7556 Q2167.12 32.7556 2163.72 36.8875 Q2160.35 40.9789 2160.35 48.6757 L2160.35 72.576 L2152.86 72.576 L2152.86 27.2059 L2160.35 27.2059 L2160.35 34.2544 Q2162.7 30.1225 2166.47 28.1376 Q2170.24 26.1121 2175.63 26.1121 Q2176.4 26.1121 2177.33 26.2337 Q2178.26 26.3147 2179.39 26.5172 L2179.43 34.1734 Z" fill="#000000" fill-rule="nonzero" fill-opacity="1" /><path clip-path="url(#clip810)" d="M2212.08 34.1734 Q2210.83 33.4443 2209.33 33.1202 Q2207.87 32.7556 2206.09 32.7556 Q2199.77 32.7556 2196.37 36.8875 Q2193.01 40.9789 2193.01 48.6757 L2193.01 72.576 L2185.51 72.576 L2185.51 27.2059 L2193.01 27.2059 L2193.01 34.2544 Q2195.35 30.1225 2199.12 28.1376 Q2202.89 26.1121 2208.28 26.1121 Q2209.05 26.1121 2209.98 26.2337 Q2210.91 26.3147 2212.04 26.5172 L2212.08 34.1734 Z" fill="#000000" fill-rule="nonzero" fill-opacity="1" /><path clip-path="url(#clip810)" d="M2235.66 32.4315 Q2229.67 32.4315 2226.18 37.1306 Q2222.7 41.7891 2222.7 49.9314 Q2222.7 58.0738 2226.14 62.7728 Q2229.63 67.4314 2235.66 67.4314 Q2241.62 67.4314 2245.1 62.7323 Q2248.58 58.0333 2248.58 49.9314 Q2248.58 41.8701 2245.1 37.1711 Q2241.62 32.4315 2235.66 32.4315 M2235.66 26.1121 Q2245.38 26.1121 2250.93 32.4315 Q2256.48 38.7509 2256.48 49.9314 Q2256.48 61.0714 2250.93 67.4314 Q2245.38 73.7508 2235.66 73.7508 Q2225.9 73.7508 2220.35 67.4314 Q2214.84 61.0714 2214.84 49.9314 Q2214.84 38.7509 2220.35 32.4315 Q2225.9 26.1121 2235.66 26.1121 Z" fill="#000000" fill-rule="nonzero" fill-opacity="1" /><path clip-path="url(#clip810)" d="M2295.13 34.1734 Q2293.87 33.4443 2292.37 33.1202 Q2290.92 32.7556 2289.13 32.7556 Q2282.81 32.7556 2279.41 36.8875 Q2276.05 40.9789 2276.05 48.6757 L2276.05 72.576 L2268.55 72.576 L2268.55 27.2059 L2276.05 27.2059 L2276.05 34.2544 Q2278.4 30.1225 2282.17 28.1376 Q2285.93 26.1121 2291.32 26.1121 Q2292.09 26.1121 2293.02 26.2337 Q2293.95 26.3147 2295.09 26.5172 L2295.13 34.1734 Z" fill="#000000" fill-rule="nonzero" fill-opacity="1" /><polyline clip-path="url(#clip813)" style="stroke:#009af9; stroke-linecap:round; stroke-linejoin:round; stroke-width:4; stroke-opacity:1; fill:none" points="1674.82,177.382 1685.39,931.911 1695.96,1352.64 1706.53,1533.96 1717.1,1553.06 1727.67,1466.97 1738.24,1321.44 1748.82,1154.48 1759.39,988.824 1769.96,842.595 1780.53,726.688 1791.1,645.974 1801.67,601.364 1812.24,594.433 1822.81,617.882 1833.39,667.399 1843.96,739.583 1854.53,825.68 1865.1,919.615 1875.67,1015.2 1886.24,1106.47 1896.81,1190.66 1907.38,1263.05 1917.95,1319.43 1928.53,1360.47 1939.1,1384.38 1949.67,1388.27 1960.24,1377.22 1970.81,1348.57 1981.38,1304.92 1991.95,1250.82 2002.52,1188.09 2013.09,1119.79 2023.67,1046.69 2034.24,974.139 2044.81,903.665 2055.38,838.19 2065.95,778.811 2076.52,732.229 2087.09,695.413 2097.66,670.336 2108.23,658.5 2118.81,661.939 2129.38,675.626 2139.95,704.493 2150.52,741.862 2161.09,791.278 2171.66,846.94 2182.23,910.292 2192.8,977.445 2203.37,1043.73 2213.95,1111.11 2224.52,1172.86 2235.09,1229.76 2245.66,1279.18 2256.23,1318.45 2266.8,1348.26 2277.37,1362.85 2287.94,1367.68 2298.51,1357.78 2309.09,1334.13 2319.66,1298.6 2330.23,1251.83 2340.8,1195.06 2351.37,1131.15 2361.94,1061.09 2372.51,986.471 2383.08,916.423 2393.65,847.333 2404.23,784.046 2414.8,728.894 2425.37,685.284 2435.94,657.031 2446.51,644.69 2457.08,647.649 2467.65,668.984 2478.22,707.753 2488.79,763.315 2499.37,833.335 2509.94,916.21 2520.51,1008.33 2531.08,1100.16 2541.65,1194.51 2552.22,1280.03 2562.79,1349.55 2573.36,1400.01 2583.94,1426.39 2594.51,1419.11 2605.08,1376.76 2615.65,1299.82 2626.22,1184.98 2636.79,1043.45 2647.36,880.836 2657.93,716.642 2668.5,573.996 2679.08,488.436 2689.65,505.884 2700.22,680.875 2710.79,1092.84 2721.36,1830.39 "/>
</svg>
