<?xml version="1.0" encoding="utf-8"?>
<svg xmlns="http://www.w3.org/2000/svg" xmlns:xlink="http://www.w3.org/1999/xlink" width="1000" height="700" viewBox="0 0 4000 2800">
<defs>
  <clipPath id="clip560">
    <rect x="0" y="0" width="4000" height="2800"/>
  </clipPath>
</defs>
<path clip-path="url(#clip560)" d="M0 2800 L4000 2800 L4000 0 L0 0  Z" fill="#ffffff" fill-rule="evenodd" fill-opacity="1"/>
<defs>
  <clipPath id="clip561">
    <rect x="800" y="0" width="2801" height="2800"/>
  </clipPath>
</defs>
<path clip-path="url(#clip560)" d="M237.409 2607.08 L3952.76 2607.08 L3952.76 126.496 L237.409 126.496  Z" fill="#ffffff" fill-rule="evenodd" fill-opacity="1"/>
<defs>
  <clipPath id="clip562">
    <rect x="237" y="126" width="3716" height="2482"/>
  </clipPath>
</defs>
<polyline clip-path="url(#clip562)" style="stroke:#000000; stroke-linecap:round; stroke-linejoin:round; stroke-width:2; stroke-opacity:0.1; fill:none" points="237.409,2607.08 237.409,126.496 "/>
<polyline clip-path="url(#clip562)" style="stroke:#000000; stroke-linecap:round; stroke-linejoin:round; stroke-width:2; stroke-opacity:0.1; fill:none" points="980.478,2607.08 980.478,126.496 "/>
<polyline clip-path="url(#clip562)" style="stroke:#000000; stroke-linecap:round; stroke-linejoin:round; stroke-width:2; stroke-opacity:0.1; fill:none" points="1723.55,2607.08 1723.55,126.496 "/>
<polyline clip-path="url(#clip562)" style="stroke:#000000; stroke-linecap:round; stroke-linejoin:round; stroke-width:2; stroke-opacity:0.1; fill:none" points="2466.62,2607.08 2466.62,126.496 "/>
<polyline clip-path="url(#clip562)" style="stroke:#000000; stroke-linecap:round; stroke-linejoin:round; stroke-width:2; stroke-opacity:0.1; fill:none" points="3209.69,2607.08 3209.69,126.496 "/>
<polyline clip-path="url(#clip562)" style="stroke:#000000; stroke-linecap:round; stroke-linejoin:round; stroke-width:2; stroke-opacity:0.1; fill:none" points="3952.76,2607.08 3952.76,126.496 "/>
<polyline clip-path="url(#clip560)" style="stroke:#000000; stroke-linecap:round; stroke-linejoin:round; stroke-width:4; stroke-opacity:1; fill:none" points="237.409,2607.08 3952.76,2607.08 "/>
<polyline clip-path="url(#clip560)" style="stroke:#000000; stroke-linecap:round; stroke-linejoin:round; stroke-width:4; stroke-opacity:1; fill:none" points="237.409,2607.08 237.409,2588.18 "/>
<polyline clip-path="url(#clip560)" style="stroke:#000000; stroke-linecap:round; stroke-linejoin:round; stroke-width:4; stroke-opacity:1; fill:none" points="980.478,2607.08 980.478,2588.18 "/>
<polyline clip-path="url(#clip560)" style="stroke:#000000; stroke-linecap:round; stroke-linejoin:round; stroke-width:4; stroke-opacity:1; fill:none" points="1723.55,2607.08 1723.55,2588.18 "/>
<polyline clip-path="url(#clip560)" style="stroke:#000000; stroke-linecap:round; stroke-linejoin:round; stroke-width:4; stroke-opacity:1; fill:none" points="2466.62,2607.08 2466.62,2588.18 "/>
<polyline clip-path="url(#clip560)" style="stroke:#000000; stroke-linecap:round; stroke-linejoin:round; stroke-width:4; stroke-opacity:1; fill:none" points="3209.69,2607.08 3209.69,2588.18 "/>
<polyline clip-path="url(#clip560)" style="stroke:#000000; stroke-linecap:round; stroke-linejoin:round; stroke-width:4; stroke-opacity:1; fill:none" points="3952.76,2607.08 3952.76,2588.18 "/>
<path clip-path="url(#clip560)" d="M237.409 2650.79 Q233.798 2650.79 231.969 2654.36 Q230.164 2657.9 230.164 2665.03 Q230.164 2672.14 231.969 2675.7 Q233.798 2679.24 237.409 2679.24 Q241.043 2679.24 242.849 2675.7 Q244.677 2672.14 244.677 2665.03 Q244.677 2657.9 242.849 2654.36 Q241.043 2650.79 237.409 2650.79 M237.409 2647.09 Q243.219 2647.09 246.275 2651.7 Q249.353 2656.28 249.353 2665.03 Q249.353 2673.76 246.275 2678.36 Q243.219 2682.95 237.409 2682.95 Q231.599 2682.95 228.52 2678.36 Q225.465 2673.76 225.465 2665.03 Q225.465 2656.28 228.52 2651.7 Q231.599 2647.09 237.409 2647.09 Z" fill="#000000" fill-rule="nonzero" fill-opacity="1" /><path clip-path="url(#clip560)" d="M959.252 2678.34 L975.571 2678.34 L975.571 2682.28 L953.627 2682.28 L953.627 2678.34 Q956.289 2675.59 960.872 2670.96 Q965.478 2666.3 966.659 2664.96 Q968.904 2662.44 969.784 2660.7 Q970.687 2658.94 970.687 2657.25 Q970.687 2654.5 968.742 2652.76 Q966.821 2651.03 963.719 2651.03 Q961.52 2651.03 959.066 2651.79 Q956.636 2652.55 953.858 2654.1 L953.858 2649.38 Q956.682 2648.25 959.136 2647.67 Q961.59 2647.09 963.627 2647.09 Q968.997 2647.09 972.191 2649.78 Q975.386 2652.46 975.386 2656.95 Q975.386 2659.08 974.576 2661 Q973.789 2662.9 971.682 2665.49 Q971.103 2666.16 968.002 2669.38 Q964.9 2672.58 959.252 2678.34 Z" fill="#000000" fill-rule="nonzero" fill-opacity="1" /><path clip-path="url(#clip560)" d="M995.386 2650.79 Q991.775 2650.79 989.946 2654.36 Q988.14 2657.9 988.14 2665.03 Q988.14 2672.14 989.946 2675.7 Q991.775 2679.24 995.386 2679.24 Q999.02 2679.24 1000.83 2675.7 Q1002.65 2672.14 1002.65 2665.03 Q1002.65 2657.9 1000.83 2654.36 Q999.02 2650.79 995.386 2650.79 M995.386 2647.09 Q1001.2 2647.09 1004.25 2651.7 Q1007.33 2656.28 1007.33 2665.03 Q1007.33 2673.76 1004.25 2678.36 Q1001.2 2682.95 995.386 2682.95 Q989.576 2682.95 986.497 2678.36 Q983.441 2673.76 983.441 2665.03 Q983.441 2656.28 986.497 2651.7 Q989.576 2647.09 995.386 2647.09 Z" fill="#000000" fill-rule="nonzero" fill-opacity="1" /><path clip-path="url(#clip560)" d="M1711.72 2651.79 L1699.91 2670.24 L1711.72 2670.24 L1711.72 2651.79 M1710.49 2647.72 L1716.37 2647.72 L1716.37 2670.24 L1721.3 2670.24 L1721.3 2674.13 L1716.37 2674.13 L1716.37 2682.28 L1711.72 2682.28 L1711.72 2674.13 L1696.12 2674.13 L1696.12 2669.61 L1710.49 2647.72 Z" fill="#000000" fill-rule="nonzero" fill-opacity="1" /><path clip-path="url(#clip560)" d="M1739.03 2650.79 Q1735.42 2650.79 1733.59 2654.36 Q1731.79 2657.9 1731.79 2665.03 Q1731.79 2672.14 1733.59 2675.7 Q1735.42 2679.24 1739.03 2679.24 Q1742.67 2679.24 1744.47 2675.7 Q1746.3 2672.14 1746.3 2665.03 Q1746.3 2657.9 1744.47 2654.36 Q1742.67 2650.79 1739.03 2650.79 M1739.03 2647.09 Q1744.84 2647.09 1747.9 2651.7 Q1750.98 2656.28 1750.98 2665.03 Q1750.98 2673.76 1747.9 2678.36 Q1744.84 2682.95 1739.03 2682.95 Q1733.22 2682.95 1730.14 2678.36 Q1727.09 2673.76 1727.09 2665.03 Q1727.09 2656.28 1730.14 2651.7 Q1733.22 2647.09 1739.03 2647.09 Z" fill="#000000" fill-rule="nonzero" fill-opacity="1" /><path clip-path="url(#clip560)" d="M2452.02 2663.13 Q2448.87 2663.13 2447.02 2665.29 Q2445.19 2667.44 2445.19 2671.19 Q2445.19 2674.91 2447.02 2677.09 Q2448.87 2679.24 2452.02 2679.24 Q2455.17 2679.24 2457 2677.09 Q2458.85 2674.91 2458.85 2671.19 Q2458.85 2667.44 2457 2665.29 Q2455.17 2663.13 2452.02 2663.13 M2461.3 2648.48 L2461.3 2652.74 Q2459.55 2651.91 2457.74 2651.47 Q2455.96 2651.03 2454.2 2651.03 Q2449.57 2651.03 2447.11 2654.15 Q2444.68 2657.28 2444.34 2663.6 Q2445.7 2661.58 2447.76 2660.52 Q2449.82 2659.43 2452.3 2659.43 Q2457.51 2659.43 2460.52 2662.6 Q2463.55 2665.75 2463.55 2671.19 Q2463.55 2676.51 2460.4 2679.73 Q2457.25 2682.95 2452.02 2682.95 Q2446.03 2682.95 2442.86 2678.36 Q2439.68 2673.76 2439.68 2665.03 Q2439.68 2656.84 2443.57 2651.98 Q2447.46 2647.09 2454.01 2647.09 Q2455.77 2647.09 2457.55 2647.44 Q2459.36 2647.79 2461.3 2648.48 Z" fill="#000000" fill-rule="nonzero" fill-opacity="1" /><path clip-path="url(#clip560)" d="M2481.61 2650.79 Q2477.99 2650.79 2476.17 2654.36 Q2474.36 2657.9 2474.36 2665.03 Q2474.36 2672.14 2476.17 2675.7 Q2477.99 2679.24 2481.61 2679.24 Q2485.24 2679.24 2487.05 2675.7 Q2488.87 2672.14 2488.87 2665.03 Q2488.87 2657.9 2487.05 2654.36 Q2485.24 2650.79 2481.61 2650.79 M2481.61 2647.09 Q2487.42 2647.09 2490.47 2651.7 Q2493.55 2656.28 2493.55 2665.03 Q2493.55 2673.76 2490.47 2678.36 Q2487.42 2682.95 2481.61 2682.95 Q2475.8 2682.95 2472.72 2678.36 Q2469.66 2673.76 2469.66 2665.03 Q2469.66 2656.28 2472.72 2651.7 Q2475.8 2647.09 2481.61 2647.09 Z" fill="#000000" fill-rule="nonzero" fill-opacity="1" /><path clip-path="url(#clip560)" d="M3194.56 2665.86 Q3191.23 2665.86 3189.3 2667.65 Q3187.41 2669.43 3187.41 2672.55 Q3187.41 2675.68 3189.3 2677.46 Q3191.23 2679.24 3194.56 2679.24 Q3197.89 2679.24 3199.81 2677.46 Q3201.74 2675.66 3201.74 2672.55 Q3201.74 2669.43 3199.81 2667.65 Q3197.92 2665.86 3194.56 2665.86 M3189.88 2663.87 Q3186.87 2663.13 3185.18 2661.07 Q3183.52 2659.01 3183.52 2656.05 Q3183.52 2651.91 3186.46 2649.5 Q3189.42 2647.09 3194.56 2647.09 Q3199.72 2647.09 3202.66 2649.5 Q3205.6 2651.91 3205.6 2656.05 Q3205.6 2659.01 3203.91 2661.07 Q3202.24 2663.13 3199.26 2663.87 Q3202.64 2664.66 3204.51 2666.95 Q3206.41 2669.24 3206.41 2672.55 Q3206.41 2677.58 3203.33 2680.26 Q3200.28 2682.95 3194.56 2682.95 Q3188.84 2682.95 3185.76 2680.26 Q3182.71 2677.58 3182.71 2672.55 Q3182.71 2669.24 3184.61 2666.95 Q3186.5 2664.66 3189.88 2663.87 M3188.17 2656.49 Q3188.17 2659.17 3189.84 2660.68 Q3191.53 2662.18 3194.56 2662.18 Q3197.57 2662.18 3199.26 2660.68 Q3200.97 2659.17 3200.97 2656.49 Q3200.97 2653.8 3199.26 2652.3 Q3197.57 2650.79 3194.56 2650.79 Q3191.53 2650.79 3189.84 2652.3 Q3188.17 2653.8 3188.17 2656.49 Z" fill="#000000" fill-rule="nonzero" fill-opacity="1" /><path clip-path="url(#clip560)" d="M3224.72 2650.79 Q3221.11 2650.79 3219.28 2654.36 Q3217.48 2657.9 3217.48 2665.03 Q3217.48 2672.14 3219.28 2675.7 Q3221.11 2679.24 3224.72 2679.24 Q3228.36 2679.24 3230.16 2675.7 Q3231.99 2672.14 3231.99 2665.03 Q3231.99 2657.9 3230.16 2654.36 Q3228.36 2650.79 3224.72 2650.79 M3224.72 2647.09 Q3230.53 2647.09 3233.59 2651.7 Q3236.67 2656.28 3236.67 2665.03 Q3236.67 2673.76 3233.59 2678.36 Q3230.53 2682.95 3224.72 2682.95 Q3218.91 2682.95 3215.83 2678.36 Q3212.78 2673.76 3212.78 2665.03 Q3212.78 2656.28 3215.83 2651.7 Q3218.91 2647.09 3224.72 2647.09 Z" fill="#000000" fill-rule="nonzero" fill-opacity="1" /><path clip-path="url(#clip560)" d="M3912.36 2678.34 L3920 2678.34 L3920 2651.98 L3911.69 2653.64 L3911.69 2649.38 L3919.96 2647.72 L3924.63 2647.72 L3924.63 2678.34 L3932.27 2678.34 L3932.27 2682.28 L3912.36 2682.28 L3912.36 2678.34 Z" fill="#000000" fill-rule="nonzero" fill-opacity="1" /><path clip-path="url(#clip560)" d="M3951.71 2650.79 Q3948.1 2650.79 3946.27 2654.36 Q3944.47 2657.9 3944.47 2665.03 Q3944.47 2672.14 3946.27 2675.7 Q3948.1 2679.24 3951.71 2679.24 Q3955.35 2679.24 3957.15 2675.7 Q3958.98 2672.14 3958.98 2665.03 Q3958.98 2657.9 3957.15 2654.36 Q3955.35 2650.79 3951.71 2650.79 M3951.71 2647.09 Q3957.52 2647.09 3960.58 2651.7 Q3963.66 2656.28 3963.66 2665.03 Q3963.66 2673.76 3960.58 2678.36 Q3957.52 2682.95 3951.71 2682.95 Q3945.9 2682.95 3942.83 2678.36 Q3939.77 2673.76 3939.77 2665.03 Q3939.77 2656.28 3942.83 2651.7 Q3945.9 2647.09 3951.71 2647.09 Z" fill="#000000" fill-rule="nonzero" fill-opacity="1" /><path clip-path="url(#clip560)" d="M3981.88 2650.79 Q3978.27 2650.79 3976.44 2654.36 Q3974.63 2657.9 3974.63 2665.03 Q3974.63 2672.14 3976.44 2675.7 Q3978.27 2679.24 3981.88 2679.24 Q3985.51 2679.24 3987.32 2675.7 Q3989.14 2672.14 3989.14 2665.03 Q3989.14 2657.9 3987.32 2654.36 Q3985.51 2650.79 3981.88 2650.79 M3981.88 2647.09 Q3987.69 2647.09 3990.74 2651.7 Q3993.82 2656.28 3993.82 2665.03 Q3993.82 2673.76 3990.74 2678.36 Q3987.69 2682.95 3981.88 2682.95 Q3976.07 2682.95 3972.99 2678.36 Q3969.93 2673.76 3969.93 2665.03 Q3969.93 2656.28 3972.99 2651.7 Q3976.07 2647.09 3981.88 2647.09 Z" fill="#000000" fill-rule="nonzero" fill-opacity="1" /><path clip-path="url(#clip560)" d="M2094.14 2730.17 L2094.14 2740.29 L2106.21 2740.29 L2106.21 2744.84 L2094.14 2744.84 L2094.14 2764.2 Q2094.14 2768.56 2095.32 2769.8 Q2096.53 2771.04 2100.19 2771.04 L2106.21 2771.04 L2106.21 2775.94 L2100.19 2775.94 Q2093.41 2775.94 2090.83 2773.43 Q2088.26 2770.88 2088.26 2764.2 L2088.26 2744.84 L2083.96 2744.84 L2083.96 2740.29 L2088.26 2740.29 L2088.26 2730.17 L2094.14 2730.17 Z" fill="#000000" fill-rule="nonzero" fill-opacity="1" /><polyline clip-path="url(#clip562)" style="stroke:#000000; stroke-linecap:round; stroke-linejoin:round; stroke-width:2; stroke-opacity:0.1; fill:none" points="237.409,2308 3952.76,2308 "/>
<polyline clip-path="url(#clip562)" style="stroke:#000000; stroke-linecap:round; stroke-linejoin:round; stroke-width:2; stroke-opacity:0.1; fill:none" points="237.409,1973.75 3952.76,1973.75 "/>
<polyline clip-path="url(#clip562)" style="stroke:#000000; stroke-linecap:round; stroke-linejoin:round; stroke-width:2; stroke-opacity:0.1; fill:none" points="237.409,1639.5 3952.76,1639.5 "/>
<polyline clip-path="url(#clip562)" style="stroke:#000000; stroke-linecap:round; stroke-linejoin:round; stroke-width:2; stroke-opacity:0.1; fill:none" points="237.409,1305.24 3952.76,1305.24 "/>
<polyline clip-path="url(#clip562)" style="stroke:#000000; stroke-linecap:round; stroke-linejoin:round; stroke-width:2; stroke-opacity:0.1; fill:none" points="237.409,970.989 3952.76,970.989 "/>
<polyline clip-path="url(#clip562)" style="stroke:#000000; stroke-linecap:round; stroke-linejoin:round; stroke-width:2; stroke-opacity:0.1; fill:none" points="237.409,636.734 3952.76,636.734 "/>
<polyline clip-path="url(#clip562)" style="stroke:#000000; stroke-linecap:round; stroke-linejoin:round; stroke-width:2; stroke-opacity:0.1; fill:none" points="237.409,302.48 3952.76,302.48 "/>
<polyline clip-path="url(#clip560)" style="stroke:#000000; stroke-linecap:round; stroke-linejoin:round; stroke-width:4; stroke-opacity:1; fill:none" points="237.409,2607.08 237.409,126.496 "/>
<polyline clip-path="url(#clip560)" style="stroke:#000000; stroke-linecap:round; stroke-linejoin:round; stroke-width:4; stroke-opacity:1; fill:none" points="237.409,2308 256.307,2308 "/>
<polyline clip-path="url(#clip560)" style="stroke:#000000; stroke-linecap:round; stroke-linejoin:round; stroke-width:4; stroke-opacity:1; fill:none" points="237.409,1973.75 256.307,1973.75 "/>
<polyline clip-path="url(#clip560)" style="stroke:#000000; stroke-linecap:round; stroke-linejoin:round; stroke-width:4; stroke-opacity:1; fill:none" points="237.409,1639.5 256.307,1639.5 "/>
<polyline clip-path="url(#clip560)" style="stroke:#000000; stroke-linecap:round; stroke-linejoin:round; stroke-width:4; stroke-opacity:1; fill:none" points="237.409,1305.24 256.307,1305.24 "/>
<polyline clip-path="url(#clip560)" style="stroke:#000000; stroke-linecap:round; stroke-linejoin:round; stroke-width:4; stroke-opacity:1; fill:none" points="237.409,970.989 256.307,970.989 "/>
<polyline clip-path="url(#clip560)" style="stroke:#000000; stroke-linecap:round; stroke-linejoin:round; stroke-width:4; stroke-opacity:1; fill:none" points="237.409,636.734 256.307,636.734 "/>
<polyline clip-path="url(#clip560)" style="stroke:#000000; stroke-linecap:round; stroke-linejoin:round; stroke-width:4; stroke-opacity:1; fill:none" points="237.409,302.48 256.307,302.48 "/>
<path clip-path="url(#clip560)" d="M121.229 2293.8 Q117.618 2293.8 115.789 2297.37 Q113.983 2300.91 113.983 2308.04 Q113.983 2315.15 115.789 2318.71 Q117.618 2322.25 121.229 2322.25 Q124.863 2322.25 126.668 2318.71 Q128.497 2315.15 128.497 2308.04 Q128.497 2300.91 126.668 2297.37 Q124.863 2293.8 121.229 2293.8 M121.229 2290.1 Q127.039 2290.1 130.094 2294.71 Q133.173 2299.29 133.173 2308.04 Q133.173 2316.77 130.094 2321.37 Q127.039 2325.96 121.229 2325.96 Q115.419 2325.96 112.34 2321.37 Q109.284 2316.77 109.284 2308.04 Q109.284 2299.29 112.34 2294.71 Q115.419 2290.1 121.229 2290.1 Z" fill="#000000" fill-rule="nonzero" fill-opacity="1" /><path clip-path="url(#clip560)" d="M141.391 2319.41 L146.275 2319.41 L146.275 2325.28 L141.391 2325.28 L141.391 2319.41 Z" fill="#000000" fill-rule="nonzero" fill-opacity="1" /><path clip-path="url(#clip560)" d="M156.506 2290.72 L174.863 2290.72 L174.863 2294.66 L160.789 2294.66 L160.789 2303.13 Q161.807 2302.78 162.826 2302.62 Q163.844 2302.44 164.863 2302.44 Q170.65 2302.44 174.029 2305.61 Q177.409 2308.78 177.409 2314.2 Q177.409 2319.78 173.937 2322.88 Q170.465 2325.96 164.145 2325.96 Q161.969 2325.96 159.701 2325.59 Q157.455 2325.22 155.048 2324.47 L155.048 2319.78 Q157.131 2320.91 159.353 2321.47 Q161.576 2322.02 164.053 2322.02 Q168.057 2322.02 170.395 2319.91 Q172.733 2317.81 172.733 2314.2 Q172.733 2310.59 170.395 2308.48 Q168.057 2306.37 164.053 2306.37 Q162.178 2306.37 160.303 2306.79 Q158.451 2307.21 156.506 2308.09 L156.506 2290.72 Z" fill="#000000" fill-rule="nonzero" fill-opacity="1" /><path clip-path="url(#clip560)" d="M111.044 1987.1 L118.682 1987.1 L118.682 1960.73 L110.372 1962.4 L110.372 1958.14 L118.636 1956.47 L123.312 1956.47 L123.312 1987.1 L130.951 1987.1 L130.951 1991.03 L111.044 1991.03 L111.044 1987.1 Z" fill="#000000" fill-rule="nonzero" fill-opacity="1" /><path clip-path="url(#clip560)" d="M140.395 1985.15 L145.279 1985.15 L145.279 1991.03 L140.395 1991.03 L140.395 1985.15 Z" fill="#000000" fill-rule="nonzero" fill-opacity="1" /><path clip-path="url(#clip560)" d="M165.465 1959.55 Q161.853 1959.55 160.025 1963.11 Q158.219 1966.66 158.219 1973.79 Q158.219 1980.89 160.025 1984.46 Q161.853 1988 165.465 1988 Q169.099 1988 170.904 1984.46 Q172.733 1980.89 172.733 1973.79 Q172.733 1966.66 170.904 1963.11 Q169.099 1959.55 165.465 1959.55 M165.465 1955.85 Q171.275 1955.85 174.33 1960.45 Q177.409 1965.04 177.409 1973.79 Q177.409 1982.51 174.33 1987.12 Q171.275 1991.7 165.465 1991.7 Q159.654 1991.7 156.576 1987.12 Q153.52 1982.51 153.52 1973.79 Q153.52 1965.04 156.576 1960.45 Q159.654 1955.85 165.465 1955.85 Z" fill="#000000" fill-rule="nonzero" fill-opacity="1" /><path clip-path="url(#clip560)" d="M112.039 1652.84 L119.678 1652.84 L119.678 1626.48 L111.368 1628.14 L111.368 1623.88 L119.631 1622.22 L124.307 1622.22 L124.307 1652.84 L131.946 1652.84 L131.946 1656.78 L112.039 1656.78 L112.039 1652.84 Z" fill="#000000" fill-rule="nonzero" fill-opacity="1" /><path clip-path="url(#clip560)" d="M141.391 1650.9 L146.275 1650.9 L146.275 1656.78 L141.391 1656.78 L141.391 1650.9 Z" fill="#000000" fill-rule="nonzero" fill-opacity="1" /><path clip-path="url(#clip560)" d="M156.506 1622.22 L174.863 1622.22 L174.863 1626.15 L160.789 1626.15 L160.789 1634.62 Q161.807 1634.28 162.826 1634.11 Q163.844 1633.93 164.863 1633.93 Q170.65 1633.93 174.029 1637.1 Q177.409 1640.27 177.409 1645.69 Q177.409 1651.27 173.937 1654.37 Q170.465 1657.45 164.145 1657.45 Q161.969 1657.45 159.701 1657.08 Q157.455 1656.71 155.048 1655.97 L155.048 1651.27 Q157.131 1652.4 159.353 1652.96 Q161.576 1653.51 164.053 1653.51 Q168.057 1653.51 170.395 1651.41 Q172.733 1649.3 172.733 1645.69 Q172.733 1642.08 170.395 1639.97 Q168.057 1637.86 164.053 1637.86 Q162.178 1637.86 160.303 1638.28 Q158.451 1638.7 156.506 1639.58 L156.506 1622.22 Z" fill="#000000" fill-rule="nonzero" fill-opacity="1" /><path clip-path="url(#clip560)" d="M114.261 1318.59 L130.58 1318.59 L130.58 1322.52 L108.636 1322.52 L108.636 1318.59 Q111.298 1315.83 115.881 1311.2 Q120.488 1306.55 121.668 1305.21 Q123.914 1302.68 124.793 1300.95 Q125.696 1299.19 125.696 1297.5 Q125.696 1294.74 123.752 1293.01 Q121.831 1291.27 118.729 1291.27 Q116.53 1291.27 114.076 1292.04 Q111.645 1292.8 108.868 1294.35 L108.868 1289.63 Q111.692 1288.49 114.145 1287.92 Q116.599 1287.34 118.636 1287.34 Q124.006 1287.34 127.201 1290.02 Q130.395 1292.71 130.395 1297.2 Q130.395 1299.33 129.585 1301.25 Q128.798 1303.15 126.692 1305.74 Q126.113 1306.41 123.011 1309.63 Q119.909 1312.82 114.261 1318.59 Z" fill="#000000" fill-rule="nonzero" fill-opacity="1" /><path clip-path="url(#clip560)" d="M140.395 1316.64 L145.279 1316.64 L145.279 1322.52 L140.395 1322.52 L140.395 1316.64 Z" fill="#000000" fill-rule="nonzero" fill-opacity="1" /><path clip-path="url(#clip560)" d="M165.465 1291.04 Q161.853 1291.04 160.025 1294.61 Q158.219 1298.15 158.219 1305.28 Q158.219 1312.38 160.025 1315.95 Q161.853 1319.49 165.465 1319.49 Q169.099 1319.49 170.904 1315.95 Q172.733 1312.38 172.733 1305.28 Q172.733 1298.15 170.904 1294.61 Q169.099 1291.04 165.465 1291.04 M165.465 1287.34 Q171.275 1287.34 174.33 1291.94 Q177.409 1296.53 177.409 1305.28 Q177.409 1314 174.33 1318.61 Q171.275 1323.19 165.465 1323.19 Q159.654 1323.19 156.576 1318.61 Q153.52 1314 153.52 1305.28 Q153.52 1296.53 156.576 1291.94 Q159.654 1287.34 165.465 1287.34 Z" fill="#000000" fill-rule="nonzero" fill-opacity="1" /><path clip-path="url(#clip560)" d="M115.256 984.333 L131.576 984.333 L131.576 988.269 L109.632 988.269 L109.632 984.333 Q112.294 981.579 116.877 976.949 Q121.483 972.296 122.664 970.954 Q124.909 968.431 125.789 966.695 Q126.692 964.935 126.692 963.245 Q126.692 960.491 124.747 958.755 Q122.826 957.019 119.724 957.019 Q117.525 957.019 115.071 957.783 Q112.641 958.546 109.863 960.097 L109.863 955.375 Q112.687 954.241 115.141 953.662 Q117.594 953.084 119.631 953.084 Q125.002 953.084 128.196 955.769 Q131.391 958.454 131.391 962.945 Q131.391 965.074 130.58 966.995 Q129.793 968.894 127.687 971.486 Q127.108 972.157 124.006 975.375 Q120.905 978.569 115.256 984.333 Z" fill="#000000" fill-rule="nonzero" fill-opacity="1" /><path clip-path="url(#clip560)" d="M141.391 982.389 L146.275 982.389 L146.275 988.269 L141.391 988.269 L141.391 982.389 Z" fill="#000000" fill-rule="nonzero" fill-opacity="1" /><path clip-path="url(#clip560)" d="M156.506 953.709 L174.863 953.709 L174.863 957.644 L160.789 957.644 L160.789 966.116 Q161.807 965.769 162.826 965.607 Q163.844 965.421 164.863 965.421 Q170.65 965.421 174.029 968.593 Q177.409 971.764 177.409 977.181 Q177.409 982.759 173.937 985.861 Q170.465 988.94 164.145 988.94 Q161.969 988.94 159.701 988.569 Q157.455 988.199 155.048 987.458 L155.048 982.759 Q157.131 983.894 159.353 984.449 Q161.576 985.005 164.053 985.005 Q168.057 985.005 170.395 982.898 Q172.733 980.792 172.733 977.181 Q172.733 973.57 170.395 971.463 Q168.057 969.357 164.053 969.357 Q162.178 969.357 160.303 969.773 Q158.451 970.19 156.506 971.07 L156.506 953.709 Z" fill="#000000" fill-rule="nonzero" fill-opacity="1" /><path clip-path="url(#clip560)" d="M124.4 635.38 Q127.756 636.098 129.631 638.366 Q131.53 640.635 131.53 643.968 Q131.53 649.084 128.011 651.885 Q124.493 654.686 118.011 654.686 Q115.835 654.686 113.52 654.246 Q111.229 653.829 108.775 652.973 L108.775 648.459 Q110.719 649.593 113.034 650.172 Q115.349 650.751 117.872 650.751 Q122.27 650.751 124.562 649.015 Q126.877 647.278 126.877 643.968 Q126.877 640.913 124.724 639.2 Q122.594 637.464 118.775 637.464 L114.747 637.464 L114.747 633.621 L118.96 633.621 Q122.409 633.621 124.238 632.255 Q126.067 630.866 126.067 628.274 Q126.067 625.612 124.168 624.2 Q122.293 622.765 118.775 622.765 Q116.854 622.765 114.655 623.181 Q112.456 623.598 109.817 624.478 L109.817 620.311 Q112.479 619.57 114.794 619.2 Q117.131 618.829 119.192 618.829 Q124.516 618.829 127.618 621.26 Q130.719 623.667 130.719 627.788 Q130.719 630.658 129.076 632.649 Q127.432 634.616 124.4 635.38 Z" fill="#000000" fill-rule="nonzero" fill-opacity="1" /><path clip-path="url(#clip560)" d="M140.395 648.135 L145.279 648.135 L145.279 654.014 L140.395 654.014 L140.395 648.135 Z" fill="#000000" fill-rule="nonzero" fill-opacity="1" /><path clip-path="url(#clip560)" d="M165.465 622.533 Q161.853 622.533 160.025 626.098 Q158.219 629.64 158.219 636.769 Q158.219 643.876 160.025 647.44 Q161.853 650.982 165.465 650.982 Q169.099 650.982 170.904 647.44 Q172.733 643.876 172.733 636.769 Q172.733 629.64 170.904 626.098 Q169.099 622.533 165.465 622.533 M165.465 618.829 Q171.275 618.829 174.33 623.436 Q177.409 628.019 177.409 636.769 Q177.409 645.496 174.33 650.102 Q171.275 654.686 165.465 654.686 Q159.654 654.686 156.576 650.102 Q153.52 645.496 153.52 636.769 Q153.52 628.019 156.576 623.436 Q159.654 618.829 165.465 618.829 Z" fill="#000000" fill-rule="nonzero" fill-opacity="1" /><path clip-path="url(#clip560)" d="M125.395 301.126 Q128.752 301.844 130.627 304.112 Q132.525 306.381 132.525 309.714 Q132.525 314.83 129.006 317.631 Q125.488 320.432 119.006 320.432 Q116.831 320.432 114.516 319.992 Q112.224 319.575 109.77 318.719 L109.77 314.205 Q111.715 315.339 114.03 315.918 Q116.344 316.497 118.868 316.497 Q123.266 316.497 125.557 314.76 Q127.872 313.024 127.872 309.714 Q127.872 306.659 125.719 304.946 Q123.59 303.21 119.77 303.21 L115.743 303.21 L115.743 299.367 L119.956 299.367 Q123.405 299.367 125.233 298.001 Q127.062 296.612 127.062 294.02 Q127.062 291.358 125.164 289.946 Q123.289 288.511 119.77 288.511 Q117.849 288.511 115.65 288.927 Q113.451 289.344 110.812 290.224 L110.812 286.057 Q113.474 285.316 115.789 284.946 Q118.127 284.575 120.187 284.575 Q125.511 284.575 128.613 287.006 Q131.715 289.413 131.715 293.534 Q131.715 296.404 130.071 298.395 Q128.428 300.362 125.395 301.126 Z" fill="#000000" fill-rule="nonzero" fill-opacity="1" /><path clip-path="url(#clip560)" d="M141.391 313.881 L146.275 313.881 L146.275 319.76 L141.391 319.76 L141.391 313.881 Z" fill="#000000" fill-rule="nonzero" fill-opacity="1" /><path clip-path="url(#clip560)" d="M156.506 285.2 L174.863 285.2 L174.863 289.136 L160.789 289.136 L160.789 297.608 Q161.807 297.261 162.826 297.099 Q163.844 296.913 164.863 296.913 Q170.65 296.913 174.029 300.085 Q177.409 303.256 177.409 308.673 Q177.409 314.251 173.937 317.353 Q170.465 320.432 164.145 320.432 Q161.969 320.432 159.701 320.061 Q157.455 319.691 155.048 318.95 L155.048 314.251 Q157.131 315.385 159.353 315.941 Q161.576 316.497 164.053 316.497 Q168.057 316.497 170.395 314.39 Q172.733 312.284 172.733 308.673 Q172.733 305.061 170.395 302.955 Q168.057 300.849 164.053 300.849 Q162.178 300.849 160.303 301.265 Q158.451 301.682 156.506 302.561 L156.506 285.2 Z" fill="#000000" fill-rule="nonzero" fill-opacity="1" /><path clip-path="url(#clip560)" d="M37.6903 1419.8 Q44.056 1422.28 45.9976 1424.63 Q47.9391 1426.99 47.9391 1430.94 L47.9391 1435.62 L43.0375 1435.62 L43.0375 1432.18 Q43.0375 1429.76 41.8917 1428.42 Q40.7459 1427.09 36.4808 1425.46 L33.8072 1424.41 L-1.2678 1438.83 L-1.2678 1432.62 L26.614 1421.48 L-1.2678 1410.34 L-1.2678 1404.14 L37.6903 1419.8 Z" fill="#000000" fill-rule="nonzero" fill-opacity="1" /><path clip-path="url(#clip560)" d="M30.879 1397.23 L30.879 1390.74 L11.4318 1390.74 L12.7368 1397.83 L9.04465 1397.83 L7.80333 1390.51 L7.80333 1386.15 L30.879 1386.15 L30.879 1379.63 L34.3802 1379.63 L34.3802 1397.23 L30.879 1397.23 Z" fill="#000000" fill-rule="nonzero" fill-opacity="1" /><path clip-path="url(#clip560)" d="M26.2957 1368.43 L26.2957 1361.71 L31.7702 1361.71 L41.9553 1366.93 L41.9553 1371.04 L31.7702 1368.43 L26.2957 1368.43 Z" fill="#000000" fill-rule="nonzero" fill-opacity="1" /><path clip-path="url(#clip560)" d="M37.6903 1334.37 Q44.056 1336.85 45.9976 1339.21 Q47.9391 1341.56 47.9391 1345.51 L47.9391 1350.19 L43.0375 1350.19 L43.0375 1346.75 Q43.0375 1344.33 41.8917 1342.99 Q40.7459 1341.66 36.4808 1340.03 L33.8072 1338.98 L-1.2678 1353.4 L-1.2678 1347.2 L26.614 1336.06 L-1.2678 1324.92 L-1.2678 1318.71 L37.6903 1334.37 Z" fill="#000000" fill-rule="nonzero" fill-opacity="1" /><path clip-path="url(#clip560)" d="M30.7517 1308.24 L30.7517 1294.74 L34.3802 1294.74 L34.3802 1313.78 L30.879 1313.78 Q29.8923 1312.69 28.1099 1310.69 Q18.4022 1299.74 15.4104 1299.74 Q13.3097 1299.74 12.0365 1301.39 Q10.7316 1303.05 10.7316 1305.75 Q10.7316 1307.41 11.3045 1309.35 Q11.8456 1311.29 12.9596 1313.58 L9.04465 1313.58 Q8.15345 1311.13 7.70785 1309.03 Q7.26225 1306.9 7.26225 1305.09 Q7.26225 1300.47 9.36293 1297.7 Q11.4636 1294.93 14.9011 1294.93 Q19.3253 1294.93 28.3646 1305.47 Q29.8923 1307.25 30.7517 1308.24 Z" fill="#000000" fill-rule="nonzero" fill-opacity="1" /><path clip-path="url(#clip560)" d="M1688.8 18.8205 L1688.8 41.5461 L1699.09 41.5461 Q1704.8 41.5461 1707.92 38.5889 Q1711.04 35.6318 1711.04 30.163 Q1711.04 24.7348 1707.92 21.7777 Q1704.8 18.8205 1699.09 18.8205 L1688.8 18.8205 M1680.61 12.096 L1699.09 12.096 Q1709.25 12.096 1714.44 16.714 Q1719.66 21.2916 1719.66 30.163 Q1719.66 39.1155 1714.44 43.6931 Q1709.25 48.2706 1699.09 48.2706 L1688.8 48.2706 L1688.8 72.576 L1680.61 72.576 L1680.61 12.096 Z" fill="#000000" fill-rule="nonzero" fill-opacity="1" /><path clip-path="url(#clip560)" d="M1755.15 34.1734 Q1753.9 33.4443 1752.4 33.1202 Q1750.94 32.7556 1749.16 32.7556 Q1742.84 32.7556 1739.43 36.8875 Q1736.07 40.9789 1736.07 48.6757 L1736.07 72.576 L1728.58 72.576 L1728.58 27.2059 L1736.07 27.2059 L1736.07 34.2544 Q1738.42 30.1225 1742.19 28.1376 Q1745.96 26.1121 1751.34 26.1121 Q1752.11 26.1121 1753.04 26.2337 Q1753.98 26.3147 1755.11 26.5172 L1755.15 34.1734 Z" fill="#000000" fill-rule="nonzero" fill-opacity="1" /><path clip-path="url(#clip560)" d="M1799.95 48.0275 L1799.95 51.6733 L1765.68 51.6733 Q1766.17 59.3701 1770.3 63.421 Q1774.47 67.4314 1781.89 67.4314 Q1786.18 67.4314 1790.19 66.3781 Q1794.24 65.3249 1798.21 63.2184 L1798.21 70.267 Q1794.2 71.9684 1789.99 72.8596 Q1785.78 73.7508 1781.44 73.7508 Q1770.58 73.7508 1764.22 67.4314 Q1757.91 61.1119 1757.91 50.3365 Q1757.91 39.1965 1763.9 32.6746 Q1769.94 26.1121 1780.14 26.1121 Q1789.3 26.1121 1794.61 32.0264 Q1799.95 37.9003 1799.95 48.0275 M1792.5 45.84 Q1792.42 39.7232 1789.06 36.0774 Q1785.74 32.4315 1780.23 32.4315 Q1773.99 32.4315 1770.22 35.9558 Q1766.49 39.4801 1765.93 45.8805 L1792.5 45.84 Z" fill="#000000" fill-rule="nonzero" fill-opacity="1" /><path clip-path="url(#clip560)" d="M1831.06 76.7889 Q1827.91 84.8907 1824.91 87.3618 Q1821.91 89.8329 1816.89 89.8329 L1810.93 89.8329 L1810.93 83.5945 L1815.31 83.5945 Q1818.39 83.5945 1820.09 82.1361 Q1821.79 80.6778 1823.85 75.2496 L1825.19 71.8468 L1806.84 27.2059 L1814.74 27.2059 L1828.92 62.6918 L1843.1 27.2059 L1851 27.2059 L1831.06 76.7889 Z" fill="#000000" fill-rule="nonzero" fill-opacity="1" /><path clip-path="url(#clip560)" d="M1896.16 18.8205 L1896.16 41.5461 L1906.45 41.5461 Q1912.16 41.5461 1915.28 38.5889 Q1918.4 35.6318 1918.4 30.163 Q1918.4 24.7348 1915.28 21.7777 Q1912.16 18.8205 1906.45 18.8205 L1896.16 18.8205 M1887.98 12.096 L1906.45 12.096 Q1916.62 12.096 1921.8 16.714 Q1927.03 21.2916 1927.03 30.163 Q1927.03 39.1155 1921.8 43.6931 Q1916.62 48.2706 1906.45 48.2706 L1896.16 48.2706 L1896.16 72.576 L1887.98 72.576 L1887.98 12.096 Z" fill="#000000" fill-rule="nonzero" fill-opacity="1" /><path clip-path="url(#clip560)" d="M1962.52 34.1734 Q1961.26 33.4443 1959.76 33.1202 Q1958.3 32.7556 1956.52 32.7556 Q1950.2 32.7556 1946.8 36.8875 Q1943.44 40.9789 1943.44 48.6757 L1943.44 72.576 L1935.94 72.576 L1935.94 27.2059 L1943.44 27.2059 L1943.44 34.2544 Q1945.79 30.1225 1949.55 28.1376 Q1953.32 26.1121 1958.71 26.1121 Q1959.48 26.1121 1960.41 26.2337 Q1961.34 26.3147 1962.48 26.5172 L1962.52 34.1734 Z" fill="#000000" fill-rule="nonzero" fill-opacity="1" /><path clip-path="url(#clip560)" d="M2007.32 48.0275 L2007.32 51.6733 L1973.05 51.6733 Q1973.54 59.3701 1977.67 63.421 Q1981.84 67.4314 1989.25 67.4314 Q1993.55 67.4314 1997.56 66.3781 Q2001.61 65.3249 2005.58 63.2184 L2005.58 70.267 Q2001.57 71.9684 1997.35 72.8596 Q1993.14 73.7508 1988.81 73.7508 Q1977.95 73.7508 1971.59 67.4314 Q1965.27 61.1119 1965.27 50.3365 Q1965.27 39.1965 1971.27 32.6746 Q1977.3 26.1121 1987.51 26.1121 Q1996.67 26.1121 2001.97 32.0264 Q2007.32 37.9003 2007.32 48.0275 M1999.87 45.84 Q1999.78 39.7232 1996.42 36.0774 Q1993.1 32.4315 1987.59 32.4315 Q1981.35 32.4315 1977.59 35.9558 Q1973.86 39.4801 1973.29 45.8805 L1999.87 45.84 Z" fill="#000000" fill-rule="nonzero" fill-opacity="1" /><path clip-path="url(#clip560)" d="M2049.41 34.0924 L2049.41 9.54393 L2056.86 9.54393 L2056.86 72.576 L2049.41 72.576 L2049.41 65.7705 Q2047.06 69.8214 2043.45 71.8063 Q2039.89 73.7508 2034.87 73.7508 Q2026.64 73.7508 2021.46 67.1883 Q2016.31 60.6258 2016.31 49.9314 Q2016.31 39.2371 2021.46 32.6746 Q2026.64 26.1121 2034.87 26.1121 Q2039.89 26.1121 2043.45 28.0971 Q2047.06 30.0415 2049.41 34.0924 M2024.01 49.9314 Q2024.01 58.1548 2027.37 62.8538 Q2030.77 67.5124 2036.69 67.5124 Q2042.6 67.5124 2046.01 62.8538 Q2049.41 58.1548 2049.41 49.9314 Q2049.41 41.7081 2046.01 37.0496 Q2042.6 32.3505 2036.69 32.3505 Q2030.77 32.3505 2027.37 37.0496 Q2024.01 41.7081 2024.01 49.9314 Z" fill="#000000" fill-rule="nonzero" fill-opacity="1" /><path clip-path="url(#clip560)" d="M2092.83 49.7694 Q2083.8 49.7694 2080.32 51.8354 Q2076.83 53.9013 2076.83 58.8839 Q2076.83 62.8538 2079.43 65.2034 Q2082.06 67.5124 2086.56 67.5124 Q2092.75 67.5124 2096.48 63.1374 Q2100.25 58.7219 2100.25 51.4303 L2100.25 49.7694 L2092.83 49.7694 M2107.7 46.6907 L2107.7 72.576 L2100.25 72.576 L2100.25 65.6895 Q2097.7 69.8214 2093.89 71.8063 Q2090.08 73.7508 2084.57 73.7508 Q2077.6 73.7508 2073.47 69.8619 Q2069.38 65.9325 2069.38 59.3701 Q2069.38 51.7138 2074.48 47.825 Q2079.63 43.9361 2089.8 43.9361 L2100.25 43.9361 L2100.25 43.2069 Q2100.25 38.0623 2096.84 35.2672 Q2093.48 32.4315 2087.37 32.4315 Q2083.48 32.4315 2079.79 33.3632 Q2076.1 34.295 2072.7 36.1584 L2072.7 29.2718 Q2076.79 27.692 2080.64 26.9223 Q2084.49 26.1121 2088.14 26.1121 Q2097.98 26.1121 2102.84 31.2163 Q2107.7 36.3204 2107.7 46.6907 Z" fill="#000000" fill-rule="nonzero" fill-opacity="1" /><path clip-path="url(#clip560)" d="M2130.43 14.324 L2130.43 27.2059 L2145.78 27.2059 L2145.78 32.9987 L2130.43 32.9987 L2130.43 57.6282 Q2130.43 63.1779 2131.93 64.7578 Q2133.46 66.3376 2138.12 66.3376 L2145.78 66.3376 L2145.78 72.576 L2138.12 72.576 Q2129.49 72.576 2126.21 69.3758 Q2122.93 66.1351 2122.93 57.6282 L2122.93 32.9987 L2117.46 32.9987 L2117.46 27.2059 L2122.93 27.2059 L2122.93 14.324 L2130.43 14.324 Z" fill="#000000" fill-rule="nonzero" fill-opacity="1" /><path clip-path="url(#clip560)" d="M2173.16 32.4315 Q2167.17 32.4315 2163.68 37.1306 Q2160.2 41.7891 2160.2 49.9314 Q2160.2 58.0738 2163.64 62.7728 Q2167.13 67.4314 2173.16 67.4314 Q2179.12 67.4314 2182.6 62.7323 Q2186.09 58.0333 2186.09 49.9314 Q2186.09 41.8701 2182.6 37.1711 Q2179.12 32.4315 2173.16 32.4315 M2173.16 26.1121 Q2182.89 26.1121 2188.44 32.4315 Q2193.99 38.7509 2193.99 49.9314 Q2193.99 61.0714 2188.44 67.4314 Q2182.89 73.7508 2173.16 73.7508 Q2163.4 73.7508 2157.85 67.4314 Q2152.34 61.0714 2152.34 49.9314 Q2152.34 38.7509 2157.85 32.4315 Q2163.4 26.1121 2173.16 26.1121 Z" fill="#000000" fill-rule="nonzero" fill-opacity="1" /><path clip-path="url(#clip560)" d="M2232.63 34.1734 Q2231.38 33.4443 2229.88 33.1202 Q2228.42 32.7556 2226.64 32.7556 Q2220.32 32.7556 2216.91 36.8875 Q2213.55 40.9789 2213.55 48.6757 L2213.55 72.576 L2206.06 72.576 L2206.06 27.2059 L2213.55 27.2059 L2213.55 34.2544 Q2215.9 30.1225 2219.67 28.1376 Q2223.44 26.1121 2228.82 26.1121 Q2229.59 26.1121 2230.52 26.2337 Q2231.46 26.3147 2232.59 26.5172 L2232.63 34.1734 Z" fill="#000000" fill-rule="nonzero" fill-opacity="1" /><path clip-path="url(#clip560)" d="M2302.14 35.9153 Q2304.94 30.8922 2308.83 28.5022 Q2312.72 26.1121 2317.98 26.1121 Q2325.07 26.1121 2328.92 31.0947 Q2332.77 36.0368 2332.77 45.1919 L2332.77 72.576 L2325.28 72.576 L2325.28 45.4349 Q2325.28 38.913 2322.97 35.7533 Q2320.66 32.5936 2315.92 32.5936 Q2310.12 32.5936 2306.76 36.4419 Q2303.4 40.2903 2303.4 46.9338 L2303.4 72.576 L2295.91 72.576 L2295.91 45.4349 Q2295.91 38.8725 2293.6 35.7533 Q2291.29 32.5936 2286.47 32.5936 Q2280.76 32.5936 2277.39 36.4824 Q2274.03 40.3308 2274.03 46.9338 L2274.03 72.576 L2266.54 72.576 L2266.54 27.2059 L2274.03 27.2059 L2274.03 34.2544 Q2276.58 30.082 2280.15 28.0971 Q2283.71 26.1121 2288.61 26.1121 Q2293.56 26.1121 2297 28.6237 Q2300.48 31.1352 2302.14 35.9153 Z" fill="#000000" fill-rule="nonzero" fill-opacity="1" /><path clip-path="url(#clip560)" d="M2365.22 32.4315 Q2359.22 32.4315 2355.74 37.1306 Q2352.25 41.7891 2352.25 49.9314 Q2352.25 58.0738 2355.7 62.7728 Q2359.18 67.4314 2365.22 67.4314 Q2371.17 67.4314 2374.66 62.7323 Q2378.14 58.0333 2378.14 49.9314 Q2378.14 41.8701 2374.66 37.1711 Q2371.17 32.4315 2365.22 32.4315 M2365.22 26.1121 Q2374.94 26.1121 2380.49 32.4315 Q2386.04 38.7509 2386.04 49.9314 Q2386.04 61.0714 2380.49 67.4314 Q2374.94 73.7508 2365.22 73.7508 Q2355.45 73.7508 2349.9 67.4314 Q2344.4 61.0714 2344.4 49.9314 Q2344.4 38.7509 2349.9 32.4315 Q2355.45 26.1121 2365.22 26.1121 Z" fill="#000000" fill-rule="nonzero" fill-opacity="1" /><path clip-path="url(#clip560)" d="M2428.25 34.0924 L2428.25 9.54393 L2435.7 9.54393 L2435.7 72.576 L2428.25 72.576 L2428.25 65.7705 Q2425.9 69.8214 2422.29 71.8063 Q2418.73 73.7508 2413.71 73.7508 Q2405.48 73.7508 2400.3 67.1883 Q2395.15 60.6258 2395.15 49.9314 Q2395.15 39.2371 2400.3 32.6746 Q2405.48 26.1121 2413.71 26.1121 Q2418.73 26.1121 2422.29 28.0971 Q2425.9 30.0415 2428.25 34.0924 M2402.85 49.9314 Q2402.85 58.1548 2406.21 62.8538 Q2409.61 67.5124 2415.53 67.5124 Q2421.44 67.5124 2424.85 62.8538 Q2428.25 58.1548 2428.25 49.9314 Q2428.25 41.7081 2424.85 37.0496 Q2421.44 32.3505 2415.53 32.3505 Q2409.61 32.3505 2406.21 37.0496 Q2402.85 41.7081 2402.85 49.9314 Z" fill="#000000" fill-rule="nonzero" fill-opacity="1" /><path clip-path="url(#clip560)" d="M2489.86 48.0275 L2489.86 51.6733 L2455.59 51.6733 Q2456.08 59.3701 2460.21 63.421 Q2464.38 67.4314 2471.8 67.4314 Q2476.09 67.4314 2480.1 66.3781 Q2484.15 65.3249 2488.12 63.2184 L2488.12 70.267 Q2484.11 71.9684 2479.9 72.8596 Q2475.69 73.7508 2471.35 73.7508 Q2460.49 73.7508 2454.13 67.4314 Q2447.81 61.1119 2447.81 50.3365 Q2447.81 39.1965 2453.81 32.6746 Q2459.85 26.1121 2470.05 26.1121 Q2479.21 26.1121 2484.52 32.0264 Q2489.86 37.9003 2489.86 48.0275 M2482.41 45.84 Q2482.33 39.7232 2478.97 36.0774 Q2475.64 32.4315 2470.14 32.4315 Q2463.9 32.4315 2460.13 35.9558 Q2456.4 39.4801 2455.84 45.8805 L2482.41 45.84 Z" fill="#000000" fill-rule="nonzero" fill-opacity="1" /><path clip-path="url(#clip560)" d="M2502.1 9.54393 L2509.55 9.54393 L2509.55 72.576 L2502.1 72.576 L2502.1 9.54393 Z" fill="#000000" fill-rule="nonzero" fill-opacity="1" /><polyline clip-path="url(#clip562)" style="stroke:#009af9; stroke-linecap:round; stroke-linejoin:round; stroke-width:4; stroke-opacity:1; fill:none" points="237.409,1973.75 241.128,1980.11 244.847,1985.83 248.566,1990.95 252.285,1995.47 256.004,1999.44 259.723,2002.85 263.442,2005.77 267.161,2008.2 270.881,2010.16 274.6,2011.64 278.319,2012.67 282.038,2013.29 285.757,2013.51 289.476,2013.31 293.195,2012.7 296.914,2011.74 300.633,2010.44 304.352,2008.77 308.071,2006.76 311.79,2004.39 315.509,2001.68 319.228,1998.66 322.947,1995.33 326.667,1991.69 330.386,1987.74 334.105,1983.48 337.824,1978.92 341.543,1974.08 345.262,1968.96 348.981,1963.55 352.7,1957.86 356.419,1951.89 360.138,1945.63 363.857,1939.1 367.576,1932.29 371.295,1925.22 375.014,1917.87 378.733,1910.25 382.453,1902.37 386.172,1894.21 389.891,1885.78 393.61,1877.1 397.329,1868.15 401.048,1858.93 404.767,1849.43 408.486,1839.67 412.205,1829.63 415.924,1819.32 419.643,1808.73 423.362,1797.88 427.081,1786.76 430.8,1775.37 434.519,1763.7 438.239,1751.74 441.958,1739.5 445.677,1726.98 449.396,1714.17 453.115,1701.08 456.834,1687.7 460.553,1674.04 464.272,1660.11 467.991,1645.88 471.71,1631.35 475.429,1616.52 479.148,1601.39 482.867,1585.95 486.586,1570.22 490.305,1554.19 494.024,1537.85 497.744,1521.22 501.463,1504.29 505.182,1487.05 508.901,1469.49 512.62,1451.62 516.339,1433.44 520.058,1414.94 523.777,1396.14 527.496,1377.01 531.215,1357.58 534.934,1337.82 538.653,1317.76 542.372,1297.39 546.091,1276.71 549.81,1255.73 553.53,1234.45 557.249,1212.86 560.968,1190.96 564.687,1168.76 568.406,1146.26 572.125,1123.45 575.844,1100.32 579.563,1076.95 583.282,1053.34 587.001,1029.47 590.72,1005.36 594.439,981.002 598.158,956.397 601.877,931.545 605.596,906.388 609.316,881.072 613.035,855.649 616.754,830.12 620.473,804.485 624.192,778.743 627.911,752.894 631.63,726.939 635.349,700.816 639.068,674.591 642.787,648.564 646.506,622.735 650.225,597.103 653.944,571.668 657.663,546.431 661.382,521.392 665.102,496.55 668.821,471.665 672.54,447.466 676.259,424.05 679.978,401.418 683.697,379.57 687.416,358.505 691.135,338.224 694.854,318.727 698.573,299.742 702.292,281.845 706.011,265.698 709.73,251.301 713.449,238.653 717.168,227.755 720.888,218.607 724.607,211.209 728.326,205.56 732.045,201.588 735.764,200.203 739.483,201.499 743.202,205.477 746.921,212.137 750.64,221.478 754.359,233.501 758.078,248.35 761.797,266.137 765.516,286.861 769.235,310.523 772.954,337.122 776.674,366.658 780.393,399.195 784.112,434.874 787.831,472.513 791.55,512.111 795.269,553.668 798.988,597.184 802.707,642.658 806.426,690.351 810.145,739.852 813.864,789.411 817.583,839.026 821.302,888.698 825.021,938.428 828.74,988.214 832.46,1038.06 836.179,1088.02 839.898,1136.88 843.617,1184.5 847.336,1230.89 851.055,1276.04 854.774,1319.96 858.493,1362.67 862.212,1403.74 865.931,1443.15 869.65,1480.91 873.369,1517.01 877.088,1551.46 880.807,1584.22 884.526,1615.43 888.245,1645.1 891.965,1673.23 895.684,1699.83 899.403,1724.89 903.122,1748.31 906.841,1770.38 910.56,1791.25 914.279,1810.92 917.998,1829.39 921.717,1846.66 925.436,1862.73 929.155,1877.43 932.874,1891.18 936.593,1904.08 940.312,1916.15 944.031,1927.39 947.751,1937.79 951.47,1947.35 955.189,1956.07 958.908,1963.8 962.627,1970.77 966.346,1977.21 970.065,1983.12 973.784,1988.48 977.503,1993.31 981.222,1997.61 984.941,2001.36 988.66,2004.58 992.379,2007.27 996.098,2009.41 999.817,2010.96 1003.54,2012.1 1007.26,2012.85 1010.97,2013.19 1014.69,2013.15 1018.41,2012.7 1022.13,2011.87 1025.85,2010.61 1029.57,2009 1033.29,2007.07 1037.01,2004.82 1040.73,2002.25 1044.45,1999.37 1048.17,1996.17 1051.88,1992.66 1055.6,1988.82 1059.32,1984.67 1063.04,1980.19 1066.76,1975.43 1070.48,1970.38 1074.2,1965.06 1077.92,1959.46 1081.64,1953.58 1085.36,1947.42 1089.08,1940.98 1092.79,1934.26 1096.51,1927.26 1100.23,1920 1103.95,1912.46 1107.67,1904.66 1111.39,1896.59 1115.11,1888.25 1118.83,1879.64 1122.55,1870.76 1126.27,1861.61 1129.98,1852.18 1133.7,1842.49 1137.42,1832.54 1141.14,1822.33 1144.86,1811.84 1148.58,1801.08 1152.3,1790.03 1156.02,1778.7 1159.74,1767.09 1163.46,1755.21 1167.18,1743.04 1170.89,1730.59 1174.61,1717.87 1178.33,1704.86 1182.05,1691.6 1185.77,1678.04 1189.49,1664.18 1193.21,1650.02 1196.93,1635.57 1200.65,1620.81 1204.37,1605.76 1208.09,1590.4 1211.8,1574.75 1215.52,1558.8 1219.24,1542.55 1222.96,1526.01 1226.68,1509.16 1230.4,1492.01 1234.12,1474.54 1237.84,1456.76 1241.56,1438.66 1245.28,1420.25 1248.99,1401.52 1252.71,1382.48 1256.43,1363.13 1260.15,1343.46 1263.87,1323.48 1267.59,1303.16 1271.31,1282.55 1275.03,1261.64 1278.75,1240.43 1282.47,1218.92 1286.19,1197.11 1289.9,1175.01 1293.62,1152.61 1297.34,1129.91 1301.06,1106.91 1304.78,1083.62 1308.5,1060.02 1312.22,1036.13 1315.94,1012.03 1319.66,987.707 1323.38,963.173 1327.1,938.425 1330.81,913.463 1334.53,888.287 1338.25,862.897 1341.97,837.217 1345.69,811.434 1349.41,785.62 1353.13,759.776 1356.85,733.902 1360.57,707.998 1364.29,682.063 1368.01,656.098 1371.72,630.042 1375.44,603.921 1379.16,578.155 1382.88,552.744 1386.6,527.687 1390.32,502.984 1394.04,478.636 1397.76,454.643 1401.48,431.004 1405.2,407.441 1408.91,384.744 1412.63,363.113 1416.35,342.548 1420.07,323.048 1423.79,304.615 1427.51,287.247 1431.23,270.945 1434.95,255.559 1438.67,241.465 1442.39,229.426 1446.11,219.44 1449.82,211.509 1453.54,205.631 1457.26,201.807 1460.98,200.038 1464.7,200.195 1468.42,202.979 1472.14,208.654 1475.86,217.221 1479.58,228.68 1483.3,243.03 1487.02,260.271 1490.73,280.404 1494.45,303.779 1498.17,329.846 1501.89,358.552 1505.61,389.896 1509.33,423.88 1513.05,460.502 1516.77,499.763 1520.49,541.945 1524.21,586.748 1527.92,632.405 1531.64,678.917 1535.36,726.284 1539.08,774.505 1542.8,823.581 1546.52,873.511 1550.24,924.491 1553.96,975.602 1557.68,1025.83 1561.4,1075.17 1565.12,1123.62 1568.83,1171.2 1572.55,1217.88 1576.27,1263.82 1579.99,1308.38 1583.71,1351.34 1587.43,1392.68 1591.15,1432.41 1594.87,1470.52 1598.59,1507.02 1602.31,1541.89 1606.03,1575.19 1609.74,1606.9 1613.46,1637.04 1617.18,1665.61 1620.9,1692.6 1624.62,1717.98 1628.34,1741.75 1632.06,1764.28 1635.78,1785.58 1639.5,1805.64 1643.22,1824.47 1646.93,1842.06 1650.65,1858.41 1654.37,1873.33 1658.09,1887.39 1661.81,1900.6 1665.53,1912.96 1669.25,1924.47 1672.97,1935.12 1676.69,1944.92 1680.41,1953.87 1684.13,1961.79 1687.84,1968.95 1691.56,1975.57 1695.28,1981.65 1699,1987.19 1702.72,1992.19 1706.44,1996.66 1710.16,2000.58 1713.88,2003.97 1717.6,2006.81 1721.32,2009.12 1725.04,2010.83 1728.75,2012.08 1732.47,2012.94 1736.19,2013.4 1739.91,2013.47 1743.63,2013.15 1747.35,2012.43 1751.07,2011.31 1754.79,2009.79 1758.51,2007.94 1762.23,2005.78 1765.95,2003.31 1769.66,2000.52 1773.38,1997.41 1777.1,1993.99 1780.82,1990.25 1784.54,1986.2 1788.26,1981.82 1791.98,1977.14 1795.7,1972.17 1799.42,1966.93 1803.14,1961.41 1806.85,1955.61 1810.57,1949.53 1814.29,1943.17 1818.01,1936.53 1821.73,1929.62 1825.45,1922.43 1829.17,1914.98 1832.89,1907.26 1836.61,1899.27 1840.33,1891.01 1844.05,1882.48 1847.76,1873.67 1851.48,1864.6 1855.2,1855.26 1858.92,1845.65 1862.64,1835.77 1866.36,1825.63 1870.08,1815.23 1873.8,1804.55 1877.52,1793.58 1881.24,1782.34 1884.96,1770.82 1888.67,1759.02 1892.39,1746.93 1896.11,1734.57 1899.83,1721.92 1903.55,1708.99 1907.27,1695.79 1910.99,1682.32 1914.71,1668.56 1918.43,1654.49 1922.15,1640.13 1925.86,1625.46 1929.58,1610.5 1933.3,1595.23 1937.02,1579.67 1940.74,1563.8 1944.46,1547.64 1948.18,1531.17 1951.9,1514.41 1955.62,1497.35 1959.34,1479.98 1963.06,1462.29 1966.77,1444.28 1970.49,1425.96 1974.21,1407.33 1977.93,1388.38 1981.65,1369.12 1985.37,1349.55 1989.09,1329.65 1992.81,1309.45 1996.53,1288.9 2000.25,1268.06 2003.97,1246.93 2007.68,1225.5 2011.4,1203.77 2015.12,1181.75 2018.84,1159.44 2022.56,1136.83 2026.28,1113.93 2030,1090.74 2033.72,1067.25 2037.44,1043.47 2041.16,1019.37 2044.88,995.052 2048.59,970.541 2052.31,945.835 2056.03,920.934 2059.75,895.837 2063.47,870.544 2067.19,845.055 2070.91,819.371 2074.63,793.38 2078.35,767.393 2082.07,741.431 2085.78,715.495 2089.5,689.585 2093.22,663.699 2096.94,637.84 2100.66,612.006 2104.38,586.176 2108.1,560.189 2111.82,534.696 2115.54,509.697 2119.26,485.19 2122.98,461.178 2126.69,437.658 2130.41,414.632 2134.13,392.099 2137.85,369.923 2141.57,348.17 2145.29,327.763 2149.01,308.703 2152.73,290.99 2156.45,274.624 2160.17,259.604 2163.89,245.931 2167.6,233.605 2171.32,222.494 2175.04,213.138 2178.76,206.131 2182.48,201.473 2186.2,199.166 2189.92,199.208 2193.64,201.6 2197.36,206.302 2201.08,213.573 2204.79,223.812 2208.51,237.021 2212.23,253.198 2215.95,272.344 2219.67,294.458 2223.39,319.585 2227.11,347.941 2230.83,378.758 2234.55,412.035 2238.27,447.772 2241.99,485.969 2245.7,526.627 2249.42,569.744 2253.14,616.167 2256.86,663.254 2260.58,710.907 2264.3,759.126 2268.02,807.911 2271.74,857.263 2275.46,907.181 2279.18,957.666 2282.9,1008.81 2286.61,1058.98 2290.33,1108.08 2294.05,1156.11 2297.77,1203.06 2301.49,1248.95 2305.21,1293.82 2308.93,1337.51 2312.65,1379.55 2316.37,1419.93 2320.09,1458.67 2323.8,1495.76 2327.52,1531.2 2331.24,1564.96 2334.96,1597.14 2338.68,1627.78 2342.4,1656.87 2346.12,1684.43 2349.84,1710.44 2353.56,1734.92 2357.28,1757.73 2361,1779.3 2364.71,1799.69 2368.43,1818.89 2372.15,1836.92 2375.87,1853.76 2379.59,1869.42 2383.31,1883.72 2387.03,1897.03 2390.75,1909.53 2394.47,1921.23 2398.19,1932.13 2401.91,1942.22 2405.62,1951.51 2409.34,1960 2413.06,1967.68 2416.78,1974.36 2420.5,1980.48 2424.22,1986.08 2427.94,1991.17 2431.66,1995.74 2435.38,1999.8 2439.1,2003.33 2442.82,2006.36 2446.53,2008.86 2450.25,2010.85 2453.97,2012.29 2457.69,2013.23 2461.41,2013.79 2465.13,2013.97 2468.85,2013.77 2472.57,2013.18 2476.29,2012.22 2480.01,2010.87 2483.72,2009.11 2487.44,2007.03 2491.16,2004.63 2494.88,2001.92 2498.6,1998.91 2502.32,1995.58 2506.04,1991.94 2509.76,1987.99 2513.48,1983.74 2517.2,1979.17 2520.92,1974.29 2524.63,1969.12 2528.35,1963.68 2532.07,1957.97 2535.79,1951.98 2539.51,1945.71 2543.23,1939.16 2546.95,1932.34 2550.67,1925.24 2554.39,1917.87 2558.11,1910.23 2561.83,1902.33 2565.54,1894.16 2569.26,1885.71 2572.98,1877 2576.7,1868.02 2580.42,1858.76 2584.14,1849.24 2587.86,1839.44 2591.58,1829.38 2595.3,1819.05 2599.02,1808.47 2602.73,1797.6 2606.45,1786.46 2610.17,1775.03 2613.89,1763.32 2617.61,1751.32 2621.33,1739.05 2625.05,1726.49 2628.77,1713.66 2632.49,1700.54 2636.21,1687.13 2639.93,1673.47 2643.64,1659.51 2647.36,1645.25 2651.08,1630.69 2654.8,1615.82 2658.52,1600.66 2662.24,1585.19 2665.96,1569.42 2669.68,1553.35 2673.4,1536.98 2677.12,1520.3 2680.84,1503.34 2684.55,1486.06 2688.27,1468.48 2691.99,1450.57 2695.71,1432.36 2699.43,1413.82 2703.15,1394.98 2706.87,1375.82 2710.59,1356.34 2714.31,1336.55 2718.03,1316.44 2721.75,1296.01 2725.46,1275.25 2729.18,1254.2 2732.9,1232.85 2736.62,1211.21 2740.34,1189.28 2744.06,1167.06 2747.78,1144.54 2751.5,1121.74 2755.22,1098.64 2758.94,1075.24 2762.65,1051.56 2766.37,1027.58 2770.09,1003.28 2773.81,978.801 2777.53,954.129 2781.25,929.27 2784.97,904.223 2788.69,878.989 2792.41,853.567 2796.13,827.957 2799.85,802.16 2803.56,776.051 2807.28,749.985 2811,723.968 2814.72,698.002 2818.44,672.085 2822.16,646.219 2825.88,620.402 2829.6,594.635 2833.32,568.918 2837.04,543 2840.76,517.62 2844.47,492.794 2848.19,468.522 2851.91,444.804 2855.63,421.64 2859.35,399.029 2863.07,376.973 2866.79,355.471 2870.51,334.117 2874.23,314.2 2877.95,295.749 2881.66,278.763 2885.38,263.242 2889.1,249.187 2892.82,236.596 2896.54,225.471 2900.26,215.811 2903.98,207.581 2907.7,201.798 2911.42,198.479 2915.14,197.624 2918.86,199.234 2922.57,203.309 2926.29,209.847 2930.01,218.938 2933.73,231.014 2937.45,246.076 2941.17,264.123 2944.89,285.155 2948.61,309.173 2952.33,336.202 2956.05,366.498 2959.77,399.153 2963.48,434.168 2967.2,471.542 2970.92,511.275 2974.64,553.368 2978.36,597.965 2982.08,645.57 2985.8,693.572 2989.52,741.972 2993.24,790.77 2996.96,839.964 3000.68,889.557 3004.39,939.547 3008.11,989.934 3011.83,1040.84 3015.55,1090.68 3019.27,1139.33 3022.99,1186.8 3026.71,1233.09 3030.43,1278.19 3034.15,1322.14 3037.87,1364.89 3041.58,1405.97 3045.3,1445.38 3049.02,1483.13 3052.74,1519.21 3056.46,1553.62 3060.18,1586.35 3063.9,1617.45 3067.62,1647.06 3071.34,1675.16 3075.06,1701.76 3078.78,1726.86 3082.49,1750.45 3086.21,1772.43 3089.93,1793.09 3093.65,1812.61 3097.37,1831.01 3101.09,1848.28 3104.81,1864.43 3108.53,1879.44 3112.25,1893.29 3115.97,1905.86 3119.69,1917.67 3123.4,1928.73 3127.12,1939.04 3130.84,1948.61 3134.56,1957.42 3138.28,1965.48 3142,1972.78 3145.72,1979.34 3149.44,1984.99 3153.16,1990.13 3156.88,1994.78 3160.59,1998.93 3164.31,2002.59 3168.03,2005.76 3171.75,2008.43 3175.47,2010.61 3179.19,2012.3 3182.91,2013.48 3186.63,2014.13 3190.35,2014.42 3194.07,2014.33 3197.79,2013.87 3201.5,2013.04 3205.22,2011.85 3208.94,2010.28 3212.66,2008.35 3216.38,2006.03 3220.1,2003.4 3223.82,2000.47 3227.54,1997.24 3231.26,1993.7 3234.98,1989.86 3238.7,1985.71 3242.41,1981.26 3246.13,1976.5 3249.85,1971.44 3253.57,1966.09 3257.29,1960.46 3261.01,1954.56 3264.73,1948.38 3268.45,1941.93 3272.17,1935.21 3275.89,1928.2 3279.6,1920.93 3283.32,1913.38 3287.04,1905.57 3290.76,1897.49 3294.48,1889.15 3298.2,1880.53 3301.92,1871.64 3305.64,1862.49 3309.36,1853.06 3313.08,1843.36 3316.8,1833.39 3320.51,1823.15 3324.23,1812.65 3327.95,1801.89 3331.67,1790.84 3335.39,1779.51 3339.11,1767.9 3342.83,1756.01 3346.55,1743.84 3350.27,1731.38 3353.99,1718.64 3357.71,1705.62 3361.42,1692.32 3365.14,1678.74 3368.86,1664.89 3372.58,1650.73 3376.3,1636.28 3380.02,1621.52 3383.74,1606.46 3387.46,1591.1 3391.18,1575.44 3394.9,1559.47 3398.62,1543.21 3402.33,1526.64 3406.05,1509.77 3409.77,1492.61 3413.49,1475.13 3417.21,1457.34 3420.93,1439.23 3424.65,1420.81 3428.37,1402.07 3432.09,1383.02 3435.81,1363.65 3439.52,1343.97 3443.24,1323.97 3446.96,1303.65 3450.68,1283 3454.4,1262.05 3458.12,1240.81 3461.84,1219.28 3465.56,1197.44 3469.28,1175.32 3473,1152.9 3476.72,1130.18 3480.43,1107.18 3484.15,1083.87 3487.87,1060.27 3491.59,1036.38 3495.31,1012.17 3499.03,987.773 3502.75,963.176 3506.47,938.383 3510.19,913.394 3513.91,888.209 3517.63,862.827 3521.34,837.249 3525.06,811.446 3528.78,785.39 3532.5,759.361 3536.22,733.36 3539.94,707.387 3543.66,681.441 3547.38,655.522 3551.1,629.631 3554.82,603.767 3558.53,577.841 3562.25,551.9 3565.97,526.463 3569.69,501.529 3573.41,477.099 3577.13,453.173 3580.85,429.749 3584.57,406.83 3588.29,384.414 3592.01,362.298 3595.73,340.761 3599.44,320.599 3603.16,301.81 3606.88,284.394 3610.6,268.353 3614.32,253.684 3618.04,240.39 3621.76,228.469 3625.48,217.787 3629.2,208.946 3632.92,202.485 3636.64,198.403 3640.35,196.701 3644.07,197.379 3647.79,200.435 3651.51,205.826 3655.23,213.888 3658.95,224.931 3662.67,238.956 3666.39,255.962 3670.11,275.95 3673.83,298.919 3677.55,325 3681.26,354.14 3684.98,385.737 3688.7,419.791 3692.42,456.302 3696.14,495.271 3699.86,536.698 3703.58,580.876 3707.3,627.72 3711.02,675.123 3714.74,723.085 3718.45,771.605 3722.17,820.685 3725.89,870.324 3729.61,920.522 3733.33,971.387 3737.05,1022.47 3740.77,1072.47 3744.49,1121.4 3748.21,1169.24 3751.93,1216.01 3755.65,1261.69 3759.36,1306.39 3763.08,1349.71 3766.8,1391.37 3770.52,1431.37 3774.24,1469.72 3777.96,1506.41 3781.68,1541.44 3785.4,1574.79 3789.12,1606.58 3792.84,1636.82 3796.56,1665.52 3800.27,1692.68 3803.99,1718.29 3807.71,1742.33 3811.43,1764.77 3815.15,1786.02 3818.87,1806.09 3822.59,1824.98 3826.31,1842.68 3830.03,1859.2 3833.75,1874.54 3837.46,1888.48 3841.18,1901.56 3844.9,1913.84 3848.62,1925.31 3852.34,1935.99 3856.06,1945.85 3859.78,1954.92 3863.5,1963.18 3867.22,1970.58 3870.94,1977.07 3874.66,1983.04 3878.37,1988.5 3882.09,1993.44 3885.81,1997.86 3889.53,2001.77 3893.25,2005.16 3896.97,2008.03 3900.69,2010.39 3904.41,2012.23 3908.13,2013.5 3911.85,2014.34 3915.57,2014.79 3919.28,2014.86 3923,2014.55 3926.72,2013.85 3930.44,2012.77 3934.16,2011.31 3937.88,2009.47 3941.6,2007.29 3945.32,2004.78 3949.04,2001.95 3952.76,1998.78 "/>
<polyline clip-path="url(#clip562)" style="stroke:#e26f46; stroke-linecap:round; stroke-linejoin:round; stroke-width:4; stroke-opacity:1; fill:none" points="237.409,1973.75 241.128,1993.62 244.847,2013.08 248.566,2032.09 252.285,2050.66 256.004,2068.78 259.723,2086.43 263.442,2103.62 267.161,2120.34 270.881,2136.59 274.6,2152.37 278.319,2167.69 282.038,2182.54 285.757,2196.95 289.476,2210.89 293.195,2224.38 296.914,2237.45 300.633,2250.1 304.352,2262.33 308.071,2274.14 311.79,2285.54 315.509,2296.53 319.228,2307.16 322.947,2317.43 326.667,2327.34 330.386,2336.88 334.105,2346.06 337.824,2354.88 341.543,2363.42 345.262,2371.65 348.981,2379.59 352.7,2387.24 356.419,2394.59 360.138,2401.64 363.857,2408.39 367.576,2414.9 371.295,2421.18 375.014,2427.23 378.733,2433.05 382.453,2438.64 386.172,2444 389.891,2449.14 393.61,2454.01 397.329,2458.72 401.048,2463.25 404.767,2467.61 408.486,2471.81 412.205,2475.83 415.924,2479.68 419.643,2483.37 423.362,2486.88 427.081,2490.21 430.8,2493.39 434.519,2496.44 438.239,2499.37 441.958,2502.17 445.677,2504.84 449.396,2507.39 453.115,2509.81 456.834,2512.11 460.553,2514.28 464.272,2516.31 467.991,2518.24 471.71,2520.07 475.429,2521.8 479.148,2523.43 482.867,2524.96 486.586,2526.39 490.305,2527.72 494.024,2528.95 497.744,2530.08 501.463,2531.1 505.182,2532.04 508.901,2532.89 512.62,2533.64 516.339,2534.3 520.058,2534.87 523.777,2535.35 527.496,2535.74 531.215,2536.04 534.934,2536.25 538.653,2536.36 542.372,2536.37 546.091,2536.28 549.81,2536.08 553.53,2535.78 557.249,2535.38 560.968,2534.87 564.687,2534.26 568.406,2533.55 572.125,2532.74 575.844,2531.82 579.563,2530.75 583.282,2529.54 587.001,2528.18 590.72,2526.68 594.439,2525.04 598.158,2523.25 601.877,2521.32 605.596,2519.27 609.316,2517.02 613.035,2514.55 616.754,2511.85 620.473,2508.94 624.192,2505.8 627.911,2502.43 631.63,2498.85 635.349,2495.07 639.068,2491.05 642.787,2486.66 646.506,2481.9 650.225,2476.77 653.944,2471.26 657.663,2465.39 661.382,2459.14 665.102,2452.52 668.821,2445.62 672.54,2438.13 676.259,2430.01 679.978,2421.27 683.697,2411.9 687.416,2401.9 691.135,2391.28 694.854,2380.03 698.573,2368.23 702.292,2355.68 706.011,2342.15 709.73,2327.66 713.449,2312.19 717.168,2295.75 720.888,2278.35 724.607,2259.97 728.326,2240.63 732.045,2220.26 735.764,2198.79 739.483,2176.23 743.202,2152.57 746.921,2127.81 750.64,2101.95 754.359,2075 758.078,2046.78 761.797,2017.93 765.516,1988.48 769.235,1958.43 772.954,1927.77 776.674,1896.51 780.393,1864.58 784.112,1832.04 787.831,1800.2 791.55,1769.07 795.269,1738.63 798.988,1708.89 802.707,1679.85 806.426,1651.36 810.145,1623.87 813.864,1598.5 817.583,1575.27 821.302,1554.16 825.021,1535.18 828.74,1518.32 832.46,1503.59 836.179,1491.02 839.898,1480.89 843.617,1473.2 847.336,1467.98 851.055,1465.2 854.774,1464.88 858.493,1467.03 862.212,1471.11 865.931,1477.09 869.65,1484.99 873.369,1494.79 877.088,1506.5 880.807,1520.17 884.526,1535.01 888.245,1550.9 891.965,1567.83 895.684,1585.81 899.403,1604.84 903.122,1625.05 906.841,1645.79 910.56,1666.81 914.279,1688.1 917.998,1709.68 921.717,1731.52 925.436,1753.65 929.155,1776.18 932.874,1798.61 936.593,1820.8 940.312,1842.74 944.031,1864.43 947.751,1885.89 951.47,1907.1 955.189,1928.07 958.908,1948.88 962.627,1969.35 966.346,1989.36 970.065,2008.91 973.784,2027.99 977.503,2046.6 981.222,2064.75 984.941,2082.44 988.66,2099.66 992.379,2116.42 996.098,2132.72 999.817,2148.59 1003.54,2164.01 1007.26,2178.99 1010.97,2193.51 1014.69,2207.58 1018.41,2221.2 1022.13,2234.37 1025.85,2247.06 1029.57,2259.33 1033.29,2271.22 1037.01,2282.74 1040.73,2293.88 1044.45,2304.64 1048.17,2315.04 1051.88,2325.05 1055.6,2334.69 1059.32,2343.96 1063.04,2352.82 1066.76,2361.39 1070.48,2369.68 1074.2,2377.68 1077.92,2385.41 1081.64,2392.85 1085.36,2400.02 1089.08,2406.9 1092.79,2413.51 1096.51,2419.83 1100.23,2425.83 1103.95,2431.64 1107.67,2437.26 1111.39,2442.67 1115.11,2447.88 1118.83,2452.9 1122.55,2457.71 1126.27,2462.33 1129.98,2466.75 1133.7,2470.97 1137.42,2474.98 1141.14,2478.79 1144.86,2482.46 1148.58,2486 1152.3,2489.4 1156.02,2492.66 1159.74,2495.78 1163.46,2498.76 1167.18,2501.61 1170.89,2504.32 1174.61,2506.89 1178.33,2509.33 1182.05,2511.61 1185.77,2513.78 1189.49,2515.85 1193.21,2517.82 1196.93,2519.68 1200.65,2521.45 1204.37,2523.11 1208.09,2524.67 1211.8,2526.13 1215.52,2527.48 1219.24,2528.74 1222.96,2529.88 1226.68,2530.93 1230.4,2531.89 1234.12,2532.75 1237.84,2533.53 1241.56,2534.21 1245.28,2534.81 1248.99,2535.31 1252.71,2535.72 1256.43,2536.04 1260.15,2536.27 1263.87,2536.41 1267.59,2536.47 1271.31,2536.43 1275.03,2536.27 1278.75,2536 1282.47,2535.63 1286.19,2535.15 1289.9,2534.55 1293.62,2533.85 1297.34,2533.04 1301.06,2532.12 1304.78,2531.1 1308.5,2529.96 1312.22,2528.7 1315.94,2527.28 1319.66,2525.69 1323.38,2523.93 1327.1,2522.01 1330.81,2519.93 1334.53,2517.69 1338.25,2515.28 1341.97,2512.73 1345.69,2509.97 1349.41,2506.94 1353.13,2503.64 1356.85,2500.09 1360.57,2496.27 1364.29,2492.2 1368.01,2487.86 1371.72,2483.28 1375.44,2478.44 1379.16,2473.16 1382.88,2467.44 1386.6,2461.28 1390.32,2454.67 1394.04,2447.61 1397.76,2440.12 1401.48,2432.18 1405.2,2423.9 1408.91,2414.95 1412.63,2405.26 1416.35,2394.84 1420.07,2383.67 1423.79,2371.77 1427.51,2359.13 1431.23,2345.75 1434.95,2331.67 1438.67,2316.73 1442.39,2300.75 1446.11,2283.71 1449.82,2265.62 1453.54,2246.48 1457.26,2226.29 1460.98,2205.06 1464.7,2182.69 1468.42,2159.24 1472.14,2134.78 1475.86,2109.29 1479.58,2082.78 1483.3,2055.25 1487.02,2026.7 1490.73,1997.13 1494.45,1966.21 1498.17,1935.14 1501.89,1903.98 1505.61,1872.76 1509.33,1841.46 1513.05,1810.09 1516.77,1778.65 1520.49,1746.94 1524.21,1715.45 1527.92,1685.58 1531.64,1657.33 1535.36,1630.7 1539.08,1605.7 1542.8,1582.31 1546.52,1560.54 1550.24,1540.35 1553.96,1522.27 1557.68,1506.67 1561.4,1493.54 1565.12,1482.88 1568.83,1474.7 1572.55,1468.99 1576.27,1465.79 1579.99,1464.82 1583.71,1465.95 1587.43,1469.19 1591.15,1474.54 1594.87,1482 1598.59,1491.57 1602.31,1503.28 1606.03,1516.27 1609.74,1530.45 1613.46,1545.83 1617.18,1562.4 1620.9,1580.16 1624.62,1599.16 1628.34,1619.27 1632.06,1639.72 1635.78,1660.51 1639.5,1681.65 1643.22,1703.12 1646.93,1724.94 1650.65,1747.1 1654.37,1769.74 1658.09,1792.16 1661.81,1814.35 1665.53,1836.31 1669.25,1858.05 1672.97,1879.57 1676.69,1900.86 1680.41,1921.92 1684.13,1942.86 1687.84,1963.47 1691.56,1983.61 1695.28,2003.28 1699,2022.5 1702.72,2041.25 1706.44,2059.53 1710.16,2077.35 1713.88,2094.71 1717.6,2111.6 1721.32,2128.03 1725.04,2144.03 1728.75,2159.59 1732.47,2174.7 1736.19,2189.36 1739.91,2203.57 1743.63,2217.33 1747.35,2230.63 1751.07,2243.48 1754.79,2255.85 1758.51,2267.85 1762.23,2279.48 1765.95,2290.73 1769.66,2301.6 1773.38,2312.11 1777.1,2322.24 1780.82,2332 1784.54,2341.38 1788.26,2350.38 1791.98,2359.01 1795.7,2367.37 1799.42,2375.45 1803.14,2383.26 1806.85,2390.78 1810.57,2398.03 1814.29,2405 1818.01,2411.69 1821.73,2418.11 1825.45,2424.23 1829.17,2430.08 1832.89,2435.73 1836.61,2441.19 1840.33,2446.46 1844.05,2451.53 1847.76,2456.4 1851.48,2461.08 1855.2,2465.56 1858.92,2469.85 1862.64,2473.94 1866.36,2477.82 1870.08,2481.52 1873.8,2485.08 1877.52,2488.51 1881.24,2491.8 1884.96,2494.96 1888.67,2497.98 1892.39,2500.87 1896.11,2503.62 1899.83,2506.24 1903.55,2508.72 1907.27,2511.07 1910.99,2513.26 1914.71,2515.36 1918.43,2517.35 1922.15,2519.24 1925.86,2521.03 1929.58,2522.72 1933.3,2524.31 1937.02,2525.8 1940.74,2527.18 1944.46,2528.47 1948.18,2529.66 1951.9,2530.74 1955.62,2531.72 1959.34,2532.61 1963.06,2533.41 1966.77,2534.12 1970.49,2534.74 1974.21,2535.27 1977.93,2535.71 1981.65,2536.06 1985.37,2536.31 1989.09,2536.48 1992.81,2536.55 1996.53,2536.55 2000.25,2536.44 2003.97,2536.22 2007.68,2535.88 2011.4,2535.43 2015.12,2534.87 2018.84,2534.2 2022.56,2533.42 2026.28,2532.53 2030,2531.52 2033.72,2530.4 2037.44,2529.18 2041.16,2527.83 2044.88,2526.33 2048.59,2524.64 2052.31,2522.78 2056.03,2520.75 2059.75,2518.54 2063.47,2516.16 2067.19,2513.6 2070.91,2510.87 2074.63,2508.01 2078.35,2504.87 2082.07,2501.44 2085.78,2497.72 2089.5,2493.71 2093.22,2489.42 2096.94,2484.83 2100.66,2479.95 2104.38,2474.79 2108.1,2469.41 2111.82,2463.52 2115.54,2457.13 2119.26,2450.23 2122.98,2442.83 2126.69,2434.93 2130.41,2426.52 2134.13,2417.61 2137.85,2408.24 2141.57,2398.36 2145.29,2387.65 2149.01,2376.09 2152.73,2363.69 2156.45,2350.45 2160.17,2336.37 2163.89,2321.45 2167.6,2305.69 2171.32,2289.09 2175.04,2271.5 2178.76,2252.8 2182.48,2233.01 2186.2,2212.11 2189.92,2190.1 2193.64,2167 2197.36,2142.75 2201.08,2117.34 2204.79,2091.04 2208.51,2063.82 2212.23,2035.71 2215.95,2006.69 2219.67,1976.77 2223.39,1945.9 2227.11,1914.02 2230.83,1882.3 2234.55,1850.75 2238.27,1819.36 2241.99,1788.14 2245.7,1757.08 2249.42,1726.18 2253.14,1695.01 2256.86,1665.6 2260.58,1638.01 2264.3,1612.25 2268.02,1588.3 2271.74,1566.18 2275.46,1545.87 2279.18,1527.39 2282.9,1510.84 2286.61,1496.76 2290.33,1485.17 2294.05,1476.06 2297.77,1469.45 2301.49,1465.32 2305.21,1463.72 2308.93,1464.46 2312.65,1467.19 2316.37,1471.9 2320.09,1478.61 2323.8,1487.3 2327.52,1497.99 2331.24,1510.76 2334.96,1524.92 2338.68,1540.14 2342.4,1556.42 2346.12,1573.76 2349.84,1592.15 2353.56,1611.6 2357.28,1632.23 2361,1653.19 2364.71,1674.41 2368.43,1695.86 2372.15,1717.56 2375.87,1739.5 2379.59,1761.68 2383.31,1784.25 2387.03,1806.75 2390.75,1828.96 2394.47,1850.9 2398.19,1872.56 2401.91,1893.94 2405.62,1915.05 2409.34,1935.87 2413.06,1956.41 2416.78,1976.77 2420.5,1996.67 2424.22,2016.11 2427.94,2035.07 2431.66,2053.56 2435.38,2071.59 2439.1,2089.14 2442.82,2106.22 2446.53,2122.82 2450.25,2138.96 2453.97,2154.64 2457.69,2169.89 2461.41,2184.7 2465.13,2199.06 2468.85,2212.97 2472.57,2226.44 2476.29,2239.47 2480.01,2252.05 2483.72,2264.15 2487.44,2275.86 2491.16,2287.21 2494.88,2298.19 2498.6,2308.81 2502.32,2319.07 2506.04,2328.96 2509.76,2338.49 2513.48,2347.65 2517.2,2356.45 2520.92,2364.87 2524.63,2373.01 2528.35,2380.88 2532.07,2388.48 2535.79,2395.81 2539.51,2402.87 2543.23,2409.66 2546.95,2416.19 2550.67,2422.44 2554.39,2428.41 2558.11,2434.1 2561.83,2439.6 2565.54,2444.91 2569.26,2450.03 2572.98,2454.95 2576.7,2459.69 2580.42,2464.24 2584.14,2468.6 2587.86,2472.77 2591.58,2476.75 2595.3,2480.52 2599.02,2484.11 2602.73,2487.57 2606.45,2490.89 2610.17,2494.09 2613.89,2497.15 2617.61,2500.07 2621.33,2502.87 2625.05,2505.53 2628.77,2508.07 2632.49,2510.46 2636.21,2512.73 2639.93,2514.85 2643.64,2516.87 2647.36,2518.79 2651.08,2520.6 2654.8,2522.32 2658.52,2523.94 2662.24,2525.46 2665.96,2526.88 2669.68,2528.2 2673.4,2529.43 2677.12,2530.55 2680.84,2531.57 2684.55,2532.49 2688.27,2533.32 2691.99,2534.06 2695.71,2534.71 2699.43,2535.27 2703.15,2535.74 2706.87,2536.11 2710.59,2536.4 2714.31,2536.59 2718.03,2536.7 2721.75,2536.71 2725.46,2536.65 2729.18,2536.47 2732.9,2536.18 2736.62,2535.77 2740.34,2535.26 2744.06,2534.62 2747.78,2533.88 2751.5,2533.02 2755.22,2532.05 2758.94,2530.97 2762.65,2529.77 2766.37,2528.46 2770.09,2527.03 2773.81,2525.42 2777.53,2523.64 2781.25,2521.67 2784.97,2519.53 2788.69,2517.2 2792.41,2514.7 2796.13,2512.01 2799.85,2509.15 2803.56,2506.16 2807.28,2502.87 2811,2499.28 2814.72,2495.38 2818.44,2491.19 2822.16,2486.69 2825.88,2481.89 2829.6,2476.79 2833.32,2471.39 2837.04,2465.78 2840.76,2459.64 2844.47,2452.98 2848.19,2445.78 2851.91,2438.06 2855.63,2429.8 2859.35,2421.01 2863.07,2411.7 2866.79,2401.85 2870.51,2391.59 2874.23,2380.45 2877.95,2368.43 2881.66,2355.53 2885.38,2341.75 2889.1,2327.09 2892.82,2311.54 2896.54,2295.11 2900.26,2277.8 2903.98,2259.54 2907.7,2240.16 2911.42,2219.67 2915.14,2198.07 2918.86,2175.36 2922.57,2151.53 2926.29,2126.58 2930.01,2100.39 2933.73,2073.35 2937.45,2045.48 2941.17,2016.77 2944.89,1987.23 2948.61,1956.85 2952.33,1925.6 2956.05,1893.38 2959.77,1861.45 2963.48,1829.81 2967.2,1798.46 2970.92,1767.4 2974.64,1736.62 2978.36,1706.04 2982.08,1675.48 2985.8,1646.86 2989.52,1620.18 2993.24,1595.42 2996.96,1572.61 3000.68,1551.72 3004.39,1532.77 3008.11,1515.75 3011.83,1500.75 3015.55,1488.2 3019.27,1478.15 3022.99,1470.58 3026.71,1465.49 3030.43,1462.89 3034.15,1462.8 3037.87,1465.1 3041.58,1469.29 3045.3,1475.36 3049.02,1483.32 3052.74,1493.18 3056.46,1504.91 3060.18,1518.63 3063.9,1533.83 3067.62,1549.97 3071.34,1567.04 3075.06,1585.05 3078.78,1604 3082.49,1623.89 3086.21,1644.86 3089.93,1666.29 3093.65,1687.86 3097.37,1709.59 3101.09,1731.47 3104.81,1753.49 3108.53,1775.67 3112.25,1798.03 3115.97,1820.6 3119.69,1842.84 3123.4,1864.76 3127.12,1886.34 3130.84,1907.59 3134.56,1928.51 3138.28,1949.1 3142,1969.36 3145.72,1989.29 3149.44,2008.95 3153.16,2028.14 3156.88,2046.86 3160.59,2065.1 3164.31,2082.86 3168.03,2100.15 3171.75,2116.97 3175.47,2133.31 3179.19,2149.17 3182.91,2164.56 3186.63,2179.51 3190.35,2194.02 3194.07,2208.1 3197.79,2221.74 3201.5,2234.94 3205.22,2247.7 3208.94,2260.03 3212.66,2271.92 3216.38,2283.35 3220.1,2294.43 3223.82,2305.15 3227.54,2315.52 3231.26,2325.54 3234.98,2335.2 3238.7,2344.52 3242.41,2353.48 3246.13,2362.08 3249.85,2370.32 3253.57,2378.25 3257.29,2385.93 3261.01,2393.34 3264.73,2400.49 3268.45,2407.37 3272.17,2413.99 3275.89,2420.35 3279.6,2426.45 3283.32,2432.28 3287.04,2437.82 3290.76,2443.18 3294.48,2448.35 3298.2,2453.34 3301.92,2458.14 3305.64,2462.75 3309.36,2467.18 3313.08,2471.42 3316.8,2475.47 3320.51,2479.34 3324.23,2483.01 3327.95,2486.5 3331.67,2489.87 3335.39,2493.1 3339.11,2496.2 3342.83,2499.17 3346.55,2502.01 3350.27,2504.72 3353.99,2507.3 3357.71,2509.75 3361.42,2512.07 3365.14,2514.25 3368.86,2516.3 3372.58,2518.25 3376.3,2520.11 3380.02,2521.86 3383.74,2523.51 3387.46,2525.07 3391.18,2526.52 3394.9,2527.88 3398.62,2529.14 3402.33,2530.3 3406.05,2531.35 3409.77,2532.31 3413.49,2533.17 3417.21,2533.95 3420.93,2534.63 3424.65,2535.22 3428.37,2535.73 3432.09,2536.14 3435.81,2536.46 3439.52,2536.68 3443.24,2536.82 3446.96,2536.87 3450.68,2536.84 3454.4,2536.7 3458.12,2536.45 3461.84,2536.08 3465.56,2535.61 3469.28,2535.02 3473,2534.32 3476.72,2533.5 3480.43,2532.58 3484.15,2531.54 3487.87,2530.4 3491.59,2529.14 3495.31,2527.76 3499.03,2526.2 3502.75,2524.47 3506.47,2522.57 3510.19,2520.49 3513.91,2518.24 3517.63,2515.81 3521.34,2513.2 3525.06,2510.44 3528.78,2507.52 3532.5,2504.3 3536.22,2500.8 3539.94,2497.01 3543.66,2492.92 3547.38,2488.54 3551.1,2483.88 3554.82,2478.92 3558.53,2473.71 3562.25,2468.2 3565.97,2462.19 3569.69,2455.67 3573.41,2448.65 3577.13,2441.11 3580.85,2433.06 3584.57,2424.51 3588.29,2415.44 3592.01,2405.94 3595.73,2395.86 3599.44,2384.94 3603.16,2373.16 3606.88,2360.53 3610.6,2347.06 3614.32,2332.73 3618.04,2317.54 3621.76,2301.51 3625.48,2284.63 3629.2,2266.73 3632.92,2247.72 3636.64,2227.6 3640.35,2206.37 3644.07,2184.03 3647.79,2160.59 3651.51,2135.97 3655.23,2110.23 3658.95,2083.6 3662.67,2056.07 3666.39,2027.65 3670.11,1998.33 3673.83,1968.11 3677.55,1936.84 3681.26,1904.87 3684.98,1873.07 3688.7,1841.45 3692.42,1810.01 3696.14,1778.75 3699.86,1747.66 3703.58,1716.55 3707.3,1685.7 3711.02,1656.68 3714.74,1629.49 3718.45,1604.14 3722.17,1580.62 3725.89,1558.94 3729.61,1539.09 3733.33,1521.05 3737.05,1505.12 3740.77,1491.69 3744.49,1480.76 3748.21,1472.33 3751.93,1466.4 3755.65,1462.97 3759.36,1462.09 3763.08,1463.4 3766.8,1466.71 3770.52,1472.01 3774.24,1479.31 3777.96,1488.6 3781.68,1499.88 3785.4,1513.21 3789.12,1527.72 3792.84,1543.29 3796.56,1559.93 3800.27,1577.62 3803.99,1596.36 3807.71,1616.21 3811.43,1637.07 3815.15,1658.17 3818.87,1679.5 3822.59,1701.08 3826.31,1722.91 3830.03,1744.97 3833.75,1767.27 3837.46,1789.97 3841.18,1812.44 3844.9,1834.63 3848.62,1856.54 3852.34,1878.17 3856.06,1899.51 3859.78,1920.58 3863.5,1941.36 3867.22,1961.89 3870.94,1982.17 3874.66,2001.98 3878.37,2021.32 3882.09,2040.18 3885.81,2058.57 3889.53,2076.48 3893.25,2093.93 3896.97,2110.9 3900.69,2127.4 3904.41,2143.42 3908.13,2159 3911.85,2174.15 3915.57,2188.84 3919.28,2203.09 3923,2216.9 3926.72,2230.26 3930.44,2243.17 3934.16,2255.64 3937.88,2267.68 3941.6,2279.33 3945.32,2290.59 3949.04,2301.46 3952.76,2311.94 "/>
</svg>
