<?xml version="1.0" encoding="utf-8"?>
<svg xmlns="http://www.w3.org/2000/svg" xmlns:xlink="http://www.w3.org/1999/xlink" width="1000" height="700" viewBox="0 0 4000 2800">
<defs>
  <clipPath id="clip250">
    <rect x="0" y="0" width="4000" height="2800"/>
  </clipPath>
</defs>
<path clip-path="url(#clip250)" d="M0 2800 L4000 2800 L4000 0 L0 0  Z" fill="#ffffff" fill-rule="evenodd" fill-opacity="1"/>
<defs>
  <clipPath id="clip251">
    <rect x="800" y="0" width="2801" height="2800"/>
  </clipPath>
</defs>
<path clip-path="url(#clip250)" d="M230.511 2607.08 L3952.76 2607.08 L3952.76 126.496 L230.511 126.496  Z" fill="#ffffff" fill-rule="evenodd" fill-opacity="1"/>
<defs>
  <clipPath id="clip252">
    <rect x="230" y="126" width="3723" height="2482"/>
  </clipPath>
</defs>
<polyline clip-path="url(#clip252)" style="stroke:#000000; stroke-linecap:round; stroke-linejoin:round; stroke-width:2; stroke-opacity:0.1; fill:none" points="230.511,2607.08 230.511,126.496 "/>
<polyline clip-path="url(#clip252)" style="stroke:#000000; stroke-linecap:round; stroke-linejoin:round; stroke-width:2; stroke-opacity:0.1; fill:none" points="974.96,2607.08 974.96,126.496 "/>
<polyline clip-path="url(#clip252)" style="stroke:#000000; stroke-linecap:round; stroke-linejoin:round; stroke-width:2; stroke-opacity:0.1; fill:none" points="1719.41,2607.08 1719.41,126.496 "/>
<polyline clip-path="url(#clip252)" style="stroke:#000000; stroke-linecap:round; stroke-linejoin:round; stroke-width:2; stroke-opacity:0.1; fill:none" points="2463.86,2607.08 2463.86,126.496 "/>
<polyline clip-path="url(#clip252)" style="stroke:#000000; stroke-linecap:round; stroke-linejoin:round; stroke-width:2; stroke-opacity:0.1; fill:none" points="3208.31,2607.08 3208.31,126.496 "/>
<polyline clip-path="url(#clip252)" style="stroke:#000000; stroke-linecap:round; stroke-linejoin:round; stroke-width:2; stroke-opacity:0.1; fill:none" points="3952.76,2607.08 3952.76,126.496 "/>
<polyline clip-path="url(#clip250)" style="stroke:#000000; stroke-linecap:round; stroke-linejoin:round; stroke-width:4; stroke-opacity:1; fill:none" points="230.511,2607.08 3952.76,2607.08 "/>
<polyline clip-path="url(#clip250)" style="stroke:#000000; stroke-linecap:round; stroke-linejoin:round; stroke-width:4; stroke-opacity:1; fill:none" points="230.511,2607.08 230.511,2588.18 "/>
<polyline clip-path="url(#clip250)" style="stroke:#000000; stroke-linecap:round; stroke-linejoin:round; stroke-width:4; stroke-opacity:1; fill:none" points="974.96,2607.08 974.96,2588.18 "/>
<polyline clip-path="url(#clip250)" style="stroke:#000000; stroke-linecap:round; stroke-linejoin:round; stroke-width:4; stroke-opacity:1; fill:none" points="1719.41,2607.08 1719.41,2588.18 "/>
<polyline clip-path="url(#clip250)" style="stroke:#000000; stroke-linecap:round; stroke-linejoin:round; stroke-width:4; stroke-opacity:1; fill:none" points="2463.86,2607.08 2463.86,2588.18 "/>
<polyline clip-path="url(#clip250)" style="stroke:#000000; stroke-linecap:round; stroke-linejoin:round; stroke-width:4; stroke-opacity:1; fill:none" points="3208.31,2607.08 3208.31,2588.18 "/>
<polyline clip-path="url(#clip250)" style="stroke:#000000; stroke-linecap:round; stroke-linejoin:round; stroke-width:4; stroke-opacity:1; fill:none" points="3952.76,2607.08 3952.76,2588.18 "/>
<path clip-path="url(#clip250)" d="M230.511 2650.79 Q226.9 2650.79 225.071 2654.36 Q223.265 2657.9 223.265 2665.03 Q223.265 2672.14 225.071 2675.7 Q226.9 2679.24 230.511 2679.24 Q234.145 2679.24 235.951 2675.7 Q237.779 2672.14 237.779 2665.03 Q237.779 2657.9 235.951 2654.36 Q234.145 2650.79 230.511 2650.79 M230.511 2647.09 Q236.321 2647.09 239.377 2651.7 Q242.455 2656.28 242.455 2665.03 Q242.455 2673.76 239.377 2678.36 Q236.321 2682.95 230.511 2682.95 Q224.701 2682.95 221.622 2678.36 Q218.566 2673.76 218.566 2665.03 Q218.566 2656.28 221.622 2651.7 Q224.701 2647.09 230.511 2647.09 Z" fill="#000000" fill-rule="nonzero" fill-opacity="1" /><path clip-path="url(#clip250)" d="M953.733 2678.34 L970.052 2678.34 L970.052 2682.28 L948.108 2682.28 L948.108 2678.34 Q950.77 2675.59 955.353 2670.96 Q959.96 2666.3 961.14 2664.96 Q963.386 2662.44 964.265 2660.7 Q965.168 2658.94 965.168 2657.25 Q965.168 2654.5 963.224 2652.76 Q961.303 2651.03 958.201 2651.03 Q956.002 2651.03 953.548 2651.79 Q951.117 2652.55 948.34 2654.1 L948.34 2649.38 Q951.164 2648.25 953.617 2647.67 Q956.071 2647.09 958.108 2647.09 Q963.478 2647.09 966.673 2649.78 Q969.867 2652.46 969.867 2656.95 Q969.867 2659.08 969.057 2661 Q968.27 2662.9 966.164 2665.49 Q965.585 2666.16 962.483 2669.38 Q959.381 2672.58 953.733 2678.34 Z" fill="#000000" fill-rule="nonzero" fill-opacity="1" /><path clip-path="url(#clip250)" d="M989.867 2650.79 Q986.256 2650.79 984.427 2654.36 Q982.622 2657.9 982.622 2665.03 Q982.622 2672.14 984.427 2675.7 Q986.256 2679.24 989.867 2679.24 Q993.501 2679.24 995.307 2675.7 Q997.136 2672.14 997.136 2665.03 Q997.136 2657.9 995.307 2654.36 Q993.501 2650.79 989.867 2650.79 M989.867 2647.09 Q995.677 2647.09 998.733 2651.7 Q1001.81 2656.28 1001.81 2665.03 Q1001.81 2673.76 998.733 2678.36 Q995.677 2682.95 989.867 2682.95 Q984.057 2682.95 980.978 2678.36 Q977.923 2673.76 977.923 2665.03 Q977.923 2656.28 980.978 2651.7 Q984.057 2647.09 989.867 2647.09 Z" fill="#000000" fill-rule="nonzero" fill-opacity="1" /><path clip-path="url(#clip250)" d="M1707.58 2651.79 L1695.77 2670.24 L1707.58 2670.24 L1707.58 2651.79 M1706.35 2647.72 L1712.23 2647.72 L1712.23 2670.24 L1717.16 2670.24 L1717.16 2674.13 L1712.23 2674.13 L1712.23 2682.28 L1707.58 2682.28 L1707.58 2674.13 L1691.98 2674.13 L1691.98 2669.61 L1706.35 2647.72 Z" fill="#000000" fill-rule="nonzero" fill-opacity="1" /><path clip-path="url(#clip250)" d="M1734.89 2650.79 Q1731.28 2650.79 1729.46 2654.36 Q1727.65 2657.9 1727.65 2665.03 Q1727.65 2672.14 1729.46 2675.7 Q1731.28 2679.24 1734.89 2679.24 Q1738.53 2679.24 1740.33 2675.7 Q1742.16 2672.14 1742.16 2665.03 Q1742.16 2657.9 1740.33 2654.36 Q1738.53 2650.79 1734.89 2650.79 M1734.89 2647.09 Q1740.71 2647.09 1743.76 2651.7 Q1746.84 2656.28 1746.84 2665.03 Q1746.84 2673.76 1743.76 2678.36 Q1740.71 2682.95 1734.89 2682.95 Q1729.08 2682.95 1726.01 2678.36 Q1722.95 2673.76 1722.95 2665.03 Q1722.95 2656.28 1726.01 2651.7 Q1729.08 2647.09 1734.89 2647.09 Z" fill="#000000" fill-rule="nonzero" fill-opacity="1" /><path clip-path="url(#clip250)" d="M2449.26 2663.13 Q2446.11 2663.13 2444.26 2665.29 Q2442.43 2667.44 2442.43 2671.19 Q2442.43 2674.91 2444.26 2677.09 Q2446.11 2679.24 2449.26 2679.24 Q2452.41 2679.24 2454.24 2677.09 Q2456.09 2674.91 2456.09 2671.19 Q2456.09 2667.44 2454.24 2665.29 Q2452.41 2663.13 2449.26 2663.13 M2458.55 2648.48 L2458.55 2652.74 Q2456.79 2651.91 2454.98 2651.47 Q2453.2 2651.03 2451.44 2651.03 Q2446.81 2651.03 2444.36 2654.15 Q2441.93 2657.28 2441.58 2663.6 Q2442.94 2661.58 2445 2660.52 Q2447.06 2659.43 2449.54 2659.43 Q2454.75 2659.43 2457.76 2662.6 Q2460.79 2665.75 2460.79 2671.19 Q2460.79 2676.51 2457.64 2679.73 Q2454.49 2682.95 2449.26 2682.95 Q2443.27 2682.95 2440.1 2678.36 Q2436.93 2673.76 2436.93 2665.03 Q2436.93 2656.84 2440.81 2651.98 Q2444.7 2647.09 2451.25 2647.09 Q2453.01 2647.09 2454.8 2647.44 Q2456.6 2647.79 2458.55 2648.48 Z" fill="#000000" fill-rule="nonzero" fill-opacity="1" /><path clip-path="url(#clip250)" d="M2478.85 2650.79 Q2475.24 2650.79 2473.41 2654.36 Q2471.6 2657.9 2471.6 2665.03 Q2471.6 2672.14 2473.41 2675.7 Q2475.24 2679.24 2478.85 2679.24 Q2482.48 2679.24 2484.29 2675.7 Q2486.11 2672.14 2486.11 2665.03 Q2486.11 2657.9 2484.29 2654.36 Q2482.48 2650.79 2478.85 2650.79 M2478.85 2647.09 Q2484.66 2647.09 2487.71 2651.7 Q2490.79 2656.28 2490.79 2665.03 Q2490.79 2673.76 2487.71 2678.36 Q2484.66 2682.95 2478.85 2682.95 Q2473.04 2682.95 2469.96 2678.36 Q2466.9 2673.76 2466.9 2665.03 Q2466.9 2656.28 2469.96 2651.7 Q2473.04 2647.09 2478.85 2647.09 Z" fill="#000000" fill-rule="nonzero" fill-opacity="1" /><path clip-path="url(#clip250)" d="M3193.18 2665.86 Q3189.85 2665.86 3187.93 2667.65 Q3186.03 2669.43 3186.03 2672.55 Q3186.03 2675.68 3187.93 2677.46 Q3189.85 2679.24 3193.18 2679.24 Q3196.51 2679.24 3198.43 2677.46 Q3200.36 2675.66 3200.36 2672.55 Q3200.36 2669.43 3198.43 2667.65 Q3196.54 2665.86 3193.18 2665.86 M3188.5 2663.87 Q3185.49 2663.13 3183.8 2661.07 Q3182.14 2659.01 3182.14 2656.05 Q3182.14 2651.91 3185.08 2649.5 Q3188.04 2647.09 3193.18 2647.09 Q3198.34 2647.09 3201.28 2649.5 Q3204.22 2651.91 3204.22 2656.05 Q3204.22 2659.01 3202.53 2661.07 Q3200.86 2663.13 3197.88 2663.87 Q3201.26 2664.66 3203.13 2666.95 Q3205.03 2669.24 3205.03 2672.55 Q3205.03 2677.58 3201.95 2680.26 Q3198.9 2682.95 3193.18 2682.95 Q3187.46 2682.95 3184.38 2680.26 Q3181.33 2677.58 3181.33 2672.55 Q3181.33 2669.24 3183.23 2666.95 Q3185.12 2664.66 3188.5 2663.87 M3186.79 2656.49 Q3186.79 2659.17 3188.46 2660.68 Q3190.15 2662.18 3193.18 2662.18 Q3196.19 2662.18 3197.88 2660.68 Q3199.59 2659.17 3199.59 2656.49 Q3199.59 2653.8 3197.88 2652.3 Q3196.19 2650.79 3193.18 2650.79 Q3190.15 2650.79 3188.46 2652.3 Q3186.79 2653.8 3186.79 2656.49 Z" fill="#000000" fill-rule="nonzero" fill-opacity="1" /><path clip-path="url(#clip250)" d="M3223.34 2650.79 Q3219.73 2650.79 3217.9 2654.36 Q3216.1 2657.9 3216.1 2665.03 Q3216.1 2672.14 3217.9 2675.7 Q3219.73 2679.24 3223.34 2679.24 Q3226.98 2679.24 3228.78 2675.7 Q3230.61 2672.14 3230.61 2665.03 Q3230.61 2657.9 3228.78 2654.36 Q3226.98 2650.79 3223.34 2650.79 M3223.34 2647.09 Q3229.15 2647.09 3232.21 2651.7 Q3235.29 2656.28 3235.29 2665.03 Q3235.29 2673.76 3232.21 2678.36 Q3229.15 2682.95 3223.34 2682.95 Q3217.53 2682.95 3214.45 2678.36 Q3211.4 2673.76 3211.4 2665.03 Q3211.4 2656.28 3214.45 2651.7 Q3217.53 2647.09 3223.34 2647.09 Z" fill="#000000" fill-rule="nonzero" fill-opacity="1" /><path clip-path="url(#clip250)" d="M3912.36 2678.34 L3920 2678.34 L3920 2651.98 L3911.69 2653.64 L3911.69 2649.38 L3919.96 2647.72 L3924.63 2647.72 L3924.63 2678.34 L3932.27 2678.34 L3932.27 2682.28 L3912.36 2682.28 L3912.36 2678.34 Z" fill="#000000" fill-rule="nonzero" fill-opacity="1" /><path clip-path="url(#clip250)" d="M3951.71 2650.79 Q3948.1 2650.79 3946.27 2654.36 Q3944.47 2657.9 3944.47 2665.03 Q3944.47 2672.14 3946.27 2675.7 Q3948.1 2679.24 3951.71 2679.24 Q3955.35 2679.24 3957.15 2675.7 Q3958.98 2672.14 3958.98 2665.03 Q3958.98 2657.9 3957.15 2654.36 Q3955.35 2650.79 3951.71 2650.79 M3951.71 2647.09 Q3957.52 2647.09 3960.58 2651.7 Q3963.66 2656.28 3963.66 2665.03 Q3963.66 2673.76 3960.58 2678.36 Q3957.52 2682.95 3951.71 2682.95 Q3945.9 2682.95 3942.83 2678.36 Q3939.77 2673.76 3939.77 2665.03 Q3939.77 2656.28 3942.83 2651.7 Q3945.9 2647.09 3951.71 2647.09 Z" fill="#000000" fill-rule="nonzero" fill-opacity="1" /><path clip-path="url(#clip250)" d="M3981.88 2650.79 Q3978.27 2650.79 3976.44 2654.36 Q3974.63 2657.9 3974.63 2665.03 Q3974.63 2672.14 3976.44 2675.7 Q3978.27 2679.24 3981.88 2679.24 Q3985.51 2679.24 3987.32 2675.7 Q3989.14 2672.14 3989.14 2665.03 Q3989.14 2657.9 3987.32 2654.36 Q3985.51 2650.79 3981.88 2650.79 M3981.88 2647.09 Q3987.69 2647.09 3990.74 2651.7 Q3993.82 2656.28 3993.82 2665.03 Q3993.82 2673.76 3990.74 2678.36 Q3987.69 2682.95 3981.88 2682.95 Q3976.07 2682.95 3972.99 2678.36 Q3969.93 2673.76 3969.93 2665.03 Q3969.93 2656.28 3972.99 2651.7 Q3976.07 2647.09 3981.88 2647.09 Z" fill="#000000" fill-rule="nonzero" fill-opacity="1" /><path clip-path="url(#clip250)" d="M2090.69 2730.17 L2090.69 2740.29 L2102.76 2740.29 L2102.76 2744.84 L2090.69 2744.84 L2090.69 2764.2 Q2090.69 2768.56 2091.87 2769.8 Q2093.08 2771.04 2096.74 2771.04 L2102.76 2771.04 L2102.76 2775.94 L2096.74 2775.94 Q2089.96 2775.94 2087.38 2773.43 Q2084.81 2770.88 2084.81 2764.2 L2084.81 2744.84 L2080.51 2744.84 L2080.51 2740.29 L2084.81 2740.29 L2084.81 2730.17 L2090.69 2730.17 Z" fill="#000000" fill-rule="nonzero" fill-opacity="1" /><polyline clip-path="url(#clip252)" style="stroke:#000000; stroke-linecap:round; stroke-linejoin:round; stroke-width:2; stroke-opacity:0.1; fill:none" points="230.511,2295.74 3952.76,2295.74 "/>
<polyline clip-path="url(#clip252)" style="stroke:#000000; stroke-linecap:round; stroke-linejoin:round; stroke-width:2; stroke-opacity:0.1; fill:none" points="230.511,1831.27 3952.76,1831.27 "/>
<polyline clip-path="url(#clip252)" style="stroke:#000000; stroke-linecap:round; stroke-linejoin:round; stroke-width:2; stroke-opacity:0.1; fill:none" points="230.511,1366.8 3952.76,1366.8 "/>
<polyline clip-path="url(#clip252)" style="stroke:#000000; stroke-linecap:round; stroke-linejoin:round; stroke-width:2; stroke-opacity:0.1; fill:none" points="230.511,902.329 3952.76,902.329 "/>
<polyline clip-path="url(#clip252)" style="stroke:#000000; stroke-linecap:round; stroke-linejoin:round; stroke-width:2; stroke-opacity:0.1; fill:none" points="230.511,437.86 3952.76,437.86 "/>
<polyline clip-path="url(#clip250)" style="stroke:#000000; stroke-linecap:round; stroke-linejoin:round; stroke-width:4; stroke-opacity:1; fill:none" points="230.511,2607.08 230.511,126.496 "/>
<polyline clip-path="url(#clip250)" style="stroke:#000000; stroke-linecap:round; stroke-linejoin:round; stroke-width:4; stroke-opacity:1; fill:none" points="230.511,2295.74 249.408,2295.74 "/>
<polyline clip-path="url(#clip250)" style="stroke:#000000; stroke-linecap:round; stroke-linejoin:round; stroke-width:4; stroke-opacity:1; fill:none" points="230.511,1831.27 249.408,1831.27 "/>
<polyline clip-path="url(#clip250)" style="stroke:#000000; stroke-linecap:round; stroke-linejoin:round; stroke-width:4; stroke-opacity:1; fill:none" points="230.511,1366.8 249.408,1366.8 "/>
<polyline clip-path="url(#clip250)" style="stroke:#000000; stroke-linecap:round; stroke-linejoin:round; stroke-width:4; stroke-opacity:1; fill:none" points="230.511,902.329 249.408,902.329 "/>
<polyline clip-path="url(#clip250)" style="stroke:#000000; stroke-linecap:round; stroke-linejoin:round; stroke-width:4; stroke-opacity:1; fill:none" points="230.511,437.86 249.408,437.86 "/>
<path clip-path="url(#clip250)" d="M108.636 2296.19 L138.312 2296.19 L138.312 2300.12 L108.636 2300.12 L108.636 2296.19 Z" fill="#000000" fill-rule="nonzero" fill-opacity="1" /><path clip-path="url(#clip250)" d="M158.983 2293.87 Q155.835 2293.87 153.983 2296.03 Q152.154 2298.18 152.154 2301.93 Q152.154 2305.66 153.983 2307.83 Q155.835 2309.99 158.983 2309.99 Q162.131 2309.99 163.96 2307.83 Q165.812 2305.66 165.812 2301.93 Q165.812 2298.18 163.96 2296.03 Q162.131 2293.87 158.983 2293.87 M168.265 2279.22 L168.265 2283.48 Q166.506 2282.65 164.701 2282.21 Q162.918 2281.77 161.159 2281.77 Q156.529 2281.77 154.076 2284.89 Q151.645 2288.02 151.298 2294.34 Q152.664 2292.32 154.724 2291.26 Q156.784 2290.17 159.261 2290.17 Q164.469 2290.17 167.478 2293.34 Q170.511 2296.49 170.511 2301.93 Q170.511 2307.25 167.363 2310.47 Q164.215 2313.69 158.983 2313.69 Q152.988 2313.69 149.816 2309.11 Q146.645 2304.5 146.645 2295.77 Q146.645 2287.58 150.534 2282.72 Q154.423 2277.83 160.974 2277.83 Q162.733 2277.83 164.515 2278.18 Q166.321 2278.53 168.265 2279.22 Z" fill="#000000" fill-rule="nonzero" fill-opacity="1" /><path clip-path="url(#clip250)" d="M109.446 1831.72 L139.122 1831.72 L139.122 1835.65 L109.446 1835.65 L109.446 1831.72 Z" fill="#000000" fill-rule="nonzero" fill-opacity="1" /><path clip-path="url(#clip250)" d="M163.381 1829.91 Q166.738 1830.63 168.613 1832.9 Q170.511 1835.17 170.511 1838.5 Q170.511 1843.62 166.992 1846.42 Q163.474 1849.22 156.992 1849.22 Q154.816 1849.22 152.502 1848.78 Q150.21 1848.36 147.756 1847.51 L147.756 1842.99 Q149.701 1844.13 152.016 1844.71 Q154.33 1845.28 156.853 1845.28 Q161.252 1845.28 163.543 1843.55 Q165.858 1841.81 165.858 1838.5 Q165.858 1835.45 163.705 1833.73 Q161.576 1832 157.756 1832 L153.729 1832 L153.729 1828.15 L157.941 1828.15 Q161.391 1828.15 163.219 1826.79 Q165.048 1825.4 165.048 1822.81 Q165.048 1820.15 163.15 1818.73 Q161.275 1817.3 157.756 1817.3 Q155.835 1817.3 153.636 1817.72 Q151.437 1818.13 148.798 1819.01 L148.798 1814.84 Q151.46 1814.1 153.775 1813.73 Q156.113 1813.36 158.173 1813.36 Q163.497 1813.36 166.599 1815.79 Q169.701 1818.2 169.701 1822.32 Q169.701 1825.19 168.057 1827.18 Q166.414 1829.15 163.381 1829.91 Z" fill="#000000" fill-rule="nonzero" fill-opacity="1" /><path clip-path="url(#clip250)" d="M158.566 1352.6 Q154.955 1352.6 153.127 1356.16 Q151.321 1359.7 151.321 1366.83 Q151.321 1373.94 153.127 1377.5 Q154.955 1381.05 158.566 1381.05 Q162.201 1381.05 164.006 1377.5 Q165.835 1373.94 165.835 1366.83 Q165.835 1359.7 164.006 1356.16 Q162.201 1352.6 158.566 1352.6 M158.566 1348.89 Q164.377 1348.89 167.432 1353.5 Q170.511 1358.08 170.511 1366.83 Q170.511 1375.56 167.432 1380.17 Q164.377 1384.75 158.566 1384.75 Q152.756 1384.75 149.678 1380.17 Q146.622 1375.56 146.622 1366.83 Q146.622 1358.08 149.678 1353.5 Q152.756 1348.89 158.566 1348.89 Z" fill="#000000" fill-rule="nonzero" fill-opacity="1" /><path clip-path="url(#clip250)" d="M163.381 900.975 Q166.738 901.693 168.613 903.961 Q170.511 906.23 170.511 909.563 Q170.511 914.679 166.992 917.48 Q163.474 920.281 156.992 920.281 Q154.816 920.281 152.502 919.841 Q150.21 919.424 147.756 918.568 L147.756 914.054 Q149.701 915.188 152.016 915.767 Q154.33 916.345 156.853 916.345 Q161.252 916.345 163.543 914.609 Q165.858 912.873 165.858 909.563 Q165.858 906.507 163.705 904.794 Q161.576 903.058 157.756 903.058 L153.729 903.058 L153.729 899.216 L157.941 899.216 Q161.391 899.216 163.219 897.85 Q165.048 896.461 165.048 893.869 Q165.048 891.207 163.15 889.795 Q161.275 888.359 157.756 888.359 Q155.835 888.359 153.636 888.776 Q151.437 889.193 148.798 890.072 L148.798 885.906 Q151.46 885.165 153.775 884.795 Q156.113 884.424 158.173 884.424 Q163.497 884.424 166.599 886.855 Q169.701 889.262 169.701 893.383 Q169.701 896.253 168.057 898.244 Q166.414 900.211 163.381 900.975 Z" fill="#000000" fill-rule="nonzero" fill-opacity="1" /><path clip-path="url(#clip250)" d="M158.983 435.996 Q155.835 435.996 153.983 438.149 Q152.154 440.302 152.154 444.052 Q152.154 447.779 153.983 449.955 Q155.835 452.107 158.983 452.107 Q162.131 452.107 163.96 449.955 Q165.812 447.779 165.812 444.052 Q165.812 440.302 163.96 438.149 Q162.131 435.996 158.983 435.996 M168.265 421.344 L168.265 425.603 Q166.506 424.769 164.701 424.33 Q162.918 423.89 161.159 423.89 Q156.529 423.89 154.076 427.015 Q151.645 430.14 151.298 436.459 Q152.664 434.445 154.724 433.381 Q156.784 432.293 159.261 432.293 Q164.469 432.293 167.478 435.464 Q170.511 438.612 170.511 444.052 Q170.511 449.376 167.363 452.593 Q164.215 455.811 158.983 455.811 Q152.988 455.811 149.816 451.228 Q146.645 446.621 146.645 437.894 Q146.645 429.7 150.534 424.839 Q154.423 419.955 160.974 419.955 Q162.733 419.955 164.515 420.302 Q166.321 420.649 168.265 421.344 Z" fill="#000000" fill-rule="nonzero" fill-opacity="1" /><path clip-path="url(#clip250)" d="M37.6903 1419.8 Q44.056 1422.28 45.9976 1424.63 Q47.9391 1426.99 47.9391 1430.94 L47.9391 1435.62 L43.0375 1435.62 L43.0375 1432.18 Q43.0375 1429.76 41.8917 1428.42 Q40.7459 1427.09 36.4808 1425.46 L33.8072 1424.41 L-1.2678 1438.83 L-1.2678 1432.62 L26.614 1421.48 L-1.2678 1410.34 L-1.2678 1404.14 L37.6903 1419.8 Z" fill="#000000" fill-rule="nonzero" fill-opacity="1" /><path clip-path="url(#clip250)" d="M30.879 1397.23 L30.879 1390.74 L11.4318 1390.74 L12.7368 1397.83 L9.04465 1397.83 L7.80333 1390.51 L7.80333 1386.15 L30.879 1386.15 L30.879 1379.63 L34.3802 1379.63 L34.3802 1397.23 L30.879 1397.23 Z" fill="#000000" fill-rule="nonzero" fill-opacity="1" /><path clip-path="url(#clip250)" d="M26.2957 1368.43 L26.2957 1361.71 L31.7702 1361.71 L41.9553 1366.93 L41.9553 1371.04 L31.7702 1368.43 L26.2957 1368.43 Z" fill="#000000" fill-rule="nonzero" fill-opacity="1" /><path clip-path="url(#clip250)" d="M37.6903 1334.37 Q44.056 1336.85 45.9976 1339.21 Q47.9391 1341.56 47.9391 1345.51 L47.9391 1350.19 L43.0375 1350.19 L43.0375 1346.75 Q43.0375 1344.33 41.8917 1342.99 Q40.7459 1341.66 36.4808 1340.03 L33.8072 1338.98 L-1.2678 1353.4 L-1.2678 1347.2 L26.614 1336.06 L-1.2678 1324.92 L-1.2678 1318.71 L37.6903 1334.37 Z" fill="#000000" fill-rule="nonzero" fill-opacity="1" /><path clip-path="url(#clip250)" d="M30.7517 1308.24 L30.7517 1294.74 L34.3802 1294.74 L34.3802 1313.78 L30.879 1313.78 Q29.8923 1312.69 28.1099 1310.69 Q18.4022 1299.74 15.4104 1299.74 Q13.3097 1299.74 12.0365 1301.39 Q10.7316 1303.05 10.7316 1305.75 Q10.7316 1307.41 11.3045 1309.35 Q11.8456 1311.29 12.9596 1313.58 L9.04465 1313.58 Q8.15345 1311.13 7.70785 1309.03 Q7.26225 1306.9 7.26225 1305.09 Q7.26225 1300.47 9.36293 1297.7 Q11.4636 1294.93 14.9011 1294.93 Q19.3253 1294.93 28.3646 1305.47 Q29.8923 1307.25 30.7517 1308.24 Z" fill="#000000" fill-rule="nonzero" fill-opacity="1" /><path clip-path="url(#clip250)" d="M1704.37 72.576 L1681.28 12.096 L1689.82 12.096 L1708.98 63.0159 L1728.19 12.096 L1736.69 12.096 L1713.64 72.576 L1704.37 72.576 Z" fill="#000000" fill-rule="nonzero" fill-opacity="1" /><path clip-path="url(#clip250)" d="M1759.38 49.7694 Q1750.34 49.7694 1746.86 51.8354 Q1743.38 53.9013 1743.38 58.8839 Q1743.38 62.8538 1745.97 65.2034 Q1748.6 67.5124 1753.1 67.5124 Q1759.3 67.5124 1763.02 63.1374 Q1766.79 58.7219 1766.79 51.4303 L1766.79 49.7694 L1759.38 49.7694 M1774.25 46.6907 L1774.25 72.576 L1766.79 72.576 L1766.79 65.6895 Q1764.24 69.8214 1760.43 71.8063 Q1756.62 73.7508 1751.11 73.7508 Q1744.15 73.7508 1740.01 69.8619 Q1735.92 65.9325 1735.92 59.3701 Q1735.92 51.7138 1741.03 47.825 Q1746.17 43.9361 1756.34 43.9361 L1766.79 43.9361 L1766.79 43.2069 Q1766.79 38.0623 1763.39 35.2672 Q1760.03 32.4315 1753.91 32.4315 Q1750.02 32.4315 1746.33 33.3632 Q1742.65 34.295 1739.25 36.1584 L1739.25 29.2718 Q1743.34 27.692 1747.18 26.9223 Q1751.03 26.1121 1754.68 26.1121 Q1764.52 26.1121 1769.38 31.2163 Q1774.25 36.3204 1774.25 46.6907 Z" fill="#000000" fill-rule="nonzero" fill-opacity="1" /><path clip-path="url(#clip250)" d="M1827.31 45.1919 L1827.31 72.576 L1819.86 72.576 L1819.86 45.4349 Q1819.86 38.994 1817.35 35.7938 Q1814.84 32.5936 1809.81 32.5936 Q1803.78 32.5936 1800.29 36.4419 Q1796.81 40.2903 1796.81 46.9338 L1796.81 72.576 L1789.31 72.576 L1789.31 27.2059 L1796.81 27.2059 L1796.81 34.2544 Q1799.48 30.163 1803.09 28.1376 Q1806.73 26.1121 1811.47 26.1121 Q1819.29 26.1121 1823.3 30.9732 Q1827.31 35.7938 1827.31 45.1919 Z" fill="#000000" fill-rule="nonzero" fill-opacity="1" /><path clip-path="url(#clip250)" d="M1872.03 34.0924 L1872.03 9.54393 L1879.49 9.54393 L1879.49 72.576 L1872.03 72.576 L1872.03 65.7705 Q1869.68 69.8214 1866.08 71.8063 Q1862.51 73.7508 1857.49 73.7508 Q1849.27 73.7508 1844.08 67.1883 Q1838.94 60.6258 1838.94 49.9314 Q1838.94 39.2371 1844.08 32.6746 Q1849.27 26.1121 1857.49 26.1121 Q1862.51 26.1121 1866.08 28.0971 Q1869.68 30.0415 1872.03 34.0924 M1846.63 49.9314 Q1846.63 58.1548 1850 62.8538 Q1853.4 67.5124 1859.31 67.5124 Q1865.23 67.5124 1868.63 62.8538 Q1872.03 58.1548 1872.03 49.9314 Q1872.03 41.7081 1868.63 37.0496 Q1865.23 32.3505 1859.31 32.3505 Q1853.4 32.3505 1850 37.0496 Q1846.63 41.7081 1846.63 49.9314 Z" fill="#000000" fill-rule="nonzero" fill-opacity="1" /><path clip-path="url(#clip250)" d="M1933.65 48.0275 L1933.65 51.6733 L1899.38 51.6733 Q1899.86 59.3701 1904 63.421 Q1908.17 67.4314 1915.58 67.4314 Q1919.88 67.4314 1923.89 66.3781 Q1927.94 65.3249 1931.91 63.2184 L1931.91 70.267 Q1927.9 71.9684 1923.68 72.8596 Q1919.47 73.7508 1915.14 73.7508 Q1904.28 73.7508 1897.92 67.4314 Q1891.6 61.1119 1891.6 50.3365 Q1891.6 39.1965 1897.6 32.6746 Q1903.63 26.1121 1913.84 26.1121 Q1922.99 26.1121 1928.3 32.0264 Q1933.65 37.9003 1933.65 48.0275 M1926.19 45.84 Q1926.11 39.7232 1922.75 36.0774 Q1919.43 32.4315 1913.92 32.4315 Q1907.68 32.4315 1903.91 35.9558 Q1900.19 39.4801 1899.62 45.8805 L1926.19 45.84 Z" fill="#000000" fill-rule="nonzero" fill-opacity="1" /><path clip-path="url(#clip250)" d="M1972.17 34.1734 Q1970.92 33.4443 1969.42 33.1202 Q1967.96 32.7556 1966.18 32.7556 Q1959.86 32.7556 1956.45 36.8875 Q1953.09 40.9789 1953.09 48.6757 L1953.09 72.576 L1945.6 72.576 L1945.6 27.2059 L1953.09 27.2059 L1953.09 34.2544 Q1955.44 30.1225 1959.21 28.1376 Q1962.98 26.1121 1968.36 26.1121 Q1969.13 26.1121 1970.07 26.2337 Q1971 26.3147 1972.13 26.5172 L1972.17 34.1734 Z" fill="#000000" fill-rule="nonzero" fill-opacity="1" /><path clip-path="url(#clip250)" d="M1987.2 65.7705 L1987.2 89.8329 L1979.71 89.8329 L1979.71 27.2059 L1987.2 27.2059 L1987.2 34.0924 Q1989.55 30.0415 1993.12 28.0971 Q1996.72 26.1121 2001.7 26.1121 Q2009.97 26.1121 2015.11 32.6746 Q2020.3 39.2371 2020.3 49.9314 Q2020.3 60.6258 2015.11 67.1883 Q2009.97 73.7508 2001.7 73.7508 Q1996.72 73.7508 1993.12 71.8063 Q1989.55 69.8214 1987.2 65.7705 M2012.56 49.9314 Q2012.56 41.7081 2009.16 37.0496 Q2005.79 32.3505 1999.88 32.3505 Q1993.97 32.3505 1990.56 37.0496 Q1987.2 41.7081 1987.2 49.9314 Q1987.2 58.1548 1990.56 62.8538 Q1993.97 67.5124 1999.88 67.5124 Q2005.79 67.5124 2009.16 62.8538 Q2012.56 58.1548 2012.56 49.9314 Z" fill="#000000" fill-rule="nonzero" fill-opacity="1" /><path clip-path="url(#clip250)" d="M2050.23 32.4315 Q2044.24 32.4315 2040.75 37.1306 Q2037.27 41.7891 2037.27 49.9314 Q2037.27 58.0738 2040.71 62.7728 Q2044.2 67.4314 2050.23 67.4314 Q2056.19 67.4314 2059.67 62.7323 Q2063.16 58.0333 2063.16 49.9314 Q2063.16 41.8701 2059.67 37.1711 Q2056.19 32.4315 2050.23 32.4315 M2050.23 26.1121 Q2059.96 26.1121 2065.51 32.4315 Q2071.05 38.7509 2071.05 49.9314 Q2071.05 61.0714 2065.51 67.4314 Q2059.96 73.7508 2050.23 73.7508 Q2040.47 73.7508 2034.92 67.4314 Q2029.41 61.0714 2029.41 49.9314 Q2029.41 38.7509 2034.92 32.4315 Q2040.47 26.1121 2050.23 26.1121 Z" fill="#000000" fill-rule="nonzero" fill-opacity="1" /><path clip-path="url(#clip250)" d="M2083.41 9.54393 L2090.86 9.54393 L2090.86 72.576 L2083.41 72.576 L2083.41 9.54393 Z" fill="#000000" fill-rule="nonzero" fill-opacity="1" /><path clip-path="url(#clip250)" d="M2150.41 32.4315 Q2144.42 32.4315 2140.93 37.1306 Q2137.45 41.7891 2137.45 49.9314 Q2137.45 58.0738 2140.89 62.7728 Q2144.38 67.4314 2150.41 67.4314 Q2156.37 67.4314 2159.85 62.7323 Q2163.33 58.0333 2163.33 49.9314 Q2163.33 41.8701 2159.85 37.1711 Q2156.37 32.4315 2150.41 32.4315 M2150.41 26.1121 Q2160.13 26.1121 2165.68 32.4315 Q2171.23 38.7509 2171.23 49.9314 Q2171.23 61.0714 2165.68 67.4314 Q2160.13 73.7508 2150.41 73.7508 Q2140.65 73.7508 2135.1 67.4314 Q2129.59 61.0714 2129.59 49.9314 Q2129.59 38.7509 2135.1 32.4315 Q2140.65 26.1121 2150.41 26.1121 Z" fill="#000000" fill-rule="nonzero" fill-opacity="1" /><path clip-path="url(#clip250)" d="M2212.51 28.5427 L2212.51 35.5912 Q2209.35 33.9709 2205.95 33.1607 Q2202.55 32.3505 2198.9 32.3505 Q2193.35 32.3505 2190.56 34.0519 Q2187.8 35.7533 2187.8 39.156 Q2187.8 41.7486 2189.79 43.2475 Q2191.77 44.7058 2197.77 46.0426 L2200.32 46.6097 Q2208.26 48.3111 2211.58 51.4303 Q2214.94 54.509 2214.94 60.0587 Q2214.94 66.3781 2209.92 70.0644 Q2204.94 73.7508 2196.19 73.7508 Q2192.54 73.7508 2188.57 73.0216 Q2184.64 72.3329 2180.27 70.9151 L2180.27 63.2184 Q2184.4 65.3654 2188.41 66.4591 Q2192.42 67.5124 2196.35 67.5124 Q2201.62 67.5124 2204.45 65.73 Q2207.29 63.9071 2207.29 60.6258 Q2207.29 57.5877 2205.22 55.9673 Q2203.2 54.3469 2196.27 52.8481 L2193.68 52.2405 Q2186.75 50.7821 2183.67 47.7845 Q2180.59 44.7463 2180.59 39.4801 Q2180.59 33.0797 2185.13 29.5959 Q2189.67 26.1121 2198.01 26.1121 Q2202.14 26.1121 2205.79 26.7198 Q2209.43 27.3274 2212.51 28.5427 Z" fill="#000000" fill-rule="nonzero" fill-opacity="1" /><path clip-path="url(#clip250)" d="M2259.46 28.9478 L2259.46 35.9153 Q2256.3 34.1734 2253.1 33.3227 Q2249.94 32.4315 2246.7 32.4315 Q2239.45 32.4315 2235.44 37.0496 Q2231.43 41.6271 2231.43 49.9314 Q2231.43 58.2358 2235.44 62.8538 Q2239.45 67.4314 2246.7 67.4314 Q2249.94 67.4314 2253.1 66.5807 Q2256.3 65.6895 2259.46 63.9476 L2259.46 70.8341 Q2256.34 72.2924 2252.98 73.0216 Q2249.66 73.7508 2245.89 73.7508 Q2235.64 73.7508 2229.61 67.3098 Q2223.57 60.8689 2223.57 49.9314 Q2223.57 38.832 2229.65 32.472 Q2235.76 26.1121 2246.38 26.1121 Q2249.82 26.1121 2253.1 26.8413 Q2256.38 27.5299 2259.46 28.9478 Z" fill="#000000" fill-rule="nonzero" fill-opacity="1" /><path clip-path="url(#clip250)" d="M2272.43 27.2059 L2279.88 27.2059 L2279.88 72.576 L2272.43 72.576 L2272.43 27.2059 M2272.43 9.54393 L2279.88 9.54393 L2279.88 18.9825 L2272.43 18.9825 L2272.43 9.54393 Z" fill="#000000" fill-rule="nonzero" fill-opacity="1" /><path clip-path="url(#clip250)" d="M2295.47 9.54393 L2302.93 9.54393 L2302.93 72.576 L2295.47 72.576 L2295.47 9.54393 Z" fill="#000000" fill-rule="nonzero" fill-opacity="1" /><path clip-path="url(#clip250)" d="M2318.52 9.54393 L2325.98 9.54393 L2325.98 72.576 L2318.52 72.576 L2318.52 9.54393 Z" fill="#000000" fill-rule="nonzero" fill-opacity="1" /><path clip-path="url(#clip250)" d="M2362.19 49.7694 Q2353.16 49.7694 2349.68 51.8354 Q2346.19 53.9013 2346.19 58.8839 Q2346.19 62.8538 2348.78 65.2034 Q2351.42 67.5124 2355.91 67.5124 Q2362.11 67.5124 2365.84 63.1374 Q2369.61 58.7219 2369.61 51.4303 L2369.61 49.7694 L2362.19 49.7694 M2377.06 46.6907 L2377.06 72.576 L2369.61 72.576 L2369.61 65.6895 Q2367.05 69.8214 2363.25 71.8063 Q2359.44 73.7508 2353.93 73.7508 Q2346.96 73.7508 2342.83 69.8619 Q2338.74 65.9325 2338.74 59.3701 Q2338.74 51.7138 2343.84 47.825 Q2348.99 43.9361 2359.16 43.9361 L2369.61 43.9361 L2369.61 43.2069 Q2369.61 38.0623 2366.2 35.2672 Q2362.84 32.4315 2356.72 32.4315 Q2352.84 32.4315 2349.15 33.3632 Q2345.46 34.295 2342.06 36.1584 L2342.06 29.2718 Q2346.15 27.692 2350 26.9223 Q2353.85 26.1121 2357.49 26.1121 Q2367.34 26.1121 2372.2 31.2163 Q2377.06 36.3204 2377.06 46.6907 Z" fill="#000000" fill-rule="nonzero" fill-opacity="1" /><path clip-path="url(#clip250)" d="M2399.79 14.324 L2399.79 27.2059 L2415.14 27.2059 L2415.14 32.9987 L2399.79 32.9987 L2399.79 57.6282 Q2399.79 63.1779 2401.28 64.7578 Q2402.82 66.3376 2407.48 66.3376 L2415.14 66.3376 L2415.14 72.576 L2407.48 72.576 Q2398.85 72.576 2395.57 69.3758 Q2392.29 66.1351 2392.29 57.6282 L2392.29 32.9987 L2386.82 32.9987 L2386.82 27.2059 L2392.29 27.2059 L2392.29 14.324 L2399.79 14.324 Z" fill="#000000" fill-rule="nonzero" fill-opacity="1" /><path clip-path="url(#clip250)" d="M2442.52 32.4315 Q2436.53 32.4315 2433.04 37.1306 Q2429.56 41.7891 2429.56 49.9314 Q2429.56 58.0738 2433 62.7728 Q2436.49 67.4314 2442.52 67.4314 Q2448.48 67.4314 2451.96 62.7323 Q2455.45 58.0333 2455.45 49.9314 Q2455.45 41.8701 2451.96 37.1711 Q2448.48 32.4315 2442.52 32.4315 M2442.52 26.1121 Q2452.24 26.1121 2457.79 32.4315 Q2463.34 38.7509 2463.34 49.9314 Q2463.34 61.0714 2457.79 67.4314 Q2452.24 73.7508 2442.52 73.7508 Q2432.76 73.7508 2427.21 67.4314 Q2421.7 61.0714 2421.7 49.9314 Q2421.7 38.7509 2427.21 32.4315 Q2432.76 26.1121 2442.52 26.1121 Z" fill="#000000" fill-rule="nonzero" fill-opacity="1" /><path clip-path="url(#clip250)" d="M2501.99 34.1734 Q2500.73 33.4443 2499.24 33.1202 Q2497.78 32.7556 2495.99 32.7556 Q2489.68 32.7556 2486.27 36.8875 Q2482.91 40.9789 2482.91 48.6757 L2482.91 72.576 L2475.42 72.576 L2475.42 27.2059 L2482.91 27.2059 L2482.91 34.2544 Q2485.26 30.1225 2489.03 28.1376 Q2492.79 26.1121 2498.18 26.1121 Q2498.95 26.1121 2499.88 26.2337 Q2500.82 26.3147 2501.95 26.5172 L2501.99 34.1734 Z" fill="#000000" fill-rule="nonzero" fill-opacity="1" /><polyline clip-path="url(#clip252)" style="stroke:#009af9; stroke-linecap:round; stroke-linejoin:round; stroke-width:4; stroke-opacity:1; fill:none" points="230.511,1289.39 234.237,1197.14 237.963,1123.44 241.689,1104.59 245.415,1102.78 249.141,1103.72 252.867,1105.06 256.593,1106.46 260.319,1107.88 264.045,1109.32 267.771,1110.78 271.497,1112.25 275.222,1113.75 278.948,1115.26 282.674,1116.79 286.4,1118.34 290.126,1119.91 293.852,1121.51 297.578,1123.13 301.304,1124.77 305.03,1126.45 308.756,1128.15 312.482,1129.87 316.208,1131.63 319.934,1133.42 323.66,1135.25 327.386,1137.1 331.112,1139 334.838,1140.95 338.564,1142.93 342.29,1144.96 346.016,1147.04 349.742,1149.19 353.468,1151.38 357.194,1153.64 360.92,1155.98 364.646,1158.39 368.372,1160.89 372.098,1163.5 375.824,1166.23 379.55,1169.06 383.276,1172.05 387.002,1175.21 390.728,1178.55 394.454,1182.13 398.18,1186 401.905,1190.2 405.631,1194.87 409.357,1200.08 413.083,1206.13 416.809,1213.25 420.535,1222.09 424.261,1233.81 427.987,1250.67 431.713,1278.68 435.439,1336.24 439.165,1481.84 442.891,1653.19 446.617,1678.19 450.343,1678.43 454.069,1677.45 457.795,1676.43 461.521,1675.4 465.247,1674.36 468.973,1673.31 472.699,1672.26 476.425,1671.2 480.151,1670.14 483.877,1669.08 487.603,1668 491.329,1666.92 495.055,1665.83 498.781,1664.73 502.507,1663.63 506.233,1662.51 509.959,1661.39 513.685,1660.27 517.411,1659.14 521.137,1658.01 524.863,1656.87 528.589,1655.71 532.314,1654.54 536.04,1653.36 539.766,1652.18 543.492,1650.99 547.218,1649.79 550.944,1648.57 554.67,1647.35 558.396,1646.13 562.122,1644.9 565.848,1643.65 569.574,1642.39 573.3,1641.12 577.026,1639.83 580.752,1638.53 584.478,1637.23 588.204,1635.91 591.93,1634.58 595.656,1633.23 599.382,1631.87 603.108,1630.5 606.834,1629.11 610.56,1627.71 614.286,1626.3 618.012,1624.86 621.738,1623.41 625.464,1621.94 629.19,1620.46 632.916,1618.96 636.642,1617.43 640.368,1615.89 644.094,1614.32 647.82,1612.73 651.546,1611.12 655.272,1609.49 658.997,1607.84 662.723,1606.15 666.449,1604.43 670.175,1602.68 673.901,1600.9 677.627,1599.07 681.353,1597.2 685.079,1595.31 688.805,1593.38 692.531,1591.42 696.257,1589.4 699.983,1587.33 703.709,1585.2 707.435,1583.03 711.161,1580.78 714.887,1578.46 718.613,1576.07 722.339,1573.6 726.065,1571.03 729.791,1568.34 733.517,1565.55 737.243,1562.62 740.969,1559.52 744.695,1556.25 748.421,1552.76 752.147,1548.99 755.873,1544.93 759.599,1540.43 763.325,1535.43 767.051,1529.71 770.777,1523.03 774.503,1514.83 778.229,1504.34 781.955,1489.79 785.681,1467.1 789.406,1423.48 793.132,1318.47 796.858,1120.28 800.584,1057.71 804.31,1054.9 808.036,1055.78 811.762,1056.81 815.488,1057.83 819.214,1058.87 822.94,1059.92 826.666,1060.97 830.392,1062.02 834.118,1063.08 837.844,1064.15 841.57,1065.21 845.296,1066.29 849.022,1067.38 852.748,1068.48 856.474,1069.58 860.2,1070.69 863.926,1071.81 867.652,1072.93 871.378,1074.06 875.104,1075.18 878.83,1076.33 882.556,1077.48 886.282,1078.64 890.008,1079.82 893.734,1081 897.46,1082.19 901.186,1083.39 904.912,1084.6 908.638,1085.81 912.364,1087.04 916.089,1088.27 919.815,1089.51 923.541,1090.76 927.267,1092.03 930.993,1093.31 934.719,1094.61 938.445,1095.91 942.171,1097.22 945.897,1098.55 949.623,1099.89 953.349,1101.25 957.075,1102.62 960.801,1103.99 964.527,1105.39 968.253,1106.8 971.979,1108.23 975.705,1109.67 979.431,1111.14 983.157,1112.62 986.883,1114.11 990.609,1115.63 994.335,1117.16 998.061,1118.72 1001.79,1120.3 1005.51,1121.9 1009.24,1123.53 1012.96,1125.17 1016.69,1126.85 1020.42,1128.56 1024.14,1130.3 1027.87,1132.06 1031.59,1133.88 1035.32,1135.73 1039.05,1137.62 1042.77,1139.53 1046.5,1141.48 1050.22,1143.48 1053.95,1145.54 1057.68,1147.64 1061.4,1149.8 1065.13,1152.01 1068.85,1154.31 1072.58,1156.68 1076.31,1159.12 1080.03,1161.65 1083.76,1164.29 1087.48,1167.05 1091.21,1169.92 1094.94,1172.96 1098.66,1176.18 1102.39,1179.57 1106.11,1183.24 1109.84,1187.2 1113.57,1191.52 1117.29,1196.34 1121.02,1201.77 1124.74,1208.09 1128.47,1215.67 1132.2,1225.16 1135.92,1237.97 1139.65,1257.07 1143.37,1290.97 1147.1,1366.01 1150.83,1546.15 1154.55,1668.62 1158.28,1678.69 1162,1678.17 1165.73,1677.15 1169.46,1676.13 1173.18,1675.09 1176.91,1674.05 1180.63,1673 1184.36,1671.95 1188.09,1670.89 1191.81,1669.83 1195.54,1668.76 1199.26,1667.69 1202.99,1666.6 1206.72,1665.51 1210.44,1664.41 1214.17,1663.3 1217.89,1662.19 1221.62,1661.06 1225.35,1659.94 1229.07,1658.81 1232.8,1657.67 1236.52,1656.53 1240.25,1655.37 1243.97,1654.19 1247.7,1653.01 1251.43,1651.83 1255.15,1650.63 1258.88,1649.43 1262.6,1648.22 1266.33,1646.99 1270.06,1645.76 1273.78,1644.53 1277.51,1643.28 1281.23,1642.02 1284.96,1640.74 1288.69,1639.45 1292.41,1638.15 1296.14,1636.84 1299.86,1635.52 1303.59,1634.18 1307.32,1632.83 1311.04,1631.47 1314.77,1630.09 1318.49,1628.7 1322.22,1627.3 1325.95,1625.88 1329.67,1624.44 1333.4,1622.98 1337.12,1621.5 1340.85,1620.02 1344.58,1618.51 1348.3,1616.98 1352.03,1615.43 1355.75,1613.85 1359.48,1612.26 1363.21,1610.65 1366.93,1609.01 1370.66,1607.34 1374.38,1605.64 1378.11,1603.92 1381.84,1602.16 1385.56,1600.37 1389.29,1598.53 1393.01,1596.65 1396.74,1594.74 1400.47,1592.8 1404.19,1590.83 1407.92,1588.79 1411.64,1586.71 1415.37,1584.56 1419.1,1582.37 1422.82,1580.11 1426.55,1577.77 1430.27,1575.35 1434,1572.85 1437.73,1570.25 1441.45,1567.53 1445.18,1564.7 1448.9,1561.73 1452.63,1558.58 1456.36,1555.24 1460.08,1551.69 1463.81,1547.83 1467.53,1543.66 1471.26,1539.01 1474.99,1533.84 1478.71,1527.84 1482.44,1520.81 1486.16,1512.05 1489.89,1500.56 1493.62,1484.13 1497.34,1457.15 1501.07,1402.22 1504.79,1263.76 1508.52,1085.02 1512.24,1055.58 1515.97,1055.11 1519.7,1056.08 1523.42,1057.11 1527.15,1058.15 1530.87,1059.18 1534.6,1060.22 1538.33,1061.27 1542.05,1062.33 1545.78,1063.4 1549.5,1064.47 1553.23,1065.54 1556.96,1066.62 1560.68,1067.7 1564.41,1068.8 1568.13,1069.9 1571.86,1071.02 1575.59,1072.13 1579.31,1073.26 1583.04,1074.39 1586.76,1075.54 1590.49,1076.68 1594.22,1077.83 1597.94,1078.99 1601.67,1080.16 1605.39,1081.34 1609.12,1082.54 1612.85,1083.74 1616.57,1084.95 1620.3,1086.17 1624.02,1087.4 1627.75,1088.64 1631.48,1089.89 1635.2,1091.14 1638.93,1092.41 1642.65,1093.69 1646.38,1094.98 1650.11,1096.29 1653.83,1097.62 1657.56,1098.94 1661.28,1100.29 1665.01,1101.65 1668.74,1103.02 1672.46,1104.41 1676.19,1105.81 1679.91,1107.22 1683.64,1108.65 1687.37,1110.1 1691.09,1111.57 1694.82,1113.06 1698.54,1114.56 1702.27,1116.08 1706,1117.62 1709.72,1119.18 1713.45,1120.77 1717.17,1122.38 1720.9,1124.02 1724.63,1125.68 1728.35,1127.37 1732.08,1129.1 1735.8,1130.85 1739.53,1132.63 1743.26,1134.43 1746.98,1136.28 1750.71,1138.17 1754.43,1140.1 1758.16,1142.07 1761.88,1144.08 1765.61,1146.15 1769.34,1148.27 1773.06,1150.45 1776.79,1152.69 1780.51,1154.99 1784.24,1157.39 1787.97,1159.86 1791.69,1162.42 1795.42,1165.09 1799.14,1167.88 1802.87,1170.81 1806.6,1173.88 1810.32,1177.16 1814.05,1180.63 1817.77,1184.37 1821.5,1188.44 1825.23,1192.88 1828.95,1197.88 1832.68,1203.51 1836.4,1210.18 1840.13,1218.22 1843.86,1228.5 1847.58,1242.74 1851.31,1264.81 1855.03,1306.62 1858.76,1406.01 1862.49,1604.15 1866.21,1675.21 1869.94,1678.7 1873.66,1677.87 1877.39,1676.85 1881.12,1675.82 1884.84,1674.78 1888.57,1673.74 1892.29,1672.69 1896.02,1671.64 1899.75,1670.58 1903.47,1669.51 1907.2,1668.43 1910.92,1667.36 1914.65,1666.28 1918.38,1665.18 1922.1,1664.08 1925.83,1662.97 1929.55,1661.86 1933.28,1660.73 1937.01,1659.6 1940.73,1658.46 1944.46,1657.32 1948.18,1656.17 1951.91,1655.02 1955.64,1653.85 1959.36,1652.67 1963.09,1651.48 1966.81,1650.28 1970.54,1649.07 1974.27,1647.86 1977.99,1646.63 1981.72,1645.39 1985.44,1644.14 1989.17,1642.89 1992.9,1641.63 1996.62,1640.36 2000.35,1639.07 2004.07,1637.76 2007.8,1636.45 2011.52,1635.12 2015.25,1633.78 2018.98,1632.43 2022.7,1631.06 2026.43,1629.68 2030.15,1628.28 2033.88,1626.87 2037.61,1625.45 2041.33,1624 2045.06,1622.54 2048.78,1621.06 2052.51,1619.56 2056.24,1618.05 2059.96,1616.52 2063.69,1614.96 2067.41,1613.38 2071.14,1611.78 2074.87,1610.15 2078.59,1608.5 2082.32,1606.83 2086.04,1605.13 2089.77,1603.4 2093.5,1601.64 2097.22,1599.84 2100.95,1598.01 2104.67,1596.12 2108.4,1594.19 2112.13,1592.22 2115.85,1590.22 2119.58,1588.18 2123.3,1586.08 2127.03,1583.92 2130.76,1581.7 2134.48,1579.42 2138.21,1577.06 2141.93,1574.62 2145.66,1572.08 2149.39,1569.46 2153.11,1566.71 2156.84,1563.83 2160.56,1560.81 2164.29,1557.62 2168.02,1554.2 2171.74,1550.58 2175.47,1546.63 2179.19,1542.32 2182.92,1537.55 2186.65,1532.14 2190.37,1525.89 2194.1,1518.43 2197.82,1508.98 2201.55,1496.36 2205.28,1477.71 2209,1445.24 2212.73,1373.87 2216.45,1199.53 2220.18,1067.02 2223.91,1054.93 2227.63,1055.38 2231.36,1056.39 2235.08,1057.42 2238.81,1058.45 2242.54,1059.49 2246.26,1060.54 2249.99,1061.59 2253.71,1062.65 2257.44,1063.72 2261.17,1064.78 2264.89,1065.85 2268.62,1066.93 2272.34,1068.03 2276.07,1069.13 2279.79,1070.24 2283.52,1071.35 2287.25,1072.47 2290.97,1073.6 2294.7,1074.73 2298.42,1075.86 2302.15,1077.01 2305.88,1078.17 2309.6,1079.33 2313.33,1080.52 2317.05,1081.7 2320.78,1082.9 2324.51,1084.1 2328.23,1085.31 2331.96,1086.54 2335.68,1087.77 2339.41,1089 2343.14,1090.25 2346.86,1091.51 2350.59,1092.79 2354.31,1094.07 2358.04,1095.37 2361.77,1096.68 2365.49,1098.01 2369.22,1099.34 2372.94,1100.69 2376.67,1102.05 2380.4,1103.43 2384.12,1104.82 2387.85,1106.22 2391.57,1107.64 2395.3,1109.08 2399.03,1110.54 2402.75,1112.01 2406.48,1113.5 2410.2,1115 2413.93,1116.53 2417.66,1118.08 2421.38,1119.65 2425.11,1121.25 2428.83,1122.87 2432.56,1124.5 2436.29,1126.16 2440.01,1127.86 2443.74,1129.58 2447.46,1131.33 2451.19,1133.12 2454.92,1134.95 2458.64,1136.83 2462.37,1138.74 2466.09,1140.69 2469.82,1142.67 2473.55,1144.69 2477.27,1146.77 2481,1148.91 2484.72,1151.11 2488.45,1153.36 2492.18,1155.7 2495.9,1158.11 2499.63,1160.61 2503.35,1163.2 2507.08,1165.91 2510.81,1168.74 2514.53,1171.7 2518.26,1174.84 2521.98,1178.17 2525.71,1181.71 2529.43,1185.55 2533.16,1189.71 2536.89,1194.31 2540.61,1199.47 2544.34,1205.39 2548.06,1212.37 2551.79,1221.03 2555.52,1232.28 2559.24,1248.29 2562.97,1274.21 2566.69,1327.02 2570.42,1458.88 2574.15,1643.59 2577.87,1677.78 2581.6,1678.53 2585.32,1677.57 2589.05,1676.54 2592.78,1675.51 2596.5,1674.48 2600.23,1673.43 2603.95,1672.38 2607.68,1671.32 2611.41,1670.26 2615.13,1669.19 2618.86,1668.12 2622.58,1667.04 2626.31,1665.96 2630.04,1664.86 2633.76,1663.75 2637.49,1662.64 2641.21,1661.52 2644.94,1660.4 2648.67,1659.26 2652.39,1658.12 2656.12,1656.98 2659.84,1655.83 2663.57,1654.67 2667.3,1653.5 2671.02,1652.32 2674.75,1651.12 2678.47,1649.92 2682.2,1648.71 2685.93,1647.49 2689.65,1646.26 2693.38,1645.02 2697.1,1643.77 2700.83,1642.52 2704.56,1641.26 2708.28,1639.98 2712.01,1638.68 2715.73,1637.38 2719.46,1636.05 2723.19,1634.73 2726.91,1633.38 2730.64,1632.03 2734.36,1630.65 2738.09,1629.27 2741.82,1627.86 2745.54,1626.45 2749.27,1625.02 2752.99,1623.58 2756.72,1622.11 2760.45,1620.62 2764.17,1619.12 2767.9,1617.6 2771.62,1616.06 2775.35,1614.5 2779.08,1612.92 2782.8,1611.31 2786.53,1609.67 2790.25,1608.01 2793.98,1606.32 2797.7,1604.6 2801.43,1602.84 2805.16,1601.07 2808.88,1599.26 2812.61,1597.42 2816.33,1595.53 2820.06,1593.6 2823.79,1591.63 2827.51,1589.62 2831.24,1587.56 2834.96,1585.44 2838.69,1583.26 2842.42,1581.03 2846.14,1578.73 2849.87,1576.34 2853.59,1573.87 2857.32,1571.31 2861.05,1568.66 2864.77,1565.87 2868.5,1562.94 2872.22,1559.88 2875.95,1556.62 2879.68,1553.15 2883.4,1549.44 2887.13,1545.38 2890.85,1540.97 2894.58,1536 2898.31,1530.4 2902.03,1523.8 2905.76,1515.86 2909.48,1505.72 2913.21,1491.71 2916.94,1469.99 2920.66,1429.95 2924.39,1335.78 2928.11,1138.83 2931.84,1059.21 2935.57,1054.88 2939.29,1055.67 2943.02,1056.69 2946.74,1057.73 2950.47,1058.76 2954.2,1059.8 2957.92,1060.85 2961.65,1061.9 2965.37,1062.96 2969.1,1064.03 2972.83,1065.11 2976.55,1066.18 2980.28,1067.26 2984,1068.35 2987.73,1069.45 2991.46,1070.57 2995.18,1071.68 2998.91,1072.8 3002.63,1073.93 3006.36,1075.07 3010.09,1076.22 3013.81,1077.36 3017.54,1078.52 3021.26,1079.68 3024.99,1080.86 3028.72,1082.06 3032.44,1083.25 3036.17,1084.46 3039.89,1085.68 3043.62,1086.9 3047.34,1088.14 3051.07,1089.39 3054.8,1090.64 3058.52,1091.9 3062.25,1093.17 3065.97,1094.46 3069.7,1095.76 3073.43,1097.08 3077.15,1098.41 3080.88,1099.74 3084.6,1101.09 3088.33,1102.46 3092.06,1103.84 3095.78,1105.24 3099.51,1106.65 3103.23,1108.07 3106.96,1109.51 3110.69,1110.97 3114.41,1112.45 3118.14,1113.95 3121.86,1115.47 3125.59,1117 3129.32,1118.55 3133.04,1120.13 3136.77,1121.73 3140.49,1123.35 3144.22,1125 3147.95,1126.68 3151.67,1128.4 3155.4,1130.13 3159.12,1131.9 3162.85,1133.7 3166.58,1135.53 3170.3,1137.4 3174.03,1139.31 3177.75,1141.27 3181.48,1143.26 3185.21,1145.3 3188.93,1147.4 3192.66,1149.56 3196.38,1151.78 3200.11,1154.05 3203.84,1156.41 3207.56,1158.85 3211.29,1161.37 3215.01,1163.99 3218.74,1166.74 3222.47,1169.61 3226.19,1172.61 3229.92,1175.81 3233.64,1179.2 3237.37,1182.81 3241.1,1186.75 3244.82,1191.02 3248.55,1195.78 3252.27,1201.13 3256,1207.35 3259.73,1214.72 3263.45,1224.03 3267.18,1236.44 3270.9,1254.7 3274.63,1286.05 3278.36,1353.95 3282.08,1522.27 3285.81,1664.31 3289.53,1678.59 3293.26,1678.26 3296.99,1677.26 3300.71,1676.23 3304.44,1675.2 3308.16,1674.16 3311.89,1673.12 3315.61,1672.06 3319.34,1671.01 3323.07,1669.94 3326.79,1668.87 3330.52,1667.79 3334.24,1666.71 3337.97,1665.63 3341.7,1664.53 3345.42,1663.42 3349.15,1662.31 3352.87,1661.19 3356.6,1660.06 3360.33,1658.93 3364.05,1657.78 3367.78,1656.64 3371.5,1655.48 3375.23,1654.32 3378.96,1653.15 3382.68,1651.96 3386.41,1650.76 3390.13,1649.56 3393.86,1648.35 3397.59,1647.13 3401.31,1645.89 3405.04,1644.65 3408.76,1643.4 3412.49,1642.14 3416.22,1640.87 3419.94,1639.59 3423.67,1638.29 3427.39,1636.98 3431.12,1635.66 3434.85,1634.32 3438.57,1632.98 3442.3,1631.62 3446.02,1630.24 3449.75,1628.85 3453.48,1627.44 3457.2,1626.02 3460.93,1624.59 3464.65,1623.14 3468.38,1621.66 3472.11,1620.17 3475.83,1618.66 3479.56,1617.14 3483.28,1615.59 3487.01,1614.03 3490.74,1612.43 3494.46,1610.82 3498.19,1609.17 3501.91,1607.51 3505.64,1605.83 3509.37,1604.11 3513.09,1602.35 3516.82,1600.57 3520.54,1598.75 3524.27,1596.89 3528,1594.97 3531.72,1593.02 3535.45,1591.03 3539.17,1589.01 3542.9,1586.94 3546.63,1584.8 3550.35,1582.6 3554.08,1580.35 3557.8,1578.03 3561.53,1575.62 3565.25,1573.12 3568.98,1570.53 3572.71,1567.84 3576.43,1565.01 3580.16,1562.05 3583.88,1558.93 3587.61,1555.61 3591.34,1552.07 3595.06,1548.27 3598.79,1544.11 3602.51,1539.55 3606.24,1534.4 3609.97,1528.56 3613.69,1521.6 3617.42,1513.09 3621.14,1502.05 3624.87,1486.49 3628.6,1461.14 3632.32,1410.66 3636.05,1285.16 3639.77,1095.56 3643.5,1056.1 3647.23,1055.03 3650.95,1055.98 3654.68,1057 3658.4,1058.03 3662.13,1059.06 3665.86,1060.11 3669.58,1061.16 3673.31,1062.22 3677.03,1063.28 3680.76,1064.35 3684.49,1065.42 3688.21,1066.49 3691.94,1067.58 3695.66,1068.68 3699.39,1069.79 3703.12,1070.9 3706.84,1072.02 3710.57,1073.14 3714.29,1074.27 3718.02,1075.4 3721.75,1076.54 3725.47,1077.7 3729.2,1078.86 3732.92,1080.04 3736.65,1081.22 3740.38,1082.41 3744.1,1083.61 3747.83,1084.82 3751.55,1086.04 3755.28,1087.27 3759.01,1088.5 3762.73,1089.74 3766.46,1091 3770.18,1092.27 3773.91,1093.55 3777.64,1094.85 3781.36,1096.15 3785.09,1097.47 3788.81,1098.8 3792.54,1100.14 3796.27,1101.5 3799.99,1102.87 3803.72,1104.26 3807.44,1105.65 3811.17,1107.07 3814.89,1108.5 3818.62,1109.94 3822.35,1111.41 3826.07,1112.9 3829.8,1114.39 3833.52,1115.91 3837.25,1117.45 3840.98,1119.01 3844.7,1120.6 3848.43,1122.21 3852.15,1123.84 3855.88,1125.49 3859.61,1127.17 3863.33,1128.88 3867.06,1130.62 3870.78,1132.39 3874.51,1134.2 3878.24,1136.06 3881.96,1137.96 3885.69,1139.9 3889.41,1141.86 3893.14,1143.86 3896.87,1145.92 3900.59,1148.04 3904.32,1150.21 3908.04,1152.44 3911.77,1154.74 3915.5,1157.13 3919.22,1159.59 3922.95,1162.14 3926.67,1164.8 3930.4,1167.58 3934.13,1170.49 3937.85,1173.54 3941.58,1176.8 3945.3,1180.25 3949.03,1183.98 3952.76,1188.03 "/>
<polyline clip-path="url(#clip252)" style="stroke:#e26f46; stroke-linecap:round; stroke-linejoin:round; stroke-width:4; stroke-opacity:1; fill:none" points="230.511,1366.8 234.237,1354.71 237.963,1333.51 241.689,1307.94 245.415,1281.56 249.141,1255.17 252.867,1228.91 256.593,1202.78 260.319,1176.79 264.045,1150.94 267.771,1125.24 271.497,1099.69 275.222,1074.29 278.948,1049.03 282.674,1023.93 286.4,998.982 290.126,974.191 293.852,949.56 297.578,925.088 301.304,900.779 305.03,876.639 308.756,852.668 312.482,828.864 316.208,805.237 319.934,781.79 323.66,758.523 327.386,735.436 331.112,712.541 334.838,689.841 338.564,667.335 342.29,645.025 346.016,622.928 349.742,601.044 353.468,579.373 357.194,557.921 360.92,536.708 364.646,515.734 368.372,494.998 372.098,474.518 375.824,454.314 379.55,434.385 383.276,414.738 387.002,395.411 390.728,376.406 394.454,357.74 398.18,339.46 401.905,321.569 405.631,304.137 409.357,287.185 413.083,270.812 416.809,255.08 420.535,240.154 424.261,226.258 427.987,213.763 431.713,203.473 435.439,197.18 439.165,200.333 442.891,221.725 446.617,252.181 450.343,283.389 454.069,314.536 457.795,345.581 461.521,376.523 465.247,407.362 468.973,438.096 472.699,468.725 476.425,499.248 480.151,529.666 483.877,559.978 487.603,590.181 491.329,620.276 495.055,650.262 498.781,680.14 502.507,709.908 506.233,739.563 509.959,769.107 513.685,798.539 517.411,827.861 521.137,857.067 524.863,886.158 528.589,915.132 532.314,943.991 536.04,972.735 539.766,1001.36 543.492,1029.87 547.218,1058.25 550.944,1086.52 554.67,1114.66 558.396,1142.68 562.122,1170.58 565.848,1198.35 569.574,1226 573.3,1253.52 577.026,1280.91 580.752,1308.18 584.478,1335.31 588.204,1362.32 591.93,1389.18 595.656,1415.92 599.382,1442.51 603.108,1468.98 606.834,1495.31 610.56,1521.49 614.286,1547.53 618.012,1573.43 621.738,1599.19 625.464,1624.8 629.19,1650.27 632.916,1675.58 636.642,1700.74 640.368,1725.75 644.094,1750.59 647.82,1775.29 651.546,1799.83 655.272,1824.2 658.997,1848.41 662.723,1872.44 666.449,1896.31 670.175,1920 673.901,1943.52 677.627,1966.87 681.353,1990.02 685.079,2012.98 688.805,2035.75 692.531,2058.34 696.257,2080.72 699.983,2102.89 703.709,2124.85 707.435,2146.6 711.161,2168.14 714.887,2189.44 718.613,2210.5 722.339,2231.31 726.065,2251.89 729.791,2272.19 733.517,2292.22 737.243,2311.97 740.969,2331.41 744.695,2350.53 748.421,2369.32 752.147,2387.74 755.873,2405.77 759.599,2423.37 763.325,2440.49 767.051,2457.08 770.777,2473.06 774.503,2488.27 778.229,2502.58 781.955,2515.64 785.681,2526.87 789.406,2534.86 793.132,2536.1 796.858,2521.35 800.584,2492.37 804.31,2461.21 808.036,2430.03 811.762,2398.95 815.488,2367.97 819.214,2337.1 822.94,2306.33 826.666,2275.66 830.392,2245.1 834.118,2214.64 837.844,2184.3 841.57,2154.05 845.296,2123.92 849.022,2093.9 852.748,2063.98 856.474,2034.17 860.2,2004.48 863.926,1974.89 867.652,1945.42 871.378,1916.06 875.104,1886.82 878.83,1857.68 882.556,1828.67 886.282,1799.77 890.008,1770.98 893.734,1742.32 897.46,1713.77 901.186,1685.34 904.912,1657.03 908.638,1628.85 912.364,1600.78 916.089,1572.84 919.815,1545.02 923.541,1517.33 927.267,1489.77 930.993,1462.33 934.719,1435.02 938.445,1407.84 942.171,1380.79 945.897,1353.87 949.623,1327.09 953.349,1300.45 957.075,1273.94 960.801,1247.56 964.527,1221.32 968.253,1195.23 971.979,1169.28 975.705,1143.47 979.431,1117.81 983.157,1092.29 986.883,1066.92 990.609,1041.71 994.335,1016.65 998.061,991.747 1001.79,966.998 1005.51,942.403 1009.24,917.968 1012.96,893.703 1016.69,869.608 1020.42,845.685 1024.14,821.931 1027.87,798.348 1031.59,774.939 1035.32,751.72 1039.05,728.691 1042.77,705.852 1046.5,683.203 1050.22,660.746 1053.95,638.499 1057.68,616.463 1061.4,594.64 1065.13,573.027 1068.85,551.644 1072.58,530.501 1076.31,509.597 1080.03,488.932 1083.76,468.534 1087.48,448.41 1091.21,428.56 1094.94,409.007 1098.66,389.775 1102.39,370.863 1106.11,352.311 1109.84,334.145 1113.57,316.381 1117.29,299.09 1121.02,282.294 1124.74,266.103 1128.47,250.594 1132.2,235.933 1135.92,222.387 1139.65,210.419 1143.37,201.082 1147.1,196.701 1150.83,204.672 1154.55,230.423 1158.28,261.376 1162,292.58 1165.73,323.697 1169.46,354.712 1173.18,385.624 1176.91,416.431 1180.63,447.135 1184.36,477.733 1188.09,508.225 1191.81,538.611 1195.54,568.891 1199.26,599.063 1202.99,629.125 1206.72,659.08 1210.44,688.926 1214.17,718.661 1217.89,748.283 1221.62,777.794 1225.35,807.193 1229.07,836.482 1232.8,865.654 1236.52,894.71 1240.25,923.651 1243.97,952.476 1247.7,981.185 1251.43,1009.78 1255.15,1038.25 1258.88,1066.6 1262.6,1094.82 1266.33,1122.93 1270.06,1150.92 1273.78,1178.78 1277.51,1206.52 1281.23,1234.13 1284.96,1261.61 1288.69,1288.96 1292.41,1316.19 1296.14,1343.29 1299.86,1370.25 1303.59,1397.08 1307.32,1423.77 1311.04,1450.33 1314.77,1476.75 1318.49,1503.04 1322.22,1529.18 1325.95,1555.18 1329.67,1581.04 1333.4,1606.75 1337.12,1632.32 1340.85,1657.74 1344.58,1683.01 1348.3,1708.13 1352.03,1733.09 1355.75,1757.89 1359.48,1782.54 1363.21,1807.03 1366.93,1831.36 1370.66,1855.51 1374.38,1879.5 1378.11,1903.31 1381.84,1926.95 1385.56,1950.42 1389.29,1973.71 1393.01,1996.81 1396.74,2019.72 1400.47,2042.43 1404.19,2064.96 1407.92,2087.28 1411.64,2109.39 1415.37,2131.29 1419.1,2152.97 1422.82,2174.44 1426.55,2195.67 1430.27,2216.66 1434,2237.41 1437.73,2257.9 1441.45,2278.12 1445.18,2298.07 1448.9,2317.73 1452.63,2337.08 1456.36,2356.1 1460.08,2374.79 1463.81,2393.09 1467.53,2411.01 1471.26,2428.47 1474.99,2445.45 1478.71,2461.86 1482.44,2477.63 1486.16,2492.6 1489.89,2506.57 1493.62,2519.16 1497.34,2529.63 1501.07,2536.22 1504.79,2533.89 1508.52,2513.5 1512.24,2483.2 1515.97,2452 1519.7,2420.84 1523.42,2389.79 1527.15,2358.84 1530.87,2328 1534.6,2297.26 1538.33,2266.63 1542.05,2236.1 1545.78,2205.67 1549.5,2175.36 1553.23,2145.15 1556.96,2115.04 1560.68,2085.05 1564.41,2055.17 1568.13,2025.39 1571.86,1995.73 1575.59,1966.18 1579.31,1936.74 1583.04,1907.42 1586.76,1878.2 1590.49,1849.1 1594.22,1820.12 1597.94,1791.26 1601.67,1762.51 1605.39,1733.88 1609.12,1705.36 1612.85,1676.97 1616.57,1648.7 1620.3,1620.55 1624.02,1592.52 1627.75,1564.62 1631.48,1536.84 1635.2,1509.18 1638.93,1481.65 1642.65,1454.25 1646.38,1426.98 1650.11,1399.84 1653.83,1372.83 1657.56,1345.95 1661.28,1319.21 1665.01,1292.6 1668.74,1266.13 1672.46,1239.8 1676.19,1213.61 1679.91,1187.55 1683.64,1161.64 1687.37,1135.88 1691.09,1110.26 1694.82,1084.79 1698.54,1059.47 1702.27,1034.3 1706,1009.28 1709.72,984.418 1713.45,959.718 1717.17,935.179 1720.9,910.8 1724.63,886.58 1728.35,862.527 1732.08,838.651 1735.8,814.952 1739.53,791.429 1743.26,768.082 1746.98,744.911 1750.71,721.933 1754.43,699.151 1758.16,676.564 1761.88,654.174 1765.61,631.979 1769.34,610.003 1773.06,588.245 1776.79,566.707 1780.51,545.387 1784.24,524.308 1787.97,503.479 1791.69,482.898 1795.42,462.57 1799.14,442.527 1802.87,422.77 1806.6,403.302 1810.32,384.163 1814.05,365.362 1817.77,346.911 1821.5,328.866 1825.23,311.231 1828.95,294.084 1832.68,277.453 1836.4,261.455 1840.13,246.174 1843.86,231.808 1847.58,218.666 1851.31,207.314 1855.03,199.116 1858.76,197.293 1862.49,210.918 1866.21,239.516 1869.94,270.659 1873.66,301.843 1877.39,332.93 1881.12,363.914 1884.84,394.795 1888.57,425.572 1892.29,456.243 1896.02,486.81 1899.75,517.271 1903.47,547.625 1907.2,577.872 1910.92,608.013 1914.65,638.044 1918.38,667.965 1922.1,697.777 1925.83,727.478 1929.55,757.07 1933.28,786.549 1937.01,815.913 1940.73,845.165 1944.46,874.302 1948.18,903.327 1951.91,932.235 1955.64,961.024 1959.36,989.696 1963.09,1018.25 1966.81,1046.69 1970.54,1075 1974.27,1103.2 1977.99,1131.26 1981.72,1159.21 1985.44,1187.03 1989.17,1214.74 1992.9,1242.31 1996.62,1269.75 2000.35,1297.07 2004.07,1324.25 2007.8,1351.31 2011.52,1378.23 2015.25,1405.03 2018.98,1431.68 2022.7,1458.2 2026.43,1484.58 2030.15,1510.82 2033.88,1536.92 2037.61,1562.89 2041.33,1588.7 2045.06,1614.37 2048.78,1639.89 2052.51,1665.26 2056.24,1690.49 2059.96,1715.56 2063.69,1740.48 2067.41,1765.23 2071.14,1789.83 2074.87,1814.27 2078.59,1838.54 2082.32,1862.66 2086.04,1886.6 2089.77,1910.36 2093.5,1933.94 2097.22,1957.35 2100.95,1980.58 2104.67,2003.64 2108.4,2026.49 2112.13,2049.15 2115.85,2071.61 2119.58,2093.87 2123.3,2115.92 2127.03,2137.76 2130.76,2159.38 2134.48,2180.77 2138.21,2201.94 2141.93,2222.86 2145.66,2243.52 2149.39,2263.94 2153.11,2284.09 2156.84,2303.94 2160.56,2323.51 2164.29,2342.77 2168.02,2361.69 2171.74,2380.27 2175.47,2398.46 2179.19,2416.24 2182.92,2433.57 2186.65,2450.38 2190.37,2466.62 2194.1,2482.17 2197.82,2496.87 2201.55,2510.48 2205.28,2522.55 2209,2532.12 2212.73,2536.87 2216.45,2529.88 2220.18,2504.83 2223.91,2473.94 2227.63,2442.74 2231.36,2411.61 2235.08,2380.59 2238.81,2349.68 2242.54,2318.86 2246.26,2288.15 2249.99,2257.55 2253.71,2227.05 2257.44,2196.66 2261.17,2166.37 2264.89,2136.2 2268.62,2106.13 2272.34,2076.17 2276.07,2046.32 2279.79,2016.57 2283.52,1986.94 2287.25,1957.43 2290.97,1928.02 2294.7,1898.73 2298.42,1869.55 2302.15,1840.49 2305.88,1811.54 2309.6,1782.71 2313.33,1753.99 2317.05,1725.4 2320.78,1696.92 2324.51,1668.56 2328.23,1640.33 2331.96,1612.21 2335.68,1584.22 2339.41,1556.35 2343.14,1528.61 2346.86,1500.99 2350.59,1473.5 2354.31,1446.14 2358.04,1418.91 2361.77,1391.8 2365.49,1364.83 2369.22,1337.99 2372.94,1311.29 2376.67,1284.73 2380.4,1258.3 2384.12,1232.01 2387.85,1205.85 2391.57,1179.84 2395.3,1153.98 2399.03,1128.26 2402.75,1102.68 2406.48,1077.26 2410.2,1051.97 2413.93,1026.85 2417.66,1001.88 2421.38,977.068 2425.11,952.415 2428.83,927.919 2432.56,903.578 2436.29,879.409 2440.01,855.413 2443.74,831.59 2447.46,807.942 2451.19,784.467 2454.92,761.165 2458.64,738.051 2462.37,715.132 2466.09,692.408 2469.82,669.878 2473.55,647.542 2477.27,625.414 2481,603.504 2484.72,581.811 2488.45,560.335 2492.18,539.086 2495.9,518.083 2499.63,497.327 2503.35,476.815 2507.08,456.574 2510.81,436.617 2514.53,416.941 2518.26,397.57 2521.98,378.532 2525.71,359.827 2529.43,341.498 2533.16,323.572 2536.89,306.074 2540.61,289.077 2544.34,272.622 2548.06,256.816 2551.79,241.8 2555.52,227.759 2559.24,215.068 2562.97,204.436 2566.69,197.613 2570.42,199.214 2574.15,218.614 2577.87,248.738 2581.6,279.941 2585.32,311.099 2589.05,342.155 2592.78,373.109 2596.5,403.959 2600.23,434.704 2603.95,465.345 2607.68,495.881 2611.41,526.31 2615.13,556.632 2618.86,586.848 2622.58,616.956 2626.31,646.954 2630.04,676.843 2633.76,706.622 2637.49,736.292 2641.21,765.85 2644.94,795.294 2648.67,824.625 2652.39,853.843 2656.12,882.949 2659.84,911.938 2663.57,940.81 2667.3,969.564 2671.02,998.201 2674.75,1026.72 2678.47,1055.12 2682.2,1083.4 2685.93,1111.56 2689.65,1139.59 2693.38,1167.5 2697.1,1195.29 2700.83,1222.95 2704.56,1250.49 2708.28,1277.89 2712.01,1305.17 2715.73,1332.32 2719.46,1359.33 2723.19,1386.22 2726.91,1412.97 2730.64,1439.59 2734.36,1466.06 2738.09,1492.4 2741.82,1518.6 2745.54,1544.66 2749.27,1570.58 2752.99,1596.36 2756.72,1621.98 2760.45,1647.46 2764.17,1672.78 2767.9,1697.97 2771.62,1723 2775.35,1747.87 2779.08,1772.58 2782.8,1797.12 2786.53,1821.51 2790.25,1845.74 2793.98,1869.8 2797.7,1893.69 2801.43,1917.4 2805.16,1940.93 2808.88,1964.28 2812.61,1987.46 2816.33,2010.45 2820.06,2033.25 2823.79,2055.84 2827.51,2078.24 2831.24,2100.45 2834.96,2122.44 2838.69,2144.21 2842.42,2165.76 2846.14,2187.09 2849.87,2208.18 2853.59,2229.02 2857.32,2249.62 2861.05,2269.96 2864.77,2290.02 2868.5,2309.79 2872.22,2329.27 2875.95,2348.43 2879.68,2367.25 2883.4,2385.72 2887.13,2403.79 2890.85,2421.44 2894.58,2438.62 2898.31,2455.28 2902.03,2471.31 2905.76,2486.64 2909.48,2501.06 2913.21,2514.27 2916.94,2525.7 2920.66,2534.16 2924.39,2536.5 2928.11,2523.94 2931.84,2495.75 2935.57,2464.63 2939.29,2433.44 2943.02,2402.35 2946.74,2371.36 2950.47,2340.47 2954.2,2309.69 2957.92,2279.01 2961.65,2248.44 2965.37,2217.97 2969.1,2187.61 2972.83,2157.36 2976.55,2127.21 2980.28,2097.18 2984,2067.25 2987.73,2037.43 2991.46,2007.72 2995.18,1978.13 2998.91,1948.64 3002.63,1919.27 3006.36,1890.01 3010.09,1860.87 3013.81,1831.84 3017.54,1802.92 3021.26,1774.13 3024.99,1745.45 3028.72,1716.89 3032.44,1688.45 3036.17,1660.12 3039.89,1631.93 3043.62,1603.85 3047.34,1575.9 3051.07,1548.07 3054.8,1520.36 3058.52,1492.78 3062.25,1465.33 3065.97,1438 3069.7,1410.81 3073.43,1383.75 3077.15,1356.82 3080.88,1330.02 3084.6,1303.35 3088.33,1276.83 3092.06,1250.44 3095.78,1224.2 3099.51,1198.08 3103.23,1172.11 3106.96,1146.29 3110.69,1120.61 3114.41,1095.09 3118.14,1069.7 3121.86,1044.47 3125.59,1019.39 3129.32,994.461 3133.04,969.697 3136.77,945.092 3140.49,920.649 3144.22,896.365 3147.95,872.242 3151.67,848.294 3155.4,824.523 3159.12,800.929 3162.85,777.511 3166.58,754.268 3170.3,731.211 3174.03,708.349 3177.75,685.683 3181.48,663.213 3185.21,640.937 3188.93,618.872 3192.66,597.025 3196.38,575.398 3200.11,553.989 3203.84,532.81 3207.56,511.88 3211.29,491.199 3215.01,470.764 3218.74,450.605 3222.47,430.732 3226.19,411.145 3229.92,391.869 3233.64,372.932 3237.37,354.332 3241.1,336.121 3244.82,318.317 3248.55,300.963 3252.27,284.118 3256,267.85 3259.73,252.254 3263.45,237.507 3267.18,223.826 3270.9,211.657 3274.63,201.918 3278.36,196.822 3282.08,202.893 3285.81,227.203 3289.53,258.023 3293.26,289.231 3296.99,320.359 3300.71,351.384 3304.44,382.307 3308.16,413.126 3311.89,443.841 3315.61,474.45 3319.34,504.954 3323.07,535.352 3326.79,565.642 3330.52,595.825 3334.24,625.901 3337.97,655.867 3341.7,685.723 3345.42,715.469 3349.15,745.105 3352.87,774.63 3356.6,804.041 3360.33,833.338 3364.05,862.521 3367.78,891.593 3371.5,920.548 3375.23,949.385 3378.96,978.104 3382.68,1006.71 3386.41,1035.19 3390.13,1063.55 3393.86,1091.8 3397.59,1119.92 3401.31,1147.91 3405.04,1175.79 3408.76,1203.54 3412.49,1231.16 3416.22,1258.66 3419.94,1286.03 3423.67,1313.26 3427.39,1340.37 3431.12,1367.35 3434.85,1394.2 3438.57,1420.91 3442.3,1447.48 3446.02,1473.92 3449.75,1500.21 3453.48,1526.37 3457.2,1552.39 3460.93,1578.27 3464.65,1604 3468.38,1629.58 3472.11,1655.01 3475.83,1680.29 3479.56,1705.43 3483.28,1730.41 3487.01,1755.23 3490.74,1779.89 3494.46,1804.39 3498.19,1828.73 3501.91,1852.92 3505.64,1876.93 3509.37,1900.76 3513.09,1924.42 3516.82,1947.9 3520.54,1971.2 3524.27,1994.33 3528,2017.26 3531.72,2040 3535.45,2062.54 3539.17,2084.88 3542.9,2107.02 3546.63,2128.95 3550.35,2150.65 3554.08,2172.14 3557.8,2193.4 3561.53,2214.42 3565.25,2235.19 3568.98,2255.7 3572.71,2275.97 3576.43,2295.94 3580.16,2315.62 3583.88,2335.02 3587.61,2354.08 3591.34,2372.79 3595.06,2391.15 3598.79,2409.09 3602.51,2426.62 3606.24,2443.64 3609.97,2460.13 3613.69,2475.96 3617.42,2491.03 3621.14,2505.14 3624.87,2517.92 3628.6,2528.65 3632.32,2535.8 3636.05,2534.89 3639.77,2516.49 3643.5,2486.56 3647.23,2455.36 3650.95,2424.2 3654.68,2393.14 3658.4,2362.18 3662.13,2331.32 3665.86,2300.57 3669.58,2269.92 3673.31,2239.38 3677.03,2208.95 3680.76,2178.62 3684.49,2148.4 3688.21,2118.29 3691.94,2088.28 3695.66,2058.39 3699.39,2028.6 3703.12,1998.92 3706.84,1969.36 3710.57,1939.91 3714.29,1910.57 3718.02,1881.35 3721.75,1852.24 3725.47,1823.24 3729.2,1794.36 3732.92,1765.6 3736.65,1736.96 3740.38,1708.43 3744.1,1680.02 3747.83,1651.74 3751.55,1623.58 3755.28,1595.54 3759.01,1567.62 3762.73,1539.82 3766.46,1512.15 3770.18,1484.61 3773.91,1457.2 3777.64,1429.92 3781.36,1402.76 3785.09,1375.73 3788.81,1348.84 3792.54,1322.09 3796.27,1295.47 3799.99,1268.98 3803.72,1242.63 3807.44,1216.42 3811.17,1190.35 3814.89,1164.43 3818.62,1138.65 3822.35,1113.02 3826.07,1087.53 3829.8,1062.19 3833.52,1037 3837.25,1011.97 3840.98,987.091 3844.7,962.375 3848.43,937.815 3852.15,913.411 3855.88,889.171 3859.61,865.105 3863.33,841.212 3867.06,817.493 3870.78,793.948 3874.51,770.576 3878.24,747.384 3881.96,724.386 3885.69,701.583 3889.41,678.975 3893.14,656.56 3896.87,634.345 3900.59,612.347 3904.32,590.566 3908.04,569.003 3911.77,547.657 3915.5,526.555 3919.22,505.699 3922.95,485.089 3926.67,464.733 3930.4,444.661 3934.13,424.872 3937.85,405.371 3941.58,386.198 3945.3,367.359 3949.03,348.871 3952.76,330.779 "/>
<path clip-path="url(#clip250)" d="M354.586 2524.39 L769.865 2524.39 L769.865 2368.87 L354.586 2368.87  Z" fill="#ffffff" fill-rule="evenodd" fill-opacity="1"/>
<polyline clip-path="url(#clip250)" style="stroke:#000000; stroke-linecap:round; stroke-linejoin:round; stroke-width:4; stroke-opacity:1; fill:none" points="354.586,2524.39 769.865,2524.39 769.865,2368.87 354.586,2368.87 354.586,2524.39 "/>
<polyline clip-path="url(#clip250)" style="stroke:#009af9; stroke-linecap:round; stroke-linejoin:round; stroke-width:4; stroke-opacity:1; fill:none" points="395.944,2420.71 644.094,2420.71 "/>
<path clip-path="url(#clip250)" d="M699.294 2440.4 Q697.489 2445.03 695.776 2446.44 Q694.063 2447.85 691.193 2447.85 L687.79 2447.85 L687.79 2444.29 L690.29 2444.29 Q692.049 2444.29 693.021 2443.45 Q693.994 2442.62 695.174 2439.52 L695.938 2437.57 L685.452 2412.06 L689.966 2412.06 L698.068 2432.34 L706.169 2412.06 L710.683 2412.06 L699.294 2440.4 Z" fill="#000000" fill-rule="nonzero" fill-opacity="1" /><path clip-path="url(#clip250)" d="M715.706 2435.44 L720.429 2435.44 L720.429 2421.3 L715.267 2422.25 L715.267 2419.56 L720.591 2418.66 L723.762 2418.66 L723.762 2435.44 L728.507 2435.44 L728.507 2437.99 L715.706 2437.99 L715.706 2435.44 Z" fill="#000000" fill-rule="nonzero" fill-opacity="1" /><polyline clip-path="url(#clip250)" style="stroke:#e26f46; stroke-linecap:round; stroke-linejoin:round; stroke-width:4; stroke-opacity:1; fill:none" points="395.944,2472.55 644.094,2472.55 "/>
<path clip-path="url(#clip250)" d="M699.294 2492.24 Q697.489 2496.87 695.776 2498.28 Q694.063 2499.69 691.193 2499.69 L687.79 2499.69 L687.79 2496.13 L690.29 2496.13 Q692.049 2496.13 693.021 2495.29 Q693.994 2494.46 695.174 2491.36 L695.938 2489.41 L685.452 2463.9 L689.966 2463.9 L698.068 2484.18 L706.169 2463.9 L710.683 2463.9 L699.294 2492.24 Z" fill="#000000" fill-rule="nonzero" fill-opacity="1" /><path clip-path="url(#clip250)" d="M718.299 2487.19 L728.114 2487.19 L728.114 2489.83 L714.271 2489.83 L714.271 2487.28 Q715.058 2486.57 716.517 2485.27 Q724.479 2478.21 724.479 2476.03 Q724.479 2474.51 723.276 2473.58 Q722.072 2472.63 720.104 2472.63 Q718.901 2472.63 717.489 2473.05 Q716.077 2473.44 714.41 2474.25 L714.41 2471.4 Q716.192 2470.76 717.72 2470.43 Q719.271 2470.11 720.591 2470.11 Q723.947 2470.11 725.961 2471.64 Q727.975 2473.16 727.975 2475.66 Q727.975 2478.88 720.313 2485.45 Q719.017 2486.57 718.299 2487.19 Z" fill="#000000" fill-rule="nonzero" fill-opacity="1" /></svg>
