<?xml version="1.0" encoding="utf-8"?>
<svg xmlns="http://www.w3.org/2000/svg" xmlns:xlink="http://www.w3.org/1999/xlink" width="600" height="400" viewBox="0 0 2400 1600">
<defs>
  <clipPath id="clip110">
    <rect x="0" y="0" width="2400" height="1600"/>
  </clipPath>
</defs>
<path clip-path="url(#clip110)" d="M0 1600 L2400 1600 L2400 0 L0 0  Z" fill="#ffffff" fill-rule="evenodd" fill-opacity="1"/>
<defs>
  <clipPath id="clip111">
    <rect x="480" y="0" width="1681" height="1600"/>
  </clipPath>
</defs>
<path clip-path="url(#clip110)" d="M219.38 1423.18 L2352.76 1423.18 L2352.76 322.316 L219.38 322.316  Z" fill="#ffffff" fill-rule="evenodd" fill-opacity="1"/>
<defs>
  <clipPath id="clip112">
    <rect x="219" y="322" width="2134" height="1102"/>
  </clipPath>
</defs>
<polyline clip-path="url(#clip112)" style="stroke:#000000; stroke-linecap:round; stroke-linejoin:round; stroke-width:2; stroke-opacity:0.1; fill:none" points="279.759,1423.18 279.759,322.316 "/>
<polyline clip-path="url(#clip112)" style="stroke:#000000; stroke-linecap:round; stroke-linejoin:round; stroke-width:2; stroke-opacity:0.1; fill:none" points="920.395,1423.18 920.395,322.316 "/>
<polyline clip-path="url(#clip112)" style="stroke:#000000; stroke-linecap:round; stroke-linejoin:round; stroke-width:2; stroke-opacity:0.1; fill:none" points="1561.03,1423.18 1561.03,322.316 "/>
<polyline clip-path="url(#clip112)" style="stroke:#000000; stroke-linecap:round; stroke-linejoin:round; stroke-width:2; stroke-opacity:0.1; fill:none" points="2201.67,1423.18 2201.67,322.316 "/>
<polyline clip-path="url(#clip110)" style="stroke:#000000; stroke-linecap:round; stroke-linejoin:round; stroke-width:4; stroke-opacity:1; fill:none" points="219.38,1423.18 2352.76,1423.18 "/>
<polyline clip-path="url(#clip110)" style="stroke:#000000; stroke-linecap:round; stroke-linejoin:round; stroke-width:4; stroke-opacity:1; fill:none" points="279.759,1423.18 279.759,1407.17 "/>
<polyline clip-path="url(#clip110)" style="stroke:#000000; stroke-linecap:round; stroke-linejoin:round; stroke-width:4; stroke-opacity:1; fill:none" points="920.395,1423.18 920.395,1407.17 "/>
<polyline clip-path="url(#clip110)" style="stroke:#000000; stroke-linecap:round; stroke-linejoin:round; stroke-width:4; stroke-opacity:1; fill:none" points="1561.03,1423.18 1561.03,1407.17 "/>
<polyline clip-path="url(#clip110)" style="stroke:#000000; stroke-linecap:round; stroke-linejoin:round; stroke-width:4; stroke-opacity:1; fill:none" points="2201.67,1423.18 2201.67,1407.17 "/>
<path clip-path="url(#clip110)" d="M279.759 1454.1 Q276.148 1454.1 274.319 1457.66 Q272.513 1461.2 272.513 1468.33 Q272.513 1475.44 274.319 1479.01 Q276.148 1482.55 279.759 1482.55 Q283.393 1482.55 285.199 1479.01 Q287.027 1475.44 287.027 1468.33 Q287.027 1461.2 285.199 1457.66 Q283.393 1454.1 279.759 1454.1 M279.759 1450.39 Q285.569 1450.39 288.624 1455 Q291.703 1459.58 291.703 1468.33 Q291.703 1477.06 288.624 1481.67 Q285.569 1486.25 279.759 1486.25 Q273.949 1486.25 270.87 1481.67 Q267.814 1477.06 267.814 1468.33 Q267.814 1459.58 270.87 1455 Q273.949 1450.39 279.759 1450.39 Z" fill="#000000" fill-rule="nonzero" fill-opacity="1" /><path clip-path="url(#clip110)" d="M910.777 1481.64 L918.416 1481.64 L918.416 1455.28 L910.106 1456.95 L910.106 1452.69 L918.37 1451.02 L923.046 1451.02 L923.046 1481.64 L930.684 1481.64 L930.684 1485.58 L910.777 1485.58 L910.777 1481.64 Z" fill="#000000" fill-rule="nonzero" fill-opacity="1" /><path clip-path="url(#clip110)" d="M1555.68 1481.64 L1572 1481.64 L1572 1485.58 L1550.06 1485.58 L1550.06 1481.64 Q1552.72 1478.89 1557.3 1474.26 Q1561.91 1469.61 1563.09 1468.27 Q1565.34 1465.74 1566.22 1464.01 Q1567.12 1462.25 1567.12 1460.56 Q1567.12 1457.8 1565.18 1456.07 Q1563.25 1454.33 1560.15 1454.33 Q1557.95 1454.33 1555.5 1455.09 Q1553.07 1455.86 1550.29 1457.41 L1550.29 1452.69 Q1553.11 1451.55 1555.57 1450.97 Q1558.02 1450.39 1560.06 1450.39 Q1565.43 1450.39 1568.62 1453.08 Q1571.82 1455.77 1571.82 1460.26 Q1571.82 1462.39 1571.01 1464.31 Q1570.22 1466.2 1568.11 1468.8 Q1567.54 1469.47 1564.43 1472.69 Q1561.33 1475.88 1555.68 1481.64 Z" fill="#000000" fill-rule="nonzero" fill-opacity="1" /><path clip-path="url(#clip110)" d="M2205.92 1466.95 Q2209.27 1467.66 2211.15 1469.93 Q2213.05 1472.2 2213.05 1475.53 Q2213.05 1480.65 2209.53 1483.45 Q2206.01 1486.25 2199.53 1486.25 Q2197.35 1486.25 2195.04 1485.81 Q2192.74 1485.39 2190.29 1484.54 L2190.29 1480.02 Q2192.24 1481.16 2194.55 1481.74 Q2196.86 1482.32 2199.39 1482.32 Q2203.79 1482.32 2206.08 1480.58 Q2208.39 1478.84 2208.39 1475.53 Q2208.39 1472.48 2206.24 1470.77 Q2204.11 1469.03 2200.29 1469.03 L2196.26 1469.03 L2196.26 1465.19 L2200.48 1465.19 Q2203.92 1465.19 2205.75 1463.82 Q2207.58 1462.43 2207.58 1459.84 Q2207.58 1457.18 2205.68 1455.77 Q2203.81 1454.33 2200.29 1454.33 Q2198.37 1454.33 2196.17 1454.75 Q2193.97 1455.16 2191.33 1456.04 L2191.33 1451.88 Q2193.99 1451.14 2196.31 1450.77 Q2198.65 1450.39 2200.71 1450.39 Q2206.03 1450.39 2209.13 1452.83 Q2212.24 1455.23 2212.24 1459.35 Q2212.24 1462.22 2210.59 1464.21 Q2208.95 1466.18 2205.92 1466.95 Z" fill="#000000" fill-rule="nonzero" fill-opacity="1" /><path clip-path="url(#clip110)" d="M1302.68 1532.4 L1289.79 1549.74 L1303.35 1568.04 L1296.44 1568.04 L1286.07 1554.04 L1275.69 1568.04 L1268.79 1568.04 L1282.63 1549.39 L1269.96 1532.4 L1276.87 1532.4 L1286.32 1545.1 L1295.78 1532.4 L1302.68 1532.4 Z" fill="#000000" fill-rule="nonzero" fill-opacity="1" /><polyline clip-path="url(#clip112)" style="stroke:#000000; stroke-linecap:round; stroke-linejoin:round; stroke-width:2; stroke-opacity:0.1; fill:none" points="219.38,1225.46 2352.76,1225.46 "/>
<polyline clip-path="url(#clip112)" style="stroke:#000000; stroke-linecap:round; stroke-linejoin:round; stroke-width:2; stroke-opacity:0.1; fill:none" points="219.38,1014.27 2352.76,1014.27 "/>
<polyline clip-path="url(#clip112)" style="stroke:#000000; stroke-linecap:round; stroke-linejoin:round; stroke-width:2; stroke-opacity:0.1; fill:none" points="219.38,803.085 2352.76,803.085 "/>
<polyline clip-path="url(#clip112)" style="stroke:#000000; stroke-linecap:round; stroke-linejoin:round; stroke-width:2; stroke-opacity:0.1; fill:none" points="219.38,591.898 2352.76,591.898 "/>
<polyline clip-path="url(#clip112)" style="stroke:#000000; stroke-linecap:round; stroke-linejoin:round; stroke-width:2; stroke-opacity:0.1; fill:none" points="219.38,380.712 2352.76,380.712 "/>
<polyline clip-path="url(#clip110)" style="stroke:#000000; stroke-linecap:round; stroke-linejoin:round; stroke-width:4; stroke-opacity:1; fill:none" points="219.38,1423.18 219.38,322.316 "/>
<polyline clip-path="url(#clip110)" style="stroke:#000000; stroke-linecap:round; stroke-linejoin:round; stroke-width:4; stroke-opacity:1; fill:none" points="219.38,1225.46 238.278,1225.46 "/>
<polyline clip-path="url(#clip110)" style="stroke:#000000; stroke-linecap:round; stroke-linejoin:round; stroke-width:4; stroke-opacity:1; fill:none" points="219.38,1014.27 238.278,1014.27 "/>
<polyline clip-path="url(#clip110)" style="stroke:#000000; stroke-linecap:round; stroke-linejoin:round; stroke-width:4; stroke-opacity:1; fill:none" points="219.38,803.085 238.278,803.085 "/>
<polyline clip-path="url(#clip110)" style="stroke:#000000; stroke-linecap:round; stroke-linejoin:round; stroke-width:4; stroke-opacity:1; fill:none" points="219.38,591.898 238.278,591.898 "/>
<polyline clip-path="url(#clip110)" style="stroke:#000000; stroke-linecap:round; stroke-linejoin:round; stroke-width:4; stroke-opacity:1; fill:none" points="219.38,380.712 238.278,380.712 "/>
<path clip-path="url(#clip110)" d="M126.205 1211.26 Q122.593 1211.26 120.765 1214.82 Q118.959 1218.36 118.959 1225.49 Q118.959 1232.6 120.765 1236.16 Q122.593 1239.71 126.205 1239.71 Q129.839 1239.71 131.644 1236.16 Q133.473 1232.6 133.473 1225.49 Q133.473 1218.36 131.644 1214.82 Q129.839 1211.26 126.205 1211.26 M126.205 1207.55 Q132.015 1207.55 135.07 1212.16 Q138.149 1216.74 138.149 1225.49 Q138.149 1234.22 135.07 1238.83 Q132.015 1243.41 126.205 1243.41 Q120.394 1243.41 117.316 1238.83 Q114.26 1234.22 114.26 1225.49 Q114.26 1216.74 117.316 1212.16 Q120.394 1207.55 126.205 1207.55 Z" fill="#000000" fill-rule="nonzero" fill-opacity="1" /><path clip-path="url(#clip110)" d="M146.366 1236.86 L151.251 1236.86 L151.251 1242.74 L146.366 1242.74 L146.366 1236.86 Z" fill="#000000" fill-rule="nonzero" fill-opacity="1" /><path clip-path="url(#clip110)" d="M171.436 1211.26 Q167.825 1211.26 165.996 1214.82 Q164.19 1218.36 164.19 1225.49 Q164.19 1232.6 165.996 1236.16 Q167.825 1239.71 171.436 1239.71 Q175.07 1239.71 176.876 1236.16 Q178.704 1232.6 178.704 1225.49 Q178.704 1218.36 176.876 1214.82 Q175.07 1211.26 171.436 1211.26 M171.436 1207.55 Q177.246 1207.55 180.301 1212.16 Q183.38 1216.74 183.38 1225.49 Q183.38 1234.22 180.301 1238.83 Q177.246 1243.41 171.436 1243.41 Q165.626 1243.41 162.547 1238.83 Q159.491 1234.22 159.491 1225.49 Q159.491 1216.74 162.547 1212.16 Q165.626 1207.55 171.436 1207.55 Z" fill="#000000" fill-rule="nonzero" fill-opacity="1" /><path clip-path="url(#clip110)" d="M127.2 1000.07 Q123.589 1000.07 121.76 1003.63 Q119.955 1007.18 119.955 1014.31 Q119.955 1021.41 121.76 1024.98 Q123.589 1028.52 127.2 1028.52 Q130.834 1028.52 132.64 1024.98 Q134.468 1021.41 134.468 1014.31 Q134.468 1007.18 132.64 1003.63 Q130.834 1000.07 127.2 1000.07 M127.2 996.366 Q133.01 996.366 136.066 1000.97 Q139.144 1005.56 139.144 1014.31 Q139.144 1023.03 136.066 1027.64 Q133.01 1032.22 127.2 1032.22 Q121.39 1032.22 118.311 1027.64 Q115.256 1023.03 115.256 1014.31 Q115.256 1005.56 118.311 1000.97 Q121.39 996.366 127.2 996.366 Z" fill="#000000" fill-rule="nonzero" fill-opacity="1" /><path clip-path="url(#clip110)" d="M147.362 1025.67 L152.246 1025.67 L152.246 1031.55 L147.362 1031.55 L147.362 1025.67 Z" fill="#000000" fill-rule="nonzero" fill-opacity="1" /><path clip-path="url(#clip110)" d="M162.477 996.991 L180.834 996.991 L180.834 1000.93 L166.76 1000.93 L166.76 1009.4 Q167.778 1009.05 168.797 1008.89 Q169.815 1008.7 170.834 1008.7 Q176.621 1008.7 180.001 1011.88 Q183.38 1015.05 183.38 1020.46 Q183.38 1026.04 179.908 1029.14 Q176.436 1032.22 170.116 1032.22 Q167.94 1032.22 165.672 1031.85 Q163.427 1031.48 161.019 1030.74 L161.019 1026.04 Q163.102 1027.18 165.325 1027.73 Q167.547 1028.29 170.024 1028.29 Q174.028 1028.29 176.366 1026.18 Q178.704 1024.07 178.704 1020.46 Q178.704 1016.85 176.366 1014.75 Q174.028 1012.64 170.024 1012.64 Q168.149 1012.64 166.274 1013.06 Q164.422 1013.47 162.477 1014.35 L162.477 996.991 Z" fill="#000000" fill-rule="nonzero" fill-opacity="1" /><path clip-path="url(#clip110)" d="M117.015 816.43 L124.654 816.43 L124.654 790.064 L116.343 791.731 L116.343 787.471 L124.607 785.805 L129.283 785.805 L129.283 816.43 L136.922 816.43 L136.922 820.365 L117.015 820.365 L117.015 816.43 Z" fill="#000000" fill-rule="nonzero" fill-opacity="1" /><path clip-path="url(#clip110)" d="M146.366 814.485 L151.251 814.485 L151.251 820.365 L146.366 820.365 L146.366 814.485 Z" fill="#000000" fill-rule="nonzero" fill-opacity="1" /><path clip-path="url(#clip110)" d="M171.436 788.883 Q167.825 788.883 165.996 792.448 Q164.19 795.99 164.19 803.12 Q164.19 810.226 165.996 813.791 Q167.825 817.332 171.436 817.332 Q175.07 817.332 176.876 813.791 Q178.704 810.226 178.704 803.12 Q178.704 795.99 176.876 792.448 Q175.07 788.883 171.436 788.883 M171.436 785.18 Q177.246 785.18 180.301 789.786 Q183.38 794.37 183.38 803.12 Q183.38 811.846 180.301 816.453 Q177.246 821.036 171.436 821.036 Q165.626 821.036 162.547 816.453 Q159.491 811.846 159.491 803.12 Q159.491 794.37 162.547 789.786 Q165.626 785.18 171.436 785.18 Z" fill="#000000" fill-rule="nonzero" fill-opacity="1" /><path clip-path="url(#clip110)" d="M118.01 605.243 L125.649 605.243 L125.649 578.878 L117.339 580.544 L117.339 576.285 L125.603 574.618 L130.279 574.618 L130.279 605.243 L137.917 605.243 L137.917 609.178 L118.01 609.178 L118.01 605.243 Z" fill="#000000" fill-rule="nonzero" fill-opacity="1" /><path clip-path="url(#clip110)" d="M147.362 603.299 L152.246 603.299 L152.246 609.178 L147.362 609.178 L147.362 603.299 Z" fill="#000000" fill-rule="nonzero" fill-opacity="1" /><path clip-path="url(#clip110)" d="M162.477 574.618 L180.834 574.618 L180.834 578.553 L166.76 578.553 L166.76 587.026 Q167.778 586.678 168.797 586.516 Q169.815 586.331 170.834 586.331 Q176.621 586.331 180.001 589.502 Q183.38 592.674 183.38 598.09 Q183.38 603.669 179.908 606.771 Q176.436 609.85 170.116 609.85 Q167.94 609.85 165.672 609.479 Q163.427 609.109 161.019 608.368 L161.019 603.669 Q163.102 604.803 165.325 605.359 Q167.547 605.914 170.024 605.914 Q174.028 605.914 176.366 603.808 Q178.704 601.702 178.704 598.09 Q178.704 594.479 176.366 592.373 Q174.028 590.266 170.024 590.266 Q168.149 590.266 166.274 590.683 Q164.422 591.1 162.477 591.979 L162.477 574.618 Z" fill="#000000" fill-rule="nonzero" fill-opacity="1" /><path clip-path="url(#clip110)" d="M120.232 394.057 L136.552 394.057 L136.552 397.992 L114.607 397.992 L114.607 394.057 Q117.269 391.302 121.853 386.672 Q126.459 382.02 127.64 380.677 Q129.885 378.154 130.765 376.418 Q131.667 374.659 131.667 372.969 Q131.667 370.214 129.723 368.478 Q127.802 366.742 124.7 366.742 Q122.501 366.742 120.047 367.506 Q117.617 368.27 114.839 369.821 L114.839 365.098 Q117.663 363.964 120.117 363.386 Q122.57 362.807 124.607 362.807 Q129.978 362.807 133.172 365.492 Q136.367 368.177 136.367 372.668 Q136.367 374.798 135.556 376.719 Q134.769 378.617 132.663 381.21 Q132.084 381.881 128.982 385.098 Q125.88 388.293 120.232 394.057 Z" fill="#000000" fill-rule="nonzero" fill-opacity="1" /><path clip-path="url(#clip110)" d="M146.366 392.112 L151.251 392.112 L151.251 397.992 L146.366 397.992 L146.366 392.112 Z" fill="#000000" fill-rule="nonzero" fill-opacity="1" /><path clip-path="url(#clip110)" d="M171.436 366.511 Q167.825 366.511 165.996 370.075 Q164.19 373.617 164.19 380.747 Q164.19 387.853 165.996 391.418 Q167.825 394.959 171.436 394.959 Q175.07 394.959 176.876 391.418 Q178.704 387.853 178.704 380.747 Q178.704 373.617 176.876 370.075 Q175.07 366.511 171.436 366.511 M171.436 362.807 Q177.246 362.807 180.301 367.413 Q183.38 371.997 183.38 380.747 Q183.38 389.473 180.301 394.08 Q177.246 398.663 171.436 398.663 Q165.626 398.663 162.547 394.08 Q159.491 389.473 159.491 380.747 Q159.491 371.997 162.547 367.413 Q165.626 362.807 171.436 362.807 Z" fill="#000000" fill-rule="nonzero" fill-opacity="1" /><path clip-path="url(#clip110)" d="M29.7248 902.587 L35.1993 902.587 Q33.8307 905.07 33.1623 907.584 Q32.4621 910.067 32.4621 912.613 Q32.4621 918.31 36.0905 921.461 Q39.6872 924.612 46.212 924.612 Q52.7369 924.612 56.3653 921.461 Q59.9619 918.31 59.9619 912.613 Q59.9619 910.067 59.2935 907.584 Q58.5933 905.07 57.2247 902.587 L62.6355 902.587 Q63.7814 905.038 64.3543 907.68 Q64.9272 910.29 64.9272 913.25 Q64.9272 921.302 59.8664 926.045 Q54.8057 930.787 46.212 930.787 Q37.491 930.787 32.4939 926.013 Q27.4968 921.207 27.4968 912.868 Q27.4968 910.162 28.0697 907.584 Q28.6108 905.006 29.7248 902.587 Z" fill="#000000" fill-rule="nonzero" fill-opacity="1" /><path clip-path="url(#clip110)" d="M14.5426 878.334 Q21.8632 882.599 29.0246 884.668 Q36.186 886.736 43.5384 886.736 Q50.8908 886.736 58.1159 884.668 Q65.3091 882.567 72.5979 878.334 L72.5979 883.426 Q65.1182 888.201 57.8931 890.588 Q50.668 892.943 43.5384 892.943 Q36.4406 892.943 29.2474 890.588 Q22.0542 888.232 14.5426 883.426 L14.5426 878.334 Z" fill="#000000" fill-rule="nonzero" fill-opacity="1" /><path clip-path="url(#clip110)" d="M28.3562 837.339 L45.7028 850.229 L64.0042 836.67 L64.0042 843.577 L49.9996 853.953 L64.0042 864.329 L64.0042 871.236 L45.3526 857.391 L28.3562 870.058 L28.3562 863.151 L41.0558 853.698 L28.3562 844.245 L28.3562 837.339 Z" fill="#000000" fill-rule="nonzero" fill-opacity="1" /><path clip-path="url(#clip110)" d="M14.5426 829.318 L14.5426 824.225 Q22.0542 819.451 29.2474 817.096 Q36.4406 814.708 43.5384 814.708 Q50.668 814.708 57.8931 817.096 Q65.1182 819.451 72.5979 824.225 L72.5979 829.318 Q65.3091 825.085 58.1159 823.016 Q50.8908 820.915 43.5384 820.915 Q36.186 820.915 29.0246 823.016 Q21.8632 825.085 14.5426 829.318 Z" fill="#000000" fill-rule="nonzero" fill-opacity="1" /><path clip-path="url(#clip110)" d="M913.547 43.6931 L913.547 65.8515 L926.672 65.8515 Q933.275 65.8515 936.434 63.1374 Q939.635 60.3828 939.635 54.752 Q939.635 49.0808 936.434 46.4072 Q933.275 43.6931 926.672 43.6931 L913.547 43.6931 M913.547 18.8205 L913.547 37.0496 L925.659 37.0496 Q931.654 37.0496 934.571 34.8216 Q937.528 32.5531 937.528 27.935 Q937.528 23.3575 934.571 21.089 Q931.654 18.8205 925.659 18.8205 L913.547 18.8205 M905.364 12.096 L926.267 12.096 Q935.624 12.096 940.688 15.9849 Q945.752 19.8737 945.752 27.0438 Q945.752 32.5936 943.159 35.8748 Q940.566 39.156 935.543 39.9662 Q941.579 41.2625 944.901 45.3944 Q948.263 49.4858 948.263 55.6432 Q948.263 63.745 942.754 68.1605 Q937.245 72.576 927.077 72.576 L905.364 72.576 L905.364 12.096 Z" fill="#000000" fill-rule="nonzero" fill-opacity="1" /><path clip-path="url(#clip110)" d="M962.279 12.096 L997.036 12.096 L997.036 18.9825 L970.462 18.9825 L970.462 36.8065 L994.443 36.8065 L994.443 43.6931 L970.462 43.6931 L970.462 72.576 L962.279 72.576 L962.279 12.096 Z" fill="#000000" fill-rule="nonzero" fill-opacity="1" /><path clip-path="url(#clip110)" d="M1051.24 63.9476 L1051.24 47.7034 L1037.87 47.7034 L1037.87 40.9789 L1059.34 40.9789 L1059.34 66.9452 Q1054.6 70.3075 1048.89 72.0494 Q1043.18 73.7508 1036.69 73.7508 Q1022.52 73.7508 1014.5 65.4869 Q1006.52 57.1826 1006.52 42.3968 Q1006.52 27.5705 1014.5 19.3066 Q1022.52 11.0023 1036.69 11.0023 Q1042.61 11.0023 1047.92 12.4606 Q1053.26 13.9189 1057.76 16.7545 L1057.76 25.464 Q1053.22 21.6156 1048.12 19.6712 Q1043.01 17.7268 1037.38 17.7268 Q1026.28 17.7268 1020.69 23.9246 Q1015.14 30.1225 1015.14 42.3968 Q1015.14 54.6305 1020.69 60.8284 Q1026.28 67.0263 1037.38 67.0263 Q1041.72 67.0263 1045.12 66.2971 Q1048.52 65.5274 1051.24 63.9476 Z" fill="#000000" fill-rule="nonzero" fill-opacity="1" /><path clip-path="url(#clip110)" d="M1110.54 14.0809 L1110.54 22.0612 Q1105.88 19.8332 1101.75 18.7395 Q1097.62 17.6457 1093.77 17.6457 Q1087.09 17.6457 1083.44 20.2383 Q1079.84 22.8309 1079.84 27.611 Q1079.84 31.6214 1082.23 33.6873 Q1084.66 35.7128 1091.38 36.9686 L1096.32 37.9813 Q1105.48 39.7232 1109.81 44.1387 Q1114.19 48.5136 1114.19 55.8863 Q1114.19 64.6767 1108.27 69.2137 Q1102.4 73.7508 1091.02 73.7508 Q1086.72 73.7508 1081.86 72.7785 Q1077.04 71.8063 1071.86 69.9024 L1071.86 61.4765 Q1076.84 64.2716 1081.62 65.6895 Q1086.4 67.1073 1091.02 67.1073 Q1098.03 67.1073 1101.83 64.3527 Q1105.64 61.598 1105.64 56.4939 Q1105.64 52.0379 1102.89 49.5264 Q1100.17 47.0148 1093.93 45.759 L1088.95 44.7868 Q1079.8 42.9639 1075.7 39.075 Q1071.61 35.1862 1071.61 28.2591 Q1071.61 20.2383 1077.24 15.6203 Q1082.92 11.0023 1092.84 11.0023 Q1097.09 11.0023 1101.51 11.7719 Q1105.92 12.5416 1110.54 14.0809 Z" fill="#000000" fill-rule="nonzero" fill-opacity="1" /><path clip-path="url(#clip110)" d="M1154.13 12.096 L1186.25 12.096 L1186.25 18.9825 L1161.62 18.9825 L1161.62 33.8088 Q1163.41 33.2012 1165.19 32.9176 Q1166.97 32.5936 1168.75 32.5936 Q1178.88 32.5936 1184.8 38.1433 Q1190.71 43.6931 1190.71 53.1722 Q1190.71 62.9348 1184.63 68.3631 Q1178.56 73.7508 1167.5 73.7508 Q1163.69 73.7508 1159.72 73.1026 Q1155.79 72.4545 1151.58 71.1582 L1151.58 62.9348 Q1155.22 64.9198 1159.11 65.892 Q1163 66.8642 1167.34 66.8642 Q1174.34 66.8642 1178.44 63.1779 Q1182.53 59.4916 1182.53 53.1722 Q1182.53 46.8528 1178.44 43.1664 Q1174.34 39.4801 1167.34 39.4801 Q1164.05 39.4801 1160.77 40.2093 Q1157.53 40.9384 1154.13 42.4778 L1154.13 12.096 Z" fill="#000000" fill-rule="nonzero" fill-opacity="1" /><path clip-path="url(#clip110)" d="M1224.33 17.4837 Q1218.01 17.4837 1214.81 23.7221 Q1211.65 29.92 1211.65 42.3968 Q1211.65 54.833 1214.81 61.0714 Q1218.01 67.2693 1224.33 67.2693 Q1230.69 67.2693 1233.85 61.0714 Q1237.05 54.833 1237.05 42.3968 Q1237.05 29.92 1233.85 23.7221 Q1230.69 17.4837 1224.33 17.4837 M1224.33 11.0023 Q1234.5 11.0023 1239.85 19.0636 Q1245.23 27.0843 1245.23 42.3968 Q1245.23 57.6687 1239.85 65.73 Q1234.5 73.7508 1224.33 73.7508 Q1214.16 73.7508 1208.78 65.73 Q1203.43 57.6687 1203.43 42.3968 Q1203.43 27.0843 1208.78 19.0636 Q1214.16 11.0023 1224.33 11.0023 Z" fill="#000000" fill-rule="nonzero" fill-opacity="1" /><path clip-path="url(#clip110)" d="M1284.93 27.2059 L1292.39 27.2059 L1292.39 72.576 L1284.93 72.576 L1284.93 27.2059 M1284.93 9.54393 L1292.39 9.54393 L1292.39 18.9825 L1284.93 18.9825 L1284.93 9.54393 Z" fill="#000000" fill-rule="nonzero" fill-opacity="1" /><path clip-path="url(#clip110)" d="M1315.36 14.324 L1315.36 27.2059 L1330.71 27.2059 L1330.71 32.9987 L1315.36 32.9987 L1315.36 57.6282 Q1315.36 63.1779 1316.85 64.7578 Q1318.39 66.3376 1323.05 66.3376 L1330.71 66.3376 L1330.71 72.576 L1323.05 72.576 Q1314.42 72.576 1311.14 69.3758 Q1307.86 66.1351 1307.86 57.6282 L1307.86 32.9987 L1302.39 32.9987 L1302.39 27.2059 L1307.86 27.2059 L1307.86 14.324 L1315.36 14.324 Z" fill="#000000" fill-rule="nonzero" fill-opacity="1" /><path clip-path="url(#clip110)" d="M1379.32 48.0275 L1379.32 51.6733 L1345.05 51.6733 Q1345.54 59.3701 1349.67 63.421 Q1353.84 67.4314 1361.25 67.4314 Q1365.55 67.4314 1369.56 66.3781 Q1373.61 65.3249 1377.58 63.2184 L1377.58 70.267 Q1373.57 71.9684 1369.35 72.8596 Q1365.14 73.7508 1360.81 73.7508 Q1349.95 73.7508 1343.59 67.4314 Q1337.27 61.1119 1337.27 50.3365 Q1337.27 39.1965 1343.27 32.6746 Q1349.3 26.1121 1359.51 26.1121 Q1368.67 26.1121 1373.97 32.0264 Q1379.32 37.9003 1379.32 48.0275 M1371.87 45.84 Q1371.79 39.7232 1368.42 36.0774 Q1365.1 32.4315 1359.59 32.4315 Q1353.35 32.4315 1349.59 35.9558 Q1345.86 39.4801 1345.29 45.8805 L1371.87 45.84 Z" fill="#000000" fill-rule="nonzero" fill-opacity="1" /><path clip-path="url(#clip110)" d="M1417.84 34.1734 Q1416.59 33.4443 1415.09 33.1202 Q1413.63 32.7556 1411.85 32.7556 Q1405.53 32.7556 1402.13 36.8875 Q1398.76 40.9789 1398.76 48.6757 L1398.76 72.576 L1391.27 72.576 L1391.27 27.2059 L1398.76 27.2059 L1398.76 34.2544 Q1401.11 30.1225 1404.88 28.1376 Q1408.65 26.1121 1414.04 26.1121 Q1414.81 26.1121 1415.74 26.2337 Q1416.67 26.3147 1417.8 26.5172 L1417.84 34.1734 Z" fill="#000000" fill-rule="nonzero" fill-opacity="1" /><path clip-path="url(#clip110)" d="M1446.28 49.7694 Q1437.25 49.7694 1433.76 51.8354 Q1430.28 53.9013 1430.28 58.8839 Q1430.28 62.8538 1432.87 65.2034 Q1435.51 67.5124 1440 67.5124 Q1446.2 67.5124 1449.93 63.1374 Q1453.69 58.7219 1453.69 51.4303 L1453.69 49.7694 L1446.28 49.7694 M1461.15 46.6907 L1461.15 72.576 L1453.69 72.576 L1453.69 65.6895 Q1451.14 69.8214 1447.33 71.8063 Q1443.53 73.7508 1438.02 73.7508 Q1431.05 73.7508 1426.92 69.8619 Q1422.83 65.9325 1422.83 59.3701 Q1422.83 51.7138 1427.93 47.825 Q1433.08 43.9361 1443.24 43.9361 L1453.69 43.9361 L1453.69 43.2069 Q1453.69 38.0623 1450.29 35.2672 Q1446.93 32.4315 1440.81 32.4315 Q1436.92 32.4315 1433.24 33.3632 Q1429.55 34.295 1426.15 36.1584 L1426.15 29.2718 Q1430.24 27.692 1434.09 26.9223 Q1437.94 26.1121 1441.58 26.1121 Q1451.43 26.1121 1456.29 31.2163 Q1461.15 36.3204 1461.15 46.6907 Z" fill="#000000" fill-rule="nonzero" fill-opacity="1" /><path clip-path="url(#clip110)" d="M1483.87 14.324 L1483.87 27.2059 L1499.23 27.2059 L1499.23 32.9987 L1483.87 32.9987 L1483.87 57.6282 Q1483.87 63.1779 1485.37 64.7578 Q1486.91 66.3376 1491.57 66.3376 L1499.23 66.3376 L1499.23 72.576 L1491.57 72.576 Q1482.94 72.576 1479.66 69.3758 Q1476.38 66.1351 1476.38 57.6282 L1476.38 32.9987 L1470.91 32.9987 L1470.91 27.2059 L1476.38 27.2059 L1476.38 14.324 L1483.87 14.324 Z" fill="#000000" fill-rule="nonzero" fill-opacity="1" /><path clip-path="url(#clip110)" d="M1509.03 27.2059 L1516.48 27.2059 L1516.48 72.576 L1509.03 72.576 L1509.03 27.2059 M1509.03 9.54393 L1516.48 9.54393 L1516.48 18.9825 L1509.03 18.9825 L1509.03 9.54393 Z" fill="#000000" fill-rule="nonzero" fill-opacity="1" /><path clip-path="url(#clip110)" d="M1549.66 32.4315 Q1543.67 32.4315 1540.18 37.1306 Q1536.7 41.7891 1536.7 49.9314 Q1536.7 58.0738 1540.14 62.7728 Q1543.62 67.4314 1549.66 67.4314 Q1555.62 67.4314 1559.1 62.7323 Q1562.58 58.0333 1562.58 49.9314 Q1562.58 41.8701 1559.1 37.1711 Q1555.62 32.4315 1549.66 32.4315 M1549.66 26.1121 Q1559.38 26.1121 1564.93 32.4315 Q1570.48 38.7509 1570.48 49.9314 Q1570.48 61.0714 1564.93 67.4314 Q1559.38 73.7508 1549.66 73.7508 Q1539.9 73.7508 1534.35 67.4314 Q1528.84 61.0714 1528.84 49.9314 Q1528.84 38.7509 1534.35 32.4315 Q1539.9 26.1121 1549.66 26.1121 Z" fill="#000000" fill-rule="nonzero" fill-opacity="1" /><path clip-path="url(#clip110)" d="M1620.55 45.1919 L1620.55 72.576 L1613.1 72.576 L1613.1 45.4349 Q1613.1 38.994 1610.59 35.7938 Q1608.07 32.5936 1603.05 32.5936 Q1597.02 32.5936 1593.53 36.4419 Q1590.05 40.2903 1590.05 46.9338 L1590.05 72.576 L1582.55 72.576 L1582.55 27.2059 L1590.05 27.2059 L1590.05 34.2544 Q1592.72 30.163 1596.33 28.1376 Q1599.97 26.1121 1604.71 26.1121 Q1612.53 26.1121 1616.54 30.9732 Q1620.55 35.7938 1620.55 45.1919 Z" fill="#000000" fill-rule="nonzero" fill-opacity="1" /><path clip-path="url(#clip110)" d="M1664.34 28.5427 L1664.34 35.5912 Q1661.18 33.9709 1657.78 33.1607 Q1654.38 32.3505 1650.73 32.3505 Q1645.18 32.3505 1642.39 34.0519 Q1639.63 35.7533 1639.63 39.156 Q1639.63 41.7486 1641.62 43.2475 Q1643.6 44.7058 1649.6 46.0426 L1652.15 46.6097 Q1660.09 48.3111 1663.41 51.4303 Q1666.77 54.509 1666.77 60.0587 Q1666.77 66.3781 1661.75 70.0644 Q1656.77 73.7508 1648.02 73.7508 Q1644.37 73.7508 1640.4 73.0216 Q1636.47 72.3329 1632.1 70.9151 L1632.1 63.2184 Q1636.23 65.3654 1640.24 66.4591 Q1644.25 67.5124 1648.18 67.5124 Q1653.44 67.5124 1656.28 65.73 Q1659.12 63.9071 1659.12 60.6258 Q1659.12 57.5877 1657.05 55.9673 Q1655.02 54.3469 1648.1 52.8481 L1645.5 52.2405 Q1638.58 50.7821 1635.5 47.7845 Q1632.42 44.7463 1632.42 39.4801 Q1632.42 33.0797 1636.96 29.5959 Q1641.49 26.1121 1649.84 26.1121 Q1653.97 26.1121 1657.62 26.7198 Q1661.26 27.3274 1664.34 28.5427 Z" fill="#000000" fill-rule="nonzero" fill-opacity="1" /><polyline clip-path="url(#clip112)" style="stroke:#009af9; stroke-linecap:round; stroke-linejoin:round; stroke-width:4; stroke-opacity:1; fill:none" points="279.759,1234.69 289.872,1236.52 299.986,1238.64 310.1,1241.07 320.213,1243.86 330.327,1247.02 340.441,1250.59 350.554,1254.58 360.668,1259.01 370.782,1263.91 380.895,1269.27 391.009,1275.1 401.123,1281.39 411.236,1288.11 421.35,1295.25 431.464,1302.75 441.577,1310.56 451.691,1318.62 461.805,1326.83 471.918,1335.11 482.032,1343.34 492.146,1351.41 502.259,1359.18 512.373,1366.5 522.487,1373.22 532.6,1379.18 542.714,1384.22 552.828,1388.15 562.941,1390.81 573.055,1392.02 583.169,1391.62 593.282,1389.43 603.396,1385.3 613.51,1379.07 623.623,1370.61 633.737,1359.79 643.851,1346.49 653.964,1330.63 664.078,1312.13 674.192,1290.92 684.305,1266.99 694.419,1240.33 704.532,1210.97 714.646,1178.95 724.76,1144.38 734.873,1107.38 744.987,1068.12 755.101,1026.79 765.214,983.651 775.328,938.985 785.442,893.121 795.555,846.426 805.669,799.304 815.783,752.193 825.896,705.555 836.01,659.878 846.124,615.659 856.237,573.403 866.351,533.61 876.465,496.763 886.578,463.323 896.692,433.714 906.806,408.315 916.919,387.45 927.033,371.38 937.147,360.297 947.26,354.315 957.374,353.472 967.488,357.727 977.601,366.957 987.715,380.965 997.829,399.483 1007.94,422.178 1018.06,448.659 1028.17,478.493 1038.28,511.206 1048.4,546.304 1058.51,583.276 1068.62,621.611 1078.74,660.805 1088.85,700.374 1098.97,739.861 1109.08,778.841 1119.19,816.933 1129.31,853.798 1139.42,889.146 1149.53,922.735 1159.65,954.372 1169.76,983.912 1179.87,1011.25 1189.99,1036.33 1200.1,1059.12 1210.22,1079.63 1220.33,1097.9 1230.44,1113.96 1240.56,1127.91 1250.67,1139.8 1260.78,1149.74 1270.9,1157.8 1281.01,1164.08 1291.12,1168.66 1301.24,1171.61 1311.35,1173.02 1321.47,1172.93 1331.58,1171.42 1341.69,1168.52 1351.81,1164.29 1361.92,1158.76 1372.03,1151.98 1382.15,1143.98 1392.26,1134.81 1402.38,1124.52 1412.49,1113.17 1422.6,1100.83 1432.72,1087.59 1442.83,1073.53 1452.94,1058.77 1463.06,1043.44 1473.17,1027.68 1483.28,1011.65 1493.4,995.531 1503.51,979.498 1513.63,963.746 1523.74,948.47 1533.85,933.868 1543.97,920.133 1554.08,907.452 1564.19,895.996 1574.31,885.921 1584.42,877.36 1594.53,870.421 1604.65,865.185 1614.76,861.697 1624.88,859.975 1634.99,859.998 1645.1,861.716 1655.22,865.043 1665.33,869.865 1675.44,876.042 1685.56,883.408 1695.67,891.782 1705.78,900.968 1715.9,910.76 1726.01,920.954 1736.13,931.347 1746.24,941.743 1756.35,951.962 1766.47,961.843 1776.58,971.244 1786.69,980.048 1796.81,988.168 1806.92,995.543 1817.04,1002.14 1827.15,1007.96 1837.26,1013.01 1847.38,1017.35 1857.49,1021.05 1867.6,1024.19 1877.72,1026.86 1887.83,1029.19 1897.94,1031.29 1908.06,1033.27 1918.17,1035.25 1928.29,1037.34 1938.4,1039.65 1948.51,1042.26 1958.63,1045.24 1968.74,1048.66 1978.85,1052.55 1988.97,1056.95 1999.08,1061.86 2009.19,1067.26 2019.31,1073.14 2029.42,1079.46 2039.54,1086.16 2049.65,1093.2 2059.76,1100.49 2069.88,1107.97 2079.99,1115.56 2090.1,1123.2 2100.22,1130.8 2110.33,1138.29 2120.45,1145.62 2130.56,1152.73 2140.67,1159.56 2150.79,1166.07 2160.9,1172.22 2171.01,1178 2181.13,1183.38 2191.24,1188.36 2201.35,1192.92 2211.47,1197.08 2221.58,1200.85 2231.7,1204.23 2241.81,1207.25 2251.92,1209.92 2262.04,1212.28 2272.15,1214.34 2282.26,1216.13 2292.38,1217.67 "/>
<polyline clip-path="url(#clip112)" style="stroke:#ff0000; stroke-linecap:round; stroke-linejoin:round; stroke-width:4; stroke-opacity:1; fill:none" points="279.759,1219.85 289.872,1218.74 299.986,1217.45 310.1,1215.96 320.213,1214.27 330.327,1212.34 340.441,1210.17 350.554,1207.73 360.668,1205.02 370.782,1202.03 380.895,1198.74 391.009,1195.17 401.123,1191.3 411.236,1187.15 421.35,1182.73 431.464,1178.05 441.577,1173.16 451.691,1168.08 461.805,1162.84 471.918,1157.49 482.032,1152.08 492.146,1146.67 502.259,1141.31 512.373,1136.06 522.487,1130.98 532.6,1126.12 542.714,1121.55 552.828,1117.32 562.941,1113.47 573.055,1110.03 583.169,1107.05 593.282,1104.55 603.396,1102.52 613.51,1100.97 623.623,1099.89 633.737,1099.25 643.851,1099.02 653.964,1099.15 664.078,1099.58 674.192,1100.25 684.305,1101.09 694.419,1102.03 704.532,1103 714.646,1103.93 724.76,1104.74 734.873,1105.36 744.987,1105.75 755.101,1105.86 765.214,1105.65 775.328,1105.09 785.442,1104.19 795.555,1102.93 805.669,1101.35 815.783,1099.47 825.896,1097.34 836.01,1095.02 846.124,1092.57 856.237,1090.07 866.351,1087.59 876.465,1085.23 886.578,1083.06 896.692,1081.17 906.806,1079.63 916.919,1078.53 927.033,1077.92 937.147,1077.85 947.26,1078.37 957.374,1079.5 967.488,1081.27 977.601,1083.67 987.715,1086.69 997.829,1090.3 1007.94,1094.48 1018.06,1099.17 1028.17,1104.32 1038.28,1109.86 1048.4,1115.72 1058.51,1121.84 1068.62,1128.14 1078.74,1134.54 1088.85,1140.98 1098.97,1147.38 1109.08,1153.67 1119.19,1159.81 1129.31,1165.74 1139.42,1171.42 1149.53,1176.79 1159.65,1181.85 1169.76,1186.56 1179.87,1190.9 1189.99,1194.87 1200.1,1198.45 1210.22,1201.65 1220.33,1204.48 1230.44,1206.92 1240.56,1209 1250.67,1210.72 1260.78,1212.08 1270.9,1213.11 1281.01,1213.8 1291.12,1214.16 1301.24,1214.21 1311.35,1213.94 1321.47,1213.36 1331.58,1212.47 1341.69,1211.28 1351.81,1209.78 1361.92,1207.97 1372.03,1205.87 1382.15,1203.46 1392.26,1200.77 1402.38,1197.78 1412.49,1194.53 1422.6,1191.01 1432.72,1187.26 1442.83,1183.28 1452.94,1179.11 1463.06,1174.79 1473.17,1170.34 1483.28,1165.81 1493.4,1161.25 1503.51,1156.69 1513.63,1152.18 1523.74,1147.79 1533.85,1143.54 1543.97,1139.5 1554.08,1135.7 1564.19,1132.19 1574.31,1128.99 1584.42,1126.13 1594.53,1123.64 1604.65,1121.5 1614.76,1119.74 1624.88,1118.33 1634.99,1117.25 1645.1,1116.48 1655.22,1115.97 1665.33,1115.67 1675.44,1115.53 1685.56,1115.49 1695.67,1115.48 1705.78,1115.45 1715.9,1115.31 1726.01,1115.02 1736.13,1114.51 1746.24,1113.75 1756.35,1112.67 1766.47,1111.27 1776.58,1109.51 1786.69,1107.39 1796.81,1104.93 1806.92,1102.15 1817.04,1099.08 1827.15,1095.76 1837.26,1092.28 1847.38,1088.68 1857.49,1085.06 1867.6,1081.5 1877.72,1078.09 1887.83,1074.92 1897.94,1072.07 1908.06,1069.64 1918.17,1067.71 1928.29,1066.33 1938.4,1065.59 1948.51,1065.51 1958.63,1066.14 1968.74,1067.49 1978.85,1069.57 1988.97,1072.38 1999.08,1075.87 2009.19,1080.03 2019.31,1084.8 2029.42,1090.12 2039.54,1095.93 2049.65,1102.14 2059.76,1108.68 2069.88,1115.46 2079.99,1122.41 2090.1,1129.45 2100.22,1136.48 2110.33,1143.46 2120.45,1150.3 2130.56,1156.94 2140.67,1163.34 2150.79,1169.45 2160.9,1175.24 2171.01,1180.68 2181.13,1185.74 2191.24,1190.43 2201.35,1194.74 2211.47,1198.66 2221.58,1202.21 2231.7,1205.41 2241.81,1208.26 2251.92,1210.78 2262.04,1213.01 2272.15,1214.95 2282.26,1216.64 2292.38,1218.1 "/>
<path clip-path="url(#clip110)" d="M853.764 278.992 L1718.37 278.992 L1718.37 123.472 L853.764 123.472  Z" fill="#ffffff" fill-rule="evenodd" fill-opacity="1"/>
<polyline clip-path="url(#clip110)" style="stroke:#000000; stroke-linecap:round; stroke-linejoin:round; stroke-width:4; stroke-opacity:1; fill:none" points="853.764,278.992 1718.37,278.992 1718.37,123.472 853.764,123.472 853.764,278.992 "/>
<polyline clip-path="url(#clip110)" style="stroke:#009af9; stroke-linecap:round; stroke-linejoin:round; stroke-width:4; stroke-opacity:1; fill:none" points="877.469,175.312 1019.69,175.312 "/>
<path clip-path="url(#clip110)" d="M1059.79 176.389 Q1061.29 176.898 1062.7 178.564 Q1064.14 180.231 1065.57 183.148 L1070.32 192.592 L1065.3 192.592 L1060.87 183.726 Q1059.16 180.254 1057.54 179.12 Q1055.94 177.986 1053.17 177.986 L1048.07 177.986 L1048.07 192.592 L1043.4 192.592 L1043.4 158.032 L1053.95 158.032 Q1059.88 158.032 1062.8 160.509 Q1065.71 162.986 1065.71 167.986 Q1065.71 171.25 1064.18 173.402 Q1062.68 175.555 1059.79 176.389 M1048.07 161.875 L1048.07 174.143 L1053.95 174.143 Q1057.33 174.143 1059.05 172.592 Q1060.78 171.018 1060.78 167.986 Q1060.78 164.953 1059.05 163.426 Q1057.33 161.875 1053.95 161.875 L1048.07 161.875 Z" fill="#000000" fill-rule="nonzero" fill-opacity="1" /><path clip-path="url(#clip110)" d="M1096.2 178.564 L1096.2 180.648 L1076.62 180.648 Q1076.89 185.046 1079.25 187.361 Q1081.64 189.652 1085.87 189.652 Q1088.33 189.652 1090.62 189.05 Q1092.93 188.449 1095.2 187.245 L1095.2 191.273 Q1092.91 192.245 1090.5 192.754 Q1088.1 193.263 1085.62 193.263 Q1079.42 193.263 1075.78 189.652 Q1072.17 186.041 1072.17 179.884 Q1072.17 173.518 1075.6 169.791 Q1079.05 166.041 1084.88 166.041 Q1090.11 166.041 1093.14 169.421 Q1096.2 172.777 1096.2 178.564 M1091.94 177.314 Q1091.89 173.819 1089.97 171.736 Q1088.07 169.652 1084.93 169.652 Q1081.36 169.652 1079.21 171.666 Q1077.08 173.68 1076.75 177.338 L1091.94 177.314 Z" fill="#000000" fill-rule="nonzero" fill-opacity="1" /><path clip-path="url(#clip110)" d="M1121.85 167.662 L1121.85 171.643 Q1120.04 170.648 1118.21 170.162 Q1116.41 169.652 1114.55 169.652 Q1110.41 169.652 1108.12 172.291 Q1105.83 174.907 1105.83 179.652 Q1105.83 184.398 1108.12 187.037 Q1110.41 189.652 1114.55 189.652 Q1116.41 189.652 1118.21 189.166 Q1120.04 188.657 1121.85 187.662 L1121.85 191.597 Q1120.06 192.43 1118.14 192.847 Q1116.24 193.263 1114.09 193.263 Q1108.24 193.263 1104.79 189.583 Q1101.34 185.902 1101.34 179.652 Q1101.34 173.31 1104.81 169.676 Q1108.3 166.041 1114.37 166.041 Q1116.34 166.041 1118.21 166.458 Q1120.09 166.852 1121.85 167.662 Z" fill="#000000" fill-rule="nonzero" fill-opacity="1" /><path clip-path="url(#clip110)" d="M1139.3 169.652 Q1135.87 169.652 1133.88 172.338 Q1131.89 175 1131.89 179.652 Q1131.89 184.305 1133.86 186.99 Q1135.85 189.652 1139.3 189.652 Q1142.7 189.652 1144.69 186.967 Q1146.68 184.282 1146.68 179.652 Q1146.68 175.046 1144.69 172.361 Q1142.7 169.652 1139.3 169.652 M1139.3 166.041 Q1144.86 166.041 1148.03 169.652 Q1151.2 173.264 1151.2 179.652 Q1151.2 186.018 1148.03 189.652 Q1144.86 193.263 1139.3 193.263 Q1133.72 193.263 1130.55 189.652 Q1127.4 186.018 1127.4 179.652 Q1127.4 173.264 1130.55 169.652 Q1133.72 166.041 1139.3 166.041 Z" fill="#000000" fill-rule="nonzero" fill-opacity="1" /><path clip-path="url(#clip110)" d="M1179.81 176.944 L1179.81 192.592 L1175.55 192.592 L1175.55 177.083 Q1175.55 173.402 1174.11 171.574 Q1172.68 169.745 1169.81 169.745 Q1166.36 169.745 1164.37 171.944 Q1162.38 174.143 1162.38 177.939 L1162.38 192.592 L1158.1 192.592 L1158.1 166.666 L1162.38 166.666 L1162.38 170.694 Q1163.91 168.356 1165.97 167.199 Q1168.05 166.041 1170.76 166.041 Q1175.23 166.041 1177.52 168.819 Q1179.81 171.574 1179.81 176.944 Z" fill="#000000" fill-rule="nonzero" fill-opacity="1" /><path clip-path="url(#clip110)" d="M1204.83 167.43 L1204.83 171.458 Q1203.03 170.532 1201.08 170.069 Q1199.14 169.606 1197.05 169.606 Q1193.88 169.606 1192.29 170.578 Q1190.71 171.551 1190.71 173.495 Q1190.71 174.976 1191.85 175.833 Q1192.98 176.666 1196.41 177.43 L1197.86 177.754 Q1202.4 178.726 1204.3 180.509 Q1206.22 182.268 1206.22 185.439 Q1206.22 189.05 1203.35 191.157 Q1200.5 193.263 1195.5 193.263 Q1193.42 193.263 1191.15 192.847 Q1188.91 192.453 1186.41 191.643 L1186.41 187.245 Q1188.77 188.472 1191.06 189.097 Q1193.35 189.699 1195.6 189.699 Q1198.61 189.699 1200.23 188.68 Q1201.85 187.638 1201.85 185.763 Q1201.85 184.027 1200.67 183.101 Q1199.51 182.176 1195.55 181.319 L1194.07 180.972 Q1190.11 180.138 1188.35 178.426 Q1186.59 176.689 1186.59 173.68 Q1186.59 170.023 1189.18 168.032 Q1191.78 166.041 1196.55 166.041 Q1198.91 166.041 1200.99 166.389 Q1203.07 166.736 1204.83 167.43 Z" fill="#000000" fill-rule="nonzero" fill-opacity="1" /><path clip-path="url(#clip110)" d="M1217.22 159.305 L1217.22 166.666 L1225.99 166.666 L1225.99 169.977 L1217.22 169.977 L1217.22 184.051 Q1217.22 187.222 1218.07 188.125 Q1218.95 189.027 1221.61 189.027 L1225.99 189.027 L1225.99 192.592 L1221.61 192.592 Q1216.68 192.592 1214.81 190.763 Q1212.93 188.912 1212.93 184.051 L1212.93 169.977 L1209.81 169.977 L1209.81 166.666 L1212.93 166.666 L1212.93 159.305 L1217.22 159.305 Z" fill="#000000" fill-rule="nonzero" fill-opacity="1" /><path clip-path="url(#clip110)" d="M1246.61 170.648 Q1245.9 170.231 1245.04 170.046 Q1244.21 169.838 1243.19 169.838 Q1239.58 169.838 1237.63 172.199 Q1235.71 174.537 1235.71 178.935 L1235.71 192.592 L1231.43 192.592 L1231.43 166.666 L1235.71 166.666 L1235.71 170.694 Q1237.05 168.333 1239.21 167.199 Q1241.36 166.041 1244.44 166.041 Q1244.88 166.041 1245.41 166.111 Q1245.94 166.157 1246.59 166.273 L1246.61 170.648 Z" fill="#000000" fill-rule="nonzero" fill-opacity="1" /><path clip-path="url(#clip110)" d="M1250.64 182.361 L1250.64 166.666 L1254.9 166.666 L1254.9 182.199 Q1254.9 185.879 1256.34 187.731 Q1257.77 189.56 1260.64 189.56 Q1264.09 189.56 1266.08 187.361 Q1268.1 185.162 1268.1 181.365 L1268.1 166.666 L1272.35 166.666 L1272.35 192.592 L1268.1 192.592 L1268.1 188.611 Q1266.54 190.972 1264.48 192.129 Q1262.45 193.263 1259.74 193.263 Q1255.27 193.263 1252.96 190.486 Q1250.64 187.708 1250.64 182.361 M1261.36 166.041 L1261.36 166.041 Z" fill="#000000" fill-rule="nonzero" fill-opacity="1" /><path clip-path="url(#clip110)" d="M1299.79 167.662 L1299.79 171.643 Q1297.98 170.648 1296.15 170.162 Q1294.35 169.652 1292.49 169.652 Q1288.35 169.652 1286.06 172.291 Q1283.77 174.907 1283.77 179.652 Q1283.77 184.398 1286.06 187.037 Q1288.35 189.652 1292.49 189.652 Q1294.35 189.652 1296.15 189.166 Q1297.98 188.657 1299.79 187.662 L1299.79 191.597 Q1298 192.43 1296.08 192.847 Q1294.18 193.263 1292.03 193.263 Q1286.17 193.263 1282.73 189.583 Q1279.28 185.902 1279.28 179.652 Q1279.28 173.31 1282.75 169.676 Q1286.24 166.041 1292.31 166.041 Q1294.28 166.041 1296.15 166.458 Q1298.03 166.852 1299.79 167.662 Z" fill="#000000" fill-rule="nonzero" fill-opacity="1" /><path clip-path="url(#clip110)" d="M1311.41 159.305 L1311.41 166.666 L1320.18 166.666 L1320.18 169.977 L1311.41 169.977 L1311.41 184.051 Q1311.41 187.222 1312.26 188.125 Q1313.14 189.027 1315.8 189.027 L1320.18 189.027 L1320.18 192.592 L1315.8 192.592 Q1310.87 192.592 1309 190.763 Q1307.12 188.912 1307.12 184.051 L1307.12 169.977 L1304 169.977 L1304 166.666 L1307.12 166.666 L1307.12 159.305 L1311.41 159.305 Z" fill="#000000" fill-rule="nonzero" fill-opacity="1" /><path clip-path="url(#clip110)" d="M1347.96 178.564 L1347.96 180.648 L1328.37 180.648 Q1328.65 185.046 1331.01 187.361 Q1333.4 189.652 1337.63 189.652 Q1340.09 189.652 1342.38 189.05 Q1344.69 188.449 1346.96 187.245 L1346.96 191.273 Q1344.67 192.245 1342.26 192.754 Q1339.85 193.263 1337.38 193.263 Q1331.17 193.263 1327.54 189.652 Q1323.93 186.041 1323.93 179.884 Q1323.93 173.518 1327.35 169.791 Q1330.8 166.041 1336.64 166.041 Q1341.87 166.041 1344.9 169.421 Q1347.96 172.777 1347.96 178.564 M1343.7 177.314 Q1343.65 173.819 1341.73 171.736 Q1339.83 169.652 1336.68 169.652 Q1333.12 169.652 1330.97 171.666 Q1328.84 173.68 1328.51 177.338 L1343.7 177.314 Z" fill="#000000" fill-rule="nonzero" fill-opacity="1" /><path clip-path="url(#clip110)" d="M1372.01 170.602 L1372.01 156.574 L1376.27 156.574 L1376.27 192.592 L1372.01 192.592 L1372.01 188.703 Q1370.66 191.018 1368.6 192.152 Q1366.57 193.263 1363.7 193.263 Q1359 193.263 1356.04 189.513 Q1353.1 185.763 1353.1 179.652 Q1353.1 173.541 1356.04 169.791 Q1359 166.041 1363.7 166.041 Q1366.57 166.041 1368.6 167.176 Q1370.66 168.287 1372.01 170.602 M1357.49 179.652 Q1357.49 184.351 1359.41 187.037 Q1361.36 189.699 1364.74 189.699 Q1368.12 189.699 1370.06 187.037 Q1372.01 184.351 1372.01 179.652 Q1372.01 174.953 1370.06 172.291 Q1368.12 169.606 1364.74 169.606 Q1361.36 169.606 1359.41 172.291 Q1357.49 174.953 1357.49 179.652 Z" fill="#000000" fill-rule="nonzero" fill-opacity="1" /><path clip-path="url(#clip110)" d="M1409.21 192.592 L1396.01 158.032 L1400.9 158.032 L1411.84 187.129 L1422.82 158.032 L1427.68 158.032 L1414.51 192.592 L1409.21 192.592 Z" fill="#000000" fill-rule="nonzero" fill-opacity="1" /><path clip-path="url(#clip110)" d="M1451.03 178.564 L1451.03 180.648 L1431.45 180.648 Q1431.73 185.046 1434.09 187.361 Q1436.47 189.652 1440.71 189.652 Q1443.16 189.652 1445.46 189.05 Q1447.77 188.449 1450.04 187.245 L1450.04 191.273 Q1447.75 192.245 1445.34 192.754 Q1442.93 193.263 1440.46 193.263 Q1434.25 193.263 1430.62 189.652 Q1427.01 186.041 1427.01 179.884 Q1427.01 173.518 1430.43 169.791 Q1433.88 166.041 1439.72 166.041 Q1444.95 166.041 1447.98 169.421 Q1451.03 172.777 1451.03 178.564 M1446.78 177.314 Q1446.73 173.819 1444.81 171.736 Q1442.91 169.652 1439.76 169.652 Q1436.2 169.652 1434.04 171.666 Q1431.91 173.68 1431.59 177.338 L1446.78 177.314 Z" fill="#000000" fill-rule="nonzero" fill-opacity="1" /><path clip-path="url(#clip110)" d="M1458.03 156.574 L1462.28 156.574 L1462.28 192.592 L1458.03 192.592 L1458.03 156.574 Z" fill="#000000" fill-rule="nonzero" fill-opacity="1" /><path clip-path="url(#clip110)" d="M1481.24 169.652 Q1477.82 169.652 1475.83 172.338 Q1473.84 175 1473.84 179.652 Q1473.84 184.305 1475.8 186.99 Q1477.79 189.652 1481.24 189.652 Q1484.65 189.652 1486.64 186.967 Q1488.63 184.282 1488.63 179.652 Q1488.63 175.046 1486.64 172.361 Q1484.65 169.652 1481.24 169.652 M1481.24 166.041 Q1486.8 166.041 1489.97 169.652 Q1493.14 173.264 1493.14 179.652 Q1493.14 186.018 1489.97 189.652 Q1486.8 193.263 1481.24 193.263 Q1475.66 193.263 1472.49 189.652 Q1469.34 186.018 1469.34 179.652 Q1469.34 173.264 1472.49 169.652 Q1475.66 166.041 1481.24 166.041 Z" fill="#000000" fill-rule="nonzero" fill-opacity="1" /><path clip-path="url(#clip110)" d="M1518.86 167.662 L1518.86 171.643 Q1517.05 170.648 1515.22 170.162 Q1513.42 169.652 1511.57 169.652 Q1507.42 169.652 1505.13 172.291 Q1502.84 174.907 1502.84 179.652 Q1502.84 184.398 1505.13 187.037 Q1507.42 189.652 1511.57 189.652 Q1513.42 189.652 1515.22 189.166 Q1517.05 188.657 1518.86 187.662 L1518.86 191.597 Q1517.08 192.43 1515.15 192.847 Q1513.26 193.263 1511.1 193.263 Q1505.25 193.263 1501.8 189.583 Q1498.35 185.902 1498.35 179.652 Q1498.35 173.31 1501.82 169.676 Q1505.32 166.041 1511.38 166.041 Q1513.35 166.041 1515.22 166.458 Q1517.1 166.852 1518.86 167.662 Z" fill="#000000" fill-rule="nonzero" fill-opacity="1" /><path clip-path="url(#clip110)" d="M1526.27 166.666 L1530.52 166.666 L1530.52 192.592 L1526.27 192.592 L1526.27 166.666 M1526.27 156.574 L1530.52 156.574 L1530.52 161.967 L1526.27 161.967 L1526.27 156.574 Z" fill="#000000" fill-rule="nonzero" fill-opacity="1" /><path clip-path="url(#clip110)" d="M1543.65 159.305 L1543.65 166.666 L1552.42 166.666 L1552.42 169.977 L1543.65 169.977 L1543.65 184.051 Q1543.65 187.222 1544.51 188.125 Q1545.39 189.027 1548.05 189.027 L1552.42 189.027 L1552.42 192.592 L1548.05 192.592 Q1543.12 192.592 1541.24 190.763 Q1539.37 188.912 1539.37 184.051 L1539.37 169.977 L1536.24 169.977 L1536.24 166.666 L1539.37 166.666 L1539.37 159.305 L1543.65 159.305 Z" fill="#000000" fill-rule="nonzero" fill-opacity="1" /><path clip-path="url(#clip110)" d="M1568.81 195 Q1567.01 199.629 1565.29 201.041 Q1563.58 202.453 1560.71 202.453 L1557.31 202.453 L1557.31 198.888 L1559.81 198.888 Q1561.57 198.888 1562.54 198.055 Q1563.51 197.222 1564.69 194.12 L1565.46 192.175 L1554.97 166.666 L1559.48 166.666 L1567.58 186.944 L1575.69 166.666 L1580.2 166.666 L1568.81 195 Z" fill="#000000" fill-rule="nonzero" fill-opacity="1" /><path clip-path="url(#clip110)" d="M1614.27 156.574 L1614.27 160.115 L1610.2 160.115 Q1607.91 160.115 1607.01 161.041 Q1606.13 161.967 1606.13 164.375 L1606.13 166.666 L1613.14 166.666 L1613.14 169.977 L1606.13 169.977 L1606.13 192.592 L1601.84 192.592 L1601.84 169.977 L1597.77 169.977 L1597.77 166.666 L1601.84 166.666 L1601.84 164.861 Q1601.84 160.532 1603.86 158.565 Q1605.87 156.574 1610.25 156.574 L1614.27 156.574 Z" fill="#000000" fill-rule="nonzero" fill-opacity="1" /><path clip-path="url(#clip110)" d="M1617.84 166.666 L1622.1 166.666 L1622.1 192.592 L1617.84 192.592 L1617.84 166.666 M1617.84 156.574 L1622.1 156.574 L1622.1 161.967 L1617.84 161.967 L1617.84 156.574 Z" fill="#000000" fill-rule="nonzero" fill-opacity="1" /><path clip-path="url(#clip110)" d="M1653.19 178.564 L1653.19 180.648 L1633.6 180.648 Q1633.88 185.046 1636.24 187.361 Q1638.63 189.652 1642.86 189.652 Q1645.32 189.652 1647.61 189.05 Q1649.92 188.449 1652.19 187.245 L1652.19 191.273 Q1649.9 192.245 1647.49 192.754 Q1645.08 193.263 1642.61 193.263 Q1636.4 193.263 1632.77 189.652 Q1629.16 186.041 1629.16 179.884 Q1629.16 173.518 1632.58 169.791 Q1636.03 166.041 1641.87 166.041 Q1647.1 166.041 1650.13 169.421 Q1653.19 172.777 1653.19 178.564 M1648.93 177.314 Q1648.88 173.819 1646.96 171.736 Q1645.06 169.652 1641.91 169.652 Q1638.35 169.652 1636.2 171.666 Q1634.07 173.68 1633.74 177.338 L1648.93 177.314 Z" fill="#000000" fill-rule="nonzero" fill-opacity="1" /><path clip-path="url(#clip110)" d="M1660.18 156.574 L1664.44 156.574 L1664.44 192.592 L1660.18 192.592 L1660.18 156.574 Z" fill="#000000" fill-rule="nonzero" fill-opacity="1" /><path clip-path="url(#clip110)" d="M1690.41 170.602 L1690.41 156.574 L1694.67 156.574 L1694.67 192.592 L1690.41 192.592 L1690.41 188.703 Q1689.07 191.018 1687.01 192.152 Q1684.97 193.263 1682.1 193.263 Q1677.4 193.263 1674.44 189.513 Q1671.5 185.763 1671.5 179.652 Q1671.5 173.541 1674.44 169.791 Q1677.4 166.041 1682.1 166.041 Q1684.97 166.041 1687.01 167.176 Q1689.07 168.287 1690.41 170.602 M1675.89 179.652 Q1675.89 184.351 1677.82 187.037 Q1679.76 189.699 1683.14 189.699 Q1686.52 189.699 1688.46 187.037 Q1690.41 184.351 1690.41 179.652 Q1690.41 174.953 1688.46 172.291 Q1686.52 169.606 1683.14 169.606 Q1679.76 169.606 1677.82 172.291 Q1675.89 174.953 1675.89 179.652 Z" fill="#000000" fill-rule="nonzero" fill-opacity="1" /><polyline clip-path="url(#clip110)" style="stroke:#ff0000; stroke-linecap:round; stroke-linejoin:round; stroke-width:4; stroke-opacity:1; fill:none" points="877.469,227.152 1019.69,227.152 "/>
<path clip-path="url(#clip110)" d="M1056.59 244.432 L1043.4 209.872 L1048.28 209.872 L1059.23 238.969 L1070.2 209.872 L1075.06 209.872 L1061.89 244.432 L1056.59 244.432 Z" fill="#000000" fill-rule="nonzero" fill-opacity="1" /><path clip-path="url(#clip110)" d="M1098.42 230.404 L1098.42 232.488 L1078.84 232.488 Q1079.12 236.886 1081.48 239.201 Q1083.86 241.492 1088.1 241.492 Q1090.55 241.492 1092.84 240.89 Q1095.16 240.289 1097.43 239.085 L1097.43 243.113 Q1095.13 244.085 1092.73 244.594 Q1090.32 245.103 1087.84 245.103 Q1081.64 245.103 1078 241.492 Q1074.39 237.881 1074.39 231.724 Q1074.39 225.358 1077.82 221.631 Q1081.27 217.881 1087.1 217.881 Q1092.33 217.881 1095.37 221.261 Q1098.42 224.617 1098.42 230.404 M1094.16 229.154 Q1094.12 225.659 1092.19 223.576 Q1090.3 221.492 1087.15 221.492 Q1083.58 221.492 1081.43 223.506 Q1079.3 225.52 1078.98 229.178 L1094.16 229.154 Z" fill="#000000" fill-rule="nonzero" fill-opacity="1" /><path clip-path="url(#clip110)" d="M1105.41 208.414 L1109.67 208.414 L1109.67 244.432 L1105.41 244.432 L1105.41 208.414 Z" fill="#000000" fill-rule="nonzero" fill-opacity="1" /><path clip-path="url(#clip110)" d="M1128.63 221.492 Q1125.2 221.492 1123.21 224.178 Q1121.22 226.84 1121.22 231.492 Q1121.22 236.145 1123.19 238.83 Q1125.18 241.492 1128.63 241.492 Q1132.03 241.492 1134.02 238.807 Q1136.01 236.122 1136.01 231.492 Q1136.01 226.886 1134.02 224.201 Q1132.03 221.492 1128.63 221.492 M1128.63 217.881 Q1134.18 217.881 1137.36 221.492 Q1140.53 225.104 1140.53 231.492 Q1140.53 237.858 1137.36 241.492 Q1134.18 245.103 1128.63 245.103 Q1123.05 245.103 1119.88 241.492 Q1116.73 237.858 1116.73 231.492 Q1116.73 225.104 1119.88 221.492 Q1123.05 217.881 1128.63 217.881 Z" fill="#000000" fill-rule="nonzero" fill-opacity="1" /><path clip-path="url(#clip110)" d="M1166.24 219.502 L1166.24 223.483 Q1164.44 222.488 1162.61 222.002 Q1160.8 221.492 1158.95 221.492 Q1154.81 221.492 1152.52 224.131 Q1150.23 226.747 1150.23 231.492 Q1150.23 236.238 1152.52 238.877 Q1154.81 241.492 1158.95 241.492 Q1160.8 241.492 1162.61 241.006 Q1164.44 240.497 1166.24 239.502 L1166.24 243.437 Q1164.46 244.27 1162.54 244.687 Q1160.64 245.103 1158.49 245.103 Q1152.63 245.103 1149.18 241.423 Q1145.74 237.742 1145.74 231.492 Q1145.74 225.15 1149.21 221.516 Q1152.7 217.881 1158.77 217.881 Q1160.74 217.881 1162.61 218.298 Q1164.49 218.692 1166.24 219.502 Z" fill="#000000" fill-rule="nonzero" fill-opacity="1" /><path clip-path="url(#clip110)" d="M1173.65 218.506 L1177.91 218.506 L1177.91 244.432 L1173.65 244.432 L1173.65 218.506 M1173.65 208.414 L1177.91 208.414 L1177.91 213.807 L1173.65 213.807 L1173.65 208.414 Z" fill="#000000" fill-rule="nonzero" fill-opacity="1" /><path clip-path="url(#clip110)" d="M1191.04 211.145 L1191.04 218.506 L1199.81 218.506 L1199.81 221.817 L1191.04 221.817 L1191.04 235.891 Q1191.04 239.062 1191.89 239.965 Q1192.77 240.867 1195.43 240.867 L1199.81 240.867 L1199.81 244.432 L1195.43 244.432 Q1190.5 244.432 1188.63 242.603 Q1186.75 240.752 1186.75 235.891 L1186.75 221.817 L1183.63 221.817 L1183.63 218.506 L1186.75 218.506 L1186.75 211.145 L1191.04 211.145 Z" fill="#000000" fill-rule="nonzero" fill-opacity="1" /><path clip-path="url(#clip110)" d="M1216.2 246.84 Q1214.39 251.469 1212.68 252.881 Q1210.97 254.293 1208.1 254.293 L1204.69 254.293 L1204.69 250.728 L1207.19 250.728 Q1208.95 250.728 1209.92 249.895 Q1210.9 249.062 1212.08 245.96 L1212.84 244.015 L1202.36 218.506 L1206.87 218.506 L1214.97 238.784 L1223.07 218.506 L1227.59 218.506 L1216.2 246.84 Z" fill="#000000" fill-rule="nonzero" fill-opacity="1" /><path clip-path="url(#clip110)" d="M1261.66 208.414 L1261.66 211.955 L1257.59 211.955 Q1255.29 211.955 1254.39 212.881 Q1253.51 213.807 1253.51 216.215 L1253.51 218.506 L1260.53 218.506 L1260.53 221.817 L1253.51 221.817 L1253.51 244.432 L1249.23 244.432 L1249.23 221.817 L1245.16 221.817 L1245.16 218.506 L1249.23 218.506 L1249.23 216.701 Q1249.23 212.372 1251.24 210.405 Q1253.26 208.414 1257.63 208.414 L1261.66 208.414 Z" fill="#000000" fill-rule="nonzero" fill-opacity="1" /><path clip-path="url(#clip110)" d="M1265.23 218.506 L1269.48 218.506 L1269.48 244.432 L1265.23 244.432 L1265.23 218.506 M1265.23 208.414 L1269.48 208.414 L1269.48 213.807 L1265.23 213.807 L1265.23 208.414 Z" fill="#000000" fill-rule="nonzero" fill-opacity="1" /><path clip-path="url(#clip110)" d="M1300.57 230.404 L1300.57 232.488 L1280.99 232.488 Q1281.27 236.886 1283.63 239.201 Q1286.01 241.492 1290.25 241.492 Q1292.7 241.492 1294.99 240.89 Q1297.31 240.289 1299.58 239.085 L1299.58 243.113 Q1297.29 244.085 1294.88 244.594 Q1292.47 245.103 1289.99 245.103 Q1283.79 245.103 1280.16 241.492 Q1276.54 237.881 1276.54 231.724 Q1276.54 225.358 1279.97 221.631 Q1283.42 217.881 1289.25 217.881 Q1294.48 217.881 1297.52 221.261 Q1300.57 224.617 1300.57 230.404 M1296.31 229.154 Q1296.27 225.659 1294.35 223.576 Q1292.45 221.492 1289.3 221.492 Q1285.73 221.492 1283.58 223.506 Q1281.45 225.52 1281.13 229.178 L1296.31 229.154 Z" fill="#000000" fill-rule="nonzero" fill-opacity="1" /><path clip-path="url(#clip110)" d="M1307.56 208.414 L1311.82 208.414 L1311.82 244.432 L1307.56 244.432 L1307.56 208.414 Z" fill="#000000" fill-rule="nonzero" fill-opacity="1" /><path clip-path="url(#clip110)" d="M1337.79 222.442 L1337.79 208.414 L1342.05 208.414 L1342.05 244.432 L1337.79 244.432 L1337.79 240.543 Q1336.45 242.858 1334.39 243.992 Q1332.35 245.103 1329.48 245.103 Q1324.79 245.103 1321.82 241.353 Q1318.88 237.603 1318.88 231.492 Q1318.88 225.381 1321.82 221.631 Q1324.79 217.881 1329.48 217.881 Q1332.35 217.881 1334.39 219.016 Q1336.45 220.127 1337.79 222.442 M1323.28 231.492 Q1323.28 236.191 1325.2 238.877 Q1327.15 241.539 1330.53 241.539 Q1333.91 241.539 1335.85 238.877 Q1337.79 236.191 1337.79 231.492 Q1337.79 226.793 1335.85 224.131 Q1333.91 221.446 1330.53 221.446 Q1327.15 221.446 1325.2 224.131 Q1323.28 226.793 1323.28 231.492 Z" fill="#000000" fill-rule="nonzero" fill-opacity="1" /></svg>
