<?xml version="1.0" encoding="utf-8"?>
<svg xmlns="http://www.w3.org/2000/svg" xmlns:xlink="http://www.w3.org/1999/xlink" width="600" height="400" viewBox="0 0 2400 1600">
<defs>
  <clipPath id="clip150">
    <rect x="0" y="0" width="2400" height="1600"/>
  </clipPath>
</defs>
<path clip-path="url(#clip150)" d="M0 1600 L2400 1600 L2400 0 L0 0  Z" fill="#ffffff" fill-rule="evenodd" fill-opacity="1"/>
<defs>
  <clipPath id="clip151">
    <rect x="480" y="0" width="1681" height="1600"/>
  </clipPath>
</defs>
<path clip-path="url(#clip150)" d="M255.977 1423.18 L2352.76 1423.18 L2352.76 47.2441 L255.977 47.2441  Z" fill="#ffffff" fill-rule="evenodd" fill-opacity="1"/>
<defs>
  <clipPath id="clip152">
    <rect x="255" y="47" width="2098" height="1377"/>
  </clipPath>
</defs>
<polyline clip-path="url(#clip152)" style="stroke:#000000; stroke-linecap:round; stroke-linejoin:round; stroke-width:2; stroke-opacity:0.1; fill:none" points="315.32,1423.18 315.32,47.2441 "/>
<polyline clip-path="url(#clip152)" style="stroke:#000000; stroke-linecap:round; stroke-linejoin:round; stroke-width:2; stroke-opacity:0.1; fill:none" points="710.939,1423.18 710.939,47.2441 "/>
<polyline clip-path="url(#clip152)" style="stroke:#000000; stroke-linecap:round; stroke-linejoin:round; stroke-width:2; stroke-opacity:0.1; fill:none" points="1106.56,1423.18 1106.56,47.2441 "/>
<polyline clip-path="url(#clip152)" style="stroke:#000000; stroke-linecap:round; stroke-linejoin:round; stroke-width:2; stroke-opacity:0.1; fill:none" points="1502.18,1423.18 1502.18,47.2441 "/>
<polyline clip-path="url(#clip152)" style="stroke:#000000; stroke-linecap:round; stroke-linejoin:round; stroke-width:2; stroke-opacity:0.1; fill:none" points="1897.79,1423.18 1897.79,47.2441 "/>
<polyline clip-path="url(#clip152)" style="stroke:#000000; stroke-linecap:round; stroke-linejoin:round; stroke-width:2; stroke-opacity:0.1; fill:none" points="2293.41,1423.18 2293.41,47.2441 "/>
<polyline clip-path="url(#clip150)" style="stroke:#000000; stroke-linecap:round; stroke-linejoin:round; stroke-width:4; stroke-opacity:1; fill:none" points="255.977,1423.18 2352.76,1423.18 "/>
<polyline clip-path="url(#clip150)" style="stroke:#000000; stroke-linecap:round; stroke-linejoin:round; stroke-width:4; stroke-opacity:1; fill:none" points="315.32,1423.18 315.32,1404.28 "/>
<polyline clip-path="url(#clip150)" style="stroke:#000000; stroke-linecap:round; stroke-linejoin:round; stroke-width:4; stroke-opacity:1; fill:none" points="710.939,1423.18 710.939,1404.28 "/>
<polyline clip-path="url(#clip150)" style="stroke:#000000; stroke-linecap:round; stroke-linejoin:round; stroke-width:4; stroke-opacity:1; fill:none" points="1106.56,1423.18 1106.56,1404.28 "/>
<polyline clip-path="url(#clip150)" style="stroke:#000000; stroke-linecap:round; stroke-linejoin:round; stroke-width:4; stroke-opacity:1; fill:none" points="1502.18,1423.18 1502.18,1404.28 "/>
<polyline clip-path="url(#clip150)" style="stroke:#000000; stroke-linecap:round; stroke-linejoin:round; stroke-width:4; stroke-opacity:1; fill:none" points="1897.79,1423.18 1897.79,1404.28 "/>
<polyline clip-path="url(#clip150)" style="stroke:#000000; stroke-linecap:round; stroke-linejoin:round; stroke-width:4; stroke-opacity:1; fill:none" points="2293.41,1423.18 2293.41,1404.28 "/>
<path clip-path="url(#clip150)" d="M315.32 1454.1 Q311.709 1454.1 309.88 1457.66 Q308.075 1461.2 308.075 1468.33 Q308.075 1475.44 309.88 1479.01 Q311.709 1482.55 315.32 1482.55 Q318.954 1482.55 320.76 1479.01 Q322.588 1475.44 322.588 1468.33 Q322.588 1461.2 320.76 1457.66 Q318.954 1454.1 315.32 1454.1 M315.32 1450.39 Q321.13 1450.39 324.186 1455 Q327.264 1459.58 327.264 1468.33 Q327.264 1477.06 324.186 1481.67 Q321.13 1486.25 315.32 1486.25 Q309.51 1486.25 306.431 1481.67 Q303.376 1477.06 303.376 1468.33 Q303.376 1459.58 306.431 1455 Q309.51 1450.39 315.32 1450.39 Z" fill="#000000" fill-rule="nonzero" fill-opacity="1" /><path clip-path="url(#clip150)" d="M685.626 1481.64 L693.265 1481.64 L693.265 1455.28 L684.955 1456.95 L684.955 1452.69 L693.219 1451.02 L697.895 1451.02 L697.895 1481.64 L705.534 1481.64 L705.534 1485.58 L685.626 1485.58 L685.626 1481.64 Z" fill="#000000" fill-rule="nonzero" fill-opacity="1" /><path clip-path="url(#clip150)" d="M724.978 1454.1 Q721.367 1454.1 719.538 1457.66 Q717.733 1461.2 717.733 1468.33 Q717.733 1475.44 719.538 1479.01 Q721.367 1482.55 724.978 1482.55 Q728.612 1482.55 730.418 1479.01 Q732.246 1475.44 732.246 1468.33 Q732.246 1461.2 730.418 1457.66 Q728.612 1454.1 724.978 1454.1 M724.978 1450.39 Q730.788 1450.39 733.844 1455 Q736.922 1459.58 736.922 1468.33 Q736.922 1477.06 733.844 1481.67 Q730.788 1486.25 724.978 1486.25 Q719.168 1486.25 716.089 1481.67 Q713.034 1477.06 713.034 1468.33 Q713.034 1459.58 716.089 1455 Q719.168 1450.39 724.978 1450.39 Z" fill="#000000" fill-rule="nonzero" fill-opacity="1" /><path clip-path="url(#clip150)" d="M1085.33 1481.64 L1101.65 1481.64 L1101.65 1485.58 L1079.71 1485.58 L1079.71 1481.64 Q1082.37 1478.89 1086.95 1474.26 Q1091.56 1469.61 1092.74 1468.27 Q1094.98 1465.74 1095.86 1464.01 Q1096.77 1462.25 1096.77 1460.56 Q1096.77 1457.8 1094.82 1456.07 Q1092.9 1454.33 1089.8 1454.33 Q1087.6 1454.33 1085.15 1455.09 Q1082.71 1455.86 1079.94 1457.41 L1079.94 1452.69 Q1082.76 1451.55 1085.21 1450.97 Q1087.67 1450.39 1089.71 1450.39 Q1095.08 1450.39 1098.27 1453.08 Q1101.46 1455.77 1101.46 1460.26 Q1101.46 1462.39 1100.65 1464.31 Q1099.87 1466.2 1097.76 1468.8 Q1097.18 1469.47 1094.08 1472.69 Q1090.98 1475.88 1085.33 1481.64 Z" fill="#000000" fill-rule="nonzero" fill-opacity="1" /><path clip-path="url(#clip150)" d="M1121.46 1454.1 Q1117.85 1454.1 1116.02 1457.66 Q1114.22 1461.2 1114.22 1468.33 Q1114.22 1475.44 1116.02 1479.01 Q1117.85 1482.55 1121.46 1482.55 Q1125.1 1482.55 1126.9 1479.01 Q1128.73 1475.44 1128.73 1468.33 Q1128.73 1461.2 1126.9 1457.66 Q1125.1 1454.1 1121.46 1454.1 M1121.46 1450.39 Q1127.27 1450.39 1130.33 1455 Q1133.41 1459.58 1133.41 1468.33 Q1133.41 1477.06 1130.33 1481.67 Q1127.27 1486.25 1121.46 1486.25 Q1115.65 1486.25 1112.58 1481.67 Q1109.52 1477.06 1109.52 1468.33 Q1109.52 1459.58 1112.58 1455 Q1115.65 1450.39 1121.46 1450.39 Z" fill="#000000" fill-rule="nonzero" fill-opacity="1" /><path clip-path="url(#clip150)" d="M1491.02 1466.95 Q1494.37 1467.66 1496.25 1469.93 Q1498.15 1472.2 1498.15 1475.53 Q1498.15 1480.65 1494.63 1483.45 Q1491.11 1486.25 1484.63 1486.25 Q1482.45 1486.25 1480.14 1485.81 Q1477.85 1485.39 1475.39 1484.54 L1475.39 1480.02 Q1477.34 1481.16 1479.65 1481.74 Q1481.97 1482.32 1484.49 1482.32 Q1488.89 1482.32 1491.18 1480.58 Q1493.5 1478.84 1493.5 1475.53 Q1493.5 1472.48 1491.34 1470.77 Q1489.21 1469.03 1485.39 1469.03 L1481.37 1469.03 L1481.37 1465.19 L1485.58 1465.19 Q1489.03 1465.19 1490.86 1463.82 Q1492.69 1462.43 1492.69 1459.84 Q1492.69 1457.18 1490.79 1455.77 Q1488.91 1454.33 1485.39 1454.33 Q1483.47 1454.33 1481.27 1454.75 Q1479.07 1455.16 1476.44 1456.04 L1476.44 1451.88 Q1479.1 1451.14 1481.41 1450.77 Q1483.75 1450.39 1485.81 1450.39 Q1491.13 1450.39 1494.24 1452.83 Q1497.34 1455.23 1497.34 1459.35 Q1497.34 1462.22 1495.69 1464.21 Q1494.05 1466.18 1491.02 1466.95 Z" fill="#000000" fill-rule="nonzero" fill-opacity="1" /><path clip-path="url(#clip150)" d="M1517.01 1454.1 Q1513.4 1454.1 1511.57 1457.66 Q1509.77 1461.2 1509.77 1468.33 Q1509.77 1475.44 1511.57 1479.01 Q1513.4 1482.55 1517.01 1482.55 Q1520.65 1482.55 1522.45 1479.01 Q1524.28 1475.44 1524.28 1468.33 Q1524.28 1461.2 1522.45 1457.66 Q1520.65 1454.1 1517.01 1454.1 M1517.01 1450.39 Q1522.82 1450.39 1525.88 1455 Q1528.96 1459.58 1528.96 1468.33 Q1528.96 1477.06 1525.88 1481.67 Q1522.82 1486.25 1517.01 1486.25 Q1511.2 1486.25 1508.12 1481.67 Q1505.07 1477.06 1505.07 1468.33 Q1505.07 1459.58 1508.12 1455 Q1511.2 1450.39 1517.01 1450.39 Z" fill="#000000" fill-rule="nonzero" fill-opacity="1" /><path clip-path="url(#clip150)" d="M1885.97 1455.09 L1874.16 1473.54 L1885.97 1473.54 L1885.97 1455.09 M1884.74 1451.02 L1890.62 1451.02 L1890.62 1473.54 L1895.55 1473.54 L1895.55 1477.43 L1890.62 1477.43 L1890.62 1485.58 L1885.97 1485.58 L1885.97 1477.43 L1870.36 1477.43 L1870.36 1472.92 L1884.74 1451.02 Z" fill="#000000" fill-rule="nonzero" fill-opacity="1" /><path clip-path="url(#clip150)" d="M1913.28 1454.1 Q1909.67 1454.1 1907.84 1457.66 Q1906.04 1461.2 1906.04 1468.33 Q1906.04 1475.44 1907.84 1479.01 Q1909.67 1482.55 1913.28 1482.55 Q1916.91 1482.55 1918.72 1479.01 Q1920.55 1475.44 1920.55 1468.33 Q1920.55 1461.2 1918.72 1457.66 Q1916.91 1454.1 1913.28 1454.1 M1913.28 1450.39 Q1919.09 1450.39 1922.15 1455 Q1925.22 1459.58 1925.22 1468.33 Q1925.22 1477.06 1922.15 1481.67 Q1919.09 1486.25 1913.28 1486.25 Q1907.47 1486.25 1904.39 1481.67 Q1901.34 1477.06 1901.34 1468.33 Q1901.34 1459.58 1904.39 1455 Q1907.47 1450.39 1913.28 1450.39 Z" fill="#000000" fill-rule="nonzero" fill-opacity="1" /><path clip-path="url(#clip150)" d="M2268.11 1451.02 L2286.47 1451.02 L2286.47 1454.96 L2272.39 1454.96 L2272.39 1463.43 Q2273.41 1463.08 2274.43 1462.92 Q2275.45 1462.73 2276.47 1462.73 Q2282.26 1462.73 2285.64 1465.9 Q2289.01 1469.08 2289.01 1474.49 Q2289.01 1480.07 2285.54 1483.17 Q2282.07 1486.25 2275.75 1486.25 Q2273.58 1486.25 2271.31 1485.88 Q2269.06 1485.51 2266.65 1484.77 L2266.65 1480.07 Q2268.74 1481.2 2270.96 1481.76 Q2273.18 1482.32 2275.66 1482.32 Q2279.66 1482.32 2282 1480.21 Q2284.34 1478.1 2284.34 1474.49 Q2284.34 1470.88 2282 1468.77 Q2279.66 1466.67 2275.66 1466.67 Q2273.78 1466.67 2271.91 1467.08 Q2270.06 1467.5 2268.11 1468.38 L2268.11 1451.02 Z" fill="#000000" fill-rule="nonzero" fill-opacity="1" /><path clip-path="url(#clip150)" d="M2308.23 1454.1 Q2304.62 1454.1 2302.79 1457.66 Q2300.98 1461.2 2300.98 1468.33 Q2300.98 1475.44 2302.79 1479.01 Q2304.62 1482.55 2308.23 1482.55 Q2311.86 1482.55 2313.67 1479.01 Q2315.5 1475.44 2315.5 1468.33 Q2315.5 1461.2 2313.67 1457.66 Q2311.86 1454.1 2308.23 1454.1 M2308.23 1450.39 Q2314.04 1450.39 2317.09 1455 Q2320.17 1459.58 2320.17 1468.33 Q2320.17 1477.06 2317.09 1481.67 Q2314.04 1486.25 2308.23 1486.25 Q2302.42 1486.25 2299.34 1481.67 Q2296.28 1477.06 2296.28 1468.33 Q2296.28 1459.58 2299.34 1455 Q2302.42 1450.39 2308.23 1450.39 Z" fill="#000000" fill-rule="nonzero" fill-opacity="1" /><path clip-path="url(#clip150)" d="M1303.43 1522.27 L1303.43 1532.4 L1315.49 1532.4 L1315.49 1536.95 L1303.43 1536.95 L1303.43 1556.3 Q1303.43 1560.66 1304.61 1561.9 Q1305.81 1563.14 1309.48 1563.14 L1315.49 1563.14 L1315.49 1568.04 L1309.48 1568.04 Q1302.7 1568.04 1300.12 1565.53 Q1297.54 1562.98 1297.54 1556.3 L1297.54 1536.95 L1293.24 1536.95 L1293.24 1532.4 L1297.54 1532.4 L1297.54 1522.27 L1303.43 1522.27 Z" fill="#000000" fill-rule="nonzero" fill-opacity="1" /><polyline clip-path="url(#clip152)" style="stroke:#000000; stroke-linecap:round; stroke-linejoin:round; stroke-width:2; stroke-opacity:0.1; fill:none" points="255.977,1407.41 2352.76,1407.41 "/>
<polyline clip-path="url(#clip152)" style="stroke:#000000; stroke-linecap:round; stroke-linejoin:round; stroke-width:2; stroke-opacity:0.1; fill:none" points="255.977,1006.93 2352.76,1006.93 "/>
<polyline clip-path="url(#clip152)" style="stroke:#000000; stroke-linecap:round; stroke-linejoin:round; stroke-width:2; stroke-opacity:0.1; fill:none" points="255.977,606.458 2352.76,606.458 "/>
<polyline clip-path="url(#clip152)" style="stroke:#000000; stroke-linecap:round; stroke-linejoin:round; stroke-width:2; stroke-opacity:0.1; fill:none" points="255.977,205.982 2352.76,205.982 "/>
<polyline clip-path="url(#clip150)" style="stroke:#000000; stroke-linecap:round; stroke-linejoin:round; stroke-width:4; stroke-opacity:1; fill:none" points="255.977,1423.18 255.977,47.2441 "/>
<polyline clip-path="url(#clip150)" style="stroke:#000000; stroke-linecap:round; stroke-linejoin:round; stroke-width:4; stroke-opacity:1; fill:none" points="255.977,1407.41 274.875,1407.41 "/>
<polyline clip-path="url(#clip150)" style="stroke:#000000; stroke-linecap:round; stroke-linejoin:round; stroke-width:4; stroke-opacity:1; fill:none" points="255.977,1006.93 274.875,1006.93 "/>
<polyline clip-path="url(#clip150)" style="stroke:#000000; stroke-linecap:round; stroke-linejoin:round; stroke-width:4; stroke-opacity:1; fill:none" points="255.977,606.458 274.875,606.458 "/>
<polyline clip-path="url(#clip150)" style="stroke:#000000; stroke-linecap:round; stroke-linejoin:round; stroke-width:4; stroke-opacity:1; fill:none" points="255.977,205.982 274.875,205.982 "/>
<path clip-path="url(#clip150)" d="M114.631 1407.86 L144.306 1407.86 L144.306 1411.8 L114.631 1411.8 L114.631 1407.86 Z" fill="#000000" fill-rule="nonzero" fill-opacity="1" /><path clip-path="url(#clip150)" d="M164.399 1393.21 Q160.788 1393.21 158.959 1396.77 Q157.153 1400.31 157.153 1407.44 Q157.153 1414.55 158.959 1418.11 Q160.788 1421.66 164.399 1421.66 Q168.033 1421.66 169.839 1418.11 Q171.667 1414.55 171.667 1407.44 Q171.667 1400.31 169.839 1396.77 Q168.033 1393.21 164.399 1393.21 M164.399 1389.5 Q170.209 1389.5 173.264 1394.11 Q176.343 1398.69 176.343 1407.44 Q176.343 1416.17 173.264 1420.78 Q170.209 1425.36 164.399 1425.36 Q158.589 1425.36 155.51 1420.78 Q152.454 1416.17 152.454 1407.44 Q152.454 1398.69 155.51 1394.11 Q158.589 1389.5 164.399 1389.5 Z" fill="#000000" fill-rule="nonzero" fill-opacity="1" /><path clip-path="url(#clip150)" d="M184.561 1418.81 L189.445 1418.81 L189.445 1424.69 L184.561 1424.69 L184.561 1418.81 Z" fill="#000000" fill-rule="nonzero" fill-opacity="1" /><path clip-path="url(#clip150)" d="M203.658 1420.75 L219.977 1420.75 L219.977 1424.69 L198.033 1424.69 L198.033 1420.75 Q200.695 1418 205.278 1413.37 Q209.885 1408.72 211.065 1407.37 Q213.311 1404.85 214.19 1403.12 Q215.093 1401.36 215.093 1399.67 Q215.093 1396.91 213.149 1395.18 Q211.227 1393.44 208.125 1393.44 Q205.926 1393.44 203.473 1394.2 Q201.042 1394.97 198.264 1396.52 L198.264 1391.8 Q201.088 1390.66 203.542 1390.08 Q205.996 1389.5 208.033 1389.5 Q213.403 1389.5 216.598 1392.19 Q219.792 1394.87 219.792 1399.37 Q219.792 1401.49 218.982 1403.42 Q218.195 1405.31 216.088 1407.91 Q215.51 1408.58 212.408 1411.8 Q209.306 1414.99 203.658 1420.75 Z" fill="#000000" fill-rule="nonzero" fill-opacity="1" /><path clip-path="url(#clip150)" d="M114.26 1007.38 L143.936 1007.38 L143.936 1011.32 L114.26 1011.32 L114.26 1007.38 Z" fill="#000000" fill-rule="nonzero" fill-opacity="1" /><path clip-path="url(#clip150)" d="M164.028 992.732 Q160.417 992.732 158.589 996.297 Q156.783 999.838 156.783 1006.97 Q156.783 1014.07 158.589 1017.64 Q160.417 1021.18 164.028 1021.18 Q167.663 1021.18 169.468 1017.64 Q171.297 1014.07 171.297 1006.97 Q171.297 999.838 169.468 996.297 Q167.663 992.732 164.028 992.732 M164.028 989.028 Q169.839 989.028 172.894 993.635 Q175.973 998.218 175.973 1006.97 Q175.973 1015.69 172.894 1020.3 Q169.839 1024.88 164.028 1024.88 Q158.218 1024.88 155.14 1020.3 Q152.084 1015.69 152.084 1006.97 Q152.084 998.218 155.14 993.635 Q158.218 989.028 164.028 989.028 Z" fill="#000000" fill-rule="nonzero" fill-opacity="1" /><path clip-path="url(#clip150)" d="M184.19 1018.33 L189.075 1018.33 L189.075 1024.21 L184.19 1024.21 L184.19 1018.33 Z" fill="#000000" fill-rule="nonzero" fill-opacity="1" /><path clip-path="url(#clip150)" d="M200.07 1020.28 L207.709 1020.28 L207.709 993.912 L199.399 995.579 L199.399 991.32 L207.662 989.653 L212.338 989.653 L212.338 1020.28 L219.977 1020.28 L219.977 1024.21 L200.07 1024.21 L200.07 1020.28 Z" fill="#000000" fill-rule="nonzero" fill-opacity="1" /><path clip-path="url(#clip150)" d="M162.802 592.256 Q159.19 592.256 157.362 595.821 Q155.556 599.363 155.556 606.492 Q155.556 613.599 157.362 617.163 Q159.19 620.705 162.802 620.705 Q166.436 620.705 168.241 617.163 Q170.07 613.599 170.07 606.492 Q170.07 599.363 168.241 595.821 Q166.436 592.256 162.802 592.256 M162.802 588.553 Q168.612 588.553 171.667 593.159 Q174.746 597.742 174.746 606.492 Q174.746 615.219 171.667 619.825 Q168.612 624.409 162.802 624.409 Q156.991 624.409 153.913 619.825 Q150.857 615.219 150.857 606.492 Q150.857 597.742 153.913 593.159 Q156.991 588.553 162.802 588.553 Z" fill="#000000" fill-rule="nonzero" fill-opacity="1" /><path clip-path="url(#clip150)" d="M182.963 617.858 L187.848 617.858 L187.848 623.738 L182.963 623.738 L182.963 617.858 Z" fill="#000000" fill-rule="nonzero" fill-opacity="1" /><path clip-path="url(#clip150)" d="M208.033 592.256 Q204.422 592.256 202.593 595.821 Q200.787 599.363 200.787 606.492 Q200.787 613.599 202.593 617.163 Q204.422 620.705 208.033 620.705 Q211.667 620.705 213.473 617.163 Q215.301 613.599 215.301 606.492 Q215.301 599.363 213.473 595.821 Q211.667 592.256 208.033 592.256 M208.033 588.553 Q213.843 588.553 216.898 593.159 Q219.977 597.742 219.977 606.492 Q219.977 615.219 216.898 619.825 Q213.843 624.409 208.033 624.409 Q202.223 624.409 199.144 619.825 Q196.088 615.219 196.088 606.492 Q196.088 597.742 199.144 593.159 Q202.223 588.553 208.033 588.553 Z" fill="#000000" fill-rule="nonzero" fill-opacity="1" /><path clip-path="url(#clip150)" d="M164.028 191.78 Q160.417 191.78 158.589 195.345 Q156.783 198.887 156.783 206.017 Q156.783 213.123 158.589 216.688 Q160.417 220.229 164.028 220.229 Q167.663 220.229 169.468 216.688 Q171.297 213.123 171.297 206.017 Q171.297 198.887 169.468 195.345 Q167.663 191.78 164.028 191.78 M164.028 188.077 Q169.839 188.077 172.894 192.683 Q175.973 197.267 175.973 206.017 Q175.973 214.743 172.894 219.35 Q169.839 223.933 164.028 223.933 Q158.218 223.933 155.14 219.35 Q152.084 214.743 152.084 206.017 Q152.084 197.267 155.14 192.683 Q158.218 188.077 164.028 188.077 Z" fill="#000000" fill-rule="nonzero" fill-opacity="1" /><path clip-path="url(#clip150)" d="M184.19 217.382 L189.075 217.382 L189.075 223.262 L184.19 223.262 L184.19 217.382 Z" fill="#000000" fill-rule="nonzero" fill-opacity="1" /><path clip-path="url(#clip150)" d="M200.07 219.327 L207.709 219.327 L207.709 192.961 L199.399 194.628 L199.399 190.368 L207.662 188.702 L212.338 188.702 L212.338 219.327 L219.977 219.327 L219.977 223.262 L200.07 223.262 L200.07 219.327 Z" fill="#000000" fill-rule="nonzero" fill-opacity="1" /><path clip-path="url(#clip150)" d="M49.9359 830.316 L28.3562 830.316 L28.3562 824.459 L49.7131 824.459 Q54.7739 824.459 57.3202 822.486 Q59.8346 820.512 59.8346 816.566 Q59.8346 811.823 56.8109 809.086 Q53.7872 806.317 48.5673 806.317 L28.3562 806.317 L28.3562 800.46 L64.0042 800.46 L64.0042 806.317 L58.5296 806.317 Q61.7762 808.449 63.3676 811.282 Q64.9272 814.083 64.9272 817.807 Q64.9272 823.95 61.1078 827.133 Q57.2883 830.316 49.9359 830.316 M27.4968 815.579 L27.4968 815.579 Z" fill="#000000" fill-rule="nonzero" fill-opacity="1" /><path clip-path="url(#clip150)" d="M14.5426 774.329 Q21.8632 778.594 29.0246 780.663 Q36.186 782.732 43.5384 782.732 Q50.8908 782.732 58.1159 780.663 Q65.3091 778.562 72.5979 774.329 L72.5979 779.422 Q65.1182 784.196 57.8931 786.583 Q50.668 788.939 43.5384 788.939 Q36.4406 788.939 29.2474 786.583 Q22.0542 784.228 14.5426 779.422 L14.5426 774.329 Z" fill="#000000" fill-rule="nonzero" fill-opacity="1" /><path clip-path="url(#clip150)" d="M28.3562 733.334 L45.7028 746.225 L64.0042 732.666 L64.0042 739.572 L49.9996 749.949 L64.0042 760.325 L64.0042 767.231 L45.3526 753.386 L28.3562 766.054 L28.3562 759.147 L41.0558 749.694 L28.3562 740.241 L28.3562 733.334 Z" fill="#000000" fill-rule="nonzero" fill-opacity="1" /><path clip-path="url(#clip150)" d="M44.1113 710.863 L47.1987 710.863 Q46.4985 712.423 46.1484 714.11 Q45.7982 715.765 45.7982 717.579 Q45.7982 720.348 46.5303 721.717 Q47.2942 723.085 48.7901 723.085 Q49.9359 723.085 50.5725 722.099 Q51.2409 721.112 51.8138 718.152 L52.0685 716.879 Q52.8323 712.9 54.1691 711.309 Q55.5378 709.654 57.9886 709.654 Q60.7576 709.654 62.3809 712.136 Q64.0042 714.587 64.0042 718.916 Q64.0042 720.73 63.6859 722.703 Q63.3676 724.645 62.7628 726.809 L59.3572 726.809 Q60.312 724.772 60.7895 722.767 Q61.2669 720.794 61.2669 718.852 Q61.2669 716.242 60.4712 714.842 Q59.6755 713.441 58.2432 713.441 Q56.9064 713.441 56.1743 714.46 Q55.5378 715.351 54.8057 718.884 L54.5511 720.157 Q53.8827 723.595 52.5777 725.122 Q51.2409 726.65 48.9174 726.65 Q46.1165 726.65 44.5888 724.39 Q43.0292 722.162 43.0292 718.025 Q43.0292 715.988 43.3156 714.173 Q43.5702 712.359 44.1113 710.863 Z" fill="#000000" fill-rule="nonzero" fill-opacity="1" /><path clip-path="url(#clip150)" d="M55.9197 698.577 L55.9197 691.862 L61.3942 691.862 L71.5793 697.081 L71.5793 701.187 L61.3942 698.577 L55.9197 698.577 Z" fill="#000000" fill-rule="nonzero" fill-opacity="1" /><path clip-path="url(#clip150)" d="M18.2347 673.56 L28.3562 673.56 L28.3562 661.497 L32.9077 661.497 L32.9077 673.56 L52.2594 673.56 Q56.6199 673.56 57.8613 672.382 Q59.1026 671.173 59.1026 667.513 L59.1026 661.497 L64.0042 661.497 L64.0042 667.513 Q64.0042 674.292 61.4897 676.87 Q58.9434 679.448 52.2594 679.448 L32.9077 679.448 L32.9077 683.745 L28.3562 683.745 L28.3562 679.448 L18.2347 679.448 L18.2347 673.56 Z" fill="#000000" fill-rule="nonzero" fill-opacity="1" /><path clip-path="url(#clip150)" d="M14.5426 654.718 L14.5426 649.625 Q22.0542 644.851 29.2474 642.495 Q36.4406 640.108 43.5384 640.108 Q50.668 640.108 57.8931 642.495 Q65.1182 644.851 72.5979 649.625 L72.5979 654.718 Q65.3091 650.484 58.1159 648.416 Q50.8908 646.315 43.5384 646.315 Q36.186 646.315 29.0246 648.416 Q21.8632 650.484 14.5426 654.718 Z" fill="#000000" fill-rule="nonzero" fill-opacity="1" /><polyline clip-path="url(#clip152)" style="stroke:#ff0000; stroke-linecap:round; stroke-linejoin:round; stroke-width:4; stroke-opacity:1; fill:none" points="315.32,606.457 325.26,606.457 335.2,606.456 345.14,606.456 355.081,606.455 365.021,606.454 374.961,606.454 384.901,606.453 394.841,606.452 404.781,606.452 414.722,606.451 424.662,606.45 434.602,606.449 444.542,606.448 454.482,606.447 464.422,606.446 474.363,606.445 484.303,606.444 494.243,606.442 504.183,606.441 514.123,606.439 524.063,606.437 534.004,606.434 543.944,606.431 553.884,606.428 563.824,606.424 573.764,606.419 583.704,606.412 593.645,606.404 603.585,606.393 613.525,606.377 623.465,606.355 633.405,606.321 643.345,606.269 653.286,606.184 663.226,606.046 673.166,605.817 683.106,605.437 693.046,604.81 702.986,603.79 712.927,602.156 722.867,599.595 732.807,595.674 742.747,589.822 752.687,581.324 762.627,569.341 772.568,552.947 782.508,531.22 792.448,503.366 802.388,468.886 812.328,427.768 822.268,380.676 832.209,329.108 842.149,275.489 852.089,223.154 862.029,176.188 871.969,139.132 881.909,116.53 891.85,112.402 901.79,129.651 911.73,169.509 921.67,231.118 931.61,311.3 941.55,404.58 951.491,503.51 961.431,599.28 971.371,682.573 981.311,744.56 991.251,777.963 1001.19,778.033 1011.13,743.294 1021.07,675.981 1031.01,582.073 1040.95,470.864 1050.89,354.147 1060.83,245.089 1070.77,156.794 1080.71,100.888 1090.65,86.1857 1100.59,117.634 1110.53,195.667 1120.47,316.051 1130.41,470.232 1140.35,646.177 1150.29,829.597 1160.23,1005.4 1170.17,1159.23 1180.11,1278.87 1190.05,1355.45 1199.99,1384.24 1209.93,1364.95 1219.88,1301.68 1229.82,1202.26 1239.76,1077.41 1249.7,939.573 1259.64,801.627 1269.58,675.703 1279.52,572.091 1289.46,498.423 1299.4,459.151 1309.34,455.379 1319.28,484.989 1329.22,543.076 1339.16,622.594 1349.1,715.136 1359.04,811.774 1368.98,903.868 1378.92,983.793 1388.86,1045.51 1398.8,1084.97 1408.74,1100.24 1418.68,1091.58 1428.62,1061.18 1438.56,1012.87 1448.5,951.639 1458.44,883.153 1468.38,813.216 1478.32,747.277 1488.26,689.995 1498.2,644.903 1508.14,614.193 1518.08,598.624 1528.02,597.557 1537.96,609.114 1547.9,630.431 1557.84,657.988 1567.78,687.973 1577.72,716.645 1587.66,740.68 1597.6,757.455 1607.54,765.249 1617.48,763.336 1627.42,751.981 1637.36,732.336 1647.3,706.252 1657.24,676.038 1667.18,644.179 1677.12,613.061 1687.06,584.734 1697,560.728 1706.94,541.936 1716.88,528.588 1726.82,520.302 1736.76,516.199 1746.7,515.069 1756.64,515.555 1766.58,516.34 1776.52,516.309 1786.46,514.658 1796.4,510.952 1806.34,505.124 1816.29,497.414 1826.23,488.276 1836.17,478.248 1846.11,467.834 1856.05,457.4 1865.99,447.115 1875.93,436.928 1885.87,426.613 1895.81,415.843 1905.75,404.306 1915.69,391.833 1925.63,378.501 1935.57,364.718 1945.51,351.246 1955.45,339.162 1965.39,329.768 1975.33,324.453 1985.27,324.496 1995.21,330.889 2005.15,344.155 2015.09,364.232 2025.03,390.404 2034.97,421.317 2044.91,455.056 2054.85,489.311 2064.79,521.58 2074.73,549.409 2084.67,570.62 2094.61,583.531 2104.55,587.122 2114.49,581.139 2124.43,566.122 2134.37,543.374 2144.31,514.851 2154.25,483.022 2164.19,450.664 2174.13,420.657 2184.07,395.769 2194.01,378.446 2203.95,370.63 2213.89,373.6 2223.83,387.857 2233.77,413.055 2243.71,447.986 2253.65,490.621 2263.59,538.213 2273.53,587.471 2283.47,634.776 2293.41,676.47 "/>
<path clip-path="url(#clip150)" d="M325.87 196.789 L789.782 196.789 L789.782 93.1086 L325.87 93.1086  Z" fill="#ffffff" fill-rule="evenodd" fill-opacity="1"/>
<polyline clip-path="url(#clip150)" style="stroke:#000000; stroke-linecap:round; stroke-linejoin:round; stroke-width:4; stroke-opacity:1; fill:none" points="325.87,196.789 789.782,196.789 789.782,93.1086 325.87,93.1086 325.87,196.789 "/>
<polyline clip-path="url(#clip150)" style="stroke:#ff0000; stroke-linecap:round; stroke-linejoin:round; stroke-width:4; stroke-opacity:1; fill:none" points="349.167,144.949 488.953,144.949 "/>
<path clip-path="url(#clip150)" d="M512.25 127.669 L541.486 127.669 L541.486 131.604 L529.218 131.604 L529.218 162.229 L524.519 162.229 L524.519 131.604 L512.25 131.604 L512.25 127.669 Z" fill="#000000" fill-rule="nonzero" fill-opacity="1" /><path clip-path="url(#clip150)" d="M544.356 136.303 L548.616 136.303 L548.616 162.229 L544.356 162.229 L544.356 136.303 M544.356 126.21 L548.616 126.21 L548.616 131.604 L544.356 131.604 L544.356 126.21 Z" fill="#000000" fill-rule="nonzero" fill-opacity="1" /><path clip-path="url(#clip150)" d="M577.713 141.28 Q579.31 138.409 581.532 137.044 Q583.754 135.678 586.764 135.678 Q590.815 135.678 593.014 138.525 Q595.213 141.349 595.213 146.581 L595.213 162.229 L590.93 162.229 L590.93 146.719 Q590.93 142.993 589.611 141.187 Q588.291 139.382 585.583 139.382 Q582.273 139.382 580.352 141.581 Q578.43 143.78 578.43 147.576 L578.43 162.229 L574.148 162.229 L574.148 146.719 Q574.148 142.969 572.829 141.187 Q571.509 139.382 568.754 139.382 Q565.491 139.382 563.569 141.604 Q561.648 143.803 561.648 147.576 L561.648 162.229 L557.366 162.229 L557.366 136.303 L561.648 136.303 L561.648 140.331 Q563.106 137.946 565.143 136.812 Q567.18 135.678 569.981 135.678 Q572.805 135.678 574.773 137.113 Q576.764 138.548 577.713 141.28 Z" fill="#000000" fill-rule="nonzero" fill-opacity="1" /><path clip-path="url(#clip150)" d="M625.884 148.201 L625.884 150.284 L606.301 150.284 Q606.578 154.682 608.939 156.997 Q611.324 159.289 615.56 159.289 Q618.013 159.289 620.305 158.687 Q622.62 158.085 624.888 156.881 L624.888 160.909 Q622.597 161.881 620.189 162.391 Q617.782 162.9 615.305 162.9 Q609.101 162.9 605.467 159.289 Q601.856 155.678 601.856 149.52 Q601.856 143.155 605.282 139.428 Q608.731 135.678 614.564 135.678 Q619.796 135.678 622.828 139.057 Q625.884 142.414 625.884 148.201 M621.625 146.951 Q621.578 143.456 619.657 141.372 Q617.759 139.289 614.611 139.289 Q611.046 139.289 608.893 141.303 Q606.764 143.317 606.439 146.974 L621.625 146.951 Z" fill="#000000" fill-rule="nonzero" fill-opacity="1" /><path clip-path="url(#clip150)" d="M649.402 137.067 L649.402 141.094 Q647.597 140.169 645.652 139.706 Q643.708 139.243 641.624 139.243 Q638.453 139.243 636.856 140.215 Q635.282 141.187 635.282 143.131 Q635.282 144.613 636.416 145.469 Q637.55 146.303 640.976 147.067 L642.435 147.391 Q646.972 148.363 648.87 150.145 Q650.791 151.905 650.791 155.076 Q650.791 158.687 647.921 160.793 Q645.074 162.9 640.074 162.9 Q637.99 162.9 635.722 162.483 Q633.476 162.09 630.976 161.28 L630.976 156.881 Q633.337 158.108 635.629 158.733 Q637.921 159.335 640.166 159.335 Q643.175 159.335 644.796 158.317 Q646.416 157.275 646.416 155.4 Q646.416 153.664 645.236 152.738 Q644.078 151.812 640.12 150.956 L638.638 150.608 Q634.68 149.775 632.921 148.062 Q631.162 146.326 631.162 143.317 Q631.162 139.659 633.754 137.669 Q636.347 135.678 641.115 135.678 Q643.476 135.678 645.56 136.025 Q647.643 136.372 649.402 137.067 Z" fill="#000000" fill-rule="nonzero" fill-opacity="1" /><path clip-path="url(#clip150)" d="M679.749 148.201 L679.749 150.284 L660.166 150.284 Q660.444 154.682 662.805 156.997 Q665.189 159.289 669.425 159.289 Q671.879 159.289 674.171 158.687 Q676.485 158.085 678.754 156.881 L678.754 160.909 Q676.462 161.881 674.055 162.391 Q671.647 162.9 669.171 162.9 Q662.967 162.9 659.333 159.289 Q655.722 155.678 655.722 149.52 Q655.722 143.155 659.147 139.428 Q662.597 135.678 668.43 135.678 Q673.661 135.678 676.694 139.057 Q679.749 142.414 679.749 148.201 M675.49 146.951 Q675.444 143.456 673.522 141.372 Q671.624 139.289 668.476 139.289 Q664.911 139.289 662.759 141.303 Q660.629 143.317 660.305 146.974 L675.49 146.951 Z" fill="#000000" fill-rule="nonzero" fill-opacity="1" /><path clip-path="url(#clip150)" d="M701.763 140.284 Q701.045 139.868 700.189 139.682 Q699.356 139.474 698.337 139.474 Q694.726 139.474 692.782 141.835 Q690.86 144.173 690.86 148.571 L690.86 162.229 L686.578 162.229 L686.578 136.303 L690.86 136.303 L690.86 140.331 Q692.203 137.969 694.356 136.835 Q696.508 135.678 699.587 135.678 Q700.027 135.678 700.559 135.747 Q701.092 135.794 701.74 135.909 L701.763 140.284 Z" fill="#000000" fill-rule="nonzero" fill-opacity="1" /><path clip-path="url(#clip150)" d="M706.231 136.303 L710.49 136.303 L710.49 162.229 L706.231 162.229 L706.231 136.303 M706.231 126.21 L710.49 126.21 L710.49 131.604 L706.231 131.604 L706.231 126.21 Z" fill="#000000" fill-rule="nonzero" fill-opacity="1" /><path clip-path="url(#clip150)" d="M741.578 148.201 L741.578 150.284 L721.994 150.284 Q722.272 154.682 724.633 156.997 Q727.018 159.289 731.254 159.289 Q733.707 159.289 735.999 158.687 Q738.314 158.085 740.582 156.881 L740.582 160.909 Q738.291 161.881 735.883 162.391 Q733.476 162.9 730.999 162.9 Q724.795 162.9 721.161 159.289 Q717.55 155.678 717.55 149.52 Q717.55 143.155 720.976 139.428 Q724.425 135.678 730.258 135.678 Q735.49 135.678 738.522 139.057 Q741.578 142.414 741.578 148.201 M737.318 146.951 Q737.272 143.456 735.351 141.372 Q733.453 139.289 730.305 139.289 Q726.74 139.289 724.587 141.303 Q722.457 143.317 722.133 146.974 L737.318 146.951 Z" fill="#000000" fill-rule="nonzero" fill-opacity="1" /><path clip-path="url(#clip150)" d="M765.096 137.067 L765.096 141.094 Q763.29 140.169 761.346 139.706 Q759.402 139.243 757.318 139.243 Q754.147 139.243 752.55 140.215 Q750.976 141.187 750.976 143.131 Q750.976 144.613 752.11 145.469 Q753.244 146.303 756.67 147.067 L758.128 147.391 Q762.665 148.363 764.564 150.145 Q766.485 151.905 766.485 155.076 Q766.485 158.687 763.615 160.793 Q760.767 162.9 755.767 162.9 Q753.684 162.9 751.416 162.483 Q749.17 162.09 746.67 161.28 L746.67 156.881 Q749.031 158.108 751.323 158.733 Q753.615 159.335 755.86 159.335 Q758.869 159.335 760.49 158.317 Q762.11 157.275 762.11 155.4 Q762.11 153.664 760.929 152.738 Q759.772 151.812 755.814 150.956 L754.332 150.608 Q750.374 149.775 748.615 148.062 Q746.855 146.326 746.855 143.317 Q746.855 139.659 749.448 137.669 Q752.041 135.678 756.809 135.678 Q759.17 135.678 761.253 136.025 Q763.337 136.372 765.096 137.067 Z" fill="#000000" fill-rule="nonzero" fill-opacity="1" /></svg>
