<?xml version="1.0" encoding="utf-8"?>
<svg xmlns="http://www.w3.org/2000/svg" xmlns:xlink="http://www.w3.org/1999/xlink" width="600" height="400" viewBox="0 0 2400 1600">
<defs>
  <clipPath id="clip870">
    <rect x="0" y="0" width="2400" height="1600"/>
  </clipPath>
</defs>
<path clip-path="url(#clip870)" d="M0 1600 L2400 1600 L2400 0 L0 0  Z" fill="#ffffff" fill-rule="evenodd" fill-opacity="1"/>
<defs>
  <clipPath id="clip871">
    <rect x="480" y="0" width="1681" height="1600"/>
  </clipPath>
</defs>
<path clip-path="url(#clip870)" d="M255.607 1423.18 L2352.76 1423.18 L2352.76 47.2441 L255.607 47.2441  Z" fill="#ffffff" fill-rule="evenodd" fill-opacity="1"/>
<defs>
  <clipPath id="clip872">
    <rect x="255" y="47" width="2098" height="1377"/>
  </clipPath>
</defs>
<polyline clip-path="url(#clip872)" style="stroke:#000000; stroke-linecap:round; stroke-linejoin:round; stroke-width:2; stroke-opacity:0.1; fill:none" points="314.96,1423.18 314.96,47.2441 "/>
<polyline clip-path="url(#clip872)" style="stroke:#000000; stroke-linecap:round; stroke-linejoin:round; stroke-width:2; stroke-opacity:0.1; fill:none" points="710.649,1423.18 710.649,47.2441 "/>
<polyline clip-path="url(#clip872)" style="stroke:#000000; stroke-linecap:round; stroke-linejoin:round; stroke-width:2; stroke-opacity:0.1; fill:none" points="1106.34,1423.18 1106.34,47.2441 "/>
<polyline clip-path="url(#clip872)" style="stroke:#000000; stroke-linecap:round; stroke-linejoin:round; stroke-width:2; stroke-opacity:0.1; fill:none" points="1502.03,1423.18 1502.03,47.2441 "/>
<polyline clip-path="url(#clip872)" style="stroke:#000000; stroke-linecap:round; stroke-linejoin:round; stroke-width:2; stroke-opacity:0.1; fill:none" points="1897.71,1423.18 1897.71,47.2441 "/>
<polyline clip-path="url(#clip872)" style="stroke:#000000; stroke-linecap:round; stroke-linejoin:round; stroke-width:2; stroke-opacity:0.1; fill:none" points="2293.4,1423.18 2293.4,47.2441 "/>
<polyline clip-path="url(#clip870)" style="stroke:#000000; stroke-linecap:round; stroke-linejoin:round; stroke-width:4; stroke-opacity:1; fill:none" points="255.607,1423.18 2352.76,1423.18 "/>
<polyline clip-path="url(#clip870)" style="stroke:#000000; stroke-linecap:round; stroke-linejoin:round; stroke-width:4; stroke-opacity:1; fill:none" points="314.96,1423.18 314.96,1404.28 "/>
<polyline clip-path="url(#clip870)" style="stroke:#000000; stroke-linecap:round; stroke-linejoin:round; stroke-width:4; stroke-opacity:1; fill:none" points="710.649,1423.18 710.649,1404.28 "/>
<polyline clip-path="url(#clip870)" style="stroke:#000000; stroke-linecap:round; stroke-linejoin:round; stroke-width:4; stroke-opacity:1; fill:none" points="1106.34,1423.18 1106.34,1404.28 "/>
<polyline clip-path="url(#clip870)" style="stroke:#000000; stroke-linecap:round; stroke-linejoin:round; stroke-width:4; stroke-opacity:1; fill:none" points="1502.03,1423.18 1502.03,1404.28 "/>
<polyline clip-path="url(#clip870)" style="stroke:#000000; stroke-linecap:round; stroke-linejoin:round; stroke-width:4; stroke-opacity:1; fill:none" points="1897.71,1423.18 1897.71,1404.28 "/>
<polyline clip-path="url(#clip870)" style="stroke:#000000; stroke-linecap:round; stroke-linejoin:round; stroke-width:4; stroke-opacity:1; fill:none" points="2293.4,1423.18 2293.4,1404.28 "/>
<path clip-path="url(#clip870)" d="M314.96 1454.1 Q311.349 1454.1 309.52 1457.66 Q307.715 1461.2 307.715 1468.33 Q307.715 1475.44 309.52 1479.01 Q311.349 1482.55 314.96 1482.55 Q318.594 1482.55 320.4 1479.01 Q322.229 1475.44 322.229 1468.33 Q322.229 1461.2 320.4 1457.66 Q318.594 1454.1 314.96 1454.1 M314.96 1450.39 Q320.77 1450.39 323.826 1455 Q326.904 1459.58 326.904 1468.33 Q326.904 1477.06 323.826 1481.67 Q320.77 1486.25 314.96 1486.25 Q309.15 1486.25 306.071 1481.67 Q303.016 1477.06 303.016 1468.33 Q303.016 1459.58 306.071 1455 Q309.15 1450.39 314.96 1450.39 Z" fill="#000000" fill-rule="nonzero" fill-opacity="1" /><path clip-path="url(#clip870)" d="M685.336 1481.64 L692.975 1481.64 L692.975 1455.28 L684.665 1456.95 L684.665 1452.69 L692.929 1451.02 L697.605 1451.02 L697.605 1481.64 L705.244 1481.64 L705.244 1485.58 L685.336 1485.58 L685.336 1481.64 Z" fill="#000000" fill-rule="nonzero" fill-opacity="1" /><path clip-path="url(#clip870)" d="M724.688 1454.1 Q721.077 1454.1 719.248 1457.66 Q717.443 1461.2 717.443 1468.33 Q717.443 1475.44 719.248 1479.01 Q721.077 1482.55 724.688 1482.55 Q728.322 1482.55 730.128 1479.01 Q731.956 1475.44 731.956 1468.33 Q731.956 1461.2 730.128 1457.66 Q728.322 1454.1 724.688 1454.1 M724.688 1450.39 Q730.498 1450.39 733.554 1455 Q736.632 1459.58 736.632 1468.33 Q736.632 1477.06 733.554 1481.67 Q730.498 1486.25 724.688 1486.25 Q718.878 1486.25 715.799 1481.67 Q712.743 1477.06 712.743 1468.33 Q712.743 1459.58 715.799 1455 Q718.878 1450.39 724.688 1450.39 Z" fill="#000000" fill-rule="nonzero" fill-opacity="1" /><path clip-path="url(#clip870)" d="M1085.11 1481.64 L1101.43 1481.64 L1101.43 1485.58 L1079.49 1485.58 L1079.49 1481.64 Q1082.15 1478.89 1086.73 1474.26 Q1091.34 1469.61 1092.52 1468.27 Q1094.76 1465.74 1095.64 1464.01 Q1096.55 1462.25 1096.55 1460.56 Q1096.55 1457.8 1094.6 1456.07 Q1092.68 1454.33 1089.58 1454.33 Q1087.38 1454.33 1084.93 1455.09 Q1082.49 1455.86 1079.72 1457.41 L1079.72 1452.69 Q1082.54 1451.55 1084.99 1450.97 Q1087.45 1450.39 1089.49 1450.39 Q1094.86 1450.39 1098.05 1453.08 Q1101.24 1455.77 1101.24 1460.26 Q1101.24 1462.39 1100.43 1464.31 Q1099.65 1466.2 1097.54 1468.8 Q1096.96 1469.47 1093.86 1472.69 Q1090.76 1475.88 1085.11 1481.64 Z" fill="#000000" fill-rule="nonzero" fill-opacity="1" /><path clip-path="url(#clip870)" d="M1121.24 1454.1 Q1117.63 1454.1 1115.8 1457.66 Q1114 1461.2 1114 1468.33 Q1114 1475.44 1115.8 1479.01 Q1117.63 1482.55 1121.24 1482.55 Q1124.88 1482.55 1126.68 1479.01 Q1128.51 1475.44 1128.51 1468.33 Q1128.51 1461.2 1126.68 1457.66 Q1124.88 1454.1 1121.24 1454.1 M1121.24 1450.39 Q1127.05 1450.39 1130.11 1455 Q1133.19 1459.58 1133.19 1468.33 Q1133.19 1477.06 1130.11 1481.67 Q1127.05 1486.25 1121.24 1486.25 Q1115.43 1486.25 1112.36 1481.67 Q1109.3 1477.06 1109.3 1468.33 Q1109.3 1459.58 1112.36 1455 Q1115.43 1450.39 1121.24 1450.39 Z" fill="#000000" fill-rule="nonzero" fill-opacity="1" /><path clip-path="url(#clip870)" d="M1490.87 1466.95 Q1494.22 1467.66 1496.1 1469.93 Q1498 1472.2 1498 1475.53 Q1498 1480.65 1494.48 1483.45 Q1490.96 1486.25 1484.48 1486.25 Q1482.3 1486.25 1479.99 1485.81 Q1477.7 1485.39 1475.24 1484.54 L1475.24 1480.02 Q1477.19 1481.16 1479.5 1481.74 Q1481.82 1482.32 1484.34 1482.32 Q1488.74 1482.32 1491.03 1480.58 Q1493.35 1478.84 1493.35 1475.53 Q1493.35 1472.48 1491.19 1470.77 Q1489.06 1469.03 1485.24 1469.03 L1481.22 1469.03 L1481.22 1465.19 L1485.43 1465.19 Q1488.88 1465.19 1490.71 1463.82 Q1492.53 1462.43 1492.53 1459.84 Q1492.53 1457.18 1490.64 1455.77 Q1488.76 1454.33 1485.24 1454.33 Q1483.32 1454.33 1481.12 1454.75 Q1478.92 1455.16 1476.29 1456.04 L1476.29 1451.88 Q1478.95 1451.14 1481.26 1450.77 Q1483.6 1450.39 1485.66 1450.39 Q1490.98 1450.39 1494.09 1452.83 Q1497.19 1455.23 1497.19 1459.35 Q1497.19 1462.22 1495.54 1464.21 Q1493.9 1466.18 1490.87 1466.95 Z" fill="#000000" fill-rule="nonzero" fill-opacity="1" /><path clip-path="url(#clip870)" d="M1516.86 1454.1 Q1513.25 1454.1 1511.42 1457.66 Q1509.62 1461.2 1509.62 1468.33 Q1509.62 1475.44 1511.42 1479.01 Q1513.25 1482.55 1516.86 1482.55 Q1520.5 1482.55 1522.3 1479.01 Q1524.13 1475.44 1524.13 1468.33 Q1524.13 1461.2 1522.3 1457.66 Q1520.5 1454.1 1516.86 1454.1 M1516.86 1450.39 Q1522.67 1450.39 1525.73 1455 Q1528.81 1459.58 1528.81 1468.33 Q1528.81 1477.06 1525.73 1481.67 Q1522.67 1486.25 1516.86 1486.25 Q1511.05 1486.25 1507.97 1481.67 Q1504.92 1477.06 1504.92 1468.33 Q1504.92 1459.58 1507.97 1455 Q1511.05 1450.39 1516.86 1450.39 Z" fill="#000000" fill-rule="nonzero" fill-opacity="1" /><path clip-path="url(#clip870)" d="M1885.89 1455.09 L1874.08 1473.54 L1885.89 1473.54 L1885.89 1455.09 M1884.66 1451.02 L1890.54 1451.02 L1890.54 1473.54 L1895.47 1473.54 L1895.47 1477.43 L1890.54 1477.43 L1890.54 1485.58 L1885.89 1485.58 L1885.89 1477.43 L1870.28 1477.43 L1870.28 1472.92 L1884.66 1451.02 Z" fill="#000000" fill-rule="nonzero" fill-opacity="1" /><path clip-path="url(#clip870)" d="M1913.2 1454.1 Q1909.59 1454.1 1907.76 1457.66 Q1905.95 1461.2 1905.95 1468.33 Q1905.95 1475.44 1907.76 1479.01 Q1909.59 1482.55 1913.2 1482.55 Q1916.83 1482.55 1918.64 1479.01 Q1920.47 1475.44 1920.47 1468.33 Q1920.47 1461.2 1918.64 1457.66 Q1916.83 1454.1 1913.2 1454.1 M1913.2 1450.39 Q1919.01 1450.39 1922.07 1455 Q1925.14 1459.58 1925.14 1468.33 Q1925.14 1477.06 1922.07 1481.67 Q1919.01 1486.25 1913.2 1486.25 Q1907.39 1486.25 1904.31 1481.67 Q1901.26 1477.06 1901.26 1468.33 Q1901.26 1459.58 1904.31 1455 Q1907.39 1450.39 1913.2 1450.39 Z" fill="#000000" fill-rule="nonzero" fill-opacity="1" /><path clip-path="url(#clip870)" d="M2268.1 1451.02 L2286.46 1451.02 L2286.46 1454.96 L2272.38 1454.96 L2272.38 1463.43 Q2273.4 1463.08 2274.42 1462.92 Q2275.44 1462.73 2276.46 1462.73 Q2282.25 1462.73 2285.62 1465.9 Q2289 1469.08 2289 1474.49 Q2289 1480.07 2285.53 1483.17 Q2282.06 1486.25 2275.74 1486.25 Q2273.56 1486.25 2271.3 1485.88 Q2269.05 1485.51 2266.64 1484.77 L2266.64 1480.07 Q2268.73 1481.2 2270.95 1481.76 Q2273.17 1482.32 2275.65 1482.32 Q2279.65 1482.32 2281.99 1480.21 Q2284.33 1478.1 2284.33 1474.49 Q2284.33 1470.88 2281.99 1468.77 Q2279.65 1466.67 2275.65 1466.67 Q2273.77 1466.67 2271.9 1467.08 Q2270.05 1467.5 2268.1 1468.38 L2268.1 1451.02 Z" fill="#000000" fill-rule="nonzero" fill-opacity="1" /><path clip-path="url(#clip870)" d="M2308.22 1454.1 Q2304.61 1454.1 2302.78 1457.66 Q2300.97 1461.2 2300.97 1468.33 Q2300.97 1475.44 2302.78 1479.01 Q2304.61 1482.55 2308.22 1482.55 Q2311.85 1482.55 2313.66 1479.01 Q2315.49 1475.44 2315.49 1468.33 Q2315.49 1461.2 2313.66 1457.66 Q2311.85 1454.1 2308.22 1454.1 M2308.22 1450.39 Q2314.03 1450.39 2317.08 1455 Q2320.16 1459.58 2320.16 1468.33 Q2320.16 1477.06 2317.08 1481.67 Q2314.03 1486.25 2308.22 1486.25 Q2302.41 1486.25 2299.33 1481.67 Q2296.27 1477.06 2296.27 1468.33 Q2296.27 1459.58 2299.33 1455 Q2302.41 1450.39 2308.22 1450.39 Z" fill="#000000" fill-rule="nonzero" fill-opacity="1" /><path clip-path="url(#clip870)" d="M1303.24 1522.27 L1303.24 1532.4 L1315.31 1532.4 L1315.31 1536.95 L1303.24 1536.95 L1303.24 1556.3 Q1303.24 1560.66 1304.42 1561.9 Q1305.63 1563.14 1309.29 1563.14 L1315.31 1563.14 L1315.31 1568.04 L1309.29 1568.04 Q1302.51 1568.04 1299.93 1565.53 Q1297.35 1562.98 1297.35 1556.3 L1297.35 1536.95 L1293.06 1536.95 L1293.06 1532.4 L1297.35 1532.4 L1297.35 1522.27 L1303.24 1522.27 Z" fill="#000000" fill-rule="nonzero" fill-opacity="1" /><polyline clip-path="url(#clip872)" style="stroke:#000000; stroke-linecap:round; stroke-linejoin:round; stroke-width:2; stroke-opacity:0.1; fill:none" points="255.607,1166.02 2352.76,1166.02 "/>
<polyline clip-path="url(#clip872)" style="stroke:#000000; stroke-linecap:round; stroke-linejoin:round; stroke-width:2; stroke-opacity:0.1; fill:none" points="255.607,806.047 2352.76,806.047 "/>
<polyline clip-path="url(#clip872)" style="stroke:#000000; stroke-linecap:round; stroke-linejoin:round; stroke-width:2; stroke-opacity:0.1; fill:none" points="255.607,446.076 2352.76,446.076 "/>
<polyline clip-path="url(#clip872)" style="stroke:#000000; stroke-linecap:round; stroke-linejoin:round; stroke-width:2; stroke-opacity:0.1; fill:none" points="255.607,86.1048 2352.76,86.1048 "/>
<polyline clip-path="url(#clip870)" style="stroke:#000000; stroke-linecap:round; stroke-linejoin:round; stroke-width:4; stroke-opacity:1; fill:none" points="255.607,1423.18 255.607,47.2441 "/>
<polyline clip-path="url(#clip870)" style="stroke:#000000; stroke-linecap:round; stroke-linejoin:round; stroke-width:4; stroke-opacity:1; fill:none" points="255.607,1166.02 274.504,1166.02 "/>
<polyline clip-path="url(#clip870)" style="stroke:#000000; stroke-linecap:round; stroke-linejoin:round; stroke-width:4; stroke-opacity:1; fill:none" points="255.607,806.047 274.504,806.047 "/>
<polyline clip-path="url(#clip870)" style="stroke:#000000; stroke-linecap:round; stroke-linejoin:round; stroke-width:4; stroke-opacity:1; fill:none" points="255.607,446.076 274.504,446.076 "/>
<polyline clip-path="url(#clip870)" style="stroke:#000000; stroke-linecap:round; stroke-linejoin:round; stroke-width:4; stroke-opacity:1; fill:none" points="255.607,86.1048 274.504,86.1048 "/>
<path clip-path="url(#clip870)" d="M114.26 1166.47 L143.936 1166.47 L143.936 1170.4 L114.26 1170.4 L114.26 1166.47 Z" fill="#000000" fill-rule="nonzero" fill-opacity="1" /><path clip-path="url(#clip870)" d="M164.028 1151.82 Q160.417 1151.82 158.589 1155.38 Q156.783 1158.92 156.783 1166.05 Q156.783 1173.16 158.589 1176.72 Q160.417 1180.27 164.028 1180.27 Q167.663 1180.27 169.468 1176.72 Q171.297 1173.16 171.297 1166.05 Q171.297 1158.92 169.468 1155.38 Q167.663 1151.82 164.028 1151.82 M164.028 1148.11 Q169.839 1148.11 172.894 1152.72 Q175.973 1157.3 175.973 1166.05 Q175.973 1174.78 172.894 1179.39 Q169.839 1183.97 164.028 1183.97 Q158.218 1183.97 155.14 1179.39 Q152.084 1174.78 152.084 1166.05 Q152.084 1157.3 155.14 1152.72 Q158.218 1148.11 164.028 1148.11 Z" fill="#000000" fill-rule="nonzero" fill-opacity="1" /><path clip-path="url(#clip870)" d="M184.19 1177.42 L189.075 1177.42 L189.075 1183.3 L184.19 1183.3 L184.19 1177.42 Z" fill="#000000" fill-rule="nonzero" fill-opacity="1" /><path clip-path="url(#clip870)" d="M203.287 1179.36 L219.607 1179.36 L219.607 1183.3 L197.662 1183.3 L197.662 1179.36 Q200.325 1176.61 204.908 1171.98 Q209.514 1167.33 210.695 1165.98 Q212.94 1163.46 213.82 1161.72 Q214.723 1159.97 214.723 1158.28 Q214.723 1155.52 212.778 1153.78 Q210.857 1152.05 207.755 1152.05 Q205.556 1152.05 203.102 1152.81 Q200.672 1153.58 197.894 1155.13 L197.894 1150.4 Q200.718 1149.27 203.172 1148.69 Q205.625 1148.11 207.662 1148.11 Q213.033 1148.11 216.227 1150.8 Q219.422 1153.48 219.422 1157.97 Q219.422 1160.1 218.611 1162.03 Q217.824 1163.92 215.718 1166.52 Q215.139 1167.19 212.037 1170.4 Q208.936 1173.6 203.287 1179.36 Z" fill="#000000" fill-rule="nonzero" fill-opacity="1" /><path clip-path="url(#clip870)" d="M162.431 791.846 Q158.82 791.846 156.991 795.411 Q155.186 798.952 155.186 806.082 Q155.186 813.188 156.991 816.753 Q158.82 820.295 162.431 820.295 Q166.065 820.295 167.871 816.753 Q169.7 813.188 169.7 806.082 Q169.7 798.952 167.871 795.411 Q166.065 791.846 162.431 791.846 M162.431 788.142 Q168.241 788.142 171.297 792.749 Q174.376 797.332 174.376 806.082 Q174.376 814.809 171.297 819.415 Q168.241 823.998 162.431 823.998 Q156.621 823.998 153.542 819.415 Q150.487 814.809 150.487 806.082 Q150.487 797.332 153.542 792.749 Q156.621 788.142 162.431 788.142 Z" fill="#000000" fill-rule="nonzero" fill-opacity="1" /><path clip-path="url(#clip870)" d="M182.593 817.447 L187.477 817.447 L187.477 823.327 L182.593 823.327 L182.593 817.447 Z" fill="#000000" fill-rule="nonzero" fill-opacity="1" /><path clip-path="url(#clip870)" d="M207.662 791.846 Q204.051 791.846 202.223 795.411 Q200.417 798.952 200.417 806.082 Q200.417 813.188 202.223 816.753 Q204.051 820.295 207.662 820.295 Q211.297 820.295 213.102 816.753 Q214.931 813.188 214.931 806.082 Q214.931 798.952 213.102 795.411 Q211.297 791.846 207.662 791.846 M207.662 788.142 Q213.473 788.142 216.528 792.749 Q219.607 797.332 219.607 806.082 Q219.607 814.809 216.528 819.415 Q213.473 823.998 207.662 823.998 Q201.852 823.998 198.774 819.415 Q195.718 814.809 195.718 806.082 Q195.718 797.332 198.774 792.749 Q201.852 788.142 207.662 788.142 Z" fill="#000000" fill-rule="nonzero" fill-opacity="1" /><path clip-path="url(#clip870)" d="M164.028 431.875 Q160.417 431.875 158.589 435.439 Q156.783 438.981 156.783 446.111 Q156.783 453.217 158.589 456.782 Q160.417 460.324 164.028 460.324 Q167.663 460.324 169.468 456.782 Q171.297 453.217 171.297 446.111 Q171.297 438.981 169.468 435.439 Q167.663 431.875 164.028 431.875 M164.028 428.171 Q169.839 428.171 172.894 432.777 Q175.973 437.361 175.973 446.111 Q175.973 454.837 172.894 459.444 Q169.839 464.027 164.028 464.027 Q158.218 464.027 155.14 459.444 Q152.084 454.837 152.084 446.111 Q152.084 437.361 155.14 432.777 Q158.218 428.171 164.028 428.171 Z" fill="#000000" fill-rule="nonzero" fill-opacity="1" /><path clip-path="url(#clip870)" d="M184.19 457.476 L189.075 457.476 L189.075 463.356 L184.19 463.356 L184.19 457.476 Z" fill="#000000" fill-rule="nonzero" fill-opacity="1" /><path clip-path="url(#clip870)" d="M203.287 459.421 L219.607 459.421 L219.607 463.356 L197.662 463.356 L197.662 459.421 Q200.325 456.666 204.908 452.037 Q209.514 447.384 210.695 446.041 Q212.94 443.518 213.82 441.782 Q214.723 440.023 214.723 438.333 Q214.723 435.578 212.778 433.842 Q210.857 432.106 207.755 432.106 Q205.556 432.106 203.102 432.87 Q200.672 433.634 197.894 435.185 L197.894 430.463 Q200.718 429.328 203.172 428.75 Q205.625 428.171 207.662 428.171 Q213.033 428.171 216.227 430.856 Q219.422 433.541 219.422 438.032 Q219.422 440.162 218.611 442.083 Q217.824 443.981 215.718 446.574 Q215.139 447.245 212.037 450.462 Q208.936 453.657 203.287 459.421 Z" fill="#000000" fill-rule="nonzero" fill-opacity="1" /><path clip-path="url(#clip870)" d="M161.945 71.9035 Q158.334 71.9035 156.505 75.4683 Q154.7 79.0099 154.7 86.1395 Q154.7 93.2459 156.505 96.8107 Q158.334 100.352 161.945 100.352 Q165.579 100.352 167.385 96.8107 Q169.214 93.2459 169.214 86.1395 Q169.214 79.0099 167.385 75.4683 Q165.579 71.9035 161.945 71.9035 M161.945 68.1998 Q167.755 68.1998 170.811 72.8062 Q173.889 77.3896 173.889 86.1395 Q173.889 94.8663 170.811 99.4728 Q167.755 104.056 161.945 104.056 Q156.135 104.056 153.056 99.4728 Q150.001 94.8663 150.001 86.1395 Q150.001 77.3896 153.056 72.8062 Q156.135 68.1998 161.945 68.1998 Z" fill="#000000" fill-rule="nonzero" fill-opacity="1" /><path clip-path="url(#clip870)" d="M182.107 97.5052 L186.991 97.5052 L186.991 103.385 L182.107 103.385 L182.107 97.5052 Z" fill="#000000" fill-rule="nonzero" fill-opacity="1" /><path clip-path="url(#clip870)" d="M210.024 72.8988 L198.218 91.3478 L210.024 91.3478 L210.024 72.8988 M208.797 68.8248 L214.676 68.8248 L214.676 91.3478 L219.607 91.3478 L219.607 95.2367 L214.676 95.2367 L214.676 103.385 L210.024 103.385 L210.024 95.2367 L194.422 95.2367 L194.422 90.7228 L208.797 68.8248 Z" fill="#000000" fill-rule="nonzero" fill-opacity="1" /><path clip-path="url(#clip870)" d="M49.9359 830.316 L28.3562 830.316 L28.3562 824.459 L49.7131 824.459 Q54.7739 824.459 57.3202 822.486 Q59.8346 820.512 59.8346 816.566 Q59.8346 811.823 56.8109 809.086 Q53.7872 806.317 48.5673 806.317 L28.3562 806.317 L28.3562 800.46 L64.0042 800.46 L64.0042 806.317 L58.5296 806.317 Q61.7762 808.449 63.3676 811.282 Q64.9272 814.083 64.9272 817.807 Q64.9272 823.95 61.1078 827.133 Q57.2883 830.316 49.9359 830.316 M27.4968 815.579 L27.4968 815.579 Z" fill="#000000" fill-rule="nonzero" fill-opacity="1" /><path clip-path="url(#clip870)" d="M14.5426 774.329 Q21.8632 778.594 29.0246 780.663 Q36.186 782.732 43.5384 782.732 Q50.8908 782.732 58.1159 780.663 Q65.3091 778.562 72.5979 774.329 L72.5979 779.422 Q65.1182 784.196 57.8931 786.583 Q50.668 788.939 43.5384 788.939 Q36.4406 788.939 29.2474 786.583 Q22.0542 784.228 14.5426 779.422 L14.5426 774.329 Z" fill="#000000" fill-rule="nonzero" fill-opacity="1" /><path clip-path="url(#clip870)" d="M28.3562 733.334 L45.7028 746.225 L64.0042 732.666 L64.0042 739.572 L49.9996 749.949 L64.0042 760.325 L64.0042 767.231 L45.3526 753.386 L28.3562 766.054 L28.3562 759.147 L41.0558 749.694 L28.3562 740.241 L28.3562 733.334 Z" fill="#000000" fill-rule="nonzero" fill-opacity="1" /><path clip-path="url(#clip870)" d="M44.1113 710.863 L47.1987 710.863 Q46.4985 712.423 46.1484 714.11 Q45.7982 715.765 45.7982 717.579 Q45.7982 720.348 46.5303 721.717 Q47.2942 723.085 48.7901 723.085 Q49.9359 723.085 50.5725 722.099 Q51.2409 721.112 51.8138 718.152 L52.0685 716.879 Q52.8323 712.9 54.1691 711.309 Q55.5378 709.654 57.9886 709.654 Q60.7576 709.654 62.3809 712.136 Q64.0042 714.587 64.0042 718.916 Q64.0042 720.73 63.6859 722.703 Q63.3676 724.645 62.7628 726.809 L59.3572 726.809 Q60.312 724.772 60.7895 722.767 Q61.2669 720.794 61.2669 718.852 Q61.2669 716.242 60.4712 714.842 Q59.6755 713.441 58.2432 713.441 Q56.9064 713.441 56.1743 714.46 Q55.5378 715.351 54.8057 718.884 L54.5511 720.157 Q53.8827 723.595 52.5777 725.122 Q51.2409 726.65 48.9174 726.65 Q46.1165 726.65 44.5888 724.39 Q43.0292 722.162 43.0292 718.025 Q43.0292 715.988 43.3156 714.173 Q43.5702 712.359 44.1113 710.863 Z" fill="#000000" fill-rule="nonzero" fill-opacity="1" /><path clip-path="url(#clip870)" d="M55.9197 698.577 L55.9197 691.862 L61.3942 691.862 L71.5793 697.081 L71.5793 701.187 L61.3942 698.577 L55.9197 698.577 Z" fill="#000000" fill-rule="nonzero" fill-opacity="1" /><path clip-path="url(#clip870)" d="M18.2347 673.56 L28.3562 673.56 L28.3562 661.497 L32.9077 661.497 L32.9077 673.56 L52.2594 673.56 Q56.6199 673.56 57.8613 672.382 Q59.1026 671.173 59.1026 667.513 L59.1026 661.497 L64.0042 661.497 L64.0042 667.513 Q64.0042 674.292 61.4897 676.87 Q58.9434 679.448 52.2594 679.448 L32.9077 679.448 L32.9077 683.745 L28.3562 683.745 L28.3562 679.448 L18.2347 679.448 L18.2347 673.56 Z" fill="#000000" fill-rule="nonzero" fill-opacity="1" /><path clip-path="url(#clip870)" d="M14.5426 654.718 L14.5426 649.625 Q22.0542 644.851 29.2474 642.495 Q36.4406 640.108 43.5384 640.108 Q50.668 640.108 57.8931 642.495 Q65.1182 644.851 72.5979 649.625 L72.5979 654.718 Q65.3091 650.484 58.1159 648.416 Q50.8908 646.315 43.5384 646.315 Q36.186 646.315 29.0246 648.416 Q21.8632 650.484 14.5426 654.718 Z" fill="#000000" fill-rule="nonzero" fill-opacity="1" /><polyline clip-path="url(#clip872)" style="stroke:#ff0000; stroke-linecap:round; stroke-linejoin:round; stroke-width:4; stroke-opacity:1; fill:none" points="314.96,806.047 324.902,806.047 334.844,806.046 344.786,806.046 354.728,806.046 364.67,806.046 374.612,806.045 384.554,806.045 394.495,806.044 404.437,806.044 414.379,806.043 424.321,806.042 434.263,806.041 444.205,806.039 454.147,806.037 464.089,806.033 474.031,806.026 483.973,806.012 493.915,805.979 503.857,805.896 513.799,805.682 523.74,805.14 533.682,803.847 543.624,800.972 553.566,795.079 563.508,783.996 573.45,764.965 583.392,735.289 593.334,693.597 603.276,641.548 613.218,585.373 623.16,536.306 633.102,509.053 643.044,518.079 652.985,572.546 662.927,671.726 672.869,803.01 682.811,943.938 692.753,1068.11 702.695,1153.17 712.637,1187.96 722.579,1176.07 732.521,1134.41 742.463,1087.19 752.405,1057.6 762.347,1060.01 772.289,1095.53 782.23,1152.05 792.172,1208.53 802.114,1241.88 812.056,1233.95 821.998,1176.65 831.94,1073.76 841.882,939.328 851.824,793.534 861.766,657.463 871.708,548.288 881.65,476.075 891.592,442.727 901.534,442.967 911.475,466.757 921.417,502.3 931.359,538.826 941.301,568.533 951.243,587.453 961.185,595.259 971.127,594.315 981.069,588.351 991.011,581.165 1000.95,575.621 1010.89,573.122 1020.84,573.535 1030.78,575.494 1040.72,576.927 1050.66,575.62 1060.6,569.718 1070.55,558.068 1080.49,540.412 1090.43,517.45 1100.37,490.827 1110.31,463.092 1120.26,437.642 1130.2,418.632 1140.14,410.814 1150.08,419.214 1160.02,448.562 1169.97,502.445 1179.91,582.248 1189.85,686.08 1199.79,808.023 1209.73,938.084 1219.68,1063.12 1229.62,1168.84 1239.56,1242.63 1249.5,1276.57 1259.44,1269.92 1269.38,1230.08 1279.33,1171.44 1289.27,1112.02 1299.21,1068.66 1309.15,1051.91 1319.09,1062.41 1329.04,1090.18 1338.98,1117.34 1348.92,1123.79 1358.86,1094.06 1368.8,1023.08 1378.75,918.79 1388.69,800.465 1398.63,693.301 1408.57,620.902 1418.51,598.303 1428.46,627.82 1438.4,699.042 1448.34,792.726 1458.28,887.029 1468.22,963.827 1478.17,1013.02 1488.11,1033.69 1498.05,1032.27 1507.99,1018.74 1517.93,1002.7 1527.87,990.448 1537.82,983.952 1547.76,981.542 1557.7,979.575 1567.64,974.253 1577.58,962.907 1587.53,944.498 1597.47,919.445 1607.41,889.076 1617.35,854.989 1627.29,818.503 1637.24,780.271 1647.18,740.138 1657.12,697.253 1667.06,650.473 1677,598.966 1686.95,542.831 1696.89,483.524 1706.83,423.907 1716.77,367.845 1726.71,319.455 1736.65,282.221 1746.6,258.261 1756.54,247.985 1766.48,250.254 1776.42,262.924 1786.36,283.526 1796.31,309.829 1806.25,340.122 1816.19,373.272 1826.13,408.666 1836.07,446.169 1846.02,486.062 1855.96,528.875 1865.9,575.044 1875.84,624.472 1885.78,676.193 1895.73,728.339 1905.67,778.455 1915.61,824.039 1925.55,863.07 1935.49,894.34 1945.44,917.598 1955.38,933.579 1965.32,944.02 1975.26,951.61 1985.2,959.738 1995.14,971.901 2005.09,990.846 2015.03,1017.72 2024.97,1051.63 2034.91,1089.78 2044.85,1128.36 2054.8,1163.6 2064.74,1192.7 2074.68,1214.39 2084.62,1228.81 2094.56,1237.04 2104.51,1240.56 2114.45,1240.77 2124.39,1238.73 2134.33,1234.92 2144.27,1229.27 2154.22,1221.12 2164.16,1209.33 2174.1,1192.56 2184.04,1169.64 2193.98,1139.93 2203.93,1103.56 2213.87,1061.43 2223.81,1015.12 2233.75,966.704 2243.69,918.507 2253.63,872.999 2263.58,832.552 2273.52,799.096 2283.46,773.69 2293.4,756.154 "/>
<polyline clip-path="url(#clip872)" style="stroke:#008000; stroke-linecap:round; stroke-linejoin:round; stroke-width:4; stroke-opacity:1; fill:none" points="314.96,806.047 324.902,806.046 334.844,806.046 344.786,806.046 354.728,806.045 364.67,806.044 374.612,806.044 384.554,806.043 394.495,806.042 404.437,806.041 414.379,806.039 424.321,806.036 434.263,806.032 444.205,806.026 454.147,806.015 464.089,805.992 474.031,805.938 483.973,805.795 493.915,805.413 503.857,804.414 513.799,801.963 523.74,796.42 533.682,785.016 543.624,763.844 553.566,728.64 563.508,676.766 573.45,610.236 583.392,538.622 593.334,479.801 603.276,456.512 613.218,488.466 623.16,582.601 633.102,726.349 643.044,888.609 652.985,1029.69 662.927,1116.6 672.869,1136.55 682.811,1101.92 692.753,1043.86 702.695,997.915 712.637,988.415 722.579,1019.15 732.521,1074.05 742.463,1126.69 752.405,1153.42 762.347,1143.83 772.289,1104.39 782.23,1054.17 792.172,1015.6 802.114,1004.49 812.056,1023.46 821.998,1061.08 831.94,1096.38 841.882,1106.55 851.824,1074.75 861.766,995.455 871.708,875.746 881.65,732.796 891.592,588.706 901.534,464.581 911.475,375.624 921.417,328.389 931.359,320.581 941.301,342.983 951.243,382.645 961.185,426.313 971.127,463.228 981.069,486.749 991.011,494.685 1000.95,488.546 1010.89,472.154 1020.84,450.102 1030.78,426.443 1040.72,403.86 1050.66,383.441 1060.6,365.019 1070.55,347.925 1080.49,331.883 1090.43,317.782 1100.37,308.128 1110.31,307.104 1120.26,320.174 1130.2,353.202 1140.14,411.044 1150.08,495.78 1160.02,605.017 1169.97,730.909 1179.91,860.488 1189.85,977.603 1199.79,1066.25 1209.73,1114.59 1219.68,1118.63 1229.62,1084.35 1239.56,1027.36 1249.5,969.605 1259.44,933.473 1269.38,935.013 1279.33,978.38 1289.27,1053.92 1299.21,1141.12 1309.15,1215.76 1319.09,1258.8 1329.04,1263.33 1338.98,1236.47 1348.92,1195.38 1358.86,1158.7 1368.8,1137.47 1378.75,1129.57 1388.69,1120.53 1398.63,1090.61 1408.57,1025.11 1418.51,923.301 1428.46,801.711 1438.4,689.926 1448.34,620.373 1458.28,616.215 1468.22,682.383 1478.17,803.422 1488.11,948.885 1498.05,1083.82 1507.99,1179.95 1517.93,1223.16 1527.87,1215.15 1537.82,1169.27 1547.76,1103.53 1557.7,1033.79 1567.64,969.837 1577.58,915.028 1587.53,868.485 1597.47,827.817 1607.41,790.819 1617.35,755.758 1627.29,720.89 1637.24,684.214 1647.18,643.87 1657.12,598.88 1667.06,549.609 1677,497.56 1686.95,444.655 1696.89,392.413 1706.83,341.463 1716.77,291.634 1726.71,242.632 1736.65,195.065 1746.6,151.296 1756.54,115.49 1766.48,92.5337 1776.42,86.1857 1786.36,97.4878 1796.31,124.455 1806.25,163.3 1816.19,210.361 1826.13,263.4 1836.07,321.429 1846.02,383.416 1855.96,447.105 1865.9,509.074 1875.84,566.071 1885.78,616.567 1895.73,661.27 1905.67,702.19 1915.61,741.067 1925.55,778.488 1935.49,814.426 1945.44,849.689 1955.38,886.907 1965.32,929.927 1975.26,981.736 1985.2,1042.25 1995.14,1107.57 2005.09,1171.45 2015.03,1228.07 2024.97,1274.38 2034.91,1310.66 2044.85,1339.03 2054.8,1361.13 2064.74,1376.78 2074.68,1384.24 2084.62,1381.91 2094.56,1370.16 2104.51,1351.9 2114.45,1331.74 2124.39,1314.2 2134.33,1302.11 2144.27,1296.02 2154.22,1294.63 2164.16,1295.61 2174.1,1296.18 2184.04,1293.18 2193.98,1283.04 2203.93,1262.12 2213.87,1227.75 2223.81,1179.42 2233.75,1119.46 2243.69,1052.46 2253.63,983.772 2263.58,917.737 2273.52,856.755 2283.46,801.574 2293.4,752.424 "/>
<path clip-path="url(#clip870)" d="M325.512 248.629 L735.457 248.629 L735.457 93.1086 L325.512 93.1086  Z" fill="#ffffff" fill-rule="evenodd" fill-opacity="1"/>
<polyline clip-path="url(#clip870)" style="stroke:#000000; stroke-linecap:round; stroke-linejoin:round; stroke-width:4; stroke-opacity:1; fill:none" points="325.512,248.629 735.457,248.629 735.457,93.1086 325.512,93.1086 325.512,248.629 "/>
<polyline clip-path="url(#clip870)" style="stroke:#ff0000; stroke-linecap:round; stroke-linejoin:round; stroke-width:4; stroke-opacity:1; fill:none" points="348.813,144.949 488.623,144.949 "/>
<path clip-path="url(#clip870)" d="M534.17 128.803 L534.17 133.363 Q531.508 132.09 529.147 131.465 Q526.786 130.84 524.587 130.84 Q520.768 130.84 518.684 132.321 Q516.624 133.803 516.624 136.534 Q516.624 138.826 517.99 140.007 Q519.379 141.164 523.221 141.882 L526.045 142.46 Q531.277 143.456 533.754 145.979 Q536.254 148.479 536.254 152.692 Q536.254 157.715 532.874 160.307 Q529.518 162.9 523.013 162.9 Q520.559 162.9 517.781 162.344 Q515.027 161.789 512.064 160.701 L512.064 155.886 Q514.911 157.483 517.643 158.293 Q520.374 159.104 523.013 159.104 Q527.018 159.104 529.193 157.53 Q531.369 155.956 531.369 153.039 Q531.369 150.493 529.795 149.057 Q528.244 147.622 524.68 146.905 L521.832 146.349 Q516.601 145.307 514.263 143.085 Q511.925 140.863 511.925 136.905 Q511.925 132.321 515.143 129.682 Q518.383 127.044 524.055 127.044 Q526.485 127.044 529.008 127.483 Q531.531 127.923 534.17 128.803 Z" fill="#000000" fill-rule="nonzero" fill-opacity="1" /><path clip-path="url(#clip870)" d="M565.536 148.201 L565.536 150.284 L545.953 150.284 Q546.23 154.682 548.592 156.997 Q550.976 159.289 555.212 159.289 Q557.666 159.289 559.957 158.687 Q562.272 158.085 564.54 156.881 L564.54 160.909 Q562.249 161.881 559.841 162.391 Q557.434 162.9 554.957 162.9 Q548.754 162.9 545.119 159.289 Q541.508 155.678 541.508 149.52 Q541.508 143.155 544.934 139.428 Q548.383 135.678 554.216 135.678 Q559.448 135.678 562.48 139.057 Q565.536 142.414 565.536 148.201 M561.277 146.951 Q561.23 143.456 559.309 141.372 Q557.411 139.289 554.263 139.289 Q550.698 139.289 548.545 141.303 Q546.416 143.317 546.092 146.974 L561.277 146.951 Z" fill="#000000" fill-rule="nonzero" fill-opacity="1" /><path clip-path="url(#clip870)" d="M594.077 146.581 L594.077 162.229 L589.818 162.229 L589.818 146.719 Q589.818 143.039 588.383 141.21 Q586.948 139.382 584.077 139.382 Q580.628 139.382 578.638 141.581 Q576.647 143.78 576.647 147.576 L576.647 162.229 L572.365 162.229 L572.365 136.303 L576.647 136.303 L576.647 140.331 Q578.175 137.993 580.235 136.835 Q582.318 135.678 585.026 135.678 Q589.494 135.678 591.786 138.456 Q594.077 141.21 594.077 146.581 Z" fill="#000000" fill-rule="nonzero" fill-opacity="1" /><path clip-path="url(#clip870)" d="M619.1 137.067 L619.1 141.094 Q617.295 140.169 615.35 139.706 Q613.406 139.243 611.323 139.243 Q608.151 139.243 606.554 140.215 Q604.98 141.187 604.98 143.131 Q604.98 144.613 606.114 145.469 Q607.249 146.303 610.675 147.067 L612.133 147.391 Q616.67 148.363 618.568 150.145 Q620.489 151.905 620.489 155.076 Q620.489 158.687 617.619 160.793 Q614.772 162.9 609.772 162.9 Q607.688 162.9 605.42 162.483 Q603.175 162.09 600.675 161.28 L600.675 156.881 Q603.036 158.108 605.327 158.733 Q607.619 159.335 609.864 159.335 Q612.874 159.335 614.494 158.317 Q616.114 157.275 616.114 155.4 Q616.114 153.664 614.934 152.738 Q613.776 151.812 609.818 150.956 L608.337 150.608 Q604.378 149.775 602.619 148.062 Q600.86 146.326 600.86 143.317 Q600.86 139.659 603.452 137.669 Q606.045 135.678 610.813 135.678 Q613.174 135.678 615.258 136.025 Q617.341 136.372 619.1 137.067 Z" fill="#000000" fill-rule="nonzero" fill-opacity="1" /><path clip-path="url(#clip870)" d="M637.318 139.289 Q633.892 139.289 631.901 141.974 Q629.911 144.636 629.911 149.289 Q629.911 153.942 631.878 156.627 Q633.869 159.289 637.318 159.289 Q640.721 159.289 642.711 156.604 Q644.702 153.918 644.702 149.289 Q644.702 144.682 642.711 141.997 Q640.721 139.289 637.318 139.289 M637.318 135.678 Q642.873 135.678 646.045 139.289 Q649.216 142.9 649.216 149.289 Q649.216 155.655 646.045 159.289 Q642.873 162.9 637.318 162.9 Q631.739 162.9 628.568 159.289 Q625.42 155.655 625.42 149.289 Q625.42 142.9 628.568 139.289 Q631.739 135.678 637.318 135.678 Z" fill="#000000" fill-rule="nonzero" fill-opacity="1" /><path clip-path="url(#clip870)" d="M671.299 140.284 Q670.582 139.868 669.725 139.682 Q668.892 139.474 667.873 139.474 Q664.262 139.474 662.318 141.835 Q660.396 144.173 660.396 148.571 L660.396 162.229 L656.114 162.229 L656.114 136.303 L660.396 136.303 L660.396 140.331 Q661.739 137.969 663.892 136.835 Q666.045 135.678 669.123 135.678 Q669.563 135.678 670.095 135.747 Q670.628 135.794 671.276 135.909 L671.299 140.284 Z" fill="#000000" fill-rule="nonzero" fill-opacity="1" /><path clip-path="url(#clip870)" d="M692.248 158.293 L699.887 158.293 L699.887 131.928 L691.577 133.595 L691.577 129.335 L699.841 127.669 L704.517 127.669 L704.517 158.293 L712.155 158.293 L712.155 162.229 L692.248 162.229 L692.248 158.293 Z" fill="#000000" fill-rule="nonzero" fill-opacity="1" /><polyline clip-path="url(#clip870)" style="stroke:#008000; stroke-linecap:round; stroke-linejoin:round; stroke-width:4; stroke-opacity:1; fill:none" points="348.813,196.789 488.623,196.789 "/>
<path clip-path="url(#clip870)" d="M534.17 180.643 L534.17 185.203 Q531.508 183.93 529.147 183.305 Q526.786 182.68 524.587 182.68 Q520.768 182.68 518.684 184.161 Q516.624 185.643 516.624 188.374 Q516.624 190.666 517.99 191.847 Q519.379 193.004 523.221 193.722 L526.045 194.3 Q531.277 195.296 533.754 197.819 Q536.254 200.319 536.254 204.532 Q536.254 209.555 532.874 212.147 Q529.518 214.74 523.013 214.74 Q520.559 214.74 517.781 214.184 Q515.027 213.629 512.064 212.541 L512.064 207.726 Q514.911 209.323 517.643 210.133 Q520.374 210.944 523.013 210.944 Q527.018 210.944 529.193 209.37 Q531.369 207.796 531.369 204.879 Q531.369 202.333 529.795 200.897 Q528.244 199.462 524.68 198.745 L521.832 198.189 Q516.601 197.147 514.263 194.925 Q511.925 192.703 511.925 188.745 Q511.925 184.161 515.143 181.522 Q518.383 178.884 524.055 178.884 Q526.485 178.884 529.008 179.323 Q531.531 179.763 534.17 180.643 Z" fill="#000000" fill-rule="nonzero" fill-opacity="1" /><path clip-path="url(#clip870)" d="M565.536 200.041 L565.536 202.124 L545.953 202.124 Q546.23 206.522 548.592 208.837 Q550.976 211.129 555.212 211.129 Q557.666 211.129 559.957 210.527 Q562.272 209.925 564.54 208.721 L564.54 212.749 Q562.249 213.721 559.841 214.231 Q557.434 214.74 554.957 214.74 Q548.754 214.74 545.119 211.129 Q541.508 207.518 541.508 201.36 Q541.508 194.995 544.934 191.268 Q548.383 187.518 554.216 187.518 Q559.448 187.518 562.48 190.897 Q565.536 194.254 565.536 200.041 M561.277 198.791 Q561.23 195.296 559.309 193.212 Q557.411 191.129 554.263 191.129 Q550.698 191.129 548.545 193.143 Q546.416 195.157 546.092 198.814 L561.277 198.791 Z" fill="#000000" fill-rule="nonzero" fill-opacity="1" /><path clip-path="url(#clip870)" d="M594.077 198.421 L594.077 214.069 L589.818 214.069 L589.818 198.559 Q589.818 194.879 588.383 193.05 Q586.948 191.222 584.077 191.222 Q580.628 191.222 578.638 193.421 Q576.647 195.62 576.647 199.416 L576.647 214.069 L572.365 214.069 L572.365 188.143 L576.647 188.143 L576.647 192.171 Q578.175 189.833 580.235 188.675 Q582.318 187.518 585.026 187.518 Q589.494 187.518 591.786 190.296 Q594.077 193.05 594.077 198.421 Z" fill="#000000" fill-rule="nonzero" fill-opacity="1" /><path clip-path="url(#clip870)" d="M619.1 188.907 L619.1 192.934 Q617.295 192.009 615.35 191.546 Q613.406 191.083 611.323 191.083 Q608.151 191.083 606.554 192.055 Q604.98 193.027 604.98 194.971 Q604.98 196.453 606.114 197.309 Q607.249 198.143 610.675 198.907 L612.133 199.231 Q616.67 200.203 618.568 201.985 Q620.489 203.745 620.489 206.916 Q620.489 210.527 617.619 212.633 Q614.772 214.74 609.772 214.74 Q607.688 214.74 605.42 214.323 Q603.175 213.93 600.675 213.12 L600.675 208.721 Q603.036 209.948 605.327 210.573 Q607.619 211.175 609.864 211.175 Q612.874 211.175 614.494 210.157 Q616.114 209.115 616.114 207.24 Q616.114 205.504 614.934 204.578 Q613.776 203.652 609.818 202.796 L608.337 202.448 Q604.378 201.615 602.619 199.902 Q600.86 198.166 600.86 195.157 Q600.86 191.499 603.452 189.509 Q606.045 187.518 610.813 187.518 Q613.174 187.518 615.258 187.865 Q617.341 188.212 619.1 188.907 Z" fill="#000000" fill-rule="nonzero" fill-opacity="1" /><path clip-path="url(#clip870)" d="M637.318 191.129 Q633.892 191.129 631.901 193.814 Q629.911 196.476 629.911 201.129 Q629.911 205.782 631.878 208.467 Q633.869 211.129 637.318 211.129 Q640.721 211.129 642.711 208.444 Q644.702 205.758 644.702 201.129 Q644.702 196.522 642.711 193.837 Q640.721 191.129 637.318 191.129 M637.318 187.518 Q642.873 187.518 646.045 191.129 Q649.216 194.74 649.216 201.129 Q649.216 207.495 646.045 211.129 Q642.873 214.74 637.318 214.74 Q631.739 214.74 628.568 211.129 Q625.42 207.495 625.42 201.129 Q625.42 194.74 628.568 191.129 Q631.739 187.518 637.318 187.518 Z" fill="#000000" fill-rule="nonzero" fill-opacity="1" /><path clip-path="url(#clip870)" d="M671.299 192.124 Q670.582 191.708 669.725 191.522 Q668.892 191.314 667.873 191.314 Q664.262 191.314 662.318 193.675 Q660.396 196.013 660.396 200.411 L660.396 214.069 L656.114 214.069 L656.114 188.143 L660.396 188.143 L660.396 192.171 Q661.739 189.809 663.892 188.675 Q666.045 187.518 669.123 187.518 Q669.563 187.518 670.095 187.587 Q670.628 187.634 671.276 187.749 L671.299 192.124 Z" fill="#000000" fill-rule="nonzero" fill-opacity="1" /><path clip-path="url(#clip870)" d="M695.466 210.133 L711.785 210.133 L711.785 214.069 L689.841 214.069 L689.841 210.133 Q692.503 207.379 697.086 202.749 Q701.693 198.096 702.873 196.754 Q705.118 194.231 705.998 192.495 Q706.901 190.735 706.901 189.046 Q706.901 186.291 704.956 184.555 Q703.035 182.819 699.933 182.819 Q697.734 182.819 695.281 183.583 Q692.85 184.347 690.072 185.897 L690.072 181.175 Q692.896 180.041 695.35 179.462 Q697.804 178.884 699.841 178.884 Q705.211 178.884 708.405 181.569 Q711.6 184.254 711.6 188.745 Q711.6 190.874 710.79 192.796 Q710.003 194.694 707.896 197.286 Q707.318 197.958 704.216 201.175 Q701.114 204.37 695.466 210.133 Z" fill="#000000" fill-rule="nonzero" fill-opacity="1" /></svg>
