<?xml version="1.0" encoding="utf-8"?>
<svg xmlns="http://www.w3.org/2000/svg" xmlns:xlink="http://www.w3.org/1999/xlink" width="600" height="400" viewBox="0 0 2400 1600">
<defs>
  <clipPath id="clip830">
    <rect x="0" y="0" width="2400" height="1600"/>
  </clipPath>
</defs>
<path clip-path="url(#clip830)" d="M0 1600 L2400 1600 L2400 0 L0 0  Z" fill="#ffffff" fill-rule="evenodd" fill-opacity="1"/>
<defs>
  <clipPath id="clip831">
    <rect x="480" y="0" width="1681" height="1600"/>
  </clipPath>
</defs>
<path clip-path="url(#clip830)" d="M249.542 1423.18 L2352.76 1423.18 L2352.76 47.2441 L249.542 47.2441  Z" fill="#ffffff" fill-rule="evenodd" fill-opacity="1"/>
<defs>
  <clipPath id="clip832">
    <rect x="249" y="47" width="2104" height="1377"/>
  </clipPath>
</defs>
<polyline clip-path="url(#clip832)" style="stroke:#000000; stroke-linecap:round; stroke-linejoin:round; stroke-width:2; stroke-opacity:0.1; fill:none" points="309.067,1423.18 309.067,47.2441 "/>
<polyline clip-path="url(#clip832)" style="stroke:#000000; stroke-linecap:round; stroke-linejoin:round; stroke-width:2; stroke-opacity:0.1; fill:none" points="940.646,1423.18 940.646,47.2441 "/>
<polyline clip-path="url(#clip832)" style="stroke:#000000; stroke-linecap:round; stroke-linejoin:round; stroke-width:2; stroke-opacity:0.1; fill:none" points="1572.23,1423.18 1572.23,47.2441 "/>
<polyline clip-path="url(#clip832)" style="stroke:#000000; stroke-linecap:round; stroke-linejoin:round; stroke-width:2; stroke-opacity:0.1; fill:none" points="2203.8,1423.18 2203.8,47.2441 "/>
<polyline clip-path="url(#clip830)" style="stroke:#000000; stroke-linecap:round; stroke-linejoin:round; stroke-width:4; stroke-opacity:1; fill:none" points="249.542,1423.18 2352.76,1423.18 "/>
<polyline clip-path="url(#clip830)" style="stroke:#000000; stroke-linecap:round; stroke-linejoin:round; stroke-width:4; stroke-opacity:1; fill:none" points="309.067,1423.18 309.067,1404.28 "/>
<polyline clip-path="url(#clip830)" style="stroke:#000000; stroke-linecap:round; stroke-linejoin:round; stroke-width:4; stroke-opacity:1; fill:none" points="940.646,1423.18 940.646,1404.28 "/>
<polyline clip-path="url(#clip830)" style="stroke:#000000; stroke-linecap:round; stroke-linejoin:round; stroke-width:4; stroke-opacity:1; fill:none" points="1572.23,1423.18 1572.23,1404.28 "/>
<polyline clip-path="url(#clip830)" style="stroke:#000000; stroke-linecap:round; stroke-linejoin:round; stroke-width:4; stroke-opacity:1; fill:none" points="2203.8,1423.18 2203.8,1404.28 "/>
<path clip-path="url(#clip830)" d="M309.067 1454.1 Q305.456 1454.1 303.627 1457.66 Q301.822 1461.2 301.822 1468.33 Q301.822 1475.44 303.627 1479.01 Q305.456 1482.55 309.067 1482.55 Q312.701 1482.55 314.507 1479.01 Q316.335 1475.44 316.335 1468.33 Q316.335 1461.2 314.507 1457.66 Q312.701 1454.1 309.067 1454.1 M309.067 1450.39 Q314.877 1450.39 317.933 1455 Q321.011 1459.58 321.011 1468.33 Q321.011 1477.06 317.933 1481.67 Q314.877 1486.25 309.067 1486.25 Q303.257 1486.25 300.178 1481.67 Q297.123 1477.06 297.123 1468.33 Q297.123 1459.58 300.178 1455 Q303.257 1450.39 309.067 1450.39 Z" fill="#000000" fill-rule="nonzero" fill-opacity="1" /><path clip-path="url(#clip830)" d="M931.028 1481.64 L938.667 1481.64 L938.667 1455.28 L930.357 1456.95 L930.357 1452.69 L938.621 1451.02 L943.296 1451.02 L943.296 1481.64 L950.935 1481.64 L950.935 1485.58 L931.028 1485.58 L931.028 1481.64 Z" fill="#000000" fill-rule="nonzero" fill-opacity="1" /><path clip-path="url(#clip830)" d="M1566.88 1481.64 L1583.2 1481.64 L1583.2 1485.58 L1561.25 1485.58 L1561.25 1481.64 Q1563.91 1478.89 1568.5 1474.26 Q1573.1 1469.61 1574.29 1468.27 Q1576.53 1465.74 1577.41 1464.01 Q1578.31 1462.25 1578.31 1460.56 Q1578.31 1457.8 1576.37 1456.07 Q1574.45 1454.33 1571.35 1454.33 Q1569.15 1454.33 1566.69 1455.09 Q1564.26 1455.86 1561.48 1457.41 L1561.48 1452.69 Q1564.31 1451.55 1566.76 1450.97 Q1569.22 1450.39 1571.25 1450.39 Q1576.62 1450.39 1579.82 1453.08 Q1583.01 1455.77 1583.01 1460.26 Q1583.01 1462.39 1582.2 1464.31 Q1581.41 1466.2 1579.31 1468.8 Q1578.73 1469.47 1575.63 1472.69 Q1572.53 1475.88 1566.88 1481.64 Z" fill="#000000" fill-rule="nonzero" fill-opacity="1" /><path clip-path="url(#clip830)" d="M2208.05 1466.95 Q2211.41 1467.66 2213.28 1469.93 Q2215.18 1472.2 2215.18 1475.53 Q2215.18 1480.65 2211.66 1483.45 Q2208.14 1486.25 2201.66 1486.25 Q2199.49 1486.25 2197.17 1485.81 Q2194.88 1485.39 2192.43 1484.54 L2192.43 1480.02 Q2194.37 1481.16 2196.69 1481.74 Q2199 1482.32 2201.52 1482.32 Q2205.92 1482.32 2208.21 1480.58 Q2210.53 1478.84 2210.53 1475.53 Q2210.53 1472.48 2208.38 1470.77 Q2206.25 1469.03 2202.43 1469.03 L2198.4 1469.03 L2198.4 1465.19 L2202.61 1465.19 Q2206.06 1465.19 2207.89 1463.82 Q2209.72 1462.43 2209.72 1459.84 Q2209.72 1457.18 2207.82 1455.77 Q2205.95 1454.33 2202.43 1454.33 Q2200.51 1454.33 2198.31 1454.75 Q2196.11 1455.16 2193.47 1456.04 L2193.47 1451.88 Q2196.13 1451.14 2198.45 1450.77 Q2200.78 1450.39 2202.84 1450.39 Q2208.17 1450.39 2211.27 1452.83 Q2214.37 1455.23 2214.37 1459.35 Q2214.37 1462.22 2212.73 1464.21 Q2211.08 1466.18 2208.05 1466.95 Z" fill="#000000" fill-rule="nonzero" fill-opacity="1" /><path clip-path="url(#clip830)" d="M1317.76 1532.4 L1304.87 1549.74 L1318.43 1568.04 L1311.53 1568.04 L1301.15 1554.04 L1290.77 1568.04 L1283.87 1568.04 L1297.71 1549.39 L1285.04 1532.4 L1291.95 1532.4 L1301.4 1545.1 L1310.86 1532.4 L1317.76 1532.4 Z" fill="#000000" fill-rule="nonzero" fill-opacity="1" /><polyline clip-path="url(#clip832)" style="stroke:#000000; stroke-linecap:round; stroke-linejoin:round; stroke-width:2; stroke-opacity:0.1; fill:none" points="249.542,1253.8 2352.76,1253.8 "/>
<polyline clip-path="url(#clip832)" style="stroke:#000000; stroke-linecap:round; stroke-linejoin:round; stroke-width:2; stroke-opacity:0.1; fill:none" points="249.542,1076.19 2352.76,1076.19 "/>
<polyline clip-path="url(#clip832)" style="stroke:#000000; stroke-linecap:round; stroke-linejoin:round; stroke-width:2; stroke-opacity:0.1; fill:none" points="249.542,898.572 2352.76,898.572 "/>
<polyline clip-path="url(#clip832)" style="stroke:#000000; stroke-linecap:round; stroke-linejoin:round; stroke-width:2; stroke-opacity:0.1; fill:none" points="249.542,720.957 2352.76,720.957 "/>
<polyline clip-path="url(#clip832)" style="stroke:#000000; stroke-linecap:round; stroke-linejoin:round; stroke-width:2; stroke-opacity:0.1; fill:none" points="249.542,543.341 2352.76,543.341 "/>
<polyline clip-path="url(#clip832)" style="stroke:#000000; stroke-linecap:round; stroke-linejoin:round; stroke-width:2; stroke-opacity:0.1; fill:none" points="249.542,365.725 2352.76,365.725 "/>
<polyline clip-path="url(#clip832)" style="stroke:#000000; stroke-linecap:round; stroke-linejoin:round; stroke-width:2; stroke-opacity:0.1; fill:none" points="249.542,188.11 2352.76,188.11 "/>
<polyline clip-path="url(#clip830)" style="stroke:#000000; stroke-linecap:round; stroke-linejoin:round; stroke-width:4; stroke-opacity:1; fill:none" points="249.542,1423.18 249.542,47.2441 "/>
<polyline clip-path="url(#clip830)" style="stroke:#000000; stroke-linecap:round; stroke-linejoin:round; stroke-width:4; stroke-opacity:1; fill:none" points="249.542,1253.8 268.44,1253.8 "/>
<polyline clip-path="url(#clip830)" style="stroke:#000000; stroke-linecap:round; stroke-linejoin:round; stroke-width:4; stroke-opacity:1; fill:none" points="249.542,1076.19 268.44,1076.19 "/>
<polyline clip-path="url(#clip830)" style="stroke:#000000; stroke-linecap:round; stroke-linejoin:round; stroke-width:4; stroke-opacity:1; fill:none" points="249.542,898.572 268.44,898.572 "/>
<polyline clip-path="url(#clip830)" style="stroke:#000000; stroke-linecap:round; stroke-linejoin:round; stroke-width:4; stroke-opacity:1; fill:none" points="249.542,720.957 268.44,720.957 "/>
<polyline clip-path="url(#clip830)" style="stroke:#000000; stroke-linecap:round; stroke-linejoin:round; stroke-width:4; stroke-opacity:1; fill:none" points="249.542,543.341 268.44,543.341 "/>
<polyline clip-path="url(#clip830)" style="stroke:#000000; stroke-linecap:round; stroke-linejoin:round; stroke-width:4; stroke-opacity:1; fill:none" points="249.542,365.725 268.44,365.725 "/>
<polyline clip-path="url(#clip830)" style="stroke:#000000; stroke-linecap:round; stroke-linejoin:round; stroke-width:4; stroke-opacity:1; fill:none" points="249.542,188.11 268.44,188.11 "/>
<path clip-path="url(#clip830)" d="M127.2 1239.6 Q123.589 1239.6 121.76 1243.17 Q119.955 1246.71 119.955 1253.84 Q119.955 1260.94 121.76 1264.51 Q123.589 1268.05 127.2 1268.05 Q130.834 1268.05 132.64 1264.51 Q134.468 1260.94 134.468 1253.84 Q134.468 1246.71 132.64 1243.17 Q130.834 1239.6 127.2 1239.6 M127.2 1235.9 Q133.01 1235.9 136.066 1240.51 Q139.144 1245.09 139.144 1253.84 Q139.144 1262.57 136.066 1267.17 Q133.01 1271.75 127.2 1271.75 Q121.39 1271.75 118.311 1267.17 Q115.256 1262.57 115.256 1253.84 Q115.256 1245.09 118.311 1240.51 Q121.39 1235.9 127.2 1235.9 Z" fill="#000000" fill-rule="nonzero" fill-opacity="1" /><path clip-path="url(#clip830)" d="M147.362 1265.2 L152.246 1265.2 L152.246 1271.08 L147.362 1271.08 L147.362 1265.2 Z" fill="#000000" fill-rule="nonzero" fill-opacity="1" /><path clip-path="url(#clip830)" d="M172.431 1239.6 Q168.82 1239.6 166.991 1243.17 Q165.186 1246.71 165.186 1253.84 Q165.186 1260.94 166.991 1264.51 Q168.82 1268.05 172.431 1268.05 Q176.065 1268.05 177.871 1264.51 Q179.7 1260.94 179.7 1253.84 Q179.7 1246.71 177.871 1243.17 Q176.065 1239.6 172.431 1239.6 M172.431 1235.9 Q178.241 1235.9 181.297 1240.51 Q184.376 1245.09 184.376 1253.84 Q184.376 1262.57 181.297 1267.17 Q178.241 1271.75 172.431 1271.75 Q166.621 1271.75 163.542 1267.17 Q160.487 1262.57 160.487 1253.84 Q160.487 1245.09 163.542 1240.51 Q166.621 1235.9 172.431 1235.9 Z" fill="#000000" fill-rule="nonzero" fill-opacity="1" /><path clip-path="url(#clip830)" d="M192.639 1236.52 L210.996 1236.52 L210.996 1240.46 L196.922 1240.46 L196.922 1248.93 Q197.94 1248.58 198.959 1248.42 Q199.977 1248.24 200.996 1248.24 Q206.783 1248.24 210.162 1251.41 Q213.542 1254.58 213.542 1260 Q213.542 1265.57 210.07 1268.68 Q206.598 1271.75 200.278 1271.75 Q198.102 1271.75 195.834 1271.38 Q193.588 1271.01 191.181 1270.27 L191.181 1265.57 Q193.264 1266.71 195.487 1267.26 Q197.709 1267.82 200.186 1267.82 Q204.19 1267.82 206.528 1265.71 Q208.866 1263.61 208.866 1260 Q208.866 1256.38 206.528 1254.28 Q204.19 1252.17 200.186 1252.17 Q198.311 1252.17 196.436 1252.59 Q194.584 1253 192.639 1253.88 L192.639 1236.52 Z" fill="#000000" fill-rule="nonzero" fill-opacity="1" /><path clip-path="url(#clip830)" d="M126.205 1061.99 Q122.593 1061.99 120.765 1065.55 Q118.959 1069.09 118.959 1076.22 Q118.959 1083.33 120.765 1086.89 Q122.593 1090.44 126.205 1090.44 Q129.839 1090.44 131.644 1086.89 Q133.473 1083.33 133.473 1076.22 Q133.473 1069.09 131.644 1065.55 Q129.839 1061.99 126.205 1061.99 M126.205 1058.28 Q132.015 1058.28 135.07 1062.89 Q138.149 1067.47 138.149 1076.22 Q138.149 1084.95 135.07 1089.56 Q132.015 1094.14 126.205 1094.14 Q120.394 1094.14 117.316 1089.56 Q114.26 1084.95 114.26 1076.22 Q114.26 1067.47 117.316 1062.89 Q120.394 1058.28 126.205 1058.28 Z" fill="#000000" fill-rule="nonzero" fill-opacity="1" /><path clip-path="url(#clip830)" d="M146.366 1087.59 L151.251 1087.59 L151.251 1093.47 L146.366 1093.47 L146.366 1087.59 Z" fill="#000000" fill-rule="nonzero" fill-opacity="1" /><path clip-path="url(#clip830)" d="M162.246 1089.53 L169.885 1089.53 L169.885 1063.17 L161.575 1064.83 L161.575 1060.57 L169.839 1058.91 L174.514 1058.91 L174.514 1089.53 L182.153 1089.53 L182.153 1093.47 L162.246 1093.47 L162.246 1089.53 Z" fill="#000000" fill-rule="nonzero" fill-opacity="1" /><path clip-path="url(#clip830)" d="M201.598 1061.99 Q197.987 1061.99 196.158 1065.55 Q194.352 1069.09 194.352 1076.22 Q194.352 1083.33 196.158 1086.89 Q197.987 1090.44 201.598 1090.44 Q205.232 1090.44 207.037 1086.89 Q208.866 1083.33 208.866 1076.22 Q208.866 1069.09 207.037 1065.55 Q205.232 1061.99 201.598 1061.99 M201.598 1058.28 Q207.408 1058.28 210.463 1062.89 Q213.542 1067.47 213.542 1076.22 Q213.542 1084.95 210.463 1089.56 Q207.408 1094.14 201.598 1094.14 Q195.787 1094.14 192.709 1089.56 Q189.653 1084.95 189.653 1076.22 Q189.653 1067.47 192.709 1062.89 Q195.787 1058.28 201.598 1058.28 Z" fill="#000000" fill-rule="nonzero" fill-opacity="1" /><path clip-path="url(#clip830)" d="M127.2 884.371 Q123.589 884.371 121.76 887.936 Q119.955 891.477 119.955 898.607 Q119.955 905.713 121.76 909.278 Q123.589 912.82 127.2 912.82 Q130.834 912.82 132.64 909.278 Q134.468 905.713 134.468 898.607 Q134.468 891.477 132.64 887.936 Q130.834 884.371 127.2 884.371 M127.2 880.667 Q133.01 880.667 136.066 885.274 Q139.144 889.857 139.144 898.607 Q139.144 907.334 136.066 911.94 Q133.01 916.524 127.2 916.524 Q121.39 916.524 118.311 911.94 Q115.256 907.334 115.256 898.607 Q115.256 889.857 118.311 885.274 Q121.39 880.667 127.2 880.667 Z" fill="#000000" fill-rule="nonzero" fill-opacity="1" /><path clip-path="url(#clip830)" d="M147.362 909.973 L152.246 909.973 L152.246 915.852 L147.362 915.852 L147.362 909.973 Z" fill="#000000" fill-rule="nonzero" fill-opacity="1" /><path clip-path="url(#clip830)" d="M163.241 911.917 L170.88 911.917 L170.88 885.552 L162.57 887.218 L162.57 882.959 L170.834 881.292 L175.51 881.292 L175.51 911.917 L183.149 911.917 L183.149 915.852 L163.241 915.852 L163.241 911.917 Z" fill="#000000" fill-rule="nonzero" fill-opacity="1" /><path clip-path="url(#clip830)" d="M192.639 881.292 L210.996 881.292 L210.996 885.227 L196.922 885.227 L196.922 893.7 Q197.94 893.352 198.959 893.19 Q199.977 893.005 200.996 893.005 Q206.783 893.005 210.162 896.177 Q213.542 899.348 213.542 904.764 Q213.542 910.343 210.07 913.445 Q206.598 916.524 200.278 916.524 Q198.102 916.524 195.834 916.153 Q193.588 915.783 191.181 915.042 L191.181 910.343 Q193.264 911.477 195.487 912.033 Q197.709 912.588 200.186 912.588 Q204.19 912.588 206.528 910.482 Q208.866 908.376 208.866 904.764 Q208.866 901.153 206.528 899.047 Q204.19 896.94 200.186 896.94 Q198.311 896.94 196.436 897.357 Q194.584 897.774 192.639 898.653 L192.639 881.292 Z" fill="#000000" fill-rule="nonzero" fill-opacity="1" /><path clip-path="url(#clip830)" d="M126.205 706.755 Q122.593 706.755 120.765 710.32 Q118.959 713.862 118.959 720.991 Q118.959 728.098 120.765 731.663 Q122.593 735.204 126.205 735.204 Q129.839 735.204 131.644 731.663 Q133.473 728.098 133.473 720.991 Q133.473 713.862 131.644 710.32 Q129.839 706.755 126.205 706.755 M126.205 703.052 Q132.015 703.052 135.07 707.658 Q138.149 712.241 138.149 720.991 Q138.149 729.718 135.07 734.325 Q132.015 738.908 126.205 738.908 Q120.394 738.908 117.316 734.325 Q114.26 729.718 114.26 720.991 Q114.26 712.241 117.316 707.658 Q120.394 703.052 126.205 703.052 Z" fill="#000000" fill-rule="nonzero" fill-opacity="1" /><path clip-path="url(#clip830)" d="M146.366 732.357 L151.251 732.357 L151.251 738.237 L146.366 738.237 L146.366 732.357 Z" fill="#000000" fill-rule="nonzero" fill-opacity="1" /><path clip-path="url(#clip830)" d="M165.464 734.302 L181.783 734.302 L181.783 738.237 L159.839 738.237 L159.839 734.302 Q162.501 731.547 167.084 726.917 Q171.69 722.265 172.871 720.922 Q175.116 718.399 175.996 716.663 Q176.899 714.903 176.899 713.214 Q176.899 710.459 174.954 708.723 Q173.033 706.987 169.931 706.987 Q167.732 706.987 165.278 707.751 Q162.848 708.515 160.07 710.066 L160.07 705.343 Q162.894 704.209 165.348 703.63 Q167.802 703.052 169.839 703.052 Q175.209 703.052 178.403 705.737 Q181.598 708.422 181.598 712.913 Q181.598 715.042 180.788 716.964 Q180.001 718.862 177.894 721.454 Q177.315 722.126 174.214 725.343 Q171.112 728.538 165.464 734.302 Z" fill="#000000" fill-rule="nonzero" fill-opacity="1" /><path clip-path="url(#clip830)" d="M201.598 706.755 Q197.987 706.755 196.158 710.32 Q194.352 713.862 194.352 720.991 Q194.352 728.098 196.158 731.663 Q197.987 735.204 201.598 735.204 Q205.232 735.204 207.037 731.663 Q208.866 728.098 208.866 720.991 Q208.866 713.862 207.037 710.32 Q205.232 706.755 201.598 706.755 M201.598 703.052 Q207.408 703.052 210.463 707.658 Q213.542 712.241 213.542 720.991 Q213.542 729.718 210.463 734.325 Q207.408 738.908 201.598 738.908 Q195.787 738.908 192.709 734.325 Q189.653 729.718 189.653 720.991 Q189.653 712.241 192.709 707.658 Q195.787 703.052 201.598 703.052 Z" fill="#000000" fill-rule="nonzero" fill-opacity="1" /><path clip-path="url(#clip830)" d="M127.2 529.14 Q123.589 529.14 121.76 532.705 Q119.955 536.246 119.955 543.376 Q119.955 550.482 121.76 554.047 Q123.589 557.589 127.2 557.589 Q130.834 557.589 132.64 554.047 Q134.468 550.482 134.468 543.376 Q134.468 536.246 132.64 532.705 Q130.834 529.14 127.2 529.14 M127.2 525.436 Q133.01 525.436 136.066 530.043 Q139.144 534.626 139.144 543.376 Q139.144 552.103 136.066 556.709 Q133.01 561.292 127.2 561.292 Q121.39 561.292 118.311 556.709 Q115.256 552.103 115.256 543.376 Q115.256 534.626 118.311 530.043 Q121.39 525.436 127.2 525.436 Z" fill="#000000" fill-rule="nonzero" fill-opacity="1" /><path clip-path="url(#clip830)" d="M147.362 554.741 L152.246 554.741 L152.246 560.621 L147.362 560.621 L147.362 554.741 Z" fill="#000000" fill-rule="nonzero" fill-opacity="1" /><path clip-path="url(#clip830)" d="M166.459 556.686 L182.778 556.686 L182.778 560.621 L160.834 560.621 L160.834 556.686 Q163.496 553.931 168.079 549.302 Q172.686 544.649 173.866 543.306 Q176.112 540.783 176.991 539.047 Q177.894 537.288 177.894 535.598 Q177.894 532.843 175.95 531.107 Q174.028 529.371 170.927 529.371 Q168.727 529.371 166.274 530.135 Q163.843 530.899 161.065 532.45 L161.065 527.728 Q163.89 526.593 166.343 526.015 Q168.797 525.436 170.834 525.436 Q176.204 525.436 179.399 528.121 Q182.593 530.806 182.593 535.297 Q182.593 537.427 181.783 539.348 Q180.996 541.246 178.889 543.839 Q178.311 544.51 175.209 547.728 Q172.107 550.922 166.459 556.686 Z" fill="#000000" fill-rule="nonzero" fill-opacity="1" /><path clip-path="url(#clip830)" d="M192.639 526.061 L210.996 526.061 L210.996 529.996 L196.922 529.996 L196.922 538.468 Q197.94 538.121 198.959 537.959 Q199.977 537.774 200.996 537.774 Q206.783 537.774 210.162 540.945 Q213.542 544.117 213.542 549.533 Q213.542 555.112 210.07 558.214 Q206.598 561.292 200.278 561.292 Q198.102 561.292 195.834 560.922 Q193.588 560.552 191.181 559.811 L191.181 555.112 Q193.264 556.246 195.487 556.802 Q197.709 557.357 200.186 557.357 Q204.19 557.357 206.528 555.251 Q208.866 553.144 208.866 549.533 Q208.866 545.922 206.528 543.816 Q204.19 541.709 200.186 541.709 Q198.311 541.709 196.436 542.126 Q194.584 542.542 192.639 543.422 L192.639 526.061 Z" fill="#000000" fill-rule="nonzero" fill-opacity="1" /><path clip-path="url(#clip830)" d="M126.205 351.524 Q122.593 351.524 120.765 355.089 Q118.959 358.631 118.959 365.76 Q118.959 372.867 120.765 376.431 Q122.593 379.973 126.205 379.973 Q129.839 379.973 131.644 376.431 Q133.473 372.867 133.473 365.76 Q133.473 358.631 131.644 355.089 Q129.839 351.524 126.205 351.524 M126.205 347.82 Q132.015 347.82 135.07 352.427 Q138.149 357.01 138.149 365.76 Q138.149 374.487 135.07 379.093 Q132.015 383.677 126.205 383.677 Q120.394 383.677 117.316 379.093 Q114.26 374.487 114.26 365.76 Q114.26 357.01 117.316 352.427 Q120.394 347.82 126.205 347.82 Z" fill="#000000" fill-rule="nonzero" fill-opacity="1" /><path clip-path="url(#clip830)" d="M146.366 377.126 L151.251 377.126 L151.251 383.005 L146.366 383.005 L146.366 377.126 Z" fill="#000000" fill-rule="nonzero" fill-opacity="1" /><path clip-path="url(#clip830)" d="M175.602 364.371 Q178.959 365.089 180.834 367.357 Q182.732 369.626 182.732 372.959 Q182.732 378.075 179.214 380.876 Q175.695 383.677 169.214 383.677 Q167.038 383.677 164.723 383.237 Q162.431 382.82 159.978 381.964 L159.978 377.45 Q161.922 378.584 164.237 379.163 Q166.552 379.742 169.075 379.742 Q173.473 379.742 175.764 378.005 Q178.079 376.269 178.079 372.959 Q178.079 369.904 175.926 368.191 Q173.797 366.455 169.977 366.455 L165.95 366.455 L165.95 362.612 L170.163 362.612 Q173.612 362.612 175.44 361.246 Q177.269 359.857 177.269 357.265 Q177.269 354.603 175.371 353.191 Q173.496 351.756 169.977 351.756 Q168.056 351.756 165.857 352.172 Q163.658 352.589 161.019 353.469 L161.019 349.302 Q163.681 348.561 165.996 348.191 Q168.334 347.82 170.394 347.82 Q175.718 347.82 178.82 350.251 Q181.922 352.658 181.922 356.779 Q181.922 359.649 180.278 361.64 Q178.635 363.607 175.602 364.371 Z" fill="#000000" fill-rule="nonzero" fill-opacity="1" /><path clip-path="url(#clip830)" d="M201.598 351.524 Q197.987 351.524 196.158 355.089 Q194.352 358.631 194.352 365.76 Q194.352 372.867 196.158 376.431 Q197.987 379.973 201.598 379.973 Q205.232 379.973 207.037 376.431 Q208.866 372.867 208.866 365.76 Q208.866 358.631 207.037 355.089 Q205.232 351.524 201.598 351.524 M201.598 347.82 Q207.408 347.82 210.463 352.427 Q213.542 357.01 213.542 365.76 Q213.542 374.487 210.463 379.093 Q207.408 383.677 201.598 383.677 Q195.787 383.677 192.709 379.093 Q189.653 374.487 189.653 365.76 Q189.653 357.01 192.709 352.427 Q195.787 347.82 201.598 347.82 Z" fill="#000000" fill-rule="nonzero" fill-opacity="1" /><path clip-path="url(#clip830)" d="M127.2 173.908 Q123.589 173.908 121.76 177.473 Q119.955 181.015 119.955 188.144 Q119.955 195.251 121.76 198.816 Q123.589 202.357 127.2 202.357 Q130.834 202.357 132.64 198.816 Q134.468 195.251 134.468 188.144 Q134.468 181.015 132.64 177.473 Q130.834 173.908 127.2 173.908 M127.2 170.205 Q133.01 170.205 136.066 174.811 Q139.144 179.395 139.144 188.144 Q139.144 196.871 136.066 201.478 Q133.01 206.061 127.2 206.061 Q121.39 206.061 118.311 201.478 Q115.256 196.871 115.256 188.144 Q115.256 179.395 118.311 174.811 Q121.39 170.205 127.2 170.205 Z" fill="#000000" fill-rule="nonzero" fill-opacity="1" /><path clip-path="url(#clip830)" d="M147.362 199.51 L152.246 199.51 L152.246 205.39 L147.362 205.39 L147.362 199.51 Z" fill="#000000" fill-rule="nonzero" fill-opacity="1" /><path clip-path="url(#clip830)" d="M176.598 186.756 Q179.954 187.473 181.829 189.742 Q183.727 192.01 183.727 195.344 Q183.727 200.459 180.209 203.26 Q176.69 206.061 170.209 206.061 Q168.033 206.061 165.718 205.621 Q163.427 205.205 160.973 204.348 L160.973 199.834 Q162.917 200.968 165.232 201.547 Q167.547 202.126 170.07 202.126 Q174.468 202.126 176.76 200.39 Q179.075 198.654 179.075 195.344 Q179.075 192.288 176.922 190.575 Q174.792 188.839 170.973 188.839 L166.945 188.839 L166.945 184.996 L171.158 184.996 Q174.607 184.996 176.436 183.631 Q178.264 182.242 178.264 179.649 Q178.264 176.987 176.366 175.575 Q174.491 174.14 170.973 174.14 Q169.052 174.14 166.852 174.557 Q164.653 174.973 162.015 175.853 L162.015 171.686 Q164.677 170.946 166.991 170.575 Q169.329 170.205 171.389 170.205 Q176.714 170.205 179.815 172.635 Q182.917 175.043 182.917 179.163 Q182.917 182.033 181.274 184.024 Q179.63 185.992 176.598 186.756 Z" fill="#000000" fill-rule="nonzero" fill-opacity="1" /><path clip-path="url(#clip830)" d="M192.639 170.83 L210.996 170.83 L210.996 174.765 L196.922 174.765 L196.922 183.237 Q197.94 182.89 198.959 182.728 Q199.977 182.543 200.996 182.543 Q206.783 182.543 210.162 185.714 Q213.542 188.885 213.542 194.302 Q213.542 199.881 210.07 202.982 Q206.598 206.061 200.278 206.061 Q198.102 206.061 195.834 205.691 Q193.588 205.32 191.181 204.58 L191.181 199.881 Q193.264 201.015 195.487 201.57 Q197.709 202.126 200.186 202.126 Q204.19 202.126 206.528 200.019 Q208.866 197.913 208.866 194.302 Q208.866 190.691 206.528 188.584 Q204.19 186.478 200.186 186.478 Q198.311 186.478 196.436 186.894 Q194.584 187.311 192.639 188.191 L192.639 170.83 Z" fill="#000000" fill-rule="nonzero" fill-opacity="1" /><path clip-path="url(#clip830)" d="M29.7248 765.051 L35.1993 765.051 Q33.8307 767.534 33.1623 770.048 Q32.4621 772.531 32.4621 775.077 Q32.4621 780.775 36.0905 783.926 Q39.6872 787.077 46.212 787.077 Q52.7369 787.077 56.3653 783.926 Q59.9619 780.775 59.9619 775.077 Q59.9619 772.531 59.2935 770.048 Q58.5933 767.534 57.2247 765.051 L62.6355 765.051 Q63.7814 767.502 64.3543 770.144 Q64.9272 772.754 64.9272 775.714 Q64.9272 783.766 59.8664 788.509 Q54.8057 793.251 46.212 793.251 Q37.491 793.251 32.4939 788.477 Q27.4968 783.671 27.4968 775.332 Q27.4968 772.626 28.0697 770.048 Q28.6108 767.47 29.7248 765.051 Z" fill="#000000" fill-rule="nonzero" fill-opacity="1" /><path clip-path="url(#clip830)" d="M14.5426 740.798 Q21.8632 745.063 29.0246 747.132 Q36.186 749.201 43.5384 749.201 Q50.8908 749.201 58.1159 747.132 Q65.3091 745.031 72.5979 740.798 L72.5979 745.89 Q65.1182 750.665 57.8931 753.052 Q50.668 755.407 43.5384 755.407 Q36.4406 755.407 29.2474 753.052 Q22.0542 750.697 14.5426 745.89 L14.5426 740.798 Z" fill="#000000" fill-rule="nonzero" fill-opacity="1" /><path clip-path="url(#clip830)" d="M28.3562 699.803 L45.7028 712.693 L64.0042 699.134 L64.0042 706.041 L49.9996 716.417 L64.0042 726.793 L64.0042 733.7 L45.3526 719.855 L28.3562 732.522 L28.3562 725.616 L41.0558 716.163 L28.3562 706.71 L28.3562 699.803 Z" fill="#000000" fill-rule="nonzero" fill-opacity="1" /><path clip-path="url(#clip830)" d="M14.5426 691.782 L14.5426 686.689 Q22.0542 681.915 29.2474 679.56 Q36.4406 677.173 43.5384 677.173 Q50.668 677.173 57.8931 679.56 Q65.1182 681.915 72.5979 686.689 L72.5979 691.782 Q65.3091 687.549 58.1159 685.48 Q50.8908 683.379 43.5384 683.379 Q36.186 683.379 29.0246 685.48 Q21.8632 687.549 14.5426 691.782 Z" fill="#000000" fill-rule="nonzero" fill-opacity="1" /><polyline clip-path="url(#clip832)" style="stroke:#009af9; stroke-linecap:round; stroke-linejoin:round; stroke-width:4; stroke-opacity:1; fill:none" points="309.067,1384.24 319.038,1374.88 329.008,1364.04 338.979,1351.56 348.95,1337.3 358.92,1321.1 368.891,1302.82 378.862,1282.34 388.832,1259.56 398.803,1234.37 408.774,1206.75 418.744,1176.66 428.715,1144.12 438.686,1109.2 448.656,1072.02 458.627,1032.74 468.598,991.584 478.568,948.816 488.539,904.762 498.51,859.794 508.48,814.326 518.451,768.808 528.422,723.718 538.392,679.551 548.363,636.807 558.334,595.979 568.304,557.54 578.275,521.924 588.246,489.523 598.216,460.662 608.187,435.598 618.158,414.502 628.129,397.456 638.099,384.445 648.07,375.359 658.041,369.987 668.011,368.027 677.982,369.089 687.953,372.708 697.923,378.353 707.894,385.449 717.865,393.386 727.835,401.545 737.806,409.311 747.777,416.1 757.747,421.373 767.718,424.653 777.689,425.549 787.659,423.76 797.63,419.094 807.601,411.472 817.571,400.931 827.542,387.63 837.513,371.84 847.483,353.941 857.454,334.41 867.425,313.806 877.395,292.757 887.366,271.937 897.337,252.051 907.307,233.807 917.278,217.902 927.249,204.996 937.219,195.695 947.19,190.535 957.161,189.963 967.131,194.329 977.102,203.874 987.073,218.728 997.043,238.905 1007.01,264.305 1016.98,294.723 1026.96,329.852 1036.93,369.297 1046.9,412.587 1056.87,459.189 1066.84,508.524 1076.81,559.983 1086.78,612.945 1096.75,666.786 1106.72,720.902 1116.69,774.715 1126.66,827.685 1136.63,879.321 1146.6,929.186 1156.57,976.9 1166.54,1022.15 1176.52,1064.67 1186.49,1104.26 1196.46,1140.78 1206.43,1174.15 1216.4,1204.3 1226.37,1231.22 1236.34,1254.95 1246.31,1275.52 1256.28,1292.99 1266.25,1307.43 1276.22,1318.93 1286.19,1327.55 1296.16,1333.37 1306.13,1336.44 1316.1,1336.83 1326.08,1334.56 1336.05,1329.68 1346.02,1322.21 1355.99,1312.15 1365.96,1299.53 1375.93,1284.36 1385.9,1266.65 1395.87,1246.43 1405.84,1223.75 1415.81,1198.67 1425.78,1171.29 1435.75,1141.72 1445.72,1110.13 1455.69,1076.7 1465.67,1041.66 1475.64,1005.29 1485.61,967.883 1495.58,929.789 1505.55,891.374 1515.52,853.029 1525.49,815.16 1535.46,778.18 1545.43,742.496 1555.4,708.501 1565.37,676.56 1575.34,646.999 1585.31,620.094 1595.28,596.063 1605.25,575.053 1615.23,557.133 1625.2,542.294 1635.17,530.44 1645.14,521.391 1655.11,514.885 1665.08,510.583 1675.05,508.078 1685.02,506.906 1694.99,506.558 1704.96,506.497 1714.93,506.175 1724.9,505.047 1734.87,502.596 1744.84,498.345 1754.81,491.878 1764.79,482.855 1774.76,471.026 1784.73,456.241 1794.7,438.462 1804.67,417.765 1814.64,394.342 1824.61,368.5 1834.58,340.653 1844.55,311.315 1854.52,281.086 1864.49,250.636 1874.46,220.684 1884.43,191.985 1894.4,165.301 1904.37,141.384 1914.35,120.952 1924.32,104.67 1934.29,93.1306 1944.26,86.8357 1954.23,86.1857 1964.2,91.4668 1974.17,102.845 1984.14,120.362 1994.11,143.936 2004.08,173.369 2014.05,208.347 2024.02,248.458 2033.99,293.201 2043.96,342.005 2053.93,394.239 2063.91,449.236 2073.88,506.308 2083.85,564.762 2093.82,623.918 2103.79,683.123 2113.76,741.764 2123.73,799.281 2133.7,855.17 2143.67,908.996 2153.64,960.394 2163.61,1009.07 2173.58,1054.79 2183.55,1097.42 2193.52,1136.85 2203.49,1173.05 2213.47,1206.06 2223.44,1235.93 2233.41,1262.78 2243.38,1286.74 2253.35,1307.98 2263.32,1326.69 2273.29,1343.05 2283.26,1357.27 2293.23,1369.54 "/>
<path clip-path="url(#clip830)" d="M319.649 196.789 L828.626 196.789 L828.626 93.1086 L319.649 93.1086  Z" fill="#ffffff" fill-rule="evenodd" fill-opacity="1"/>
<polyline clip-path="url(#clip830)" style="stroke:#000000; stroke-linecap:round; stroke-linejoin:round; stroke-width:4; stroke-opacity:1; fill:none" points="319.649,196.789 828.626,196.789 828.626,93.1086 319.649,93.1086 319.649,196.789 "/>
<polyline clip-path="url(#clip830)" style="stroke:#009af9; stroke-linecap:round; stroke-linejoin:round; stroke-width:4; stroke-opacity:1; fill:none" points="343.018,144.949 483.232,144.949 "/>
<path clip-path="url(#clip830)" d="M519.796 162.229 L506.602 127.669 L511.486 127.669 L522.435 156.766 L533.407 127.669 L538.268 127.669 L525.097 162.229 L519.796 162.229 Z" fill="#000000" fill-rule="nonzero" fill-opacity="1" /><path clip-path="url(#clip830)" d="M561.624 148.201 L561.624 150.284 L542.041 150.284 Q542.319 154.682 544.68 156.997 Q547.064 159.289 551.3 159.289 Q553.754 159.289 556.046 158.687 Q558.36 158.085 560.629 156.881 L560.629 160.909 Q558.337 161.881 555.93 162.391 Q553.523 162.9 551.046 162.9 Q544.842 162.9 541.208 159.289 Q537.597 155.678 537.597 149.52 Q537.597 143.155 541.023 139.428 Q544.472 135.678 550.305 135.678 Q555.536 135.678 558.569 139.057 Q561.624 142.414 561.624 148.201 M557.365 146.951 Q557.319 143.456 555.398 141.372 Q553.499 139.289 550.351 139.289 Q546.786 139.289 544.634 141.303 Q542.504 143.317 542.18 146.974 L557.365 146.951 Z" fill="#000000" fill-rule="nonzero" fill-opacity="1" /><path clip-path="url(#clip830)" d="M568.615 126.21 L572.874 126.21 L572.874 162.229 L568.615 162.229 L568.615 126.21 Z" fill="#000000" fill-rule="nonzero" fill-opacity="1" /><path clip-path="url(#clip830)" d="M591.833 139.289 Q588.407 139.289 586.416 141.974 Q584.425 144.636 584.425 149.289 Q584.425 153.942 586.393 156.627 Q588.383 159.289 591.833 159.289 Q595.235 159.289 597.226 156.604 Q599.217 153.918 599.217 149.289 Q599.217 144.682 597.226 141.997 Q595.235 139.289 591.833 139.289 M591.833 135.678 Q597.388 135.678 600.559 139.289 Q603.731 142.9 603.731 149.289 Q603.731 155.655 600.559 159.289 Q597.388 162.9 591.833 162.9 Q586.254 162.9 583.083 159.289 Q579.934 155.655 579.934 149.289 Q579.934 142.9 583.083 139.289 Q586.254 135.678 591.833 135.678 Z" fill="#000000" fill-rule="nonzero" fill-opacity="1" /><path clip-path="url(#clip830)" d="M629.448 137.298 L629.448 141.28 Q627.643 140.284 625.814 139.798 Q624.008 139.289 622.156 139.289 Q618.013 139.289 615.721 141.928 Q613.43 144.544 613.43 149.289 Q613.43 154.034 615.721 156.673 Q618.013 159.289 622.156 159.289 Q624.008 159.289 625.814 158.803 Q627.643 158.293 629.448 157.298 L629.448 161.233 Q627.666 162.067 625.744 162.483 Q623.846 162.9 621.693 162.9 Q615.837 162.9 612.388 159.219 Q608.939 155.539 608.939 149.289 Q608.939 142.946 612.411 139.312 Q615.906 135.678 621.971 135.678 Q623.939 135.678 625.814 136.095 Q627.689 136.488 629.448 137.298 Z" fill="#000000" fill-rule="nonzero" fill-opacity="1" /><path clip-path="url(#clip830)" d="M636.855 136.303 L641.115 136.303 L641.115 162.229 L636.855 162.229 L636.855 136.303 M636.855 126.21 L641.115 126.21 L641.115 131.604 L636.855 131.604 L636.855 126.21 Z" fill="#000000" fill-rule="nonzero" fill-opacity="1" /><path clip-path="url(#clip830)" d="M654.24 128.942 L654.24 136.303 L663.013 136.303 L663.013 139.613 L654.24 139.613 L654.24 153.687 Q654.24 156.858 655.096 157.761 Q655.976 158.664 658.638 158.664 L663.013 158.664 L663.013 162.229 L658.638 162.229 Q653.707 162.229 651.832 160.4 Q649.957 158.548 649.957 153.687 L649.957 139.613 L646.832 139.613 L646.832 136.303 L649.957 136.303 L649.957 128.942 L654.24 128.942 Z" fill="#000000" fill-rule="nonzero" fill-opacity="1" /><path clip-path="url(#clip830)" d="M679.402 164.636 Q677.596 169.266 675.883 170.678 Q674.17 172.09 671.3 172.09 L667.897 172.09 L667.897 168.525 L670.397 168.525 Q672.156 168.525 673.128 167.692 Q674.101 166.858 675.281 163.756 L676.045 161.812 L665.559 136.303 L670.073 136.303 L678.175 156.581 L686.276 136.303 L690.79 136.303 L679.402 164.636 Z" fill="#000000" fill-rule="nonzero" fill-opacity="1" /><path clip-path="url(#clip830)" d="M724.864 126.21 L724.864 129.752 L720.79 129.752 Q718.499 129.752 717.596 130.678 Q716.716 131.604 716.716 134.011 L716.716 136.303 L723.73 136.303 L723.73 139.613 L716.716 139.613 L716.716 162.229 L712.434 162.229 L712.434 139.613 L708.36 139.613 L708.36 136.303 L712.434 136.303 L712.434 134.497 Q712.434 130.169 714.448 128.201 Q716.461 126.21 720.836 126.21 L724.864 126.21 Z" fill="#000000" fill-rule="nonzero" fill-opacity="1" /><path clip-path="url(#clip830)" d="M728.429 136.303 L732.688 136.303 L732.688 162.229 L728.429 162.229 L728.429 136.303 M728.429 126.21 L732.688 126.21 L732.688 131.604 L728.429 131.604 L728.429 126.21 Z" fill="#000000" fill-rule="nonzero" fill-opacity="1" /><path clip-path="url(#clip830)" d="M763.776 148.201 L763.776 150.284 L744.193 150.284 Q744.471 154.682 746.832 156.997 Q749.216 159.289 753.452 159.289 Q755.906 159.289 758.197 158.687 Q760.512 158.085 762.781 156.881 L762.781 160.909 Q760.489 161.881 758.082 162.391 Q755.674 162.9 753.197 162.9 Q746.994 162.9 743.359 159.289 Q739.748 155.678 739.748 149.52 Q739.748 143.155 743.174 139.428 Q746.623 135.678 752.457 135.678 Q757.688 135.678 760.721 139.057 Q763.776 142.414 763.776 148.201 M759.517 146.951 Q759.471 143.456 757.549 141.372 Q755.651 139.289 752.503 139.289 Q748.938 139.289 746.785 141.303 Q744.656 143.317 744.332 146.974 L759.517 146.951 Z" fill="#000000" fill-rule="nonzero" fill-opacity="1" /><path clip-path="url(#clip830)" d="M770.767 126.21 L775.026 126.21 L775.026 162.229 L770.767 162.229 L770.767 126.21 Z" fill="#000000" fill-rule="nonzero" fill-opacity="1" /><path clip-path="url(#clip830)" d="M800.998 140.238 L800.998 126.21 L805.257 126.21 L805.257 162.229 L800.998 162.229 L800.998 158.34 Q799.655 160.655 797.595 161.789 Q795.558 162.9 792.688 162.9 Q787.989 162.9 785.026 159.15 Q782.086 155.4 782.086 149.289 Q782.086 143.178 785.026 139.428 Q787.989 135.678 792.688 135.678 Q795.558 135.678 797.595 136.812 Q799.655 137.923 800.998 140.238 M786.484 149.289 Q786.484 153.988 788.406 156.673 Q790.35 159.335 793.73 159.335 Q797.109 159.335 799.054 156.673 Q800.998 153.988 800.998 149.289 Q800.998 144.59 799.054 141.928 Q797.109 139.243 793.73 139.243 Q790.35 139.243 788.406 141.928 Q786.484 144.59 786.484 149.289 Z" fill="#000000" fill-rule="nonzero" fill-opacity="1" /></svg>
