<?xml version="1.0" encoding="utf-8"?>
<svg xmlns="http://www.w3.org/2000/svg" xmlns:xlink="http://www.w3.org/1999/xlink" width="600" height="400" viewBox="0 0 2400 1600">
<defs>
  <clipPath id="clip110">
    <rect x="0" y="0" width="2400" height="1600"/>
  </clipPath>
</defs>
<path clip-path="url(#clip110)" d="M0 1600 L2400 1600 L2400 0 L0 0  Z" fill="#ffffff" fill-rule="evenodd" fill-opacity="1"/>
<defs>
  <clipPath id="clip111">
    <rect x="480" y="0" width="1681" height="1600"/>
  </clipPath>
</defs>
<path clip-path="url(#clip110)" d="M219.866 1423.18 L2352.76 1423.18 L2352.76 47.2441 L219.866 47.2441  Z" fill="#ffffff" fill-rule="evenodd" fill-opacity="1"/>
<defs>
  <clipPath id="clip112">
    <rect x="219" y="47" width="2134" height="1377"/>
  </clipPath>
</defs>
<polyline clip-path="url(#clip112)" style="stroke:#000000; stroke-linecap:round; stroke-linejoin:round; stroke-width:2; stroke-opacity:0.1; fill:none" points="280.231,1423.18 280.231,47.2441 "/>
<polyline clip-path="url(#clip112)" style="stroke:#000000; stroke-linecap:round; stroke-linejoin:round; stroke-width:2; stroke-opacity:0.1; fill:none" points="920.721,1423.18 920.721,47.2441 "/>
<polyline clip-path="url(#clip112)" style="stroke:#000000; stroke-linecap:round; stroke-linejoin:round; stroke-width:2; stroke-opacity:0.1; fill:none" points="1561.21,1423.18 1561.21,47.2441 "/>
<polyline clip-path="url(#clip112)" style="stroke:#000000; stroke-linecap:round; stroke-linejoin:round; stroke-width:2; stroke-opacity:0.1; fill:none" points="2201.7,1423.18 2201.7,47.2441 "/>
<polyline clip-path="url(#clip110)" style="stroke:#000000; stroke-linecap:round; stroke-linejoin:round; stroke-width:4; stroke-opacity:1; fill:none" points="219.866,1423.18 2352.76,1423.18 "/>
<polyline clip-path="url(#clip110)" style="stroke:#000000; stroke-linecap:round; stroke-linejoin:round; stroke-width:4; stroke-opacity:1; fill:none" points="280.231,1423.18 280.231,1404.28 "/>
<polyline clip-path="url(#clip110)" style="stroke:#000000; stroke-linecap:round; stroke-linejoin:round; stroke-width:4; stroke-opacity:1; fill:none" points="920.721,1423.18 920.721,1404.28 "/>
<polyline clip-path="url(#clip110)" style="stroke:#000000; stroke-linecap:round; stroke-linejoin:round; stroke-width:4; stroke-opacity:1; fill:none" points="1561.21,1423.18 1561.21,1404.28 "/>
<polyline clip-path="url(#clip110)" style="stroke:#000000; stroke-linecap:round; stroke-linejoin:round; stroke-width:4; stroke-opacity:1; fill:none" points="2201.7,1423.18 2201.7,1404.28 "/>
<path clip-path="url(#clip110)" d="M280.231 1454.1 Q276.62 1454.1 274.791 1457.66 Q272.986 1461.2 272.986 1468.33 Q272.986 1475.44 274.791 1479.01 Q276.62 1482.55 280.231 1482.55 Q283.865 1482.55 285.671 1479.01 Q287.5 1475.44 287.5 1468.33 Q287.5 1461.2 285.671 1457.66 Q283.865 1454.1 280.231 1454.1 M280.231 1450.39 Q286.041 1450.39 289.097 1455 Q292.175 1459.58 292.175 1468.33 Q292.175 1477.06 289.097 1481.67 Q286.041 1486.25 280.231 1486.25 Q274.421 1486.25 271.342 1481.67 Q268.287 1477.06 268.287 1468.33 Q268.287 1459.58 271.342 1455 Q274.421 1450.39 280.231 1450.39 Z" fill="#000000" fill-rule="nonzero" fill-opacity="1" /><path clip-path="url(#clip110)" d="M911.103 1481.64 L918.742 1481.64 L918.742 1455.28 L910.432 1456.95 L910.432 1452.69 L918.696 1451.02 L923.372 1451.02 L923.372 1481.64 L931.011 1481.64 L931.011 1485.58 L911.103 1485.58 L911.103 1481.64 Z" fill="#000000" fill-rule="nonzero" fill-opacity="1" /><path clip-path="url(#clip110)" d="M1555.86 1481.64 L1572.18 1481.64 L1572.18 1485.58 L1550.24 1485.58 L1550.24 1481.64 Q1552.9 1478.89 1557.49 1474.26 Q1562.09 1469.61 1563.27 1468.27 Q1565.52 1465.74 1566.4 1464.01 Q1567.3 1462.25 1567.3 1460.56 Q1567.3 1457.8 1565.36 1456.07 Q1563.43 1454.33 1560.33 1454.33 Q1558.13 1454.33 1555.68 1455.09 Q1553.25 1455.86 1550.47 1457.41 L1550.47 1452.69 Q1553.3 1451.55 1555.75 1450.97 Q1558.2 1450.39 1560.24 1450.39 Q1565.61 1450.39 1568.8 1453.08 Q1572 1455.77 1572 1460.26 Q1572 1462.39 1571.19 1464.31 Q1570.4 1466.2 1568.3 1468.8 Q1567.72 1469.47 1564.61 1472.69 Q1561.51 1475.88 1555.86 1481.64 Z" fill="#000000" fill-rule="nonzero" fill-opacity="1" /><path clip-path="url(#clip110)" d="M2205.95 1466.95 Q2209.31 1467.66 2211.18 1469.93 Q2213.08 1472.2 2213.08 1475.53 Q2213.08 1480.65 2209.56 1483.45 Q2206.04 1486.25 2199.56 1486.25 Q2197.39 1486.25 2195.07 1485.81 Q2192.78 1485.39 2190.33 1484.54 L2190.33 1480.02 Q2192.27 1481.16 2194.58 1481.74 Q2196.9 1482.32 2199.42 1482.32 Q2203.82 1482.32 2206.11 1480.58 Q2208.43 1478.84 2208.43 1475.53 Q2208.43 1472.48 2206.27 1470.77 Q2204.14 1469.03 2200.33 1469.03 L2196.3 1469.03 L2196.3 1465.19 L2200.51 1465.19 Q2203.96 1465.19 2205.79 1463.82 Q2207.62 1462.43 2207.62 1459.84 Q2207.62 1457.18 2205.72 1455.77 Q2203.84 1454.33 2200.33 1454.33 Q2198.4 1454.33 2196.2 1454.75 Q2194.01 1455.16 2191.37 1456.04 L2191.37 1451.88 Q2194.03 1451.14 2196.34 1450.77 Q2198.68 1450.39 2200.74 1450.39 Q2206.07 1450.39 2209.17 1452.83 Q2212.27 1455.23 2212.27 1459.35 Q2212.27 1462.22 2210.63 1464.21 Q2208.98 1466.18 2205.95 1466.95 Z" fill="#000000" fill-rule="nonzero" fill-opacity="1" /><path clip-path="url(#clip110)" d="M1302.93 1532.4 L1290.04 1549.74 L1303.59 1568.04 L1296.69 1568.04 L1286.31 1554.04 L1275.93 1568.04 L1269.03 1568.04 L1282.87 1549.39 L1270.21 1532.4 L1277.11 1532.4 L1286.57 1545.1 L1296.02 1532.4 L1302.93 1532.4 Z" fill="#000000" fill-rule="nonzero" fill-opacity="1" /><polyline clip-path="url(#clip112)" style="stroke:#000000; stroke-linecap:round; stroke-linejoin:round; stroke-width:2; stroke-opacity:0.1; fill:none" points="219.866,1404.17 2352.76,1404.17 "/>
<polyline clip-path="url(#clip112)" style="stroke:#000000; stroke-linecap:round; stroke-linejoin:round; stroke-width:2; stroke-opacity:0.1; fill:none" points="219.866,1122.61 2352.76,1122.61 "/>
<polyline clip-path="url(#clip112)" style="stroke:#000000; stroke-linecap:round; stroke-linejoin:round; stroke-width:2; stroke-opacity:0.1; fill:none" points="219.866,841.043 2352.76,841.043 "/>
<polyline clip-path="url(#clip112)" style="stroke:#000000; stroke-linecap:round; stroke-linejoin:round; stroke-width:2; stroke-opacity:0.1; fill:none" points="219.866,559.479 2352.76,559.479 "/>
<polyline clip-path="url(#clip112)" style="stroke:#000000; stroke-linecap:round; stroke-linejoin:round; stroke-width:2; stroke-opacity:0.1; fill:none" points="219.866,277.915 2352.76,277.915 "/>
<polyline clip-path="url(#clip110)" style="stroke:#000000; stroke-linecap:round; stroke-linejoin:round; stroke-width:4; stroke-opacity:1; fill:none" points="219.866,1423.18 219.866,47.2441 "/>
<polyline clip-path="url(#clip110)" style="stroke:#000000; stroke-linecap:round; stroke-linejoin:round; stroke-width:4; stroke-opacity:1; fill:none" points="219.866,1404.17 238.764,1404.17 "/>
<polyline clip-path="url(#clip110)" style="stroke:#000000; stroke-linecap:round; stroke-linejoin:round; stroke-width:4; stroke-opacity:1; fill:none" points="219.866,1122.61 238.764,1122.61 "/>
<polyline clip-path="url(#clip110)" style="stroke:#000000; stroke-linecap:round; stroke-linejoin:round; stroke-width:4; stroke-opacity:1; fill:none" points="219.866,841.043 238.764,841.043 "/>
<polyline clip-path="url(#clip110)" style="stroke:#000000; stroke-linecap:round; stroke-linejoin:round; stroke-width:4; stroke-opacity:1; fill:none" points="219.866,559.479 238.764,559.479 "/>
<polyline clip-path="url(#clip110)" style="stroke:#000000; stroke-linecap:round; stroke-linejoin:round; stroke-width:4; stroke-opacity:1; fill:none" points="219.866,277.915 238.764,277.915 "/>
<path clip-path="url(#clip110)" d="M126.691 1389.97 Q123.08 1389.97 121.251 1393.53 Q119.445 1397.08 119.445 1404.21 Q119.445 1411.31 121.251 1414.88 Q123.08 1418.42 126.691 1418.42 Q130.325 1418.42 132.13 1414.88 Q133.959 1411.31 133.959 1404.21 Q133.959 1397.08 132.13 1393.53 Q130.325 1389.97 126.691 1389.97 M126.691 1386.27 Q132.501 1386.27 135.556 1390.87 Q138.635 1395.46 138.635 1404.21 Q138.635 1412.93 135.556 1417.54 Q132.501 1422.12 126.691 1422.12 Q120.88 1422.12 117.802 1417.54 Q114.746 1412.93 114.746 1404.21 Q114.746 1395.46 117.802 1390.87 Q120.88 1386.27 126.691 1386.27 Z" fill="#000000" fill-rule="nonzero" fill-opacity="1" /><path clip-path="url(#clip110)" d="M146.853 1415.57 L151.737 1415.57 L151.737 1421.45 L146.853 1421.45 L146.853 1415.57 Z" fill="#000000" fill-rule="nonzero" fill-opacity="1" /><path clip-path="url(#clip110)" d="M171.922 1389.97 Q168.311 1389.97 166.482 1393.53 Q164.677 1397.08 164.677 1404.21 Q164.677 1411.31 166.482 1414.88 Q168.311 1418.42 171.922 1418.42 Q175.556 1418.42 177.362 1414.88 Q179.19 1411.31 179.19 1404.21 Q179.19 1397.08 177.362 1393.53 Q175.556 1389.97 171.922 1389.97 M171.922 1386.27 Q177.732 1386.27 180.788 1390.87 Q183.866 1395.46 183.866 1404.21 Q183.866 1412.93 180.788 1417.54 Q177.732 1422.12 171.922 1422.12 Q166.112 1422.12 163.033 1417.54 Q159.978 1412.93 159.978 1404.21 Q159.978 1395.46 163.033 1390.87 Q166.112 1386.27 171.922 1386.27 Z" fill="#000000" fill-rule="nonzero" fill-opacity="1" /><path clip-path="url(#clip110)" d="M127.917 1108.41 Q124.306 1108.41 122.478 1111.97 Q120.672 1115.51 120.672 1122.64 Q120.672 1129.75 122.478 1133.31 Q124.306 1136.85 127.917 1136.85 Q131.552 1136.85 133.357 1133.31 Q135.186 1129.75 135.186 1122.64 Q135.186 1115.51 133.357 1111.97 Q131.552 1108.41 127.917 1108.41 M127.917 1104.7 Q133.728 1104.7 136.783 1109.31 Q139.862 1113.89 139.862 1122.64 Q139.862 1131.37 136.783 1135.97 Q133.728 1140.56 127.917 1140.56 Q122.107 1140.56 119.029 1135.97 Q115.973 1131.37 115.973 1122.64 Q115.973 1113.89 119.029 1109.31 Q122.107 1104.7 127.917 1104.7 Z" fill="#000000" fill-rule="nonzero" fill-opacity="1" /><path clip-path="url(#clip110)" d="M148.079 1134.01 L152.964 1134.01 L152.964 1139.89 L148.079 1139.89 L148.079 1134.01 Z" fill="#000000" fill-rule="nonzero" fill-opacity="1" /><path clip-path="url(#clip110)" d="M163.959 1135.95 L171.598 1135.95 L171.598 1109.59 L163.288 1111.25 L163.288 1106.99 L171.552 1105.33 L176.227 1105.33 L176.227 1135.95 L183.866 1135.95 L183.866 1139.89 L163.959 1139.89 L163.959 1135.95 Z" fill="#000000" fill-rule="nonzero" fill-opacity="1" /><path clip-path="url(#clip110)" d="M128.288 826.842 Q124.677 826.842 122.848 830.406 Q121.043 833.948 121.043 841.078 Q121.043 848.184 122.848 851.749 Q124.677 855.29 128.288 855.29 Q131.922 855.29 133.728 851.749 Q135.556 848.184 135.556 841.078 Q135.556 833.948 133.728 830.406 Q131.922 826.842 128.288 826.842 M128.288 823.138 Q134.098 823.138 137.154 827.744 Q140.232 832.328 140.232 841.078 Q140.232 849.804 137.154 854.411 Q134.098 858.994 128.288 858.994 Q122.478 858.994 119.399 854.411 Q116.343 849.804 116.343 841.078 Q116.343 832.328 119.399 827.744 Q122.478 823.138 128.288 823.138 Z" fill="#000000" fill-rule="nonzero" fill-opacity="1" /><path clip-path="url(#clip110)" d="M148.45 852.443 L153.334 852.443 L153.334 858.323 L148.45 858.323 L148.45 852.443 Z" fill="#000000" fill-rule="nonzero" fill-opacity="1" /><path clip-path="url(#clip110)" d="M167.547 854.388 L183.866 854.388 L183.866 858.323 L161.922 858.323 L161.922 854.388 Q164.584 851.633 169.167 847.003 Q173.774 842.351 174.954 841.008 Q177.2 838.485 178.079 836.749 Q178.982 834.99 178.982 833.3 Q178.982 830.545 177.038 828.809 Q175.116 827.073 172.014 827.073 Q169.815 827.073 167.362 827.837 Q164.931 828.601 162.153 830.152 L162.153 825.43 Q164.977 824.295 167.431 823.717 Q169.885 823.138 171.922 823.138 Q177.292 823.138 180.487 825.823 Q183.681 828.508 183.681 832.999 Q183.681 835.129 182.871 837.05 Q182.084 838.948 179.977 841.541 Q179.399 842.212 176.297 845.429 Q173.195 848.624 167.547 854.388 Z" fill="#000000" fill-rule="nonzero" fill-opacity="1" /><path clip-path="url(#clip110)" d="M127.339 545.277 Q123.728 545.277 121.899 548.842 Q120.093 552.384 120.093 559.514 Q120.093 566.62 121.899 570.185 Q123.728 573.726 127.339 573.726 Q130.973 573.726 132.779 570.185 Q134.607 566.62 134.607 559.514 Q134.607 552.384 132.779 548.842 Q130.973 545.277 127.339 545.277 M127.339 541.574 Q133.149 541.574 136.204 546.18 Q139.283 550.764 139.283 559.514 Q139.283 568.24 136.204 572.847 Q133.149 577.43 127.339 577.43 Q121.529 577.43 118.45 572.847 Q115.394 568.24 115.394 559.514 Q115.394 550.764 118.45 546.18 Q121.529 541.574 127.339 541.574 Z" fill="#000000" fill-rule="nonzero" fill-opacity="1" /><path clip-path="url(#clip110)" d="M147.501 570.879 L152.385 570.879 L152.385 576.759 L147.501 576.759 L147.501 570.879 Z" fill="#000000" fill-rule="nonzero" fill-opacity="1" /><path clip-path="url(#clip110)" d="M176.737 558.125 Q180.093 558.842 181.968 561.111 Q183.866 563.379 183.866 566.713 Q183.866 571.828 180.348 574.629 Q176.829 577.43 170.348 577.43 Q168.172 577.43 165.857 576.99 Q163.565 576.574 161.112 575.717 L161.112 571.203 Q163.056 572.338 165.371 572.916 Q167.686 573.495 170.209 573.495 Q174.607 573.495 176.899 571.759 Q179.214 570.023 179.214 566.713 Q179.214 563.657 177.061 561.944 Q174.931 560.208 171.112 560.208 L167.084 560.208 L167.084 556.365 L171.297 556.365 Q174.746 556.365 176.575 555 Q178.403 553.611 178.403 551.018 Q178.403 548.356 176.505 546.944 Q174.63 545.509 171.112 545.509 Q169.19 545.509 166.991 545.926 Q164.792 546.342 162.153 547.222 L162.153 543.055 Q164.815 542.315 167.13 541.944 Q169.468 541.574 171.528 541.574 Q176.852 541.574 179.954 544.004 Q183.056 546.412 183.056 550.532 Q183.056 553.402 181.413 555.393 Q179.769 557.361 176.737 558.125 Z" fill="#000000" fill-rule="nonzero" fill-opacity="1" /><path clip-path="url(#clip110)" d="M126.205 263.713 Q122.593 263.713 120.765 267.278 Q118.959 270.82 118.959 277.949 Q118.959 285.056 120.765 288.621 Q122.593 292.162 126.205 292.162 Q129.839 292.162 131.644 288.621 Q133.473 285.056 133.473 277.949 Q133.473 270.82 131.644 267.278 Q129.839 263.713 126.205 263.713 M126.205 260.01 Q132.015 260.01 135.07 264.616 Q138.149 269.2 138.149 277.949 Q138.149 286.676 135.07 291.283 Q132.015 295.866 126.205 295.866 Q120.394 295.866 117.316 291.283 Q114.26 286.676 114.26 277.949 Q114.26 269.2 117.316 264.616 Q120.394 260.01 126.205 260.01 Z" fill="#000000" fill-rule="nonzero" fill-opacity="1" /><path clip-path="url(#clip110)" d="M146.366 289.315 L151.251 289.315 L151.251 295.195 L146.366 295.195 L146.366 289.315 Z" fill="#000000" fill-rule="nonzero" fill-opacity="1" /><path clip-path="url(#clip110)" d="M174.283 264.709 L162.477 283.158 L174.283 283.158 L174.283 264.709 M173.056 260.635 L178.936 260.635 L178.936 283.158 L183.866 283.158 L183.866 287.047 L178.936 287.047 L178.936 295.195 L174.283 295.195 L174.283 287.047 L158.681 287.047 L158.681 282.533 L173.056 260.635 Z" fill="#000000" fill-rule="nonzero" fill-opacity="1" /><path clip-path="url(#clip110)" d="M29.7248 765.051 L35.1993 765.051 Q33.8307 767.534 33.1623 770.048 Q32.4621 772.531 32.4621 775.077 Q32.4621 780.775 36.0905 783.926 Q39.6872 787.077 46.212 787.077 Q52.7369 787.077 56.3653 783.926 Q59.9619 780.775 59.9619 775.077 Q59.9619 772.531 59.2935 770.048 Q58.5933 767.534 57.2247 765.051 L62.6355 765.051 Q63.7814 767.502 64.3543 770.144 Q64.9272 772.754 64.9272 775.714 Q64.9272 783.766 59.8664 788.509 Q54.8057 793.251 46.212 793.251 Q37.491 793.251 32.4939 788.477 Q27.4968 783.671 27.4968 775.332 Q27.4968 772.626 28.0697 770.048 Q28.6108 767.47 29.7248 765.051 Z" fill="#000000" fill-rule="nonzero" fill-opacity="1" /><path clip-path="url(#clip110)" d="M14.5426 740.798 Q21.8632 745.063 29.0246 747.132 Q36.186 749.201 43.5384 749.201 Q50.8908 749.201 58.1159 747.132 Q65.3091 745.031 72.5979 740.798 L72.5979 745.89 Q65.1182 750.665 57.8931 753.052 Q50.668 755.407 43.5384 755.407 Q36.4406 755.407 29.2474 753.052 Q22.0542 750.697 14.5426 745.89 L14.5426 740.798 Z" fill="#000000" fill-rule="nonzero" fill-opacity="1" /><path clip-path="url(#clip110)" d="M28.3562 699.803 L45.7028 712.693 L64.0042 699.134 L64.0042 706.041 L49.9996 716.417 L64.0042 726.793 L64.0042 733.7 L45.3526 719.855 L28.3562 732.522 L28.3562 725.616 L41.0558 716.163 L28.3562 706.71 L28.3562 699.803 Z" fill="#000000" fill-rule="nonzero" fill-opacity="1" /><path clip-path="url(#clip110)" d="M14.5426 691.782 L14.5426 686.689 Q22.0542 681.915 29.2474 679.56 Q36.4406 677.173 43.5384 677.173 Q50.668 677.173 57.8931 679.56 Q65.1182 681.915 72.5979 686.689 L72.5979 691.782 Q65.3091 687.549 58.1159 685.48 Q50.8908 683.379 43.5384 683.379 Q36.186 683.379 29.0246 685.48 Q21.8632 687.549 14.5426 691.782 Z" fill="#000000" fill-rule="nonzero" fill-opacity="1" /><polyline clip-path="url(#clip112)" style="stroke:#009af9; stroke-linecap:round; stroke-linejoin:round; stroke-width:4; stroke-opacity:1; fill:none" points="280.231,1384.24 290.342,1380.28 300.454,1375.7 310.565,1370.43 320.676,1364.4 330.788,1357.56 340.899,1349.83 351.011,1341.17 361.122,1331.54 371.233,1320.89 381.345,1309.2 391.456,1296.46 401.567,1282.69 411.679,1267.9 421.79,1252.13 431.901,1235.47 442.013,1217.99 452.124,1199.8 462.235,1181.03 472.347,1161.84 482.458,1142.37 492.57,1122.82 502.681,1103.36 512.792,1084.2 522.904,1065.51 533.015,1047.48 543.126,1030.29 553.238,1014.07 563.349,998.968 573.46,985.07 583.572,972.44 593.683,961.098 603.794,951.025 613.906,942.155 624.017,934.378 634.129,927.542 644.24,921.452 654.351,915.879 664.463,910.56 674.574,905.211 684.685,899.534 694.797,893.223 704.908,885.978 715.019,877.516 725.131,867.577 735.242,855.941 745.353,842.432 755.465,826.931 765.576,809.378 775.688,789.784 785.799,768.23 795.91,744.867 806.022,719.922 816.133,693.685 826.244,666.51 836.356,638.807 846.467,611.026 856.578,583.65 866.69,557.183 876.801,532.129 886.912,508.985 897.024,488.221 907.135,470.267 917.247,455.502 927.358,444.237 937.469,436.712 947.581,433.083 957.692,433.418 967.803,437.697 977.915,445.811 988.026,457.562 998.137,472.678 1008.25,490.812 1018.36,511.557 1028.47,534.46 1038.58,559.032 1048.69,584.765 1058.81,611.148 1068.92,637.679 1079.03,663.879 1089.14,689.308 1099.25,713.573 1109.36,736.339 1119.47,757.335 1129.59,776.36 1139.7,793.283 1149.81,808.046 1159.92,820.658 1170.03,831.19 1180.14,839.771 1190.25,846.576 1200.36,851.82 1210.48,855.741 1220.59,858.593 1230.7,860.634 1240.81,862.113 1250.92,863.26 1261.03,864.277 1271.14,865.329 1281.26,866.538 1291.37,867.978 1301.48,869.675 1311.59,871.602 1321.7,873.684 1331.81,875.801 1341.92,877.793 1352.03,879.47 1362.15,880.615 1372.26,880.999 1382.37,880.39 1392.48,878.56 1402.59,875.303 1412.7,870.438 1422.81,863.822 1432.93,855.356 1443.04,844.995 1453.15,832.746 1463.26,818.678 1473.37,802.917 1483.48,785.646 1493.59,767.101 1503.71,747.564 1513.82,727.352 1523.93,706.814 1534.04,686.311 1544.15,666.209 1554.26,646.864 1564.37,628.609 1574.48,611.74 1584.6,596.505 1594.71,583.096 1604.82,571.634 1614.93,562.169 1625.04,554.67 1635.15,549.028 1645.26,545.057 1655.38,542.494 1665.49,541.012 1675.6,540.228 1685.71,539.712 1695.82,539.006 1705.93,537.639 1716.04,535.141 1726.16,531.065 1736.27,524.999 1746.38,516.591 1756.49,505.554 1766.6,491.689 1776.71,474.889 1786.82,455.151 1796.93,432.582 1807.05,407.396 1817.16,379.916 1827.27,350.568 1837.38,319.868 1847.49,288.415 1857.6,256.872 1867.71,225.952 1877.83,196.393 1887.94,168.942 1898.05,144.334 1908.16,123.269 1918.27,106.393 1928.38,94.2806 1938.49,87.4166 1948.6,86.1857 1958.72,90.8607 1968.83,101.596 1978.94,118.425 1989.05,141.261 1999.16,169.898 2009.27,204.026 2019.38,243.232 2029.5,287.02 2039.61,334.822 2049.72,386.016 2059.83,439.943 2069.94,495.923 2080.05,553.273 2090.16,611.324 2100.28,669.432 2110.39,726.994 2120.5,783.457 2130.61,838.326 2140.72,891.173 2150.83,941.637 2160.94,989.428 2171.05,1034.33 2181.17,1076.18 2191.28,1114.9 2201.39,1150.45 2211.5,1182.86 2221.61,1212.2 2231.72,1238.56 2241.83,1262.09 2251.95,1282.95 2262.06,1301.32 2272.17,1317.39 2282.28,1331.35 2292.39,1343.4 "/>
<path clip-path="url(#clip110)" d="M290.963 196.789 L802.907 196.789 L802.907 93.1086 L290.963 93.1086  Z" fill="#ffffff" fill-rule="evenodd" fill-opacity="1"/>
<polyline clip-path="url(#clip110)" style="stroke:#000000; stroke-linecap:round; stroke-linejoin:round; stroke-width:4; stroke-opacity:1; fill:none" points="290.963,196.789 802.907,196.789 802.907,93.1086 290.963,93.1086 290.963,196.789 "/>
<polyline clip-path="url(#clip110)" style="stroke:#009af9; stroke-linecap:round; stroke-linejoin:round; stroke-width:4; stroke-opacity:1; fill:none" points="314.661,144.949 456.854,144.949 "/>
<path clip-path="url(#clip110)" d="M493.747 162.229 L480.553 127.669 L485.437 127.669 L496.386 156.766 L507.358 127.669 L512.219 127.669 L499.048 162.229 L493.747 162.229 Z" fill="#000000" fill-rule="nonzero" fill-opacity="1" /><path clip-path="url(#clip110)" d="M535.576 148.201 L535.576 150.284 L515.992 150.284 Q516.27 154.682 518.631 156.997 Q521.016 159.289 525.252 159.289 Q527.705 159.289 529.997 158.687 Q532.312 158.085 534.58 156.881 L534.58 160.909 Q532.289 161.881 529.881 162.391 Q527.474 162.9 524.997 162.9 Q518.793 162.9 515.159 159.289 Q511.548 155.678 511.548 149.52 Q511.548 143.155 514.974 139.428 Q518.423 135.678 524.256 135.678 Q529.488 135.678 532.52 139.057 Q535.576 142.414 535.576 148.201 M531.316 146.951 Q531.27 143.456 529.349 141.372 Q527.451 139.289 524.303 139.289 Q520.738 139.289 518.585 141.303 Q516.455 143.317 516.131 146.974 L531.316 146.951 Z" fill="#000000" fill-rule="nonzero" fill-opacity="1" /><path clip-path="url(#clip110)" d="M542.566 126.21 L546.826 126.21 L546.826 162.229 L542.566 162.229 L542.566 126.21 Z" fill="#000000" fill-rule="nonzero" fill-opacity="1" /><path clip-path="url(#clip110)" d="M565.784 139.289 Q562.358 139.289 560.367 141.974 Q558.376 144.636 558.376 149.289 Q558.376 153.942 560.344 156.627 Q562.335 159.289 565.784 159.289 Q569.187 159.289 571.177 156.604 Q573.168 153.918 573.168 149.289 Q573.168 144.682 571.177 141.997 Q569.187 139.289 565.784 139.289 M565.784 135.678 Q571.339 135.678 574.511 139.289 Q577.682 142.9 577.682 149.289 Q577.682 155.655 574.511 159.289 Q571.339 162.9 565.784 162.9 Q560.205 162.9 557.034 159.289 Q553.886 155.655 553.886 149.289 Q553.886 142.9 557.034 139.289 Q560.205 135.678 565.784 135.678 Z" fill="#000000" fill-rule="nonzero" fill-opacity="1" /><path clip-path="url(#clip110)" d="M603.399 137.298 L603.399 141.28 Q601.594 140.284 599.765 139.798 Q597.96 139.289 596.108 139.289 Q591.964 139.289 589.673 141.928 Q587.381 144.544 587.381 149.289 Q587.381 154.034 589.673 156.673 Q591.964 159.289 596.108 159.289 Q597.96 159.289 599.765 158.803 Q601.594 158.293 603.399 157.298 L603.399 161.233 Q601.617 162.067 599.696 162.483 Q597.798 162.9 595.645 162.9 Q589.788 162.9 586.339 159.219 Q582.89 155.539 582.89 149.289 Q582.89 142.946 586.362 139.312 Q589.858 135.678 595.923 135.678 Q597.89 135.678 599.765 136.095 Q601.64 136.488 603.399 137.298 Z" fill="#000000" fill-rule="nonzero" fill-opacity="1" /><path clip-path="url(#clip110)" d="M610.807 136.303 L615.066 136.303 L615.066 162.229 L610.807 162.229 L610.807 136.303 M610.807 126.21 L615.066 126.21 L615.066 131.604 L610.807 131.604 L610.807 126.21 Z" fill="#000000" fill-rule="nonzero" fill-opacity="1" /><path clip-path="url(#clip110)" d="M628.191 128.942 L628.191 136.303 L636.964 136.303 L636.964 139.613 L628.191 139.613 L628.191 153.687 Q628.191 156.858 629.047 157.761 Q629.927 158.664 632.589 158.664 L636.964 158.664 L636.964 162.229 L632.589 162.229 Q627.658 162.229 625.783 160.4 Q623.908 158.548 623.908 153.687 L623.908 139.613 L620.784 139.613 L620.784 136.303 L623.908 136.303 L623.908 128.942 L628.191 128.942 Z" fill="#000000" fill-rule="nonzero" fill-opacity="1" /><path clip-path="url(#clip110)" d="M653.353 164.636 Q651.547 169.266 649.834 170.678 Q648.121 172.09 645.251 172.09 L641.848 172.09 L641.848 168.525 L644.348 168.525 Q646.107 168.525 647.08 167.692 Q648.052 166.858 649.232 163.756 L649.996 161.812 L639.51 136.303 L644.024 136.303 L652.126 156.581 L660.228 136.303 L664.742 136.303 L653.353 164.636 Z" fill="#000000" fill-rule="nonzero" fill-opacity="1" /><path clip-path="url(#clip110)" d="M698.815 126.21 L698.815 129.752 L694.741 129.752 Q692.45 129.752 691.547 130.678 Q690.667 131.604 690.667 134.011 L690.667 136.303 L697.681 136.303 L697.681 139.613 L690.667 139.613 L690.667 162.229 L686.385 162.229 L686.385 139.613 L682.311 139.613 L682.311 136.303 L686.385 136.303 L686.385 134.497 Q686.385 130.169 688.399 128.201 Q690.413 126.21 694.788 126.21 L698.815 126.21 Z" fill="#000000" fill-rule="nonzero" fill-opacity="1" /><path clip-path="url(#clip110)" d="M702.38 136.303 L706.64 136.303 L706.64 162.229 L702.38 162.229 L702.38 136.303 M702.38 126.21 L706.64 126.21 L706.64 131.604 L702.38 131.604 L702.38 126.21 Z" fill="#000000" fill-rule="nonzero" fill-opacity="1" /><path clip-path="url(#clip110)" d="M737.727 148.201 L737.727 150.284 L718.144 150.284 Q718.422 154.682 720.783 156.997 Q723.167 159.289 727.403 159.289 Q729.857 159.289 732.149 158.687 Q734.463 158.085 736.732 156.881 L736.732 160.909 Q734.44 161.881 732.033 162.391 Q729.626 162.9 727.149 162.9 Q720.945 162.9 717.311 159.289 Q713.7 155.678 713.7 149.52 Q713.7 143.155 717.126 139.428 Q720.575 135.678 726.408 135.678 Q731.639 135.678 734.672 139.057 Q737.727 142.414 737.727 148.201 M733.468 146.951 Q733.422 143.456 731.501 141.372 Q729.602 139.289 726.454 139.289 Q722.889 139.289 720.737 141.303 Q718.607 143.317 718.283 146.974 L733.468 146.951 Z" fill="#000000" fill-rule="nonzero" fill-opacity="1" /><path clip-path="url(#clip110)" d="M744.718 126.21 L748.977 126.21 L748.977 162.229 L744.718 162.229 L744.718 126.21 Z" fill="#000000" fill-rule="nonzero" fill-opacity="1" /><path clip-path="url(#clip110)" d="M774.949 140.238 L774.949 126.21 L779.209 126.21 L779.209 162.229 L774.949 162.229 L774.949 158.34 Q773.607 160.655 771.547 161.789 Q769.51 162.9 766.639 162.9 Q761.94 162.9 758.977 159.15 Q756.037 155.4 756.037 149.289 Q756.037 143.178 758.977 139.428 Q761.94 135.678 766.639 135.678 Q769.51 135.678 771.547 136.812 Q773.607 137.923 774.949 140.238 M760.436 149.289 Q760.436 153.988 762.357 156.673 Q764.301 159.335 767.681 159.335 Q771.06 159.335 773.005 156.673 Q774.949 153.988 774.949 149.289 Q774.949 144.59 773.005 141.928 Q771.06 139.243 767.681 139.243 Q764.301 139.243 762.357 141.928 Q760.436 144.59 760.436 149.289 Z" fill="#000000" fill-rule="nonzero" fill-opacity="1" /></svg>
