<?xml version="1.0" encoding="utf-8"?>
<svg xmlns="http://www.w3.org/2000/svg" xmlns:xlink="http://www.w3.org/1999/xlink" width="600" height="400" viewBox="0 0 2400 1600">
<defs>
  <clipPath id="clip740">
    <rect x="0" y="0" width="2400" height="1600"/>
  </clipPath>
</defs>
<path clip-path="url(#clip740)" d="M0 1600 L2400 1600 L2400 0 L0 0  Z" fill="#ffffff" fill-rule="evenodd" fill-opacity="1"/>
<defs>
  <clipPath id="clip741">
    <rect x="480" y="0" width="1681" height="1600"/>
  </clipPath>
</defs>
<path clip-path="url(#clip740)" d="M219.38 1423.18 L2352.76 1423.18 L2352.76 322.316 L219.38 322.316  Z" fill="#ffffff" fill-rule="evenodd" fill-opacity="1"/>
<defs>
  <clipPath id="clip742">
    <rect x="219" y="322" width="2134" height="1102"/>
  </clipPath>
</defs>
<polyline clip-path="url(#clip742)" style="stroke:#000000; stroke-linecap:round; stroke-linejoin:round; stroke-width:2; stroke-opacity:0.1; fill:none" points="279.759,1423.18 279.759,322.316 "/>
<polyline clip-path="url(#clip742)" style="stroke:#000000; stroke-linecap:round; stroke-linejoin:round; stroke-width:2; stroke-opacity:0.1; fill:none" points="920.395,1423.18 920.395,322.316 "/>
<polyline clip-path="url(#clip742)" style="stroke:#000000; stroke-linecap:round; stroke-linejoin:round; stroke-width:2; stroke-opacity:0.1; fill:none" points="1561.03,1423.18 1561.03,322.316 "/>
<polyline clip-path="url(#clip742)" style="stroke:#000000; stroke-linecap:round; stroke-linejoin:round; stroke-width:2; stroke-opacity:0.1; fill:none" points="2201.67,1423.18 2201.67,322.316 "/>
<polyline clip-path="url(#clip740)" style="stroke:#000000; stroke-linecap:round; stroke-linejoin:round; stroke-width:4; stroke-opacity:1; fill:none" points="219.38,1423.18 2352.76,1423.18 "/>
<polyline clip-path="url(#clip740)" style="stroke:#000000; stroke-linecap:round; stroke-linejoin:round; stroke-width:4; stroke-opacity:1; fill:none" points="279.759,1423.18 279.759,1407.17 "/>
<polyline clip-path="url(#clip740)" style="stroke:#000000; stroke-linecap:round; stroke-linejoin:round; stroke-width:4; stroke-opacity:1; fill:none" points="920.395,1423.18 920.395,1407.17 "/>
<polyline clip-path="url(#clip740)" style="stroke:#000000; stroke-linecap:round; stroke-linejoin:round; stroke-width:4; stroke-opacity:1; fill:none" points="1561.03,1423.18 1561.03,1407.17 "/>
<polyline clip-path="url(#clip740)" style="stroke:#000000; stroke-linecap:round; stroke-linejoin:round; stroke-width:4; stroke-opacity:1; fill:none" points="2201.67,1423.18 2201.67,1407.17 "/>
<path clip-path="url(#clip740)" d="M279.759 1454.1 Q276.148 1454.1 274.319 1457.66 Q272.513 1461.2 272.513 1468.33 Q272.513 1475.44 274.319 1479.01 Q276.148 1482.55 279.759 1482.55 Q283.393 1482.55 285.199 1479.01 Q287.027 1475.44 287.027 1468.33 Q287.027 1461.2 285.199 1457.66 Q283.393 1454.1 279.759 1454.1 M279.759 1450.39 Q285.569 1450.39 288.624 1455 Q291.703 1459.58 291.703 1468.33 Q291.703 1477.06 288.624 1481.67 Q285.569 1486.25 279.759 1486.25 Q273.949 1486.25 270.87 1481.67 Q267.814 1477.06 267.814 1468.33 Q267.814 1459.58 270.87 1455 Q273.949 1450.39 279.759 1450.39 Z" fill="#000000" fill-rule="nonzero" fill-opacity="1" /><path clip-path="url(#clip740)" d="M910.777 1481.64 L918.416 1481.64 L918.416 1455.28 L910.106 1456.95 L910.106 1452.69 L918.37 1451.02 L923.046 1451.02 L923.046 1481.64 L930.684 1481.64 L930.684 1485.58 L910.777 1485.58 L910.777 1481.64 Z" fill="#000000" fill-rule="nonzero" fill-opacity="1" /><path clip-path="url(#clip740)" d="M1555.68 1481.64 L1572 1481.64 L1572 1485.58 L1550.06 1485.58 L1550.06 1481.64 Q1552.72 1478.89 1557.3 1474.26 Q1561.91 1469.61 1563.09 1468.27 Q1565.34 1465.74 1566.22 1464.01 Q1567.12 1462.25 1567.12 1460.56 Q1567.12 1457.8 1565.18 1456.07 Q1563.25 1454.33 1560.15 1454.33 Q1557.95 1454.33 1555.5 1455.09 Q1553.07 1455.86 1550.29 1457.41 L1550.29 1452.69 Q1553.11 1451.55 1555.57 1450.97 Q1558.02 1450.39 1560.06 1450.39 Q1565.43 1450.39 1568.62 1453.08 Q1571.82 1455.77 1571.82 1460.26 Q1571.82 1462.39 1571.01 1464.31 Q1570.22 1466.2 1568.11 1468.8 Q1567.54 1469.47 1564.43 1472.69 Q1561.33 1475.88 1555.68 1481.64 Z" fill="#000000" fill-rule="nonzero" fill-opacity="1" /><path clip-path="url(#clip740)" d="M2205.92 1466.95 Q2209.27 1467.66 2211.15 1469.93 Q2213.05 1472.2 2213.05 1475.53 Q2213.05 1480.65 2209.53 1483.45 Q2206.01 1486.25 2199.53 1486.25 Q2197.35 1486.25 2195.04 1485.81 Q2192.74 1485.39 2190.29 1484.54 L2190.29 1480.02 Q2192.24 1481.16 2194.55 1481.74 Q2196.86 1482.32 2199.39 1482.32 Q2203.79 1482.32 2206.08 1480.58 Q2208.39 1478.84 2208.39 1475.53 Q2208.39 1472.48 2206.24 1470.77 Q2204.11 1469.03 2200.29 1469.03 L2196.26 1469.03 L2196.26 1465.19 L2200.48 1465.19 Q2203.92 1465.19 2205.75 1463.82 Q2207.58 1462.43 2207.58 1459.84 Q2207.58 1457.18 2205.68 1455.77 Q2203.81 1454.33 2200.29 1454.33 Q2198.37 1454.33 2196.17 1454.75 Q2193.97 1455.16 2191.33 1456.04 L2191.33 1451.88 Q2193.99 1451.14 2196.31 1450.77 Q2198.65 1450.39 2200.71 1450.39 Q2206.03 1450.39 2209.13 1452.83 Q2212.24 1455.23 2212.24 1459.35 Q2212.24 1462.22 2210.59 1464.21 Q2208.95 1466.18 2205.92 1466.95 Z" fill="#000000" fill-rule="nonzero" fill-opacity="1" /><path clip-path="url(#clip740)" d="M1302.68 1532.4 L1289.79 1549.74 L1303.35 1568.04 L1296.44 1568.04 L1286.07 1554.04 L1275.69 1568.04 L1268.79 1568.04 L1282.63 1549.39 L1269.96 1532.4 L1276.87 1532.4 L1286.32 1545.1 L1295.78 1532.4 L1302.68 1532.4 Z" fill="#000000" fill-rule="nonzero" fill-opacity="1" /><polyline clip-path="url(#clip742)" style="stroke:#000000; stroke-linecap:round; stroke-linejoin:round; stroke-width:2; stroke-opacity:0.1; fill:none" points="219.38,1400.8 2352.76,1400.8 "/>
<polyline clip-path="url(#clip742)" style="stroke:#000000; stroke-linecap:round; stroke-linejoin:round; stroke-width:2; stroke-opacity:0.1; fill:none" points="219.38,1124.24 2352.76,1124.24 "/>
<polyline clip-path="url(#clip742)" style="stroke:#000000; stroke-linecap:round; stroke-linejoin:round; stroke-width:2; stroke-opacity:0.1; fill:none" points="219.38,847.673 2352.76,847.673 "/>
<polyline clip-path="url(#clip742)" style="stroke:#000000; stroke-linecap:round; stroke-linejoin:round; stroke-width:2; stroke-opacity:0.1; fill:none" points="219.38,571.108 2352.76,571.108 "/>
<polyline clip-path="url(#clip740)" style="stroke:#000000; stroke-linecap:round; stroke-linejoin:round; stroke-width:4; stroke-opacity:1; fill:none" points="219.38,1423.18 219.38,322.316 "/>
<polyline clip-path="url(#clip740)" style="stroke:#000000; stroke-linecap:round; stroke-linejoin:round; stroke-width:4; stroke-opacity:1; fill:none" points="219.38,1400.8 238.278,1400.8 "/>
<polyline clip-path="url(#clip740)" style="stroke:#000000; stroke-linecap:round; stroke-linejoin:round; stroke-width:4; stroke-opacity:1; fill:none" points="219.38,1124.24 238.278,1124.24 "/>
<polyline clip-path="url(#clip740)" style="stroke:#000000; stroke-linecap:round; stroke-linejoin:round; stroke-width:4; stroke-opacity:1; fill:none" points="219.38,847.673 238.278,847.673 "/>
<polyline clip-path="url(#clip740)" style="stroke:#000000; stroke-linecap:round; stroke-linejoin:round; stroke-width:4; stroke-opacity:1; fill:none" points="219.38,571.108 238.278,571.108 "/>
<path clip-path="url(#clip740)" d="M126.205 1386.6 Q122.593 1386.6 120.765 1390.17 Q118.959 1393.71 118.959 1400.84 Q118.959 1407.94 120.765 1411.51 Q122.593 1415.05 126.205 1415.05 Q129.839 1415.05 131.644 1411.51 Q133.473 1407.94 133.473 1400.84 Q133.473 1393.71 131.644 1390.17 Q129.839 1386.6 126.205 1386.6 M126.205 1382.9 Q132.015 1382.9 135.07 1387.51 Q138.149 1392.09 138.149 1400.84 Q138.149 1409.57 135.07 1414.17 Q132.015 1418.75 126.205 1418.75 Q120.394 1418.75 117.316 1414.17 Q114.26 1409.57 114.26 1400.84 Q114.26 1392.09 117.316 1387.51 Q120.394 1382.9 126.205 1382.9 Z" fill="#000000" fill-rule="nonzero" fill-opacity="1" /><path clip-path="url(#clip740)" d="M146.366 1412.2 L151.251 1412.2 L151.251 1418.08 L146.366 1418.08 L146.366 1412.2 Z" fill="#000000" fill-rule="nonzero" fill-opacity="1" /><path clip-path="url(#clip740)" d="M171.436 1386.6 Q167.825 1386.6 165.996 1390.17 Q164.19 1393.71 164.19 1400.84 Q164.19 1407.94 165.996 1411.51 Q167.825 1415.05 171.436 1415.05 Q175.07 1415.05 176.876 1411.51 Q178.704 1407.94 178.704 1400.84 Q178.704 1393.71 176.876 1390.17 Q175.07 1386.6 171.436 1386.6 M171.436 1382.9 Q177.246 1382.9 180.301 1387.51 Q183.38 1392.09 183.38 1400.84 Q183.38 1409.57 180.301 1414.17 Q177.246 1418.75 171.436 1418.75 Q165.626 1418.75 162.547 1414.17 Q159.491 1409.57 159.491 1400.84 Q159.491 1392.09 162.547 1387.51 Q165.626 1382.9 171.436 1382.9 Z" fill="#000000" fill-rule="nonzero" fill-opacity="1" /><path clip-path="url(#clip740)" d="M127.431 1110.04 Q123.82 1110.04 121.992 1113.6 Q120.186 1117.14 120.186 1124.27 Q120.186 1131.38 121.992 1134.94 Q123.82 1138.49 127.431 1138.49 Q131.066 1138.49 132.871 1134.94 Q134.7 1131.38 134.7 1124.27 Q134.7 1117.14 132.871 1113.6 Q131.066 1110.04 127.431 1110.04 M127.431 1106.33 Q133.242 1106.33 136.297 1110.94 Q139.376 1115.52 139.376 1124.27 Q139.376 1133 136.297 1137.61 Q133.242 1142.19 127.431 1142.19 Q121.621 1142.19 118.543 1137.61 Q115.487 1133 115.487 1124.27 Q115.487 1115.52 118.543 1110.94 Q121.621 1106.33 127.431 1106.33 Z" fill="#000000" fill-rule="nonzero" fill-opacity="1" /><path clip-path="url(#clip740)" d="M147.593 1135.64 L152.478 1135.64 L152.478 1141.52 L147.593 1141.52 L147.593 1135.64 Z" fill="#000000" fill-rule="nonzero" fill-opacity="1" /><path clip-path="url(#clip740)" d="M163.473 1137.58 L171.112 1137.58 L171.112 1111.22 L162.802 1112.88 L162.802 1108.63 L171.065 1106.96 L175.741 1106.96 L175.741 1137.58 L183.38 1137.58 L183.38 1141.52 L163.473 1141.52 L163.473 1137.58 Z" fill="#000000" fill-rule="nonzero" fill-opacity="1" /><path clip-path="url(#clip740)" d="M127.802 833.472 Q124.191 833.472 122.362 837.037 Q120.556 840.578 120.556 847.708 Q120.556 854.814 122.362 858.379 Q124.191 861.921 127.802 861.921 Q131.436 861.921 133.242 858.379 Q135.07 854.814 135.07 847.708 Q135.07 840.578 133.242 837.037 Q131.436 833.472 127.802 833.472 M127.802 829.768 Q133.612 829.768 136.667 834.375 Q139.746 838.958 139.746 847.708 Q139.746 856.435 136.667 861.041 Q133.612 865.624 127.802 865.624 Q121.992 865.624 118.913 861.041 Q115.857 856.435 115.857 847.708 Q115.857 838.958 118.913 834.375 Q121.992 829.768 127.802 829.768 Z" fill="#000000" fill-rule="nonzero" fill-opacity="1" /><path clip-path="url(#clip740)" d="M147.964 859.074 L152.848 859.074 L152.848 864.953 L147.964 864.953 L147.964 859.074 Z" fill="#000000" fill-rule="nonzero" fill-opacity="1" /><path clip-path="url(#clip740)" d="M167.061 861.018 L183.38 861.018 L183.38 864.953 L161.436 864.953 L161.436 861.018 Q164.098 858.263 168.681 853.634 Q173.288 848.981 174.468 847.638 Q176.714 845.115 177.593 843.379 Q178.496 841.62 178.496 839.93 Q178.496 837.175 176.551 835.439 Q174.63 833.703 171.528 833.703 Q169.329 833.703 166.876 834.467 Q164.445 835.231 161.667 836.782 L161.667 832.06 Q164.491 830.926 166.945 830.347 Q169.399 829.768 171.436 829.768 Q176.806 829.768 180.001 832.453 Q183.195 835.138 183.195 839.629 Q183.195 841.759 182.385 843.68 Q181.598 845.578 179.491 848.171 Q178.913 848.842 175.811 852.06 Q172.709 855.254 167.061 861.018 Z" fill="#000000" fill-rule="nonzero" fill-opacity="1" /><path clip-path="url(#clip740)" d="M126.853 556.907 Q123.242 556.907 121.413 560.471 Q119.607 564.013 119.607 571.143 Q119.607 578.249 121.413 581.814 Q123.242 585.355 126.853 585.355 Q130.487 585.355 132.292 581.814 Q134.121 578.249 134.121 571.143 Q134.121 564.013 132.292 560.471 Q130.487 556.907 126.853 556.907 M126.853 553.203 Q132.663 553.203 135.718 557.809 Q138.797 562.393 138.797 571.143 Q138.797 579.869 135.718 584.476 Q132.663 589.059 126.853 589.059 Q121.043 589.059 117.964 584.476 Q114.908 579.869 114.908 571.143 Q114.908 562.393 117.964 557.809 Q121.043 553.203 126.853 553.203 Z" fill="#000000" fill-rule="nonzero" fill-opacity="1" /><path clip-path="url(#clip740)" d="M147.015 582.508 L151.899 582.508 L151.899 588.388 L147.015 588.388 L147.015 582.508 Z" fill="#000000" fill-rule="nonzero" fill-opacity="1" /><path clip-path="url(#clip740)" d="M176.251 569.754 Q179.607 570.471 181.482 572.74 Q183.38 575.008 183.38 578.342 Q183.38 583.457 179.862 586.258 Q176.343 589.059 169.862 589.059 Q167.686 589.059 165.371 588.619 Q163.079 588.203 160.626 587.346 L160.626 582.832 Q162.57 583.967 164.885 584.545 Q167.2 585.124 169.723 585.124 Q174.121 585.124 176.413 583.388 Q178.727 581.652 178.727 578.342 Q178.727 575.286 176.575 573.573 Q174.445 571.837 170.626 571.837 L166.598 571.837 L166.598 567.994 L170.811 567.994 Q174.26 567.994 176.089 566.629 Q177.917 565.24 177.917 562.647 Q177.917 559.985 176.019 558.573 Q174.144 557.138 170.626 557.138 Q168.704 557.138 166.505 557.555 Q164.306 557.971 161.667 558.851 L161.667 554.684 Q164.329 553.944 166.644 553.573 Q168.982 553.203 171.042 553.203 Q176.366 553.203 179.468 555.633 Q182.57 558.041 182.57 562.161 Q182.57 565.032 180.926 567.022 Q179.283 568.99 176.251 569.754 Z" fill="#000000" fill-rule="nonzero" fill-opacity="1" /><path clip-path="url(#clip740)" d="M29.7248 902.587 L35.1993 902.587 Q33.8307 905.07 33.1623 907.584 Q32.4621 910.067 32.4621 912.613 Q32.4621 918.31 36.0905 921.461 Q39.6872 924.612 46.212 924.612 Q52.7369 924.612 56.3653 921.461 Q59.9619 918.31 59.9619 912.613 Q59.9619 910.067 59.2935 907.584 Q58.5933 905.07 57.2247 902.587 L62.6355 902.587 Q63.7814 905.038 64.3543 907.68 Q64.9272 910.29 64.9272 913.25 Q64.9272 921.302 59.8664 926.045 Q54.8057 930.787 46.212 930.787 Q37.491 930.787 32.4939 926.013 Q27.4968 921.207 27.4968 912.868 Q27.4968 910.162 28.0697 907.584 Q28.6108 905.006 29.7248 902.587 Z" fill="#000000" fill-rule="nonzero" fill-opacity="1" /><path clip-path="url(#clip740)" d="M14.5426 878.334 Q21.8632 882.599 29.0246 884.668 Q36.186 886.736 43.5384 886.736 Q50.8908 886.736 58.1159 884.668 Q65.3091 882.567 72.5979 878.334 L72.5979 883.426 Q65.1182 888.201 57.8931 890.588 Q50.668 892.943 43.5384 892.943 Q36.4406 892.943 29.2474 890.588 Q22.0542 888.232 14.5426 883.426 L14.5426 878.334 Z" fill="#000000" fill-rule="nonzero" fill-opacity="1" /><path clip-path="url(#clip740)" d="M28.3562 837.339 L45.7028 850.229 L64.0042 836.67 L64.0042 843.577 L49.9996 853.953 L64.0042 864.329 L64.0042 871.236 L45.3526 857.391 L28.3562 870.058 L28.3562 863.151 L41.0558 853.698 L28.3562 844.245 L28.3562 837.339 Z" fill="#000000" fill-rule="nonzero" fill-opacity="1" /><path clip-path="url(#clip740)" d="M14.5426 829.318 L14.5426 824.225 Q22.0542 819.451 29.2474 817.096 Q36.4406 814.708 43.5384 814.708 Q50.668 814.708 57.8931 817.096 Q65.1182 819.451 72.5979 824.225 L72.5979 829.318 Q65.3091 825.085 58.1159 823.016 Q50.8908 820.915 43.5384 820.915 Q36.186 820.915 29.0246 823.016 Q21.8632 825.085 14.5426 829.318 Z" fill="#000000" fill-rule="nonzero" fill-opacity="1" /><path clip-path="url(#clip740)" d="M916.362 20.1573 L905.263 50.2555 L927.502 50.2555 L916.362 20.1573 M911.744 12.096 L921.021 12.096 L944.07 72.576 L935.564 72.576 L930.054 57.061 L902.792 57.061 L897.282 72.576 L888.654 72.576 L911.744 12.096 Z" fill="#000000" fill-rule="nonzero" fill-opacity="1" /><path clip-path="url(#clip740)" d="M961.084 18.8205 L961.084 65.8515 L970.968 65.8515 Q983.486 65.8515 989.279 60.1802 Q995.112 54.509 995.112 42.2752 Q995.112 30.1225 989.279 24.4918 Q983.486 18.8205 970.968 18.8205 L961.084 18.8205 M952.901 12.096 L969.713 12.096 Q987.294 12.096 995.517 19.4281 Q1003.74 26.7198 1003.74 42.2752 Q1003.74 57.9117 995.476 65.2439 Q987.213 72.576 969.713 72.576 L952.901 72.576 L952.901 12.096 Z" fill="#000000" fill-rule="nonzero" fill-opacity="1" /><path clip-path="url(#clip740)" d="M1035.54 20.1573 L1024.44 50.2555 L1046.68 50.2555 L1035.54 20.1573 M1030.92 12.096 L1040.2 12.096 L1063.25 72.576 L1054.74 72.576 L1049.23 57.061 L1021.97 57.061 L1016.46 72.576 L1007.83 72.576 L1030.92 12.096 Z" fill="#000000" fill-rule="nonzero" fill-opacity="1" /><path clip-path="url(#clip740)" d="M1072.08 12.096 L1084.27 12.096 L1099.71 53.2532 L1115.22 12.096 L1127.41 12.096 L1127.41 72.576 L1119.43 72.576 L1119.43 19.4686 L1103.84 60.9499 L1095.61 60.9499 L1080.02 19.4686 L1080.02 72.576 L1072.08 72.576 L1072.08 12.096 Z" fill="#000000" fill-rule="nonzero" fill-opacity="1" /><path clip-path="url(#clip740)" d="M1170.84 12.096 L1202.96 12.096 L1202.96 18.9825 L1178.33 18.9825 L1178.33 33.8088 Q1180.12 33.2012 1181.9 32.9176 Q1183.68 32.5936 1185.46 32.5936 Q1195.59 32.5936 1201.51 38.1433 Q1207.42 43.6931 1207.42 53.1722 Q1207.42 62.9348 1201.34 68.3631 Q1195.27 73.7508 1184.21 73.7508 Q1180.4 73.7508 1176.43 73.1026 Q1172.5 72.4545 1168.29 71.1582 L1168.29 62.9348 Q1171.93 64.9198 1175.82 65.892 Q1179.71 66.8642 1184.05 66.8642 Q1191.05 66.8642 1195.15 63.1779 Q1199.24 59.4916 1199.24 53.1722 Q1199.24 46.8528 1195.15 43.1664 Q1191.05 39.4801 1184.05 39.4801 Q1180.76 39.4801 1177.48 40.2093 Q1174.24 40.9384 1170.84 42.4778 L1170.84 12.096 Z" fill="#000000" fill-rule="nonzero" fill-opacity="1" /><path clip-path="url(#clip740)" d="M1241.04 17.4837 Q1234.72 17.4837 1231.52 23.7221 Q1228.36 29.92 1228.36 42.3968 Q1228.36 54.833 1231.52 61.0714 Q1234.72 67.2693 1241.04 67.2693 Q1247.4 67.2693 1250.56 61.0714 Q1253.76 54.833 1253.76 42.3968 Q1253.76 29.92 1250.56 23.7221 Q1247.4 17.4837 1241.04 17.4837 M1241.04 11.0023 Q1251.21 11.0023 1256.56 19.0636 Q1261.94 27.0843 1261.94 42.3968 Q1261.94 57.6687 1256.56 65.73 Q1251.21 73.7508 1241.04 73.7508 Q1230.87 73.7508 1225.49 65.73 Q1220.14 57.6687 1220.14 42.3968 Q1220.14 27.0843 1225.49 19.0636 Q1230.87 11.0023 1241.04 11.0023 Z" fill="#000000" fill-rule="nonzero" fill-opacity="1" /><path clip-path="url(#clip740)" d="M1301.64 27.2059 L1309.1 27.2059 L1309.1 72.576 L1301.64 72.576 L1301.64 27.2059 M1301.64 9.54393 L1309.1 9.54393 L1309.1 18.9825 L1301.64 18.9825 L1301.64 9.54393 Z" fill="#000000" fill-rule="nonzero" fill-opacity="1" /><path clip-path="url(#clip740)" d="M1332.07 14.324 L1332.07 27.2059 L1347.42 27.2059 L1347.42 32.9987 L1332.07 32.9987 L1332.07 57.6282 Q1332.07 63.1779 1333.56 64.7578 Q1335.1 66.3376 1339.76 66.3376 L1347.42 66.3376 L1347.42 72.576 L1339.76 72.576 Q1331.13 72.576 1327.85 69.3758 Q1324.57 66.1351 1324.57 57.6282 L1324.57 32.9987 L1319.1 32.9987 L1319.1 27.2059 L1324.57 27.2059 L1324.57 14.324 L1332.07 14.324 Z" fill="#000000" fill-rule="nonzero" fill-opacity="1" /><path clip-path="url(#clip740)" d="M1396.03 48.0275 L1396.03 51.6733 L1361.76 51.6733 Q1362.25 59.3701 1366.38 63.421 Q1370.55 67.4314 1377.96 67.4314 Q1382.26 67.4314 1386.27 66.3781 Q1390.32 65.3249 1394.29 63.2184 L1394.29 70.267 Q1390.28 71.9684 1386.06 72.8596 Q1381.85 73.7508 1377.52 73.7508 Q1366.66 73.7508 1360.3 67.4314 Q1353.98 61.1119 1353.98 50.3365 Q1353.98 39.1965 1359.98 32.6746 Q1366.01 26.1121 1376.22 26.1121 Q1385.38 26.1121 1390.68 32.0264 Q1396.03 37.9003 1396.03 48.0275 M1388.58 45.84 Q1388.5 39.7232 1385.13 36.0774 Q1381.81 32.4315 1376.3 32.4315 Q1370.06 32.4315 1366.3 35.9558 Q1362.57 39.4801 1362 45.8805 L1388.58 45.84 Z" fill="#000000" fill-rule="nonzero" fill-opacity="1" /><path clip-path="url(#clip740)" d="M1434.55 34.1734 Q1433.3 33.4443 1431.8 33.1202 Q1430.34 32.7556 1428.56 32.7556 Q1422.24 32.7556 1418.84 36.8875 Q1415.47 40.9789 1415.47 48.6757 L1415.47 72.576 L1407.98 72.576 L1407.98 27.2059 L1415.47 27.2059 L1415.47 34.2544 Q1417.82 30.1225 1421.59 28.1376 Q1425.36 26.1121 1430.75 26.1121 Q1431.52 26.1121 1432.45 26.2337 Q1433.38 26.3147 1434.51 26.5172 L1434.55 34.1734 Z" fill="#000000" fill-rule="nonzero" fill-opacity="1" /><path clip-path="url(#clip740)" d="M1462.99 49.7694 Q1453.96 49.7694 1450.47 51.8354 Q1446.99 53.9013 1446.99 58.8839 Q1446.99 62.8538 1449.58 65.2034 Q1452.22 67.5124 1456.71 67.5124 Q1462.91 67.5124 1466.64 63.1374 Q1470.4 58.7219 1470.4 51.4303 L1470.4 49.7694 L1462.99 49.7694 M1477.86 46.6907 L1477.86 72.576 L1470.4 72.576 L1470.4 65.6895 Q1467.85 69.8214 1464.04 71.8063 Q1460.24 73.7508 1454.73 73.7508 Q1447.76 73.7508 1443.63 69.8619 Q1439.54 65.9325 1439.54 59.3701 Q1439.54 51.7138 1444.64 47.825 Q1449.79 43.9361 1459.95 43.9361 L1470.4 43.9361 L1470.4 43.2069 Q1470.4 38.0623 1467 35.2672 Q1463.64 32.4315 1457.52 32.4315 Q1453.63 32.4315 1449.95 33.3632 Q1446.26 34.295 1442.86 36.1584 L1442.86 29.2718 Q1446.95 27.692 1450.8 26.9223 Q1454.65 26.1121 1458.29 26.1121 Q1468.14 26.1121 1473 31.2163 Q1477.86 36.3204 1477.86 46.6907 Z" fill="#000000" fill-rule="nonzero" fill-opacity="1" /><path clip-path="url(#clip740)" d="M1500.58 14.324 L1500.58 27.2059 L1515.94 27.2059 L1515.94 32.9987 L1500.58 32.9987 L1500.58 57.6282 Q1500.58 63.1779 1502.08 64.7578 Q1503.62 66.3376 1508.28 66.3376 L1515.94 66.3376 L1515.94 72.576 L1508.28 72.576 Q1499.65 72.576 1496.37 69.3758 Q1493.09 66.1351 1493.09 57.6282 L1493.09 32.9987 L1487.62 32.9987 L1487.62 27.2059 L1493.09 27.2059 L1493.09 14.324 L1500.58 14.324 Z" fill="#000000" fill-rule="nonzero" fill-opacity="1" /><path clip-path="url(#clip740)" d="M1525.74 27.2059 L1533.19 27.2059 L1533.19 72.576 L1525.74 72.576 L1525.74 27.2059 M1525.74 9.54393 L1533.19 9.54393 L1533.19 18.9825 L1525.74 18.9825 L1525.74 9.54393 Z" fill="#000000" fill-rule="nonzero" fill-opacity="1" /><path clip-path="url(#clip740)" d="M1566.37 32.4315 Q1560.38 32.4315 1556.89 37.1306 Q1553.41 41.7891 1553.41 49.9314 Q1553.41 58.0738 1556.85 62.7728 Q1560.33 67.4314 1566.37 67.4314 Q1572.33 67.4314 1575.81 62.7323 Q1579.29 58.0333 1579.29 49.9314 Q1579.29 41.8701 1575.81 37.1711 Q1572.33 32.4315 1566.37 32.4315 M1566.37 26.1121 Q1576.09 26.1121 1581.64 32.4315 Q1587.19 38.7509 1587.19 49.9314 Q1587.19 61.0714 1581.64 67.4314 Q1576.09 73.7508 1566.37 73.7508 Q1556.61 73.7508 1551.06 67.4314 Q1545.55 61.0714 1545.55 49.9314 Q1545.55 38.7509 1551.06 32.4315 Q1556.61 26.1121 1566.37 26.1121 Z" fill="#000000" fill-rule="nonzero" fill-opacity="1" /><path clip-path="url(#clip740)" d="M1637.26 45.1919 L1637.26 72.576 L1629.81 72.576 L1629.81 45.4349 Q1629.81 38.994 1627.3 35.7938 Q1624.78 32.5936 1619.76 32.5936 Q1613.73 32.5936 1610.24 36.4419 Q1606.76 40.2903 1606.76 46.9338 L1606.76 72.576 L1599.26 72.576 L1599.26 27.2059 L1606.76 27.2059 L1606.76 34.2544 Q1609.43 30.163 1613.04 28.1376 Q1616.68 26.1121 1621.42 26.1121 Q1629.24 26.1121 1633.25 30.9732 Q1637.26 35.7938 1637.26 45.1919 Z" fill="#000000" fill-rule="nonzero" fill-opacity="1" /><path clip-path="url(#clip740)" d="M1681.05 28.5427 L1681.05 35.5912 Q1677.89 33.9709 1674.49 33.1607 Q1671.09 32.3505 1667.44 32.3505 Q1661.89 32.3505 1659.1 34.0519 Q1656.34 35.7533 1656.34 39.156 Q1656.34 41.7486 1658.33 43.2475 Q1660.31 44.7058 1666.31 46.0426 L1668.86 46.6097 Q1676.8 48.3111 1680.12 51.4303 Q1683.48 54.509 1683.48 60.0587 Q1683.48 66.3781 1678.46 70.0644 Q1673.48 73.7508 1664.73 73.7508 Q1661.08 73.7508 1657.11 73.0216 Q1653.18 72.3329 1648.81 70.9151 L1648.81 63.2184 Q1652.94 65.3654 1656.95 66.4591 Q1660.96 67.5124 1664.89 67.5124 Q1670.15 67.5124 1672.99 65.73 Q1675.83 63.9071 1675.83 60.6258 Q1675.83 57.5877 1673.76 55.9673 Q1671.73 54.3469 1664.81 52.8481 L1662.21 52.2405 Q1655.29 50.7821 1652.21 47.7845 Q1649.13 44.7463 1649.13 39.4801 Q1649.13 33.0797 1653.67 29.5959 Q1658.2 26.1121 1666.55 26.1121 Q1670.68 26.1121 1674.33 26.7198 Q1677.97 27.3274 1681.05 28.5427 Z" fill="#000000" fill-rule="nonzero" fill-opacity="1" /><polyline clip-path="url(#clip742)" style="stroke:#009af9; stroke-linecap:round; stroke-linejoin:round; stroke-width:4; stroke-opacity:1; fill:none" points="279.759,1363.93 289.872,1356.62 299.986,1348.15 310.1,1338.4 320.213,1327.26 330.327,1314.6 340.441,1300.32 350.554,1284.32 360.668,1266.51 370.782,1246.84 380.895,1225.26 391.009,1201.75 401.123,1176.34 411.236,1149.07 421.35,1120.03 431.464,1089.36 441.577,1057.24 451.691,1023.86 461.805,989.491 471.918,954.424 482.032,918.986 492.146,883.535 502.259,848.448 512.373,814.12 522.487,780.949 532.6,749.33 542.714,719.641 552.828,692.237 562.941,667.434 573.055,645.505 583.169,626.664 593.282,611.066 603.396,598.795 613.51,589.861 623.623,584.199 633.737,581.669 643.851,582.059 653.964,585.088 664.078,590.416 674.192,597.651 684.305,606.363 694.419,616.092 704.532,626.369 714.646,636.722 724.76,646.697 734.873,655.87 744.987,663.86 755.101,670.341 765.214,675.053 775.328,677.81 785.442,678.506 795.555,677.12 805.669,673.711 815.783,668.425 825.896,661.482 836.01,653.173 846.124,643.851 856.237,633.917 866.351,623.811 876.465,613.994 886.578,604.937 896.692,597.105 906.806,590.943 916.919,586.862 927.033,585.229 937.147,586.354 947.26,590.486 957.374,597.801 967.488,608.401 977.601,622.315 987.715,639.497 997.829,659.827 1007.94,683.121 1018.06,709.137 1028.17,737.579 1038.28,768.111 1048.4,800.367 1058.51,833.957 1068.62,868.485 1078.74,903.55 1088.85,938.761 1098.97,973.746 1109.08,1008.16 1119.19,1041.67 1129.31,1074 1139.42,1104.9 1149.53,1134.15 1159.65,1161.58 1169.76,1187.06 1179.87,1210.48 1189.99,1231.75 1200.1,1250.85 1210.22,1267.74 1220.33,1282.41 1230.44,1294.87 1240.56,1305.13 1250.67,1313.2 1260.78,1319.1 1270.9,1322.85 1281.01,1324.45 1291.12,1323.9 1301.24,1321.19 1311.35,1316.3 1321.47,1309.2 1331.58,1299.88 1341.69,1288.29 1351.81,1274.41 1361.92,1258.21 1372.03,1239.68 1382.15,1218.81 1392.26,1195.64 1402.38,1170.19 1412.49,1142.56 1422.6,1112.86 1432.72,1081.23 1442.83,1047.86 1452.94,1013 1463.06,976.911 1473.17,939.922 1483.28,902.392 1493.4,864.714 1503.51,827.314 1513.63,790.64 1523.74,755.153 1533.85,721.319 1543.97,689.599 1554.08,660.437 1564.19,634.252 1574.31,611.421 1584.42,592.276 1594.53,577.091 1604.65,566.074 1614.76,559.364 1624.88,557.023 1634.99,559.037 1645.1,565.315 1655.22,575.689 1665.33,589.924 1675.44,607.717 1685.56,628.712 1695.67,652.506 1705.78,678.66 1715.9,706.713 1726.01,736.191 1736.13,766.62 1746.24,797.537 1756.35,828.504 1766.47,859.113 1776.58,888.995 1786.69,917.83 1796.81,945.35 1806.92,971.341 1817.04,995.644 1827.15,1018.16 1837.26,1038.84 1847.38,1057.68 1857.49,1074.74 1867.6,1090.1 1877.72,1103.89 1887.83,1116.25 1897.94,1127.36 1908.06,1137.38 1918.17,1146.52 1928.29,1154.95 1938.4,1162.86 1948.51,1170.4 1958.63,1177.73 1968.74,1184.99 1978.85,1192.28 1988.97,1199.68 1999.08,1207.28 2009.19,1215.09 2019.31,1223.15 2029.42,1231.45 2039.54,1239.97 2049.65,1248.69 2059.76,1257.55 2069.88,1266.49 2079.99,1275.46 2090.1,1284.4 2100.22,1293.22 2110.33,1301.88 2120.45,1310.3 2130.56,1318.43 2140.67,1326.22 2150.79,1333.63 2160.9,1340.63 2171.01,1347.18 2181.13,1353.28 2191.24,1358.91 2201.35,1364.08 2211.47,1368.78 2221.58,1373.03 2231.7,1376.85 2241.81,1380.26 2251.92,1383.28 2262.04,1385.94 2272.15,1388.26 2282.26,1390.28 2292.38,1392.02 "/>
<polyline clip-path="url(#clip742)" style="stroke:#ff0000; stroke-linecap:round; stroke-linejoin:round; stroke-width:4; stroke-opacity:1; fill:none" points="279.759,1364.07 289.872,1356.78 299.986,1348.34 310.1,1338.63 320.213,1327.53 330.327,1314.91 340.441,1300.68 350.554,1284.74 360.668,1267 370.782,1247.39 380.895,1225.89 391.009,1202.46 401.123,1177.13 411.236,1149.94 421.35,1120.99 431.464,1090.41 441.577,1058.37 451.691,1025.07 461.805,990.775 471.918,955.765 482.032,920.365 492.146,884.927 502.259,849.823 512.373,815.437 522.487,782.158 532.6,750.372 542.714,720.445 552.828,692.717 562.941,667.49 573.055,645.021 583.169,625.507 593.282,609.083 603.396,595.811 613.51,585.682 623.623,578.608 633.737,574.426 643.851,572.9 653.964,573.727 664.078,576.544 674.192,580.939 684.305,586.464 694.419,592.643 704.532,598.995 714.646,605.042 724.76,610.327 734.873,614.432 744.987,616.986 755.101,617.683 765.214,616.291 775.328,612.658 785.442,606.724 795.555,598.517 805.669,588.162 815.783,575.869 825.896,561.933 836.01,546.727 846.124,530.686 856.237,514.298 866.351,498.089 876.465,482.607 886.578,468.403 896.692,456.02 906.806,445.972 916.919,438.731 927.033,434.713 937.147,434.268 947.26,437.667 957.374,445.099 967.488,456.663 977.601,472.371 987.715,492.147 997.829,515.829 1007.94,543.179 1018.06,573.889 1028.17,607.592 1038.28,643.874 1048.4,682.284 1058.51,722.347 1068.62,763.58 1078.74,805.499 1088.85,847.631 1098.97,889.527 1109.08,930.766 1119.19,970.968 1129.31,1009.79 1139.42,1046.94 1149.53,1082.16 1159.65,1115.27 1169.76,1146.09 1179.87,1174.53 1189.99,1200.5 1200.1,1223.98 1210.22,1244.94 1220.33,1263.41 1230.44,1279.43 1240.56,1293.03 1250.67,1304.28 1260.78,1313.23 1270.9,1319.94 1281.01,1324.47 1291.12,1326.86 1301.24,1327.16 1311.35,1325.4 1321.47,1321.6 1331.58,1315.78 1341.69,1307.95 1351.81,1298.12 1361.92,1286.31 1372.03,1272.52 1382.15,1256.78 1392.26,1239.12 1402.38,1219.6 1412.49,1198.28 1422.6,1175.26 1432.72,1150.66 1442.83,1124.63 1452.94,1097.36 1463.06,1069.04 1473.17,1039.92 1483.28,1010.26 1493.4,980.352 1503.51,950.498 1513.63,921.015 1523.74,892.224 1533.85,864.443 1543.97,837.976 1554.08,813.108 1564.19,790.093 1574.31,769.147 1584.42,750.437 1594.53,734.079 1604.65,720.128 1614.76,708.575 1624.88,699.346 1634.99,692.301 1645.1,687.236 1655.22,683.887 1665.33,681.936 1675.44,681.024 1685.56,680.753 1695.67,680.706 1705.78,680.455 1715.9,679.577 1726.01,677.668 1736.13,674.359 1746.24,669.324 1756.35,662.299 1766.47,653.089 1776.58,641.579 1786.69,627.737 1796.81,611.623 1806.92,593.387 1817.04,573.268 1827.15,551.588 1837.26,528.747 1847.38,505.212 1857.49,481.505 1867.6,458.186 1877.72,435.842 1887.83,415.068 1897.94,396.447 1908.06,380.54 1918.17,367.864 1928.29,358.879 1938.4,353.978 1948.51,353.472 1958.63,357.584 1968.74,366.442 1978.85,380.08 1988.97,398.434 1999.08,421.349 2009.19,448.581 2019.31,479.809 2029.42,514.644 2039.54,552.64 2049.65,593.307 2059.76,636.125 2069.88,680.558 2079.99,726.068 2090.1,772.123 2100.22,818.218 2110.33,863.873 2120.45,908.652 2130.56,952.165 2140.67,994.071 2150.79,1034.09 2160.9,1071.98 2171.01,1107.58 2181.13,1140.77 2191.24,1171.46 2201.35,1199.65 2211.47,1225.35 2221.58,1248.61 2231.7,1269.51 2241.81,1288.16 2251.92,1304.7 2262.04,1319.27 2272.15,1332 2282.26,1343.07 2292.38,1352.63 "/>
<path clip-path="url(#clip740)" d="M853.764 278.992 L1718.37 278.992 L1718.37 123.472 L853.764 123.472  Z" fill="#ffffff" fill-rule="evenodd" fill-opacity="1"/>
<polyline clip-path="url(#clip740)" style="stroke:#000000; stroke-linecap:round; stroke-linejoin:round; stroke-width:4; stroke-opacity:1; fill:none" points="853.764,278.992 1718.37,278.992 1718.37,123.472 853.764,123.472 853.764,278.992 "/>
<polyline clip-path="url(#clip740)" style="stroke:#009af9; stroke-linecap:round; stroke-linejoin:round; stroke-width:4; stroke-opacity:1; fill:none" points="877.469,175.312 1019.69,175.312 "/>
<path clip-path="url(#clip740)" d="M1059.79 176.389 Q1061.29 176.898 1062.7 178.564 Q1064.14 180.231 1065.57 183.148 L1070.32 192.592 L1065.3 192.592 L1060.87 183.726 Q1059.16 180.254 1057.54 179.12 Q1055.94 177.986 1053.17 177.986 L1048.07 177.986 L1048.07 192.592 L1043.4 192.592 L1043.4 158.032 L1053.95 158.032 Q1059.88 158.032 1062.8 160.509 Q1065.71 162.986 1065.71 167.986 Q1065.71 171.25 1064.18 173.402 Q1062.68 175.555 1059.79 176.389 M1048.07 161.875 L1048.07 174.143 L1053.95 174.143 Q1057.33 174.143 1059.05 172.592 Q1060.78 171.018 1060.78 167.986 Q1060.78 164.953 1059.05 163.426 Q1057.33 161.875 1053.95 161.875 L1048.07 161.875 Z" fill="#000000" fill-rule="nonzero" fill-opacity="1" /><path clip-path="url(#clip740)" d="M1096.2 178.564 L1096.2 180.648 L1076.62 180.648 Q1076.89 185.046 1079.25 187.361 Q1081.64 189.652 1085.87 189.652 Q1088.33 189.652 1090.62 189.05 Q1092.93 188.449 1095.2 187.245 L1095.2 191.273 Q1092.91 192.245 1090.5 192.754 Q1088.1 193.263 1085.62 193.263 Q1079.42 193.263 1075.78 189.652 Q1072.17 186.041 1072.17 179.884 Q1072.17 173.518 1075.6 169.791 Q1079.05 166.041 1084.88 166.041 Q1090.11 166.041 1093.14 169.421 Q1096.2 172.777 1096.2 178.564 M1091.94 177.314 Q1091.89 173.819 1089.97 171.736 Q1088.07 169.652 1084.93 169.652 Q1081.36 169.652 1079.21 171.666 Q1077.08 173.68 1076.75 177.338 L1091.94 177.314 Z" fill="#000000" fill-rule="nonzero" fill-opacity="1" /><path clip-path="url(#clip740)" d="M1121.85 167.662 L1121.85 171.643 Q1120.04 170.648 1118.21 170.162 Q1116.41 169.652 1114.55 169.652 Q1110.41 169.652 1108.12 172.291 Q1105.83 174.907 1105.83 179.652 Q1105.83 184.398 1108.12 187.037 Q1110.41 189.652 1114.55 189.652 Q1116.41 189.652 1118.21 189.166 Q1120.04 188.657 1121.85 187.662 L1121.85 191.597 Q1120.06 192.43 1118.14 192.847 Q1116.24 193.263 1114.09 193.263 Q1108.24 193.263 1104.79 189.583 Q1101.34 185.902 1101.34 179.652 Q1101.34 173.31 1104.81 169.676 Q1108.3 166.041 1114.37 166.041 Q1116.34 166.041 1118.21 166.458 Q1120.09 166.852 1121.85 167.662 Z" fill="#000000" fill-rule="nonzero" fill-opacity="1" /><path clip-path="url(#clip740)" d="M1139.3 169.652 Q1135.87 169.652 1133.88 172.338 Q1131.89 175 1131.89 179.652 Q1131.89 184.305 1133.86 186.99 Q1135.85 189.652 1139.3 189.652 Q1142.7 189.652 1144.69 186.967 Q1146.68 184.282 1146.68 179.652 Q1146.68 175.046 1144.69 172.361 Q1142.7 169.652 1139.3 169.652 M1139.3 166.041 Q1144.86 166.041 1148.03 169.652 Q1151.2 173.264 1151.2 179.652 Q1151.2 186.018 1148.03 189.652 Q1144.86 193.263 1139.3 193.263 Q1133.72 193.263 1130.55 189.652 Q1127.4 186.018 1127.4 179.652 Q1127.4 173.264 1130.55 169.652 Q1133.72 166.041 1139.3 166.041 Z" fill="#000000" fill-rule="nonzero" fill-opacity="1" /><path clip-path="url(#clip740)" d="M1179.81 176.944 L1179.81 192.592 L1175.55 192.592 L1175.55 177.083 Q1175.55 173.402 1174.11 171.574 Q1172.68 169.745 1169.81 169.745 Q1166.36 169.745 1164.37 171.944 Q1162.38 174.143 1162.38 177.939 L1162.38 192.592 L1158.1 192.592 L1158.1 166.666 L1162.38 166.666 L1162.38 170.694 Q1163.91 168.356 1165.97 167.199 Q1168.05 166.041 1170.76 166.041 Q1175.23 166.041 1177.52 168.819 Q1179.81 171.574 1179.81 176.944 Z" fill="#000000" fill-rule="nonzero" fill-opacity="1" /><path clip-path="url(#clip740)" d="M1204.83 167.43 L1204.83 171.458 Q1203.03 170.532 1201.08 170.069 Q1199.14 169.606 1197.05 169.606 Q1193.88 169.606 1192.29 170.578 Q1190.71 171.551 1190.71 173.495 Q1190.71 174.976 1191.85 175.833 Q1192.98 176.666 1196.41 177.43 L1197.86 177.754 Q1202.4 178.726 1204.3 180.509 Q1206.22 182.268 1206.22 185.439 Q1206.22 189.05 1203.35 191.157 Q1200.5 193.263 1195.5 193.263 Q1193.42 193.263 1191.15 192.847 Q1188.91 192.453 1186.41 191.643 L1186.41 187.245 Q1188.77 188.472 1191.06 189.097 Q1193.35 189.699 1195.6 189.699 Q1198.61 189.699 1200.23 188.68 Q1201.85 187.638 1201.85 185.763 Q1201.85 184.027 1200.67 183.101 Q1199.51 182.176 1195.55 181.319 L1194.07 180.972 Q1190.11 180.138 1188.35 178.426 Q1186.59 176.689 1186.59 173.68 Q1186.59 170.023 1189.18 168.032 Q1191.78 166.041 1196.55 166.041 Q1198.91 166.041 1200.99 166.389 Q1203.07 166.736 1204.83 167.43 Z" fill="#000000" fill-rule="nonzero" fill-opacity="1" /><path clip-path="url(#clip740)" d="M1217.22 159.305 L1217.22 166.666 L1225.99 166.666 L1225.99 169.977 L1217.22 169.977 L1217.22 184.051 Q1217.22 187.222 1218.07 188.125 Q1218.95 189.027 1221.61 189.027 L1225.99 189.027 L1225.99 192.592 L1221.61 192.592 Q1216.68 192.592 1214.81 190.763 Q1212.93 188.912 1212.93 184.051 L1212.93 169.977 L1209.81 169.977 L1209.81 166.666 L1212.93 166.666 L1212.93 159.305 L1217.22 159.305 Z" fill="#000000" fill-rule="nonzero" fill-opacity="1" /><path clip-path="url(#clip740)" d="M1246.61 170.648 Q1245.9 170.231 1245.04 170.046 Q1244.21 169.838 1243.19 169.838 Q1239.58 169.838 1237.63 172.199 Q1235.71 174.537 1235.71 178.935 L1235.71 192.592 L1231.43 192.592 L1231.43 166.666 L1235.71 166.666 L1235.71 170.694 Q1237.05 168.333 1239.21 167.199 Q1241.36 166.041 1244.44 166.041 Q1244.88 166.041 1245.41 166.111 Q1245.94 166.157 1246.59 166.273 L1246.61 170.648 Z" fill="#000000" fill-rule="nonzero" fill-opacity="1" /><path clip-path="url(#clip740)" d="M1250.64 182.361 L1250.64 166.666 L1254.9 166.666 L1254.9 182.199 Q1254.9 185.879 1256.34 187.731 Q1257.77 189.56 1260.64 189.56 Q1264.09 189.56 1266.08 187.361 Q1268.1 185.162 1268.1 181.365 L1268.1 166.666 L1272.35 166.666 L1272.35 192.592 L1268.1 192.592 L1268.1 188.611 Q1266.54 190.972 1264.48 192.129 Q1262.45 193.263 1259.74 193.263 Q1255.27 193.263 1252.96 190.486 Q1250.64 187.708 1250.64 182.361 M1261.36 166.041 L1261.36 166.041 Z" fill="#000000" fill-rule="nonzero" fill-opacity="1" /><path clip-path="url(#clip740)" d="M1299.79 167.662 L1299.79 171.643 Q1297.98 170.648 1296.15 170.162 Q1294.35 169.652 1292.49 169.652 Q1288.35 169.652 1286.06 172.291 Q1283.77 174.907 1283.77 179.652 Q1283.77 184.398 1286.06 187.037 Q1288.35 189.652 1292.49 189.652 Q1294.35 189.652 1296.15 189.166 Q1297.98 188.657 1299.79 187.662 L1299.79 191.597 Q1298 192.43 1296.08 192.847 Q1294.18 193.263 1292.03 193.263 Q1286.17 193.263 1282.73 189.583 Q1279.28 185.902 1279.28 179.652 Q1279.28 173.31 1282.75 169.676 Q1286.24 166.041 1292.31 166.041 Q1294.28 166.041 1296.15 166.458 Q1298.03 166.852 1299.79 167.662 Z" fill="#000000" fill-rule="nonzero" fill-opacity="1" /><path clip-path="url(#clip740)" d="M1311.41 159.305 L1311.41 166.666 L1320.18 166.666 L1320.18 169.977 L1311.41 169.977 L1311.41 184.051 Q1311.41 187.222 1312.26 188.125 Q1313.14 189.027 1315.8 189.027 L1320.18 189.027 L1320.18 192.592 L1315.8 192.592 Q1310.87 192.592 1309 190.763 Q1307.12 188.912 1307.12 184.051 L1307.12 169.977 L1304 169.977 L1304 166.666 L1307.12 166.666 L1307.12 159.305 L1311.41 159.305 Z" fill="#000000" fill-rule="nonzero" fill-opacity="1" /><path clip-path="url(#clip740)" d="M1347.96 178.564 L1347.96 180.648 L1328.37 180.648 Q1328.65 185.046 1331.01 187.361 Q1333.4 189.652 1337.63 189.652 Q1340.09 189.652 1342.38 189.05 Q1344.69 188.449 1346.96 187.245 L1346.96 191.273 Q1344.67 192.245 1342.26 192.754 Q1339.85 193.263 1337.38 193.263 Q1331.17 193.263 1327.54 189.652 Q1323.93 186.041 1323.93 179.884 Q1323.93 173.518 1327.35 169.791 Q1330.8 166.041 1336.64 166.041 Q1341.87 166.041 1344.9 169.421 Q1347.96 172.777 1347.96 178.564 M1343.7 177.314 Q1343.65 173.819 1341.73 171.736 Q1339.83 169.652 1336.68 169.652 Q1333.12 169.652 1330.97 171.666 Q1328.84 173.68 1328.51 177.338 L1343.7 177.314 Z" fill="#000000" fill-rule="nonzero" fill-opacity="1" /><path clip-path="url(#clip740)" d="M1372.01 170.602 L1372.01 156.574 L1376.27 156.574 L1376.27 192.592 L1372.01 192.592 L1372.01 188.703 Q1370.66 191.018 1368.6 192.152 Q1366.57 193.263 1363.7 193.263 Q1359 193.263 1356.04 189.513 Q1353.1 185.763 1353.1 179.652 Q1353.1 173.541 1356.04 169.791 Q1359 166.041 1363.7 166.041 Q1366.57 166.041 1368.6 167.176 Q1370.66 168.287 1372.01 170.602 M1357.49 179.652 Q1357.49 184.351 1359.41 187.037 Q1361.36 189.699 1364.74 189.699 Q1368.12 189.699 1370.06 187.037 Q1372.01 184.351 1372.01 179.652 Q1372.01 174.953 1370.06 172.291 Q1368.12 169.606 1364.74 169.606 Q1361.36 169.606 1359.41 172.291 Q1357.49 174.953 1357.49 179.652 Z" fill="#000000" fill-rule="nonzero" fill-opacity="1" /><path clip-path="url(#clip740)" d="M1409.21 192.592 L1396.01 158.032 L1400.9 158.032 L1411.84 187.129 L1422.82 158.032 L1427.68 158.032 L1414.51 192.592 L1409.21 192.592 Z" fill="#000000" fill-rule="nonzero" fill-opacity="1" /><path clip-path="url(#clip740)" d="M1451.03 178.564 L1451.03 180.648 L1431.45 180.648 Q1431.73 185.046 1434.09 187.361 Q1436.47 189.652 1440.71 189.652 Q1443.16 189.652 1445.46 189.05 Q1447.77 188.449 1450.04 187.245 L1450.04 191.273 Q1447.75 192.245 1445.34 192.754 Q1442.93 193.263 1440.46 193.263 Q1434.25 193.263 1430.62 189.652 Q1427.01 186.041 1427.01 179.884 Q1427.01 173.518 1430.43 169.791 Q1433.88 166.041 1439.72 166.041 Q1444.95 166.041 1447.98 169.421 Q1451.03 172.777 1451.03 178.564 M1446.78 177.314 Q1446.73 173.819 1444.81 171.736 Q1442.91 169.652 1439.76 169.652 Q1436.2 169.652 1434.04 171.666 Q1431.91 173.68 1431.59 177.338 L1446.78 177.314 Z" fill="#000000" fill-rule="nonzero" fill-opacity="1" /><path clip-path="url(#clip740)" d="M1458.03 156.574 L1462.28 156.574 L1462.28 192.592 L1458.03 192.592 L1458.03 156.574 Z" fill="#000000" fill-rule="nonzero" fill-opacity="1" /><path clip-path="url(#clip740)" d="M1481.24 169.652 Q1477.82 169.652 1475.83 172.338 Q1473.84 175 1473.84 179.652 Q1473.84 184.305 1475.8 186.99 Q1477.79 189.652 1481.24 189.652 Q1484.65 189.652 1486.64 186.967 Q1488.63 184.282 1488.63 179.652 Q1488.63 175.046 1486.64 172.361 Q1484.65 169.652 1481.24 169.652 M1481.24 166.041 Q1486.8 166.041 1489.97 169.652 Q1493.14 173.264 1493.14 179.652 Q1493.14 186.018 1489.97 189.652 Q1486.8 193.263 1481.24 193.263 Q1475.66 193.263 1472.49 189.652 Q1469.34 186.018 1469.34 179.652 Q1469.34 173.264 1472.49 169.652 Q1475.66 166.041 1481.24 166.041 Z" fill="#000000" fill-rule="nonzero" fill-opacity="1" /><path clip-path="url(#clip740)" d="M1518.86 167.662 L1518.86 171.643 Q1517.05 170.648 1515.22 170.162 Q1513.42 169.652 1511.57 169.652 Q1507.42 169.652 1505.13 172.291 Q1502.84 174.907 1502.84 179.652 Q1502.84 184.398 1505.13 187.037 Q1507.42 189.652 1511.57 189.652 Q1513.42 189.652 1515.22 189.166 Q1517.05 188.657 1518.86 187.662 L1518.86 191.597 Q1517.08 192.43 1515.15 192.847 Q1513.26 193.263 1511.1 193.263 Q1505.25 193.263 1501.8 189.583 Q1498.35 185.902 1498.35 179.652 Q1498.35 173.31 1501.82 169.676 Q1505.32 166.041 1511.38 166.041 Q1513.35 166.041 1515.22 166.458 Q1517.1 166.852 1518.86 167.662 Z" fill="#000000" fill-rule="nonzero" fill-opacity="1" /><path clip-path="url(#clip740)" d="M1526.27 166.666 L1530.52 166.666 L1530.52 192.592 L1526.27 192.592 L1526.27 166.666 M1526.27 156.574 L1530.52 156.574 L1530.52 161.967 L1526.27 161.967 L1526.27 156.574 Z" fill="#000000" fill-rule="nonzero" fill-opacity="1" /><path clip-path="url(#clip740)" d="M1543.65 159.305 L1543.65 166.666 L1552.42 166.666 L1552.42 169.977 L1543.65 169.977 L1543.65 184.051 Q1543.65 187.222 1544.51 188.125 Q1545.39 189.027 1548.05 189.027 L1552.42 189.027 L1552.42 192.592 L1548.05 192.592 Q1543.12 192.592 1541.24 190.763 Q1539.37 188.912 1539.37 184.051 L1539.37 169.977 L1536.24 169.977 L1536.24 166.666 L1539.37 166.666 L1539.37 159.305 L1543.65 159.305 Z" fill="#000000" fill-rule="nonzero" fill-opacity="1" /><path clip-path="url(#clip740)" d="M1568.81 195 Q1567.01 199.629 1565.29 201.041 Q1563.58 202.453 1560.71 202.453 L1557.31 202.453 L1557.31 198.888 L1559.81 198.888 Q1561.57 198.888 1562.54 198.055 Q1563.51 197.222 1564.69 194.12 L1565.46 192.175 L1554.97 166.666 L1559.48 166.666 L1567.58 186.944 L1575.69 166.666 L1580.2 166.666 L1568.81 195 Z" fill="#000000" fill-rule="nonzero" fill-opacity="1" /><path clip-path="url(#clip740)" d="M1614.27 156.574 L1614.27 160.115 L1610.2 160.115 Q1607.91 160.115 1607.01 161.041 Q1606.13 161.967 1606.13 164.375 L1606.13 166.666 L1613.14 166.666 L1613.14 169.977 L1606.13 169.977 L1606.13 192.592 L1601.84 192.592 L1601.84 169.977 L1597.77 169.977 L1597.77 166.666 L1601.84 166.666 L1601.84 164.861 Q1601.84 160.532 1603.86 158.565 Q1605.87 156.574 1610.25 156.574 L1614.27 156.574 Z" fill="#000000" fill-rule="nonzero" fill-opacity="1" /><path clip-path="url(#clip740)" d="M1617.84 166.666 L1622.1 166.666 L1622.1 192.592 L1617.84 192.592 L1617.84 166.666 M1617.84 156.574 L1622.1 156.574 L1622.1 161.967 L1617.84 161.967 L1617.84 156.574 Z" fill="#000000" fill-rule="nonzero" fill-opacity="1" /><path clip-path="url(#clip740)" d="M1653.19 178.564 L1653.19 180.648 L1633.6 180.648 Q1633.88 185.046 1636.24 187.361 Q1638.63 189.652 1642.86 189.652 Q1645.32 189.652 1647.61 189.05 Q1649.92 188.449 1652.19 187.245 L1652.19 191.273 Q1649.9 192.245 1647.49 192.754 Q1645.08 193.263 1642.61 193.263 Q1636.4 193.263 1632.77 189.652 Q1629.16 186.041 1629.16 179.884 Q1629.16 173.518 1632.58 169.791 Q1636.03 166.041 1641.87 166.041 Q1647.1 166.041 1650.13 169.421 Q1653.19 172.777 1653.19 178.564 M1648.93 177.314 Q1648.88 173.819 1646.96 171.736 Q1645.06 169.652 1641.91 169.652 Q1638.35 169.652 1636.2 171.666 Q1634.07 173.68 1633.74 177.338 L1648.93 177.314 Z" fill="#000000" fill-rule="nonzero" fill-opacity="1" /><path clip-path="url(#clip740)" d="M1660.18 156.574 L1664.44 156.574 L1664.44 192.592 L1660.18 192.592 L1660.18 156.574 Z" fill="#000000" fill-rule="nonzero" fill-opacity="1" /><path clip-path="url(#clip740)" d="M1690.41 170.602 L1690.41 156.574 L1694.67 156.574 L1694.67 192.592 L1690.41 192.592 L1690.41 188.703 Q1689.07 191.018 1687.01 192.152 Q1684.97 193.263 1682.1 193.263 Q1677.4 193.263 1674.44 189.513 Q1671.5 185.763 1671.5 179.652 Q1671.5 173.541 1674.44 169.791 Q1677.4 166.041 1682.1 166.041 Q1684.97 166.041 1687.01 167.176 Q1689.07 168.287 1690.41 170.602 M1675.89 179.652 Q1675.89 184.351 1677.82 187.037 Q1679.76 189.699 1683.14 189.699 Q1686.52 189.699 1688.46 187.037 Q1690.41 184.351 1690.41 179.652 Q1690.41 174.953 1688.46 172.291 Q1686.52 169.606 1683.14 169.606 Q1679.76 169.606 1677.82 172.291 Q1675.89 174.953 1675.89 179.652 Z" fill="#000000" fill-rule="nonzero" fill-opacity="1" /><polyline clip-path="url(#clip740)" style="stroke:#ff0000; stroke-linecap:round; stroke-linejoin:round; stroke-width:4; stroke-opacity:1; fill:none" points="877.469,227.152 1019.69,227.152 "/>
<path clip-path="url(#clip740)" d="M1056.59 244.432 L1043.4 209.872 L1048.28 209.872 L1059.23 238.969 L1070.2 209.872 L1075.06 209.872 L1061.89 244.432 L1056.59 244.432 Z" fill="#000000" fill-rule="nonzero" fill-opacity="1" /><path clip-path="url(#clip740)" d="M1098.42 230.404 L1098.42 232.488 L1078.84 232.488 Q1079.12 236.886 1081.48 239.201 Q1083.86 241.492 1088.1 241.492 Q1090.55 241.492 1092.84 240.89 Q1095.16 240.289 1097.43 239.085 L1097.43 243.113 Q1095.13 244.085 1092.73 244.594 Q1090.32 245.103 1087.84 245.103 Q1081.64 245.103 1078 241.492 Q1074.39 237.881 1074.39 231.724 Q1074.39 225.358 1077.82 221.631 Q1081.27 217.881 1087.1 217.881 Q1092.33 217.881 1095.37 221.261 Q1098.42 224.617 1098.42 230.404 M1094.16 229.154 Q1094.12 225.659 1092.19 223.576 Q1090.3 221.492 1087.15 221.492 Q1083.58 221.492 1081.43 223.506 Q1079.3 225.52 1078.98 229.178 L1094.16 229.154 Z" fill="#000000" fill-rule="nonzero" fill-opacity="1" /><path clip-path="url(#clip740)" d="M1105.41 208.414 L1109.67 208.414 L1109.67 244.432 L1105.41 244.432 L1105.41 208.414 Z" fill="#000000" fill-rule="nonzero" fill-opacity="1" /><path clip-path="url(#clip740)" d="M1128.63 221.492 Q1125.2 221.492 1123.21 224.178 Q1121.22 226.84 1121.22 231.492 Q1121.22 236.145 1123.19 238.83 Q1125.18 241.492 1128.63 241.492 Q1132.03 241.492 1134.02 238.807 Q1136.01 236.122 1136.01 231.492 Q1136.01 226.886 1134.02 224.201 Q1132.03 221.492 1128.63 221.492 M1128.63 217.881 Q1134.18 217.881 1137.36 221.492 Q1140.53 225.104 1140.53 231.492 Q1140.53 237.858 1137.36 241.492 Q1134.18 245.103 1128.63 245.103 Q1123.05 245.103 1119.88 241.492 Q1116.73 237.858 1116.73 231.492 Q1116.73 225.104 1119.88 221.492 Q1123.05 217.881 1128.63 217.881 Z" fill="#000000" fill-rule="nonzero" fill-opacity="1" /><path clip-path="url(#clip740)" d="M1166.24 219.502 L1166.24 223.483 Q1164.44 222.488 1162.61 222.002 Q1160.8 221.492 1158.95 221.492 Q1154.81 221.492 1152.52 224.131 Q1150.23 226.747 1150.23 231.492 Q1150.23 236.238 1152.52 238.877 Q1154.81 241.492 1158.95 241.492 Q1160.8 241.492 1162.61 241.006 Q1164.44 240.497 1166.24 239.502 L1166.24 243.437 Q1164.46 244.27 1162.54 244.687 Q1160.64 245.103 1158.49 245.103 Q1152.63 245.103 1149.18 241.423 Q1145.74 237.742 1145.74 231.492 Q1145.74 225.15 1149.21 221.516 Q1152.7 217.881 1158.77 217.881 Q1160.74 217.881 1162.61 218.298 Q1164.49 218.692 1166.24 219.502 Z" fill="#000000" fill-rule="nonzero" fill-opacity="1" /><path clip-path="url(#clip740)" d="M1173.65 218.506 L1177.91 218.506 L1177.91 244.432 L1173.65 244.432 L1173.65 218.506 M1173.65 208.414 L1177.91 208.414 L1177.91 213.807 L1173.65 213.807 L1173.65 208.414 Z" fill="#000000" fill-rule="nonzero" fill-opacity="1" /><path clip-path="url(#clip740)" d="M1191.04 211.145 L1191.04 218.506 L1199.81 218.506 L1199.81 221.817 L1191.04 221.817 L1191.04 235.891 Q1191.04 239.062 1191.89 239.965 Q1192.77 240.867 1195.43 240.867 L1199.81 240.867 L1199.81 244.432 L1195.43 244.432 Q1190.5 244.432 1188.63 242.603 Q1186.75 240.752 1186.75 235.891 L1186.75 221.817 L1183.63 221.817 L1183.63 218.506 L1186.75 218.506 L1186.75 211.145 L1191.04 211.145 Z" fill="#000000" fill-rule="nonzero" fill-opacity="1" /><path clip-path="url(#clip740)" d="M1216.2 246.84 Q1214.39 251.469 1212.68 252.881 Q1210.97 254.293 1208.1 254.293 L1204.69 254.293 L1204.69 250.728 L1207.19 250.728 Q1208.95 250.728 1209.92 249.895 Q1210.9 249.062 1212.08 245.96 L1212.84 244.015 L1202.36 218.506 L1206.87 218.506 L1214.97 238.784 L1223.07 218.506 L1227.59 218.506 L1216.2 246.84 Z" fill="#000000" fill-rule="nonzero" fill-opacity="1" /><path clip-path="url(#clip740)" d="M1261.66 208.414 L1261.66 211.955 L1257.59 211.955 Q1255.29 211.955 1254.39 212.881 Q1253.51 213.807 1253.51 216.215 L1253.51 218.506 L1260.53 218.506 L1260.53 221.817 L1253.51 221.817 L1253.51 244.432 L1249.23 244.432 L1249.23 221.817 L1245.16 221.817 L1245.16 218.506 L1249.23 218.506 L1249.23 216.701 Q1249.23 212.372 1251.24 210.405 Q1253.26 208.414 1257.63 208.414 L1261.66 208.414 Z" fill="#000000" fill-rule="nonzero" fill-opacity="1" /><path clip-path="url(#clip740)" d="M1265.23 218.506 L1269.48 218.506 L1269.48 244.432 L1265.23 244.432 L1265.23 218.506 M1265.23 208.414 L1269.48 208.414 L1269.48 213.807 L1265.23 213.807 L1265.23 208.414 Z" fill="#000000" fill-rule="nonzero" fill-opacity="1" /><path clip-path="url(#clip740)" d="M1300.57 230.404 L1300.57 232.488 L1280.99 232.488 Q1281.27 236.886 1283.63 239.201 Q1286.01 241.492 1290.25 241.492 Q1292.7 241.492 1294.99 240.89 Q1297.31 240.289 1299.58 239.085 L1299.58 243.113 Q1297.29 244.085 1294.88 244.594 Q1292.47 245.103 1289.99 245.103 Q1283.79 245.103 1280.16 241.492 Q1276.54 237.881 1276.54 231.724 Q1276.54 225.358 1279.97 221.631 Q1283.42 217.881 1289.25 217.881 Q1294.48 217.881 1297.52 221.261 Q1300.57 224.617 1300.57 230.404 M1296.31 229.154 Q1296.27 225.659 1294.35 223.576 Q1292.45 221.492 1289.3 221.492 Q1285.73 221.492 1283.58 223.506 Q1281.45 225.52 1281.13 229.178 L1296.31 229.154 Z" fill="#000000" fill-rule="nonzero" fill-opacity="1" /><path clip-path="url(#clip740)" d="M1307.56 208.414 L1311.82 208.414 L1311.82 244.432 L1307.56 244.432 L1307.56 208.414 Z" fill="#000000" fill-rule="nonzero" fill-opacity="1" /><path clip-path="url(#clip740)" d="M1337.79 222.442 L1337.79 208.414 L1342.05 208.414 L1342.05 244.432 L1337.79 244.432 L1337.79 240.543 Q1336.45 242.858 1334.39 243.992 Q1332.35 245.103 1329.48 245.103 Q1324.79 245.103 1321.82 241.353 Q1318.88 237.603 1318.88 231.492 Q1318.88 225.381 1321.82 221.631 Q1324.79 217.881 1329.48 217.881 Q1332.35 217.881 1334.39 219.016 Q1336.45 220.127 1337.79 222.442 M1323.28 231.492 Q1323.28 236.191 1325.2 238.877 Q1327.15 241.539 1330.53 241.539 Q1333.91 241.539 1335.85 238.877 Q1337.79 236.191 1337.79 231.492 Q1337.79 226.793 1335.85 224.131 Q1333.91 221.446 1330.53 221.446 Q1327.15 221.446 1325.2 224.131 Q1323.28 226.793 1323.28 231.492 Z" fill="#000000" fill-rule="nonzero" fill-opacity="1" /></svg>
