<?xml version="1.0" encoding="utf-8"?>
<svg xmlns="http://www.w3.org/2000/svg" xmlns:xlink="http://www.w3.org/1999/xlink" width="600" height="400" viewBox="0 0 2400 1600">
<defs>
  <clipPath id="clip180">
    <rect x="0" y="0" width="2400" height="1600"/>
  </clipPath>
</defs>
<path clip-path="url(#clip180)" d="M0 1600 L2400 1600 L2400 0 L0 0  Z" fill="#ffffff" fill-rule="evenodd" fill-opacity="1"/>
<defs>
  <clipPath id="clip181">
    <rect x="480" y="0" width="1681" height="1600"/>
  </clipPath>
</defs>
<path clip-path="url(#clip180)" d="M219.866 1423.18 L2352.76 1423.18 L2352.76 322.316 L219.866 322.316  Z" fill="#ffffff" fill-rule="evenodd" fill-opacity="1"/>
<defs>
  <clipPath id="clip182">
    <rect x="219" y="322" width="2134" height="1102"/>
  </clipPath>
</defs>
<polyline clip-path="url(#clip182)" style="stroke:#000000; stroke-linecap:round; stroke-linejoin:round; stroke-width:2; stroke-opacity:0.1; fill:none" points="280.231,1423.18 280.231,322.316 "/>
<polyline clip-path="url(#clip182)" style="stroke:#000000; stroke-linecap:round; stroke-linejoin:round; stroke-width:2; stroke-opacity:0.1; fill:none" points="920.721,1423.18 920.721,322.316 "/>
<polyline clip-path="url(#clip182)" style="stroke:#000000; stroke-linecap:round; stroke-linejoin:round; stroke-width:2; stroke-opacity:0.1; fill:none" points="1561.21,1423.18 1561.21,322.316 "/>
<polyline clip-path="url(#clip182)" style="stroke:#000000; stroke-linecap:round; stroke-linejoin:round; stroke-width:2; stroke-opacity:0.1; fill:none" points="2201.7,1423.18 2201.7,322.316 "/>
<polyline clip-path="url(#clip180)" style="stroke:#000000; stroke-linecap:round; stroke-linejoin:round; stroke-width:4; stroke-opacity:1; fill:none" points="219.866,1423.18 2352.76,1423.18 "/>
<polyline clip-path="url(#clip180)" style="stroke:#000000; stroke-linecap:round; stroke-linejoin:round; stroke-width:4; stroke-opacity:1; fill:none" points="280.231,1423.18 280.231,1407.17 "/>
<polyline clip-path="url(#clip180)" style="stroke:#000000; stroke-linecap:round; stroke-linejoin:round; stroke-width:4; stroke-opacity:1; fill:none" points="920.721,1423.18 920.721,1407.17 "/>
<polyline clip-path="url(#clip180)" style="stroke:#000000; stroke-linecap:round; stroke-linejoin:round; stroke-width:4; stroke-opacity:1; fill:none" points="1561.21,1423.18 1561.21,1407.17 "/>
<polyline clip-path="url(#clip180)" style="stroke:#000000; stroke-linecap:round; stroke-linejoin:round; stroke-width:4; stroke-opacity:1; fill:none" points="2201.7,1423.18 2201.7,1407.17 "/>
<path clip-path="url(#clip180)" d="M280.231 1454.1 Q276.62 1454.1 274.791 1457.66 Q272.986 1461.2 272.986 1468.33 Q272.986 1475.44 274.791 1479.01 Q276.62 1482.55 280.231 1482.55 Q283.865 1482.55 285.671 1479.01 Q287.5 1475.44 287.5 1468.33 Q287.5 1461.2 285.671 1457.66 Q283.865 1454.1 280.231 1454.1 M280.231 1450.39 Q286.041 1450.39 289.097 1455 Q292.175 1459.58 292.175 1468.33 Q292.175 1477.06 289.097 1481.67 Q286.041 1486.25 280.231 1486.25 Q274.421 1486.25 271.342 1481.67 Q268.287 1477.06 268.287 1468.33 Q268.287 1459.58 271.342 1455 Q274.421 1450.39 280.231 1450.39 Z" fill="#000000" fill-rule="nonzero" fill-opacity="1" /><path clip-path="url(#clip180)" d="M911.103 1481.64 L918.742 1481.64 L918.742 1455.28 L910.432 1456.95 L910.432 1452.69 L918.696 1451.02 L923.372 1451.02 L923.372 1481.64 L931.011 1481.64 L931.011 1485.58 L911.103 1485.58 L911.103 1481.64 Z" fill="#000000" fill-rule="nonzero" fill-opacity="1" /><path clip-path="url(#clip180)" d="M1555.86 1481.64 L1572.18 1481.64 L1572.18 1485.58 L1550.24 1485.58 L1550.24 1481.64 Q1552.9 1478.89 1557.49 1474.26 Q1562.09 1469.61 1563.27 1468.27 Q1565.52 1465.74 1566.4 1464.01 Q1567.3 1462.25 1567.3 1460.56 Q1567.3 1457.8 1565.36 1456.07 Q1563.43 1454.33 1560.33 1454.33 Q1558.13 1454.33 1555.68 1455.09 Q1553.25 1455.86 1550.47 1457.41 L1550.47 1452.69 Q1553.3 1451.55 1555.75 1450.97 Q1558.2 1450.39 1560.24 1450.39 Q1565.61 1450.39 1568.8 1453.08 Q1572 1455.77 1572 1460.26 Q1572 1462.39 1571.19 1464.31 Q1570.4 1466.2 1568.3 1468.8 Q1567.72 1469.47 1564.61 1472.69 Q1561.51 1475.88 1555.86 1481.64 Z" fill="#000000" fill-rule="nonzero" fill-opacity="1" /><path clip-path="url(#clip180)" d="M2205.95 1466.95 Q2209.31 1467.66 2211.18 1469.93 Q2213.08 1472.2 2213.08 1475.53 Q2213.08 1480.65 2209.56 1483.45 Q2206.04 1486.25 2199.56 1486.25 Q2197.39 1486.25 2195.07 1485.81 Q2192.78 1485.39 2190.33 1484.54 L2190.33 1480.02 Q2192.27 1481.16 2194.58 1481.74 Q2196.9 1482.32 2199.42 1482.32 Q2203.82 1482.32 2206.11 1480.58 Q2208.43 1478.84 2208.43 1475.53 Q2208.43 1472.48 2206.27 1470.77 Q2204.14 1469.03 2200.33 1469.03 L2196.3 1469.03 L2196.3 1465.19 L2200.51 1465.19 Q2203.96 1465.19 2205.79 1463.82 Q2207.62 1462.43 2207.62 1459.84 Q2207.62 1457.18 2205.72 1455.77 Q2203.84 1454.33 2200.33 1454.33 Q2198.4 1454.33 2196.2 1454.75 Q2194.01 1455.16 2191.37 1456.04 L2191.37 1451.88 Q2194.03 1451.14 2196.34 1450.77 Q2198.68 1450.39 2200.74 1450.39 Q2206.07 1450.39 2209.17 1452.83 Q2212.27 1455.23 2212.27 1459.35 Q2212.27 1462.22 2210.63 1464.21 Q2208.98 1466.18 2205.95 1466.95 Z" fill="#000000" fill-rule="nonzero" fill-opacity="1" /><path clip-path="url(#clip180)" d="M1302.93 1532.4 L1290.04 1549.74 L1303.59 1568.04 L1296.69 1568.04 L1286.31 1554.04 L1275.93 1568.04 L1269.03 1568.04 L1282.87 1549.39 L1270.21 1532.4 L1277.11 1532.4 L1286.57 1545.1 L1296.02 1532.4 L1302.93 1532.4 Z" fill="#000000" fill-rule="nonzero" fill-opacity="1" /><polyline clip-path="url(#clip182)" style="stroke:#000000; stroke-linecap:round; stroke-linejoin:round; stroke-width:2; stroke-opacity:0.1; fill:none" points="219.866,1414.38 2352.76,1414.38 "/>
<polyline clip-path="url(#clip182)" style="stroke:#000000; stroke-linecap:round; stroke-linejoin:round; stroke-width:2; stroke-opacity:0.1; fill:none" points="219.866,1211.18 2352.76,1211.18 "/>
<polyline clip-path="url(#clip182)" style="stroke:#000000; stroke-linecap:round; stroke-linejoin:round; stroke-width:2; stroke-opacity:0.1; fill:none" points="219.866,1007.99 2352.76,1007.99 "/>
<polyline clip-path="url(#clip182)" style="stroke:#000000; stroke-linecap:round; stroke-linejoin:round; stroke-width:2; stroke-opacity:0.1; fill:none" points="219.866,804.789 2352.76,804.789 "/>
<polyline clip-path="url(#clip182)" style="stroke:#000000; stroke-linecap:round; stroke-linejoin:round; stroke-width:2; stroke-opacity:0.1; fill:none" points="219.866,601.592 2352.76,601.592 "/>
<polyline clip-path="url(#clip182)" style="stroke:#000000; stroke-linecap:round; stroke-linejoin:round; stroke-width:2; stroke-opacity:0.1; fill:none" points="219.866,398.395 2352.76,398.395 "/>
<polyline clip-path="url(#clip180)" style="stroke:#000000; stroke-linecap:round; stroke-linejoin:round; stroke-width:4; stroke-opacity:1; fill:none" points="219.866,1423.18 219.866,322.316 "/>
<polyline clip-path="url(#clip180)" style="stroke:#000000; stroke-linecap:round; stroke-linejoin:round; stroke-width:4; stroke-opacity:1; fill:none" points="219.866,1414.38 238.764,1414.38 "/>
<polyline clip-path="url(#clip180)" style="stroke:#000000; stroke-linecap:round; stroke-linejoin:round; stroke-width:4; stroke-opacity:1; fill:none" points="219.866,1211.18 238.764,1211.18 "/>
<polyline clip-path="url(#clip180)" style="stroke:#000000; stroke-linecap:round; stroke-linejoin:round; stroke-width:4; stroke-opacity:1; fill:none" points="219.866,1007.99 238.764,1007.99 "/>
<polyline clip-path="url(#clip180)" style="stroke:#000000; stroke-linecap:round; stroke-linejoin:round; stroke-width:4; stroke-opacity:1; fill:none" points="219.866,804.789 238.764,804.789 "/>
<polyline clip-path="url(#clip180)" style="stroke:#000000; stroke-linecap:round; stroke-linejoin:round; stroke-width:4; stroke-opacity:1; fill:none" points="219.866,601.592 238.764,601.592 "/>
<polyline clip-path="url(#clip180)" style="stroke:#000000; stroke-linecap:round; stroke-linejoin:round; stroke-width:4; stroke-opacity:1; fill:none" points="219.866,398.395 238.764,398.395 "/>
<path clip-path="url(#clip180)" d="M126.691 1400.18 Q123.08 1400.18 121.251 1403.74 Q119.445 1407.29 119.445 1414.42 Q119.445 1421.52 121.251 1425.09 Q123.08 1428.63 126.691 1428.63 Q130.325 1428.63 132.13 1425.09 Q133.959 1421.52 133.959 1414.42 Q133.959 1407.29 132.13 1403.74 Q130.325 1400.18 126.691 1400.18 M126.691 1396.48 Q132.501 1396.48 135.556 1401.08 Q138.635 1405.67 138.635 1414.42 Q138.635 1423.14 135.556 1427.75 Q132.501 1432.33 126.691 1432.33 Q120.88 1432.33 117.802 1427.75 Q114.746 1423.14 114.746 1414.42 Q114.746 1405.67 117.802 1401.08 Q120.88 1396.48 126.691 1396.48 Z" fill="#000000" fill-rule="nonzero" fill-opacity="1" /><path clip-path="url(#clip180)" d="M146.853 1425.78 L151.737 1425.78 L151.737 1431.66 L146.853 1431.66 L146.853 1425.78 Z" fill="#000000" fill-rule="nonzero" fill-opacity="1" /><path clip-path="url(#clip180)" d="M171.922 1400.18 Q168.311 1400.18 166.482 1403.74 Q164.677 1407.29 164.677 1414.42 Q164.677 1421.52 166.482 1425.09 Q168.311 1428.63 171.922 1428.63 Q175.556 1428.63 177.362 1425.09 Q179.19 1421.52 179.19 1414.42 Q179.19 1407.29 177.362 1403.74 Q175.556 1400.18 171.922 1400.18 M171.922 1396.48 Q177.732 1396.48 180.788 1401.08 Q183.866 1405.67 183.866 1414.42 Q183.866 1423.14 180.788 1427.75 Q177.732 1432.33 171.922 1432.33 Q166.112 1432.33 163.033 1427.75 Q159.978 1423.14 159.978 1414.42 Q159.978 1405.67 163.033 1401.08 Q166.112 1396.48 171.922 1396.48 Z" fill="#000000" fill-rule="nonzero" fill-opacity="1" /><path clip-path="url(#clip180)" d="M127.917 1196.98 Q124.306 1196.98 122.478 1200.55 Q120.672 1204.09 120.672 1211.22 Q120.672 1218.32 122.478 1221.89 Q124.306 1225.43 127.917 1225.43 Q131.552 1225.43 133.357 1221.89 Q135.186 1218.32 135.186 1211.22 Q135.186 1204.09 133.357 1200.55 Q131.552 1196.98 127.917 1196.98 M127.917 1193.28 Q133.728 1193.28 136.783 1197.88 Q139.862 1202.47 139.862 1211.22 Q139.862 1219.94 136.783 1224.55 Q133.728 1229.13 127.917 1229.13 Q122.107 1229.13 119.029 1224.55 Q115.973 1219.94 115.973 1211.22 Q115.973 1202.47 119.029 1197.88 Q122.107 1193.28 127.917 1193.28 Z" fill="#000000" fill-rule="nonzero" fill-opacity="1" /><path clip-path="url(#clip180)" d="M148.079 1222.58 L152.964 1222.58 L152.964 1228.46 L148.079 1228.46 L148.079 1222.58 Z" fill="#000000" fill-rule="nonzero" fill-opacity="1" /><path clip-path="url(#clip180)" d="M163.959 1224.53 L171.598 1224.53 L171.598 1198.16 L163.288 1199.83 L163.288 1195.57 L171.552 1193.9 L176.227 1193.9 L176.227 1224.53 L183.866 1224.53 L183.866 1228.46 L163.959 1228.46 L163.959 1224.53 Z" fill="#000000" fill-rule="nonzero" fill-opacity="1" /><path clip-path="url(#clip180)" d="M128.288 993.785 Q124.677 993.785 122.848 997.35 Q121.043 1000.89 121.043 1008.02 Q121.043 1015.13 122.848 1018.69 Q124.677 1022.23 128.288 1022.23 Q131.922 1022.23 133.728 1018.69 Q135.556 1015.13 135.556 1008.02 Q135.556 1000.89 133.728 997.35 Q131.922 993.785 128.288 993.785 M128.288 990.081 Q134.098 990.081 137.154 994.688 Q140.232 999.271 140.232 1008.02 Q140.232 1016.75 137.154 1021.35 Q134.098 1025.94 128.288 1025.94 Q122.478 1025.94 119.399 1021.35 Q116.343 1016.75 116.343 1008.02 Q116.343 999.271 119.399 994.688 Q122.478 990.081 128.288 990.081 Z" fill="#000000" fill-rule="nonzero" fill-opacity="1" /><path clip-path="url(#clip180)" d="M148.45 1019.39 L153.334 1019.39 L153.334 1025.27 L148.45 1025.27 L148.45 1019.39 Z" fill="#000000" fill-rule="nonzero" fill-opacity="1" /><path clip-path="url(#clip180)" d="M167.547 1021.33 L183.866 1021.33 L183.866 1025.27 L161.922 1025.27 L161.922 1021.33 Q164.584 1018.58 169.167 1013.95 Q173.774 1009.29 174.954 1007.95 Q177.2 1005.43 178.079 1003.69 Q178.982 1001.93 178.982 1000.24 Q178.982 997.489 177.038 995.753 Q175.116 994.016 172.014 994.016 Q169.815 994.016 167.362 994.78 Q164.931 995.544 162.153 997.095 L162.153 992.373 Q164.977 991.239 167.431 990.66 Q169.885 990.081 171.922 990.081 Q177.292 990.081 180.487 992.766 Q183.681 995.452 183.681 999.942 Q183.681 1002.07 182.871 1003.99 Q182.084 1005.89 179.977 1008.48 Q179.399 1009.16 176.297 1012.37 Q173.195 1015.57 167.547 1021.33 Z" fill="#000000" fill-rule="nonzero" fill-opacity="1" /><path clip-path="url(#clip180)" d="M127.339 790.588 Q123.728 790.588 121.899 794.153 Q120.093 797.694 120.093 804.824 Q120.093 811.93 121.899 815.495 Q123.728 819.037 127.339 819.037 Q130.973 819.037 132.779 815.495 Q134.607 811.93 134.607 804.824 Q134.607 797.694 132.779 794.153 Q130.973 790.588 127.339 790.588 M127.339 786.884 Q133.149 786.884 136.204 791.491 Q139.283 796.074 139.283 804.824 Q139.283 813.551 136.204 818.157 Q133.149 822.74 127.339 822.74 Q121.529 822.74 118.45 818.157 Q115.394 813.551 115.394 804.824 Q115.394 796.074 118.45 791.491 Q121.529 786.884 127.339 786.884 Z" fill="#000000" fill-rule="nonzero" fill-opacity="1" /><path clip-path="url(#clip180)" d="M147.501 816.19 L152.385 816.19 L152.385 822.069 L147.501 822.069 L147.501 816.19 Z" fill="#000000" fill-rule="nonzero" fill-opacity="1" /><path clip-path="url(#clip180)" d="M176.737 803.435 Q180.093 804.153 181.968 806.421 Q183.866 808.69 183.866 812.023 Q183.866 817.139 180.348 819.94 Q176.829 822.74 170.348 822.74 Q168.172 822.74 165.857 822.301 Q163.565 821.884 161.112 821.027 L161.112 816.514 Q163.056 817.648 165.371 818.227 Q167.686 818.805 170.209 818.805 Q174.607 818.805 176.899 817.069 Q179.214 815.333 179.214 812.023 Q179.214 808.967 177.061 807.254 Q174.931 805.518 171.112 805.518 L167.084 805.518 L167.084 801.676 L171.297 801.676 Q174.746 801.676 176.575 800.31 Q178.403 798.921 178.403 796.329 Q178.403 793.667 176.505 792.255 Q174.63 790.819 171.112 790.819 Q169.19 790.819 166.991 791.236 Q164.792 791.653 162.153 792.532 L162.153 788.366 Q164.815 787.625 167.13 787.255 Q169.468 786.884 171.528 786.884 Q176.852 786.884 179.954 789.315 Q183.056 791.722 183.056 795.842 Q183.056 798.713 181.413 800.704 Q179.769 802.671 176.737 803.435 Z" fill="#000000" fill-rule="nonzero" fill-opacity="1" /><path clip-path="url(#clip180)" d="M126.205 587.391 Q122.593 587.391 120.765 590.955 Q118.959 594.497 118.959 601.627 Q118.959 608.733 120.765 612.298 Q122.593 615.84 126.205 615.84 Q129.839 615.84 131.644 612.298 Q133.473 608.733 133.473 601.627 Q133.473 594.497 131.644 590.955 Q129.839 587.391 126.205 587.391 M126.205 583.687 Q132.015 583.687 135.07 588.293 Q138.149 592.877 138.149 601.627 Q138.149 610.354 135.07 614.96 Q132.015 619.543 126.205 619.543 Q120.394 619.543 117.316 614.96 Q114.26 610.354 114.26 601.627 Q114.26 592.877 117.316 588.293 Q120.394 583.687 126.205 583.687 Z" fill="#000000" fill-rule="nonzero" fill-opacity="1" /><path clip-path="url(#clip180)" d="M146.366 612.992 L151.251 612.992 L151.251 618.872 L146.366 618.872 L146.366 612.992 Z" fill="#000000" fill-rule="nonzero" fill-opacity="1" /><path clip-path="url(#clip180)" d="M174.283 588.386 L162.477 606.835 L174.283 606.835 L174.283 588.386 M173.056 584.312 L178.936 584.312 L178.936 606.835 L183.866 606.835 L183.866 610.724 L178.936 610.724 L178.936 618.872 L174.283 618.872 L174.283 610.724 L158.681 610.724 L158.681 606.21 L173.056 584.312 Z" fill="#000000" fill-rule="nonzero" fill-opacity="1" /><path clip-path="url(#clip180)" d="M127.686 384.194 Q124.075 384.194 122.246 387.758 Q120.441 391.3 120.441 398.43 Q120.441 405.536 122.246 409.101 Q124.075 412.642 127.686 412.642 Q131.32 412.642 133.126 409.101 Q134.954 405.536 134.954 398.43 Q134.954 391.3 133.126 387.758 Q131.32 384.194 127.686 384.194 M127.686 380.49 Q133.496 380.49 136.552 385.096 Q139.63 389.68 139.63 398.43 Q139.63 407.156 136.552 411.763 Q133.496 416.346 127.686 416.346 Q121.876 416.346 118.797 411.763 Q115.742 407.156 115.742 398.43 Q115.742 389.68 118.797 385.096 Q121.876 380.49 127.686 380.49 Z" fill="#000000" fill-rule="nonzero" fill-opacity="1" /><path clip-path="url(#clip180)" d="M147.848 409.795 L152.732 409.795 L152.732 415.675 L147.848 415.675 L147.848 409.795 Z" fill="#000000" fill-rule="nonzero" fill-opacity="1" /><path clip-path="url(#clip180)" d="M162.964 381.115 L181.32 381.115 L181.32 385.05 L167.246 385.05 L167.246 393.522 Q168.264 393.175 169.283 393.013 Q170.302 392.828 171.32 392.828 Q177.107 392.828 180.487 395.999 Q183.866 399.17 183.866 404.587 Q183.866 410.166 180.394 413.267 Q176.922 416.346 170.602 416.346 Q168.427 416.346 166.158 415.976 Q163.913 415.605 161.505 414.865 L161.505 410.166 Q163.589 411.3 165.811 411.855 Q168.033 412.411 170.51 412.411 Q174.514 412.411 176.852 410.305 Q179.19 408.198 179.19 404.587 Q179.19 400.976 176.852 398.869 Q174.514 396.763 170.51 396.763 Q168.635 396.763 166.76 397.18 Q164.908 397.596 162.964 398.476 L162.964 381.115 Z" fill="#000000" fill-rule="nonzero" fill-opacity="1" /><path clip-path="url(#clip180)" d="M29.7248 902.587 L35.1993 902.587 Q33.8307 905.07 33.1623 907.584 Q32.4621 910.067 32.4621 912.613 Q32.4621 918.31 36.0905 921.461 Q39.6872 924.612 46.212 924.612 Q52.7369 924.612 56.3653 921.461 Q59.9619 918.31 59.9619 912.613 Q59.9619 910.067 59.2935 907.584 Q58.5933 905.07 57.2247 902.587 L62.6355 902.587 Q63.7814 905.038 64.3543 907.68 Q64.9272 910.29 64.9272 913.25 Q64.9272 921.302 59.8664 926.045 Q54.8057 930.787 46.212 930.787 Q37.491 930.787 32.4939 926.013 Q27.4968 921.207 27.4968 912.868 Q27.4968 910.162 28.0697 907.584 Q28.6108 905.006 29.7248 902.587 Z" fill="#000000" fill-rule="nonzero" fill-opacity="1" /><path clip-path="url(#clip180)" d="M14.5426 878.334 Q21.8632 882.599 29.0246 884.668 Q36.186 886.736 43.5384 886.736 Q50.8908 886.736 58.1159 884.668 Q65.3091 882.567 72.5979 878.334 L72.5979 883.426 Q65.1182 888.201 57.8931 890.588 Q50.668 892.943 43.5384 892.943 Q36.4406 892.943 29.2474 890.588 Q22.0542 888.232 14.5426 883.426 L14.5426 878.334 Z" fill="#000000" fill-rule="nonzero" fill-opacity="1" /><path clip-path="url(#clip180)" d="M28.3562 837.339 L45.7028 850.229 L64.0042 836.67 L64.0042 843.577 L49.9996 853.953 L64.0042 864.329 L64.0042 871.236 L45.3526 857.391 L28.3562 870.058 L28.3562 863.151 L41.0558 853.698 L28.3562 844.245 L28.3562 837.339 Z" fill="#000000" fill-rule="nonzero" fill-opacity="1" /><path clip-path="url(#clip180)" d="M14.5426 829.318 L14.5426 824.225 Q22.0542 819.451 29.2474 817.096 Q36.4406 814.708 43.5384 814.708 Q50.668 814.708 57.8931 817.096 Q65.1182 819.451 72.5979 824.225 L72.5979 829.318 Q65.3091 825.085 58.1159 823.016 Q50.8908 820.915 43.5384 820.915 Q36.186 820.915 29.0246 823.016 Q21.8632 825.085 14.5426 829.318 Z" fill="#000000" fill-rule="nonzero" fill-opacity="1" /><path clip-path="url(#clip180)" d="M920.555 20.1573 L909.455 50.2555 L931.695 50.2555 L920.555 20.1573 M915.937 12.096 L925.213 12.096 L948.263 72.576 L939.756 72.576 L934.247 57.061 L906.984 57.061 L901.475 72.576 L892.847 72.576 L915.937 12.096 Z" fill="#000000" fill-rule="nonzero" fill-opacity="1" /><path clip-path="url(#clip180)" d="M985.167 34.0924 L985.167 9.54393 L992.621 9.54393 L992.621 72.576 L985.167 72.576 L985.167 65.7705 Q982.817 69.8214 979.212 71.8063 Q975.647 73.7508 970.624 73.7508 Q962.401 73.7508 957.216 67.1883 Q952.071 60.6258 952.071 49.9314 Q952.071 39.2371 957.216 32.6746 Q962.401 26.1121 970.624 26.1121 Q975.647 26.1121 979.212 28.0971 Q982.817 30.0415 985.167 34.0924 M959.768 49.9314 Q959.768 58.1548 963.13 62.8538 Q966.533 67.5124 972.447 67.5124 Q978.361 67.5124 981.764 62.8538 Q985.167 58.1548 985.167 49.9314 Q985.167 41.7081 981.764 37.0496 Q978.361 32.3505 972.447 32.3505 Q966.533 32.3505 963.13 37.0496 Q959.768 41.7081 959.768 49.9314 Z" fill="#000000" fill-rule="nonzero" fill-opacity="1" /><path clip-path="url(#clip180)" d="M1028.59 49.7694 Q1019.56 49.7694 1016.08 51.8354 Q1012.59 53.9013 1012.59 58.8839 Q1012.59 62.8538 1015.18 65.2034 Q1017.82 67.5124 1022.31 67.5124 Q1028.51 67.5124 1032.24 63.1374 Q1036.01 58.7219 1036.01 51.4303 L1036.01 49.7694 L1028.59 49.7694 M1043.46 46.6907 L1043.46 72.576 L1036.01 72.576 L1036.01 65.6895 Q1033.45 69.8214 1029.65 71.8063 Q1025.84 73.7508 1020.33 73.7508 Q1013.36 73.7508 1009.23 69.8619 Q1005.14 65.9325 1005.14 59.3701 Q1005.14 51.7138 1010.24 47.825 Q1015.39 43.9361 1025.55 43.9361 L1036.01 43.9361 L1036.01 43.2069 Q1036.01 38.0623 1032.6 35.2672 Q1029.24 32.4315 1023.12 32.4315 Q1019.23 32.4315 1015.55 33.3632 Q1011.86 34.295 1008.46 36.1584 L1008.46 29.2718 Q1012.55 27.692 1016.4 26.9223 Q1020.25 26.1121 1023.89 26.1121 Q1033.74 26.1121 1038.6 31.2163 Q1043.46 36.3204 1043.46 46.6907 Z" fill="#000000" fill-rule="nonzero" fill-opacity="1" /><path clip-path="url(#clip180)" d="M1094.14 35.9153 Q1096.93 30.8922 1100.82 28.5022 Q1104.71 26.1121 1109.98 26.1121 Q1117.06 26.1121 1120.91 31.0947 Q1124.76 36.0368 1124.76 45.1919 L1124.76 72.576 L1117.27 72.576 L1117.27 45.4349 Q1117.27 38.913 1114.96 35.7533 Q1112.65 32.5936 1107.91 32.5936 Q1102.12 32.5936 1098.75 36.4419 Q1095.39 40.2903 1095.39 46.9338 L1095.39 72.576 L1087.9 72.576 L1087.9 45.4349 Q1087.9 38.8725 1085.59 35.7533 Q1083.28 32.5936 1078.46 32.5936 Q1072.75 32.5936 1069.39 36.4824 Q1066.02 40.3308 1066.02 46.9338 L1066.02 72.576 L1058.53 72.576 L1058.53 27.2059 L1066.02 27.2059 L1066.02 34.2544 Q1068.57 30.082 1072.14 28.0971 Q1075.7 26.1121 1080.61 26.1121 Q1085.55 26.1121 1088.99 28.6237 Q1092.48 31.1352 1094.14 35.9153 Z" fill="#000000" fill-rule="nonzero" fill-opacity="1" /><path clip-path="url(#clip180)" d="M1167.13 12.096 L1199.26 12.096 L1199.26 18.9825 L1174.63 18.9825 L1174.63 33.8088 Q1176.41 33.2012 1178.19 32.9176 Q1179.97 32.5936 1181.76 32.5936 Q1191.88 32.5936 1197.8 38.1433 Q1203.71 43.6931 1203.71 53.1722 Q1203.71 62.9348 1197.64 68.3631 Q1191.56 73.7508 1180.5 73.7508 Q1176.69 73.7508 1172.72 73.1026 Q1168.79 72.4545 1164.58 71.1582 L1164.58 62.9348 Q1168.23 64.9198 1172.12 65.892 Q1176 66.8642 1180.34 66.8642 Q1187.35 66.8642 1191.44 63.1779 Q1195.53 59.4916 1195.53 53.1722 Q1195.53 46.8528 1191.44 43.1664 Q1187.35 39.4801 1180.34 39.4801 Q1177.06 39.4801 1173.78 40.2093 Q1170.54 40.9384 1167.13 42.4778 L1167.13 12.096 Z" fill="#000000" fill-rule="nonzero" fill-opacity="1" /><path clip-path="url(#clip180)" d="M1237.34 17.4837 Q1231.02 17.4837 1227.82 23.7221 Q1224.66 29.92 1224.66 42.3968 Q1224.66 54.833 1227.82 61.0714 Q1231.02 67.2693 1237.34 67.2693 Q1243.7 67.2693 1246.86 61.0714 Q1250.06 54.833 1250.06 42.3968 Q1250.06 29.92 1246.86 23.7221 Q1243.7 17.4837 1237.34 17.4837 M1237.34 11.0023 Q1247.5 11.0023 1252.85 19.0636 Q1258.24 27.0843 1258.24 42.3968 Q1258.24 57.6687 1252.85 65.73 Q1247.5 73.7508 1237.34 73.7508 Q1227.17 73.7508 1221.78 65.73 Q1216.43 57.6687 1216.43 42.3968 Q1216.43 27.0843 1221.78 19.0636 Q1227.17 11.0023 1237.34 11.0023 Z" fill="#000000" fill-rule="nonzero" fill-opacity="1" /><path clip-path="url(#clip180)" d="M1297.94 27.2059 L1305.39 27.2059 L1305.39 72.576 L1297.94 72.576 L1297.94 27.2059 M1297.94 9.54393 L1305.39 9.54393 L1305.39 18.9825 L1297.94 18.9825 L1297.94 9.54393 Z" fill="#000000" fill-rule="nonzero" fill-opacity="1" /><path clip-path="url(#clip180)" d="M1328.36 14.324 L1328.36 27.2059 L1343.71 27.2059 L1343.71 32.9987 L1328.36 32.9987 L1328.36 57.6282 Q1328.36 63.1779 1329.86 64.7578 Q1331.4 66.3376 1336.06 66.3376 L1343.71 66.3376 L1343.71 72.576 L1336.06 72.576 Q1327.43 72.576 1324.15 69.3758 Q1320.87 66.1351 1320.87 57.6282 L1320.87 32.9987 L1315.4 32.9987 L1315.4 27.2059 L1320.87 27.2059 L1320.87 14.324 L1328.36 14.324 Z" fill="#000000" fill-rule="nonzero" fill-opacity="1" /><path clip-path="url(#clip180)" d="M1392.32 48.0275 L1392.32 51.6733 L1358.05 51.6733 Q1358.54 59.3701 1362.67 63.421 Q1366.84 67.4314 1374.26 67.4314 Q1378.55 67.4314 1382.56 66.3781 Q1386.61 65.3249 1390.58 63.2184 L1390.58 70.267 Q1386.57 71.9684 1382.36 72.8596 Q1378.15 73.7508 1373.81 73.7508 Q1362.95 73.7508 1356.59 67.4314 Q1350.27 61.1119 1350.27 50.3365 Q1350.27 39.1965 1356.27 32.6746 Q1362.31 26.1121 1372.51 26.1121 Q1381.67 26.1121 1386.98 32.0264 Q1392.32 37.9003 1392.32 48.0275 M1384.87 45.84 Q1384.79 39.7232 1381.43 36.0774 Q1378.1 32.4315 1372.6 32.4315 Q1366.36 32.4315 1362.59 35.9558 Q1358.86 39.4801 1358.3 45.8805 L1384.87 45.84 Z" fill="#000000" fill-rule="nonzero" fill-opacity="1" /><path clip-path="url(#clip180)" d="M1430.85 34.1734 Q1429.59 33.4443 1428.09 33.1202 Q1426.63 32.7556 1424.85 32.7556 Q1418.53 32.7556 1415.13 36.8875 Q1411.77 40.9789 1411.77 48.6757 L1411.77 72.576 L1404.27 72.576 L1404.27 27.2059 L1411.77 27.2059 L1411.77 34.2544 Q1414.12 30.1225 1417.88 28.1376 Q1421.65 26.1121 1427.04 26.1121 Q1427.81 26.1121 1428.74 26.2337 Q1429.67 26.3147 1430.81 26.5172 L1430.85 34.1734 Z" fill="#000000" fill-rule="nonzero" fill-opacity="1" /><path clip-path="url(#clip180)" d="M1459.28 49.7694 Q1450.25 49.7694 1446.77 51.8354 Q1443.28 53.9013 1443.28 58.8839 Q1443.28 62.8538 1445.88 65.2034 Q1448.51 67.5124 1453.01 67.5124 Q1459.2 67.5124 1462.93 63.1374 Q1466.7 58.7219 1466.7 51.4303 L1466.7 49.7694 L1459.28 49.7694 M1474.15 46.6907 L1474.15 72.576 L1466.7 72.576 L1466.7 65.6895 Q1464.15 69.8214 1460.34 71.8063 Q1456.53 73.7508 1451.02 73.7508 Q1444.05 73.7508 1439.92 69.8619 Q1435.83 65.9325 1435.83 59.3701 Q1435.83 51.7138 1440.93 47.825 Q1446.08 43.9361 1456.25 43.9361 L1466.7 43.9361 L1466.7 43.2069 Q1466.7 38.0623 1463.3 35.2672 Q1459.93 32.4315 1453.82 32.4315 Q1449.93 32.4315 1446.24 33.3632 Q1442.55 34.295 1439.15 36.1584 L1439.15 29.2718 Q1443.24 27.692 1447.09 26.9223 Q1450.94 26.1121 1454.59 26.1121 Q1464.43 26.1121 1469.29 31.2163 Q1474.15 36.3204 1474.15 46.6907 Z" fill="#000000" fill-rule="nonzero" fill-opacity="1" /><path clip-path="url(#clip180)" d="M1496.88 14.324 L1496.88 27.2059 L1512.23 27.2059 L1512.23 32.9987 L1496.88 32.9987 L1496.88 57.6282 Q1496.88 63.1779 1498.38 64.7578 Q1499.92 66.3376 1504.57 66.3376 L1512.23 66.3376 L1512.23 72.576 L1504.57 72.576 Q1495.95 72.576 1492.66 69.3758 Q1489.38 66.1351 1489.38 57.6282 L1489.38 32.9987 L1483.91 32.9987 L1483.91 27.2059 L1489.38 27.2059 L1489.38 14.324 L1496.88 14.324 Z" fill="#000000" fill-rule="nonzero" fill-opacity="1" /><path clip-path="url(#clip180)" d="M1522.03 27.2059 L1529.49 27.2059 L1529.49 72.576 L1522.03 72.576 L1522.03 27.2059 M1522.03 9.54393 L1529.49 9.54393 L1529.49 18.9825 L1522.03 18.9825 L1522.03 9.54393 Z" fill="#000000" fill-rule="nonzero" fill-opacity="1" /><path clip-path="url(#clip180)" d="M1562.66 32.4315 Q1556.67 32.4315 1553.18 37.1306 Q1549.7 41.7891 1549.7 49.9314 Q1549.7 58.0738 1553.14 62.7728 Q1556.63 67.4314 1562.66 67.4314 Q1568.62 67.4314 1572.1 62.7323 Q1575.59 58.0333 1575.59 49.9314 Q1575.59 41.8701 1572.1 37.1711 Q1568.62 32.4315 1562.66 32.4315 M1562.66 26.1121 Q1572.39 26.1121 1577.94 32.4315 Q1583.49 38.7509 1583.49 49.9314 Q1583.49 61.0714 1577.94 67.4314 Q1572.39 73.7508 1562.66 73.7508 Q1552.9 73.7508 1547.35 67.4314 Q1541.84 61.0714 1541.84 49.9314 Q1541.84 38.7509 1547.35 32.4315 Q1552.9 26.1121 1562.66 26.1121 Z" fill="#000000" fill-rule="nonzero" fill-opacity="1" /><path clip-path="url(#clip180)" d="M1633.55 45.1919 L1633.55 72.576 L1626.1 72.576 L1626.1 45.4349 Q1626.1 38.994 1623.59 35.7938 Q1621.08 32.5936 1616.05 32.5936 Q1610.02 32.5936 1606.54 36.4419 Q1603.05 40.2903 1603.05 46.9338 L1603.05 72.576 L1595.56 72.576 L1595.56 27.2059 L1603.05 27.2059 L1603.05 34.2544 Q1605.72 30.163 1609.33 28.1376 Q1612.98 26.1121 1617.72 26.1121 Q1625.53 26.1121 1629.54 30.9732 Q1633.55 35.7938 1633.55 45.1919 Z" fill="#000000" fill-rule="nonzero" fill-opacity="1" /><path clip-path="url(#clip180)" d="M1677.34 28.5427 L1677.34 35.5912 Q1674.19 33.9709 1670.78 33.1607 Q1667.38 32.3505 1663.73 32.3505 Q1658.18 32.3505 1655.39 34.0519 Q1652.63 35.7533 1652.63 39.156 Q1652.63 41.7486 1654.62 43.2475 Q1656.6 44.7058 1662.6 46.0426 L1665.15 46.6097 Q1673.09 48.3111 1676.41 51.4303 Q1679.78 54.509 1679.78 60.0587 Q1679.78 66.3781 1674.75 70.0644 Q1669.77 73.7508 1661.02 73.7508 Q1657.37 73.7508 1653.4 73.0216 Q1649.47 72.3329 1645.1 70.9151 L1645.1 63.2184 Q1649.23 65.3654 1653.24 66.4591 Q1657.25 67.5124 1661.18 67.5124 Q1666.45 67.5124 1669.28 65.73 Q1672.12 63.9071 1672.12 60.6258 Q1672.12 57.5877 1670.05 55.9673 Q1668.03 54.3469 1661.1 52.8481 L1658.51 52.2405 Q1651.58 50.7821 1648.5 47.7845 Q1645.42 44.7463 1645.42 39.4801 Q1645.42 33.0797 1649.96 29.5959 Q1654.5 26.1121 1662.84 26.1121 Q1666.97 26.1121 1670.62 26.7198 Q1674.27 27.3274 1677.34 28.5427 Z" fill="#000000" fill-rule="nonzero" fill-opacity="1" /><polyline clip-path="url(#clip182)" style="stroke:#009af9; stroke-linecap:round; stroke-linejoin:round; stroke-width:4; stroke-opacity:1; fill:none" points="280.231,1390 290.342,1385.16 300.454,1379.55 310.565,1373.11 320.676,1365.73 330.788,1357.35 340.899,1347.9 351.011,1337.31 361.122,1325.53 371.233,1312.5 381.345,1298.21 391.456,1282.63 401.567,1265.79 411.679,1247.7 421.79,1228.43 431.901,1208.06 442.013,1186.7 452.124,1164.48 462.235,1141.55 472.347,1118.12 482.458,1094.37 492.57,1070.52 502.681,1046.82 512.792,1023.49 522.904,1000.78 533.015,978.915 543.126,958.106 553.238,938.551 563.349,920.412 573.46,903.818 583.572,888.855 593.683,875.562 603.794,863.926 613.906,853.883 624.017,845.313 634.129,838.044 644.24,831.855 654.351,826.48 664.463,821.616 674.574,816.929 684.685,812.066 694.797,806.668 704.908,800.377 715.019,792.852 725.131,783.782 735.242,772.897 745.353,759.977 755.465,744.869 765.576,727.488 775.688,707.83 785.799,685.971 795.91,662.074 806.022,636.385 816.133,609.228 826.244,581.005 836.356,552.18 846.467,523.274 856.578,494.847 866.69,467.488 876.801,441.795 886.912,418.362 897.024,397.761 907.135,380.524 917.247,367.134 927.358,358.004 937.469,353.472 947.581,353.789 957.692,359.111 967.803,369.498 977.915,384.913 988.026,405.223 998.137,430.205 1008.25,459.552 1018.36,492.883 1028.47,529.756 1038.58,569.676 1048.69,612.117 1058.81,656.525 1068.92,702.34 1079.03,749.005 1089.14,795.982 1099.25,842.757 1109.36,888.854 1119.47,933.842 1129.59,977.337 1139.7,1019.01 1149.81,1058.59 1159.92,1095.85 1170.03,1130.64 1180.14,1162.83 1190.25,1192.37 1200.36,1219.22 1210.48,1243.4 1220.59,1264.95 1230.7,1283.94 1240.81,1300.45 1250.92,1314.58 1261.03,1326.43 1271.14,1336.11 1281.26,1343.74 1291.37,1349.41 1301.48,1353.22 1311.59,1355.26 1321.7,1355.61 1331.81,1354.34 1341.92,1351.52 1352.03,1347.2 1362.15,1341.43 1372.26,1334.26 1382.37,1325.75 1392.48,1315.94 1402.59,1304.9 1412.7,1292.68 1422.81,1279.37 1432.93,1265.05 1443.04,1249.84 1453.15,1233.84 1463.26,1217.2 1473.37,1200.06 1483.48,1182.6 1493.59,1164.99 1503.71,1147.42 1513.82,1130.09 1523.93,1113.2 1534.04,1096.94 1544.15,1081.51 1554.26,1067.08 1564.37,1053.82 1574.48,1041.86 1584.6,1031.33 1594.71,1022.31 1604.82,1014.84 1614.93,1008.94 1625.04,1004.58 1635.15,1001.7 1645.26,1000.19 1655.38,999.932 1665.49,1000.75 1675.6,1002.44 1685.71,1004.79 1695.82,1007.57 1705.93,1010.54 1716.04,1013.45 1726.16,1016.07 1736.27,1018.19 1746.38,1019.6 1756.49,1020.14 1766.6,1019.66 1776.71,1018.09 1786.82,1015.36 1796.93,1011.46 1807.05,1006.45 1817.16,1000.41 1827.27,993.461 1837.38,985.785 1847.49,977.587 1857.6,969.101 1867.71,960.589 1877.83,952.322 1887.94,944.582 1898.05,937.647 1908.16,931.787 1918.27,927.251 1928.38,924.267 1938.49,923.028 1948.6,923.692 1958.72,926.376 1968.83,931.151 1978.94,938.045 1989.05,947.041 1999.16,958.076 2009.27,971.05 2019.38,985.82 2029.5,1002.22 2039.61,1020.04 2049.72,1039.06 2059.83,1059.06 2069.94,1079.78 2080.05,1100.98 2090.16,1122.41 2100.28,1143.85 2110.39,1165.08 2120.5,1185.89 2130.61,1206.11 2140.72,1225.57 2150.83,1244.16 2160.94,1261.75 2171.05,1278.28 2181.17,1293.69 2191.28,1307.94 2201.39,1321.02 2211.5,1332.95 2221.61,1343.75 2231.72,1353.45 2241.83,1362.11 2251.95,1369.78 2262.06,1376.54 2272.17,1382.45 2282.28,1387.59 2292.39,1392.02 "/>
<polyline clip-path="url(#clip182)" style="stroke:#ff0000; stroke-linecap:round; stroke-linejoin:round; stroke-width:4; stroke-opacity:1; fill:none" points="280.231,1387.39 290.342,1382.04 300.454,1375.84 310.565,1368.7 320.676,1360.54 330.788,1351.28 340.899,1340.82 351.011,1329.11 361.122,1316.07 371.233,1301.67 381.345,1285.87 391.456,1268.65 401.567,1250.04 411.679,1230.07 421.79,1208.8 431.901,1186.33 442.013,1162.79 452.124,1138.32 462.235,1113.13 472.347,1087.4 482.458,1061.39 492.57,1035.36 502.681,1009.57 512.792,984.302 522.904,959.852 533.015,936.498 543.126,914.509 553.238,894.137 563.349,875.603 573.46,859.094 583.572,844.757 593.683,832.69 603.794,822.939 613.906,815.497 624.017,810.3 634.129,807.227 644.24,806.106 654.351,806.713 664.463,808.783 674.574,812.013 684.685,816.071 694.797,820.612 704.908,825.278 715.019,829.721 725.131,833.604 735.242,836.62 745.353,838.497 755.465,839.009 765.576,837.986 775.688,835.317 785.799,830.957 795.91,824.927 806.022,817.319 816.133,808.287 826.244,798.048 836.356,786.876 846.467,775.09 856.578,763.05 866.69,751.141 876.801,739.766 886.912,729.33 897.024,720.232 907.135,712.85 917.247,707.529 927.358,704.578 937.469,704.251 947.581,706.748 957.692,712.208 967.803,720.705 977.915,732.246 988.026,746.775 998.137,764.175 1008.25,784.269 1018.36,806.832 1028.47,831.595 1038.58,858.252 1048.69,886.472 1058.81,915.907 1068.92,946.202 1079.03,977 1089.14,1007.96 1099.25,1038.74 1109.36,1069.04 1119.47,1098.57 1129.59,1127.1 1139.7,1154.39 1149.81,1180.27 1159.92,1204.59 1170.03,1227.24 1180.14,1248.13 1190.25,1267.22 1200.36,1284.46 1210.48,1299.87 1220.59,1313.44 1230.7,1325.2 1240.81,1335.2 1250.92,1343.46 1261.03,1350.04 1271.14,1354.97 1281.26,1358.29 1291.37,1360.05 1301.48,1360.27 1311.59,1358.98 1321.7,1356.19 1331.81,1351.91 1341.92,1346.16 1352.03,1338.94 1362.15,1330.26 1372.26,1320.13 1382.37,1308.56 1392.48,1295.59 1402.59,1281.25 1412.7,1265.58 1422.81,1248.67 1432.93,1230.6 1443.04,1211.47 1453.15,1191.43 1463.26,1170.63 1473.37,1149.23 1483.48,1127.44 1493.59,1105.47 1503.71,1083.53 1513.82,1061.87 1523.93,1040.72 1534.04,1020.31 1544.15,1000.86 1554.26,982.591 1564.37,965.681 1574.48,950.292 1584.6,936.546 1594.71,924.527 1604.82,914.277 1614.93,905.789 1625.04,899.008 1635.15,893.832 1645.26,890.11 1655.38,887.65 1665.49,886.217 1675.6,885.546 1685.71,885.347 1695.82,885.313 1705.93,885.128 1716.04,884.483 1726.16,883.081 1736.27,880.649 1746.38,876.95 1756.49,871.789 1766.6,865.022 1776.71,856.565 1786.82,846.396 1796.93,834.557 1807.05,821.158 1817.16,806.376 1827.27,790.447 1837.38,773.666 1847.49,756.375 1857.6,738.956 1867.71,721.824 1877.83,705.407 1887.94,690.144 1898.05,676.463 1908.16,664.776 1918.27,655.462 1928.38,648.861 1938.49,645.26 1948.6,644.889 1958.72,647.909 1968.83,654.418 1978.94,664.438 1989.05,677.923 1999.16,694.758 2009.27,714.766 2019.38,737.71 2029.5,763.304 2039.61,791.221 2049.72,821.099 2059.83,852.558 2069.94,885.204 2080.05,918.641 2090.16,952.479 2100.28,986.345 2110.39,1019.89 2120.5,1052.79 2130.61,1084.76 2140.72,1115.55 2150.83,1144.95 2160.94,1172.79 2171.05,1198.94 2181.17,1223.33 2191.28,1245.88 2201.39,1266.59 2211.5,1285.47 2221.61,1302.56 2231.72,1317.92 2241.83,1331.62 2251.95,1343.77 2262.06,1354.47 2272.17,1363.83 2282.28,1371.96 2292.39,1378.98 "/>
<path clip-path="url(#clip180)" d="M854.032 278.992 L1718.59 278.992 L1718.59 123.472 L854.032 123.472  Z" fill="#ffffff" fill-rule="evenodd" fill-opacity="1"/>
<polyline clip-path="url(#clip180)" style="stroke:#000000; stroke-linecap:round; stroke-linejoin:round; stroke-width:4; stroke-opacity:1; fill:none" points="854.032,278.992 1718.59,278.992 1718.59,123.472 854.032,123.472 854.032,278.992 "/>
<polyline clip-path="url(#clip180)" style="stroke:#009af9; stroke-linecap:round; stroke-linejoin:round; stroke-width:4; stroke-opacity:1; fill:none" points="877.731,175.312 1019.92,175.312 "/>
<path clip-path="url(#clip180)" d="M1060.01 176.389 Q1061.52 176.898 1062.93 178.564 Q1064.36 180.231 1065.8 183.148 L1070.54 192.592 L1065.52 192.592 L1061.1 183.726 Q1059.39 180.254 1057.77 179.12 Q1056.17 177.986 1053.39 177.986 L1048.3 177.986 L1048.3 192.592 L1043.62 192.592 L1043.62 158.032 L1054.18 158.032 Q1060.1 158.032 1063.02 160.509 Q1065.94 162.986 1065.94 167.986 Q1065.94 171.25 1064.41 173.402 Q1062.9 175.555 1060.01 176.389 M1048.3 161.875 L1048.3 174.143 L1054.18 174.143 Q1057.56 174.143 1059.27 172.592 Q1061.01 171.018 1061.01 167.986 Q1061.01 164.953 1059.27 163.426 Q1057.56 161.875 1054.18 161.875 L1048.3 161.875 Z" fill="#000000" fill-rule="nonzero" fill-opacity="1" /><path clip-path="url(#clip180)" d="M1096.42 178.564 L1096.42 180.648 L1076.84 180.648 Q1077.12 185.046 1079.48 187.361 Q1081.86 189.652 1086.1 189.652 Q1088.55 189.652 1090.84 189.05 Q1093.16 188.449 1095.43 187.245 L1095.43 191.273 Q1093.14 192.245 1090.73 192.754 Q1088.32 193.263 1085.84 193.263 Q1079.64 193.263 1076.01 189.652 Q1072.39 186.041 1072.39 179.884 Q1072.39 173.518 1075.82 169.791 Q1079.27 166.041 1085.1 166.041 Q1090.33 166.041 1093.37 169.421 Q1096.42 172.777 1096.42 178.564 M1092.16 177.314 Q1092.12 173.819 1090.2 171.736 Q1088.3 169.652 1085.15 169.652 Q1081.58 169.652 1079.43 171.666 Q1077.3 173.68 1076.98 177.338 L1092.16 177.314 Z" fill="#000000" fill-rule="nonzero" fill-opacity="1" /><path clip-path="url(#clip180)" d="M1122.07 167.662 L1122.07 171.643 Q1120.27 170.648 1118.44 170.162 Q1116.63 169.652 1114.78 169.652 Q1110.64 169.652 1108.34 172.291 Q1106.05 174.907 1106.05 179.652 Q1106.05 184.398 1108.34 187.037 Q1110.64 189.652 1114.78 189.652 Q1116.63 189.652 1118.44 189.166 Q1120.27 188.657 1122.07 187.662 L1122.07 191.597 Q1120.29 192.43 1118.37 192.847 Q1116.47 193.263 1114.32 193.263 Q1108.46 193.263 1105.01 189.583 Q1101.56 185.902 1101.56 179.652 Q1101.56 173.31 1105.03 169.676 Q1108.53 166.041 1114.59 166.041 Q1116.56 166.041 1118.44 166.458 Q1120.31 166.852 1122.07 167.662 Z" fill="#000000" fill-rule="nonzero" fill-opacity="1" /><path clip-path="url(#clip180)" d="M1139.52 169.652 Q1136.1 169.652 1134.11 172.338 Q1132.12 175 1132.12 179.652 Q1132.12 184.305 1134.08 186.99 Q1136.08 189.652 1139.52 189.652 Q1142.93 189.652 1144.92 186.967 Q1146.91 184.282 1146.91 179.652 Q1146.91 175.046 1144.92 172.361 Q1142.93 169.652 1139.52 169.652 M1139.52 166.041 Q1145.08 166.041 1148.25 169.652 Q1151.42 173.264 1151.42 179.652 Q1151.42 186.018 1148.25 189.652 Q1145.08 193.263 1139.52 193.263 Q1133.95 193.263 1130.77 189.652 Q1127.63 186.018 1127.63 179.652 Q1127.63 173.264 1130.77 169.652 Q1133.95 166.041 1139.52 166.041 Z" fill="#000000" fill-rule="nonzero" fill-opacity="1" /><path clip-path="url(#clip180)" d="M1180.03 176.944 L1180.03 192.592 L1175.77 192.592 L1175.77 177.083 Q1175.77 173.402 1174.34 171.574 Q1172.9 169.745 1170.03 169.745 Q1166.58 169.745 1164.59 171.944 Q1162.6 174.143 1162.6 177.939 L1162.6 192.592 L1158.32 192.592 L1158.32 166.666 L1162.6 166.666 L1162.6 170.694 Q1164.13 168.356 1166.19 167.199 Q1168.27 166.041 1170.98 166.041 Q1175.45 166.041 1177.74 168.819 Q1180.03 171.574 1180.03 176.944 Z" fill="#000000" fill-rule="nonzero" fill-opacity="1" /><path clip-path="url(#clip180)" d="M1205.06 167.43 L1205.06 171.458 Q1203.25 170.532 1201.31 170.069 Q1199.36 169.606 1197.28 169.606 Q1194.11 169.606 1192.51 170.578 Q1190.94 171.551 1190.94 173.495 Q1190.94 174.976 1192.07 175.833 Q1193.2 176.666 1196.63 177.43 L1198.09 177.754 Q1202.63 178.726 1204.52 180.509 Q1206.45 182.268 1206.45 185.439 Q1206.45 189.05 1203.57 191.157 Q1200.73 193.263 1195.73 193.263 Q1193.64 193.263 1191.38 192.847 Q1189.13 192.453 1186.63 191.643 L1186.63 187.245 Q1188.99 188.472 1191.28 189.097 Q1193.57 189.699 1195.82 189.699 Q1198.83 189.699 1200.45 188.68 Q1202.07 187.638 1202.07 185.763 Q1202.07 184.027 1200.89 183.101 Q1199.73 182.176 1195.77 181.319 L1194.29 180.972 Q1190.33 180.138 1188.57 178.426 Q1186.82 176.689 1186.82 173.68 Q1186.82 170.023 1189.41 168.032 Q1192 166.041 1196.77 166.041 Q1199.13 166.041 1201.21 166.389 Q1203.3 166.736 1205.06 167.43 Z" fill="#000000" fill-rule="nonzero" fill-opacity="1" /><path clip-path="url(#clip180)" d="M1217.44 159.305 L1217.44 166.666 L1226.21 166.666 L1226.21 169.977 L1217.44 169.977 L1217.44 184.051 Q1217.44 187.222 1218.3 188.125 Q1219.18 189.027 1221.84 189.027 L1226.21 189.027 L1226.21 192.592 L1221.84 192.592 Q1216.91 192.592 1215.03 190.763 Q1213.16 188.912 1213.16 184.051 L1213.16 169.977 L1210.03 169.977 L1210.03 166.666 L1213.16 166.666 L1213.16 159.305 L1217.44 159.305 Z" fill="#000000" fill-rule="nonzero" fill-opacity="1" /><path clip-path="url(#clip180)" d="M1246.84 170.648 Q1246.12 170.231 1245.26 170.046 Q1244.43 169.838 1243.41 169.838 Q1239.8 169.838 1237.86 172.199 Q1235.94 174.537 1235.94 178.935 L1235.94 192.592 L1231.65 192.592 L1231.65 166.666 L1235.94 166.666 L1235.94 170.694 Q1237.28 168.333 1239.43 167.199 Q1241.58 166.041 1244.66 166.041 Q1245.1 166.041 1245.63 166.111 Q1246.17 166.157 1246.82 166.273 L1246.84 170.648 Z" fill="#000000" fill-rule="nonzero" fill-opacity="1" /><path clip-path="url(#clip180)" d="M1250.87 182.361 L1250.87 166.666 L1255.13 166.666 L1255.13 182.199 Q1255.13 185.879 1256.56 187.731 Q1258 189.56 1260.87 189.56 Q1264.32 189.56 1266.31 187.361 Q1268.32 185.162 1268.32 181.365 L1268.32 166.666 L1272.58 166.666 L1272.58 192.592 L1268.32 192.592 L1268.32 188.611 Q1266.77 190.972 1264.71 192.129 Q1262.67 193.263 1259.96 193.263 Q1255.5 193.263 1253.18 190.486 Q1250.87 187.708 1250.87 182.361 M1261.58 166.041 L1261.58 166.041 Z" fill="#000000" fill-rule="nonzero" fill-opacity="1" /><path clip-path="url(#clip180)" d="M1300.01 167.662 L1300.01 171.643 Q1298.2 170.648 1296.38 170.162 Q1294.57 169.652 1292.72 169.652 Q1288.57 169.652 1286.28 172.291 Q1283.99 174.907 1283.99 179.652 Q1283.99 184.398 1286.28 187.037 Q1288.57 189.652 1292.72 189.652 Q1294.57 189.652 1296.38 189.166 Q1298.2 188.657 1300.01 187.662 L1300.01 191.597 Q1298.23 192.43 1296.31 192.847 Q1294.41 193.263 1292.25 193.263 Q1286.4 193.263 1282.95 189.583 Q1279.5 185.902 1279.5 179.652 Q1279.5 173.31 1282.97 169.676 Q1286.47 166.041 1292.53 166.041 Q1294.5 166.041 1296.38 166.458 Q1298.25 166.852 1300.01 167.662 Z" fill="#000000" fill-rule="nonzero" fill-opacity="1" /><path clip-path="url(#clip180)" d="M1311.63 159.305 L1311.63 166.666 L1320.4 166.666 L1320.4 169.977 L1311.63 169.977 L1311.63 184.051 Q1311.63 187.222 1312.49 188.125 Q1313.37 189.027 1316.03 189.027 L1320.4 189.027 L1320.4 192.592 L1316.03 192.592 Q1311.1 192.592 1309.22 190.763 Q1307.35 188.912 1307.35 184.051 L1307.35 169.977 L1304.22 169.977 L1304.22 166.666 L1307.35 166.666 L1307.35 159.305 L1311.63 159.305 Z" fill="#000000" fill-rule="nonzero" fill-opacity="1" /><path clip-path="url(#clip180)" d="M1348.18 178.564 L1348.18 180.648 L1328.6 180.648 Q1328.88 185.046 1331.24 187.361 Q1333.62 189.652 1337.86 189.652 Q1340.31 189.652 1342.6 189.05 Q1344.92 188.449 1347.19 187.245 L1347.19 191.273 Q1344.89 192.245 1342.49 192.754 Q1340.08 193.263 1337.6 193.263 Q1331.4 193.263 1327.76 189.652 Q1324.15 186.041 1324.15 179.884 Q1324.15 173.518 1327.58 169.791 Q1331.03 166.041 1336.86 166.041 Q1342.09 166.041 1345.12 169.421 Q1348.18 172.777 1348.18 178.564 M1343.92 177.314 Q1343.87 173.819 1341.95 171.736 Q1340.06 169.652 1336.91 169.652 Q1333.34 169.652 1331.19 171.666 Q1329.06 173.68 1328.74 177.338 L1343.92 177.314 Z" fill="#000000" fill-rule="nonzero" fill-opacity="1" /><path clip-path="url(#clip180)" d="M1372.23 170.602 L1372.23 156.574 L1376.49 156.574 L1376.49 192.592 L1372.23 192.592 L1372.23 188.703 Q1370.89 191.018 1368.83 192.152 Q1366.79 193.263 1363.92 193.263 Q1359.22 193.263 1356.26 189.513 Q1353.32 185.763 1353.32 179.652 Q1353.32 173.541 1356.26 169.791 Q1359.22 166.041 1363.92 166.041 Q1366.79 166.041 1368.83 167.176 Q1370.89 168.287 1372.23 170.602 M1357.72 179.652 Q1357.72 184.351 1359.64 187.037 Q1361.58 189.699 1364.96 189.699 Q1368.34 189.699 1370.29 187.037 Q1372.23 184.351 1372.23 179.652 Q1372.23 174.953 1370.29 172.291 Q1368.34 169.606 1364.96 169.606 Q1361.58 169.606 1359.64 172.291 Q1357.72 174.953 1357.72 179.652 Z" fill="#000000" fill-rule="nonzero" fill-opacity="1" /><path clip-path="url(#clip180)" d="M1409.43 192.592 L1396.24 158.032 L1401.12 158.032 L1412.07 187.129 L1423.04 158.032 L1427.9 158.032 L1414.73 192.592 L1409.43 192.592 Z" fill="#000000" fill-rule="nonzero" fill-opacity="1" /><path clip-path="url(#clip180)" d="M1451.26 178.564 L1451.26 180.648 L1431.68 180.648 Q1431.95 185.046 1434.31 187.361 Q1436.7 189.652 1440.93 189.652 Q1443.39 189.652 1445.68 189.05 Q1447.99 188.449 1450.26 187.245 L1450.26 191.273 Q1447.97 192.245 1445.56 192.754 Q1443.16 193.263 1440.68 193.263 Q1434.48 193.263 1430.84 189.652 Q1427.23 186.041 1427.23 179.884 Q1427.23 173.518 1430.66 169.791 Q1434.11 166.041 1439.94 166.041 Q1445.17 166.041 1448.2 169.421 Q1451.26 172.777 1451.26 178.564 M1447 177.314 Q1446.95 173.819 1445.03 171.736 Q1443.13 169.652 1439.99 169.652 Q1436.42 169.652 1434.27 171.666 Q1432.14 173.68 1431.81 177.338 L1447 177.314 Z" fill="#000000" fill-rule="nonzero" fill-opacity="1" /><path clip-path="url(#clip180)" d="M1458.25 156.574 L1462.51 156.574 L1462.51 192.592 L1458.25 192.592 L1458.25 156.574 Z" fill="#000000" fill-rule="nonzero" fill-opacity="1" /><path clip-path="url(#clip180)" d="M1481.47 169.652 Q1478.04 169.652 1476.05 172.338 Q1474.06 175 1474.06 179.652 Q1474.06 184.305 1476.03 186.99 Q1478.02 189.652 1481.47 189.652 Q1484.87 189.652 1486.86 186.967 Q1488.85 184.282 1488.85 179.652 Q1488.85 175.046 1486.86 172.361 Q1484.87 169.652 1481.47 169.652 M1481.47 166.041 Q1487.02 166.041 1490.19 169.652 Q1493.36 173.264 1493.36 179.652 Q1493.36 186.018 1490.19 189.652 Q1487.02 193.263 1481.47 193.263 Q1475.89 193.263 1472.72 189.652 Q1469.57 186.018 1469.57 179.652 Q1469.57 173.264 1472.72 169.652 Q1475.89 166.041 1481.47 166.041 Z" fill="#000000" fill-rule="nonzero" fill-opacity="1" /><path clip-path="url(#clip180)" d="M1519.08 167.662 L1519.08 171.643 Q1517.28 170.648 1515.45 170.162 Q1513.64 169.652 1511.79 169.652 Q1507.65 169.652 1505.36 172.291 Q1503.06 174.907 1503.06 179.652 Q1503.06 184.398 1505.36 187.037 Q1507.65 189.652 1511.79 189.652 Q1513.64 189.652 1515.45 189.166 Q1517.28 188.657 1519.08 187.662 L1519.08 191.597 Q1517.3 192.43 1515.38 192.847 Q1513.48 193.263 1511.33 193.263 Q1505.47 193.263 1502.02 189.583 Q1498.57 185.902 1498.57 179.652 Q1498.57 173.31 1502.05 169.676 Q1505.54 166.041 1511.61 166.041 Q1513.57 166.041 1515.45 166.458 Q1517.32 166.852 1519.08 167.662 Z" fill="#000000" fill-rule="nonzero" fill-opacity="1" /><path clip-path="url(#clip180)" d="M1526.49 166.666 L1530.75 166.666 L1530.75 192.592 L1526.49 192.592 L1526.49 166.666 M1526.49 156.574 L1530.75 156.574 L1530.75 161.967 L1526.49 161.967 L1526.49 156.574 Z" fill="#000000" fill-rule="nonzero" fill-opacity="1" /><path clip-path="url(#clip180)" d="M1543.87 159.305 L1543.87 166.666 L1552.65 166.666 L1552.65 169.977 L1543.87 169.977 L1543.87 184.051 Q1543.87 187.222 1544.73 188.125 Q1545.61 189.027 1548.27 189.027 L1552.65 189.027 L1552.65 192.592 L1548.27 192.592 Q1543.34 192.592 1541.47 190.763 Q1539.59 188.912 1539.59 184.051 L1539.59 169.977 L1536.47 169.977 L1536.47 166.666 L1539.59 166.666 L1539.59 159.305 L1543.87 159.305 Z" fill="#000000" fill-rule="nonzero" fill-opacity="1" /><path clip-path="url(#clip180)" d="M1569.04 195 Q1567.23 199.629 1565.52 201.041 Q1563.8 202.453 1560.93 202.453 L1557.53 202.453 L1557.53 198.888 L1560.03 198.888 Q1561.79 198.888 1562.76 198.055 Q1563.73 197.222 1564.92 194.12 L1565.68 192.175 L1555.19 166.666 L1559.71 166.666 L1567.81 186.944 L1575.91 166.666 L1580.42 166.666 L1569.04 195 Z" fill="#000000" fill-rule="nonzero" fill-opacity="1" /><path clip-path="url(#clip180)" d="M1614.5 156.574 L1614.5 160.115 L1610.42 160.115 Q1608.13 160.115 1607.23 161.041 Q1606.35 161.967 1606.35 164.375 L1606.35 166.666 L1613.36 166.666 L1613.36 169.977 L1606.35 169.977 L1606.35 192.592 L1602.07 192.592 L1602.07 169.977 L1597.99 169.977 L1597.99 166.666 L1602.07 166.666 L1602.07 164.861 Q1602.07 160.532 1604.08 158.565 Q1606.1 156.574 1610.47 156.574 L1614.5 156.574 Z" fill="#000000" fill-rule="nonzero" fill-opacity="1" /><path clip-path="url(#clip180)" d="M1618.06 166.666 L1622.32 166.666 L1622.32 192.592 L1618.06 192.592 L1618.06 166.666 M1618.06 156.574 L1622.32 156.574 L1622.32 161.967 L1618.06 161.967 L1618.06 156.574 Z" fill="#000000" fill-rule="nonzero" fill-opacity="1" /><path clip-path="url(#clip180)" d="M1653.41 178.564 L1653.41 180.648 L1633.83 180.648 Q1634.1 185.046 1636.47 187.361 Q1638.85 189.652 1643.09 189.652 Q1645.54 189.652 1647.83 189.05 Q1650.15 188.449 1652.41 187.245 L1652.41 191.273 Q1650.12 192.245 1647.72 192.754 Q1645.31 193.263 1642.83 193.263 Q1636.63 193.263 1632.99 189.652 Q1629.38 186.041 1629.38 179.884 Q1629.38 173.518 1632.81 169.791 Q1636.26 166.041 1642.09 166.041 Q1647.32 166.041 1650.35 169.421 Q1653.41 172.777 1653.41 178.564 M1649.15 177.314 Q1649.1 173.819 1647.18 171.736 Q1645.29 169.652 1642.14 169.652 Q1638.57 169.652 1636.42 171.666 Q1634.29 173.68 1633.97 177.338 L1649.15 177.314 Z" fill="#000000" fill-rule="nonzero" fill-opacity="1" /><path clip-path="url(#clip180)" d="M1660.4 156.574 L1664.66 156.574 L1664.66 192.592 L1660.4 192.592 L1660.4 156.574 Z" fill="#000000" fill-rule="nonzero" fill-opacity="1" /><path clip-path="url(#clip180)" d="M1690.63 170.602 L1690.63 156.574 L1694.89 156.574 L1694.89 192.592 L1690.63 192.592 L1690.63 188.703 Q1689.29 191.018 1687.23 192.152 Q1685.19 193.263 1682.32 193.263 Q1677.62 193.263 1674.66 189.513 Q1671.72 185.763 1671.72 179.652 Q1671.72 173.541 1674.66 169.791 Q1677.62 166.041 1682.32 166.041 Q1685.19 166.041 1687.23 167.176 Q1689.29 168.287 1690.63 170.602 M1676.12 179.652 Q1676.12 184.351 1678.04 187.037 Q1679.98 189.699 1683.36 189.699 Q1686.74 189.699 1688.69 187.037 Q1690.63 184.351 1690.63 179.652 Q1690.63 174.953 1688.69 172.291 Q1686.74 169.606 1683.36 169.606 Q1679.98 169.606 1678.04 172.291 Q1676.12 174.953 1676.12 179.652 Z" fill="#000000" fill-rule="nonzero" fill-opacity="1" /><polyline clip-path="url(#clip180)" style="stroke:#ff0000; stroke-linecap:round; stroke-linejoin:round; stroke-width:4; stroke-opacity:1; fill:none" points="877.731,227.152 1019.92,227.152 "/>
<path clip-path="url(#clip180)" d="M1056.82 244.432 L1043.62 209.872 L1048.51 209.872 L1059.46 238.969 L1070.43 209.872 L1075.29 209.872 L1062.12 244.432 L1056.82 244.432 Z" fill="#000000" fill-rule="nonzero" fill-opacity="1" /><path clip-path="url(#clip180)" d="M1098.64 230.404 L1098.64 232.488 L1079.06 232.488 Q1079.34 236.886 1081.7 239.201 Q1084.08 241.492 1088.32 241.492 Q1090.77 241.492 1093.07 240.89 Q1095.38 240.289 1097.65 239.085 L1097.65 243.113 Q1095.36 244.085 1092.95 244.594 Q1090.54 245.103 1088.07 245.103 Q1081.86 245.103 1078.23 241.492 Q1074.62 237.881 1074.62 231.724 Q1074.62 225.358 1078.04 221.631 Q1081.49 217.881 1087.33 217.881 Q1092.56 217.881 1095.59 221.261 Q1098.64 224.617 1098.64 230.404 M1094.39 229.154 Q1094.34 225.659 1092.42 223.576 Q1090.52 221.492 1087.37 221.492 Q1083.81 221.492 1081.65 223.506 Q1079.52 225.52 1079.2 229.178 L1094.39 229.154 Z" fill="#000000" fill-rule="nonzero" fill-opacity="1" /><path clip-path="url(#clip180)" d="M1105.64 208.414 L1109.89 208.414 L1109.89 244.432 L1105.64 244.432 L1105.64 208.414 Z" fill="#000000" fill-rule="nonzero" fill-opacity="1" /><path clip-path="url(#clip180)" d="M1128.85 221.492 Q1125.43 221.492 1123.44 224.178 Q1121.45 226.84 1121.45 231.492 Q1121.45 236.145 1123.41 238.83 Q1125.4 241.492 1128.85 241.492 Q1132.26 241.492 1134.25 238.807 Q1136.24 236.122 1136.24 231.492 Q1136.24 226.886 1134.25 224.201 Q1132.26 221.492 1128.85 221.492 M1128.85 217.881 Q1134.41 217.881 1137.58 221.492 Q1140.75 225.104 1140.75 231.492 Q1140.75 237.858 1137.58 241.492 Q1134.41 245.103 1128.85 245.103 Q1123.27 245.103 1120.1 241.492 Q1116.95 237.858 1116.95 231.492 Q1116.95 225.104 1120.1 221.492 Q1123.27 217.881 1128.85 217.881 Z" fill="#000000" fill-rule="nonzero" fill-opacity="1" /><path clip-path="url(#clip180)" d="M1166.47 219.502 L1166.47 223.483 Q1164.66 222.488 1162.83 222.002 Q1161.03 221.492 1159.18 221.492 Q1155.03 221.492 1152.74 224.131 Q1150.45 226.747 1150.45 231.492 Q1150.45 236.238 1152.74 238.877 Q1155.03 241.492 1159.18 241.492 Q1161.03 241.492 1162.83 241.006 Q1164.66 240.497 1166.47 239.502 L1166.47 243.437 Q1164.69 244.27 1162.76 244.687 Q1160.87 245.103 1158.71 245.103 Q1152.86 245.103 1149.41 241.423 Q1145.96 237.742 1145.96 231.492 Q1145.96 225.15 1149.43 221.516 Q1152.93 217.881 1158.99 217.881 Q1160.96 217.881 1162.83 218.298 Q1164.71 218.692 1166.47 219.502 Z" fill="#000000" fill-rule="nonzero" fill-opacity="1" /><path clip-path="url(#clip180)" d="M1173.88 218.506 L1178.14 218.506 L1178.14 244.432 L1173.88 244.432 L1173.88 218.506 M1173.88 208.414 L1178.14 208.414 L1178.14 213.807 L1173.88 213.807 L1173.88 208.414 Z" fill="#000000" fill-rule="nonzero" fill-opacity="1" /><path clip-path="url(#clip180)" d="M1191.26 211.145 L1191.26 218.506 L1200.03 218.506 L1200.03 221.817 L1191.26 221.817 L1191.26 235.891 Q1191.26 239.062 1192.12 239.965 Q1193 240.867 1195.66 240.867 L1200.03 240.867 L1200.03 244.432 L1195.66 244.432 Q1190.73 244.432 1188.85 242.603 Q1186.98 240.752 1186.98 235.891 L1186.98 221.817 L1183.85 221.817 L1183.85 218.506 L1186.98 218.506 L1186.98 211.145 L1191.26 211.145 Z" fill="#000000" fill-rule="nonzero" fill-opacity="1" /><path clip-path="url(#clip180)" d="M1216.42 246.84 Q1214.62 251.469 1212.9 252.881 Q1211.19 254.293 1208.32 254.293 L1204.92 254.293 L1204.92 250.728 L1207.42 250.728 Q1209.18 250.728 1210.15 249.895 Q1211.12 249.062 1212.3 245.96 L1213.07 244.015 L1202.58 218.506 L1207.09 218.506 L1215.2 238.784 L1223.3 218.506 L1227.81 218.506 L1216.42 246.84 Z" fill="#000000" fill-rule="nonzero" fill-opacity="1" /><path clip-path="url(#clip180)" d="M1261.88 208.414 L1261.88 211.955 L1257.81 211.955 Q1255.52 211.955 1254.62 212.881 Q1253.74 213.807 1253.74 216.215 L1253.74 218.506 L1260.75 218.506 L1260.75 221.817 L1253.74 221.817 L1253.74 244.432 L1249.45 244.432 L1249.45 221.817 L1245.38 221.817 L1245.38 218.506 L1249.45 218.506 L1249.45 216.701 Q1249.45 212.372 1251.47 210.405 Q1253.48 208.414 1257.86 208.414 L1261.88 208.414 Z" fill="#000000" fill-rule="nonzero" fill-opacity="1" /><path clip-path="url(#clip180)" d="M1265.45 218.506 L1269.71 218.506 L1269.71 244.432 L1265.45 244.432 L1265.45 218.506 M1265.45 208.414 L1269.71 208.414 L1269.71 213.807 L1265.45 213.807 L1265.45 208.414 Z" fill="#000000" fill-rule="nonzero" fill-opacity="1" /><path clip-path="url(#clip180)" d="M1300.8 230.404 L1300.8 232.488 L1281.21 232.488 Q1281.49 236.886 1283.85 239.201 Q1286.24 241.492 1290.47 241.492 Q1292.93 241.492 1295.22 240.89 Q1297.53 240.289 1299.8 239.085 L1299.8 243.113 Q1297.51 244.085 1295.1 244.594 Q1292.69 245.103 1290.22 245.103 Q1284.01 245.103 1280.38 241.492 Q1276.77 237.881 1276.77 231.724 Q1276.77 225.358 1280.19 221.631 Q1283.64 217.881 1289.48 217.881 Q1294.71 217.881 1297.74 221.261 Q1300.8 224.617 1300.8 230.404 M1296.54 229.154 Q1296.49 225.659 1294.57 223.576 Q1292.67 221.492 1289.52 221.492 Q1285.96 221.492 1283.81 223.506 Q1281.68 225.52 1281.35 229.178 L1296.54 229.154 Z" fill="#000000" fill-rule="nonzero" fill-opacity="1" /><path clip-path="url(#clip180)" d="M1307.79 208.414 L1312.05 208.414 L1312.05 244.432 L1307.79 244.432 L1307.79 208.414 Z" fill="#000000" fill-rule="nonzero" fill-opacity="1" /><path clip-path="url(#clip180)" d="M1338.02 222.442 L1338.02 208.414 L1342.28 208.414 L1342.28 244.432 L1338.02 244.432 L1338.02 240.543 Q1336.68 242.858 1334.62 243.992 Q1332.58 245.103 1329.71 245.103 Q1325.01 245.103 1322.05 241.353 Q1319.11 237.603 1319.11 231.492 Q1319.11 225.381 1322.05 221.631 Q1325.01 217.881 1329.71 217.881 Q1332.58 217.881 1334.62 219.016 Q1336.68 220.127 1338.02 222.442 M1323.5 231.492 Q1323.5 236.191 1325.43 238.877 Q1327.37 241.539 1330.75 241.539 Q1334.13 241.539 1336.07 238.877 Q1338.02 236.191 1338.02 231.492 Q1338.02 226.793 1336.07 224.131 Q1334.13 221.446 1330.75 221.446 Q1327.37 221.446 1325.43 224.131 Q1323.5 226.793 1323.5 231.492 Z" fill="#000000" fill-rule="nonzero" fill-opacity="1" /></svg>
